<svg width="72" height="15" viewBox="0 0 72 15" xmlns="http://www.w3.org/2000/svg"><title>on + amazon logo</title><desc>Created with Sketch Beta.</desc><g fill="none" fill-rule="evenodd"><g><g id="Group"><g><g><g><g><g><text font-family="Lato" font-size="13" font-weight="260" fill="#4A4A4A" transform="translate(0 -4)"><tspan x="0" y="13">on</tspan></text><g><path d="M53.014 11.7c-2.902 2.114-7.11 3.242-10.73 3.242-5.08 0-9.65-1.856-13.11-4.944-.27-.243-.027-.574.3-.385 3.732 2.147 8.347 3.438 13.114 3.438 3.215 0 6.752-.656 10.004-2.02.49-.207.902.317.422.67zm1.206-1.365c-.37-.47-2.452-.22-3.387-.112-.284.035-.328-.21-.07-.387 1.657-1.154 4.38-.82 4.696-.434.317.39-.083 3.086-1.642 4.373-.24.198-.467.093-.36-.17.35-.863 1.134-2.8.762-3.27z" fill="#f90"/><path d="M50.9 1.69V.568c0-.17.13-.284.286-.284h5.08c.163 0 .293.116.293.284v.96c-.003.162-.14.372-.383.706L53.544 5.95c.978-.025 2.01.12 2.898.614.2.11.254.275.27.436v1.197c0 .163-.183.354-.374.255-1.563-.81-3.64-.898-5.368.01-.176.094-.36-.095-.36-.26V7.067c0-.182.002-.494.186-.77l3.05-4.325h-2.654c-.163 0-.293-.113-.293-.28zm-18.534 7H30.82c-.147-.012-.264-.12-.275-.26V.586c0-.156.132-.28.298-.28h1.44c.15.005.27.12.28.26v1.026h.03C32.968.603 33.674.14 34.626.14c.968 0 1.572.462 2.007 1.453C37.008.603 37.858.14 38.768.14c.648 0 1.357.265 1.79.858.49.66.39 1.618.39 2.458l-.004 4.95c0 .156-.132.283-.297.283h-1.544c-.154-.012-.278-.134-.278-.285V4.25c0-.332.03-1.157-.044-1.47-.114-.527-.46-.675-.907-.675-.374 0-.765.247-.924.642-.16.396-.145 1.057-.145 1.502v4.155c0 .157-.132.284-.297.284h-1.544c-.156-.012-.278-.134-.278-.285l-.002-4.156c0-.875.145-2.163-.952-2.163-1.11 0-1.068 1.255-1.068 2.162v4.155c0 .157-.132.284-.298.284zM60.933.14c2.294 0 3.535 1.947 3.535 4.423 0 2.392-1.372 4.29-3.535 4.29-2.252 0-3.478-1.948-3.478-4.374 0-2.442 1.24-4.34 3.478-4.34zm.013 1.6c-1.14 0-1.21 1.536-1.21 2.492 0 .958-.016 3.004 1.197 3.004 1.198 0 1.255-1.65 1.255-2.656 0-.662-.03-1.453-.23-2.08-.175-.546-.52-.76-1.012-.76zm6.496 6.95h-1.54c-.154-.012-.278-.134-.278-.285L65.622.562c.013-.144.142-.256.298-.256h1.433c.134.006.245.097.276.22v1.198h.027C68.09.652 68.697.14 69.763.14c.694 0 1.37.248 1.805.924.404.628.404 1.683.404 2.442v4.936c-.017.137-.146.247-.298.247h-1.55c-.14-.012-.258-.115-.274-.248v-4.26c0-.857.1-2.112-.967-2.112-.376 0-.722.25-.893.628-.218.48-.246.956-.246 1.485v4.222c-.002.157-.137.284-.302.284zM46.85 4.942c0 .596.014 1.092-.29 1.62-.246.43-.637.695-1.07.695-.593 0-.94-.447-.94-1.107 0-1.3 1.18-1.538 2.3-1.538v.33zm1.557 3.724c-.102.09-.25.097-.365.037-.513-.42-.606-.617-.887-1.02-.848.857-1.45 1.112-2.548 1.112-1.302 0-2.313-.793-2.313-2.38 0-1.24.68-2.085 1.648-2.498.84-.365 2.01-.43 2.907-.53V3.19c0-.363.027-.793-.19-1.107-.187-.28-.548-.397-.868-.397-.59 0-1.113.298-1.24.917-.027.138-.13.273-.27.28l-1.498-.16c-.127-.027-.268-.128-.23-.32C42.896.607 44.54.065 46.01.065c.752 0 1.734.198 2.328.76.752.695.68 1.62.68 2.63v2.38c0 .716.3 1.03.583 1.416.1.14.12.304-.006.407-.315.26-.876.744-1.184 1.015l-.003-.005zm-21.82-3.724c0 .596.014 1.092-.29 1.62-.246.43-.635.695-1.07.695-.593 0-.94-.447-.94-1.107 0-1.3 1.182-1.538 2.3-1.538v.33zm1.558 3.724c-.102.09-.25.097-.365.037-.513-.42-.605-.617-.887-1.02-.848.857-1.448 1.112-2.548 1.112-1.3 0-2.313-.793-2.313-2.38 0-1.24.68-2.085 1.648-2.498.84-.365 2.01-.43 2.906-.53V3.19c0-.363.028-.793-.187-1.107-.19-.28-.55-.397-.868-.397-.59 0-1.115.298-1.244.917-.026.138-.128.273-.267.28l-1.5-.16c-.125-.027-.264-.128-.23-.32C22.637.607 24.278.065 25.748.065c.752 0 1.735.198 2.328.76.752.695.68 1.62.68 2.63v2.38c0 .716.3 1.03.583 1.416.1.14.122.304-.004.407-.315.26-.876.744-1.185 1.015l-.005-.005" fill="#221F1F"/></g></g></g></g></g></g></g></g></g></svg>