<svg version="1" xmlns="http://www.w3.org/2000/svg" width="48" height="48" viewBox="0 0 48 48"><path fill="#F7F2CA" d="M27.8 25.1c.3.1.4.3.4.7v2.9c0 .2-.1.4-.2.5-.1.1-.3.2-.4.2h-9.5c-.2 0-.3-.1-.4-.2-.1-.1-.2-.3-.2-.5v-2.9c0-.4.1-.6.4-.7l3.7-1.7c-.4-.3-.8-.6-1.1-1.1s-.4-1.1-.4-1.7c0-.9.3-1.6.8-2.2.5-.6 1.2-.9 1.9-.9.8 0 1.4.3 1.9.9s.8 1.4.8 2.2c0 .6-.1 1.2-.4 1.7s-.6.9-1.1 1.1l3.8 1.7zM24 0c3.3 0 6.4.6 9.3 1.9 2.9 1.3 5.5 3 7.6 5.1s3.9 4.7 5.1 7.6c1.3 2.9 1.9 6 1.9 9.3 0 2.2-.3 4.3-.9 6.4s-1.4 4-2.4 5.7c-1 1.8-2.3 3.4-3.7 4.8s-3.1 2.7-4.8 3.7c-1.8 1-3.7 1.8-5.7 2.4S26.2 48 24 48s-4.3-.3-6.4-.9c-2-.6-4-1.4-5.7-2.4-1.8-1-3.4-2.3-4.8-3.7-1.5-1.5-2.7-3.1-3.7-4.8-1-1.8-1.8-3.7-2.4-5.7-.7-2.2-1-4.3-1-6.5s.3-4.3.9-6.4c.6-2 1.4-4 2.4-5.7C4.3 10.1 5.6 8.5 7 7c1.5-1.5 3.1-2.7 4.8-3.7 1.8-1 3.7-1.8 5.7-2.4C19.7.3 21.8 0 24 0zm11.3 15c0-.4-.2-.7-.7-.7H33v-.5c0-.3-.1-.6-.3-.8s-.5-.3-.7-.3H13.8c-.3 0-.5.1-.7.3-.2.2-.3.5-.3.8v20.4c0 .3.1.6.3.8.2.2.5.3.7.3H32c.3 0 .5-.1.7-.3s.3-.5.3-.8v-.5h1.6c.2 0 .4-.1.5-.2.1-.1.2-.3.2-.5v-2c0-.2-.1-.4-.2-.5-.1-.1-.3-.2-.5-.2H33v-1.9h1.6c.4 0 .7-.2.7-.7v-2c0-.4-.2-.7-.7-.7H33v-2h1.6c.2 0 .4-.1.5-.2.1-.1.2-.3.2-.5v-2c0-.2-.1-.4-.2-.5-.1-.1-.3-.2-.5-.2H33v-1.9h1.6c.4 0 .7-.2.7-.7v-2z"/></svg>