<svg version="1" xmlns="http://www.w3.org/2000/svg" width="119.8" height="54.9" viewBox="0 0 119.8 54.9"><path fill="#FFF" d="M85.6 17h10.8v30.2h8.3V17h10.8V8.7H85.6M69.5 26.7c.3-.4.5-.9.7-1.3l.3-.6c.5-1.3.8-2.7.8-4.2 0-3-1.2-6-3.4-8.2-2.3-2.2-5.2-3.4-8.3-3.4H43.7v38.4H62c3 0 5.9-1.2 8.2-3.4 2.2-2.3 3.4-5.2 3.4-8.2 0-3-1.1-5.8-3-7.9-.3-.6-.7-.9-1.1-1.2zm-4.1 8.5c-.1 1.1-.5 2.1-1.2 2.8-.6.6-1.4 1-2.3 1.2H52v-7.9h9.4c1.1 0 2 .4 2.8 1.1.7.8 1.2 1.8 1.2 2.8zM52 24.2v-7.8h7.1c1 0 2 .4 2.7 1.1.7.7 1.1 1.6 1.2 2.7v.4c0 .2-.1.5-.1.7l-.1.2c-.1.2-.1.4-.2.5-.7 1.3-1.8 2-3.1 2.1H52zM23.3 16.2c4.1 0 8 2.2 10.1 5.8l6.4-5.4c-3.8-5.4-9.9-8.7-16.5-8.7-11.1 0-20.1 9-20.1 20.1 0 11.1 9 20.1 20.1 20.1 6.6 0 12.8-3.2 16.5-8.7L33.4 34c-2.1 3.6-5.9 5.8-10.1 5.8-6.5 0-11.8-5.3-11.8-11.8.1-6.5 5.3-11.8 11.8-11.8z"/></svg>