<svg version="1" xmlns="http://www.w3.org/2000/svg" width="30" height="14" viewBox="1 3 30 14" enable-background="new 1 3 30 14"><filter width="200%" height="200%" id="a" filterUnits="objectBoundingBox" y="-50%" x="-50%"><feOffset result="shadowOffsetOuter1" in="SourceAlpha" dy="2"/><feGaussianBlur stdDeviation="2" result="shadowBlurOuter1" in="shadowOffsetOuter1"/><feColorMatrix values="0 0 0 0 0 0 0 0 0 0 0 0 0 0 0 0 0 0 0.07 0" result="shadowMatrixOuter1" in="shadowBlurOuter1"/><feMerge><feMergeNode in="shadowMatrixOuter1"/><feMergeNode in="SourceGraphic"/></feMerge></filter><path fill="#fff" d="M13.875 3.877c1.174-1.17 3.075-1.17 4.25 0l10.75 10.707c1.174 1.17.777 2.117-.875 2.117H4c-1.657 0-2.05-.944-.875-2.116l10.75-10.707z"/><title>Rectangle 92</title><desc>Created with Sketch Beta.</desc><g><g><g filter="url(#a)" transform="translate(-307 -10) translate(150 11)"><path fill="#fff" d="M170.875 3.026c1.174-1.168 3.075-1.17 4.25 0l10.75 10.707c1.174 1.17.777 2.117-.875 2.117h-24c-1.657 0-2.05-.945-.875-2.117l10.75-10.707z" opacity=".97"/></g></g></g></svg>