<svg xmlns="http://www.w3.org/2000/svg" width="35" height="35" viewBox="-7 -8.5 35 35" enable-background="new -7 -8.5 35 35"><title>Group</title><desc>Created with Sketch Beta.</desc><g><g><g><g><g><g fill="#fff"><path d="M20.97 2.963h-2.986V.003h-.997v2.96H14v.99h2.986v2.96h.997v-2.96h2.987v-.99z"/><path d="M10.222 10.363c-.507-.357-1.478-1.224-1.478-1.734 0-.6.172-.893 1.078-1.595.928-.72 1.584-1.732 1.584-2.91 0-1.403-.628-2.77-1.81-3.22h1.78l1.256-.902h-5.61c-2.517 0-4.885 1.893-4.885 4.086 0 2.24 1.715 4.048 4.275 4.048.178 0 .35-.003.52-.016-.166.317-.285.673-.285 1.042 0 .623.337 1.127.764 1.54-.32 0-.632.01-.972.01-3.117 0-5.516 1.97-5.516 4.015 0 2.01 2.63 3.27 5.747 3.27 3.552 0 5.514-2.002 5.514-4.016 0-1.613-.48-2.58-1.962-3.62zM7.224 7.57c-1.446-.042-2.82-1.605-3.07-3.49-.25-1.887.72-3.33 2.166-3.287 1.446.043 2.82 1.556 3.07 3.44.25 1.887-.72 3.38-2.166 3.338zm-.567 9.54c-2.154 0-3.71-1.355-3.71-2.98 0-1.595 1.93-2.922 4.084-2.898.503.005.972.085 1.397.222 1.17.808 2.008 1.264 2.245 2.185.045.186.07.377.07.574 0 1.625-1.056 2.895-4.085 2.895z"/></g></g></g></g></g></g></svg>