<svg width="30" height="26" viewBox="0 0 30 26" xmlns="http://www.w3.org/2000/svg"><title>vk_logo_footer2</title><desc>Created with Sketch Beta.</desc><g fill="none" fill-rule="evenodd"><g fill-opacity=".5" fill="#656D7C"><g><path d="M17.625 3.47c-1.6-.057-3.35-.052-5.237.04l-.11-1.56c-.016-.242.16-.455.4-.482.992-.113 2.713-.228 4.643 0 .243.028.42.24.404.482l-.1 1.52zm12.362 7.177l-.002-.087-.005-.238h-.003c-.008-.264-.022-.668-.043-1.144v-.003c-.026-.7-.058-1.347-.117-2.156-.072-.985-.755-1.822-1.707-2.083-.556-.152-1.074-.297-1.877-.465l-.023-.005-.217-.045v.004l-.66-.124h-.004l-.138-.027c-.394-.072-.81-.145-1.252-.214.04-.382-.228-.733-.615-.786l-1.608-.217c-.395-.053-.758.226-.808.62l-.002.005c-.625-.06-1.28-.11-1.968-.15l.132-2.013c.04-.63-.413-1.192-1.035-1.284-2.627-.39-4.932-.17-6.072-.003-.625.092-1.08.657-1.035 1.287l.144 2.065c-.723.05-1.465.11-2.225.188-.065-.38-.418-.646-.804-.594l-1.607.216c-.375.05-.637.38-.62.747-.175.025-.353.053-.53.08V4.22l-.193.032-.403.06v.005l-.704.113.002-.008c-.255.042-.478.08-.694.12-.37.066-.717.134-1.17.22C1.124 4.96.356 5.78.242 6.798c-.044.412-.08.78-.11 1.244 0 0-.056.752-.094 1.608H.033l-.01.307c-.013.357-.022.72-.022 1.042 0 0 .002 0 .002.002-.028 3.206.27 7.496 1.484 12.304.227.898.963 1.578 1.876 1.733 3.823.65 14.36 2.024 23.71-.594.775-.217 1.39-.808 1.622-1.58.552-1.842 1.423-5.817 1.293-12.216z"/></g></g></g></svg>