<svg version="1" xmlns="http://www.w3.org/2000/svg" xmlns:xlink="http://www.w3.org/1999/xlink" width="368.5" height="327.9" viewBox="0 0 368.5 327.9"><defs><path id="a" d="M0 0h368.5v327.9H0z"/></defs><clipPath id="b"><use xlink:href="#a" overflow="visible"/></clipPath><path clip-path="url(#b)" fill-rule="evenodd" clip-rule="evenodd" fill="#745645" d="M58.3 257.7c-2.7 4.4-6.8 8.4-11.8 8.4-3.6 0-6.1-2.4-6.7-6-.6-4.3 1.1-7.3 4.4-9.7 2.9-2.1 5.1-2.8 8.6-3.2 1.6-.2 3.1-.2 4.7-.2.5 0 .7-.1.7-.7v-10.2c0-.9-.2-1.7-.4-2.5-.6-2-2.2-2.4-4.1-2.6-4.5-.2-8.1 2.6-6.9 4.5.4.7 1 1.3 1.3 2 .6 1.8-.5 3.2-2 4-1.4.8-3.9.2-4.7-1.7-1.1-2.5-.4-4.7 2.3-6.6 3-2.1 6.3-3.2 9.9-3.1 1.8 0 3.7.2 5.4.8 3.6 1.2 3.5 4.1 3.8 7.9.1 1.2.1 2.5.1 3.8v20.5c0 1.4.4 1.7 1.4 1.8 1.4.1 2.6-.7 2.9-2 0-.2.1-.5.2-.7.1-.3.5-.6 1-.4.5.2.3.9.1 1.2-.1.3-.3.5-.5.7-2.1 2.6-5.9 2.6-7.4 1.4-1.5-1.2-1.8-2.8-2.1-4.5-.1-1-.1-1.6-.2-2.9m-.1-8.5c0-.7-.1-1-.9-1.1-4.8-.4-9.2.9-10.8 3.3-1.5 2.2-1.8 4.7-1.5 7.2.5 4.2 4.2 6 7.9 4.1 2-1 4-4.6 4.5-6.2 1.1-3 .8-6.6.8-7.3"/><path clip-path="url(#b)" fill="#745645" d="M122.2 264.8c-1.8-.1-2.9-.3-3.3-.7-.2-.2-.3-1.2-.3-3.1v-26.8c0-1.1.1-1.8.3-2.1.2-.3.7-.4 1.5-.5 1.5-.1 2.2-.2 2.2-.5s-.3-.4-.8-.4h-11.6c-.4 0-.6.1-.6.4 0 .2.3.3 1 .4 1.7.1 2.6.3 2.8.6.2.2.3 1.1.3 2.8v26.4c0 1.6-.1 2.2-.4 2.5-.2.3-1 .4-2.4.5h-7.6c-1.4-.1-2.3-.3-2.6-.6-.2-.2-.3-.8-.3-2.7v-26.8c0-1.1.1-1.8.3-2.1.2-.3.7-.4 1.5-.5 1.5-.1 2.2-.2 2.2-.5s-.3-.4-.8-.4H92c-.4 0-.6.1-.6.4 0 .2.3.3 1 .4 1.7.1 2.6.3 2.8.6.2.2.3 1.1.3 2.8v26.2c0 1.6-.1 2.4-.4 2.7-.2.3-1 .4-2.4.5h-7.5c-1.5-.1-2.4-.3-2.8-.6-.2-.2-.2-.8-.2-2.7v-26.8c0-1.1.1-1.8.3-2.1.2-.3.7-.4 1.6-.5 1.5-.1 2.2-.2 2.2-.5s-.3-.4-.8-.4H73.9c-.4 0-.6.1-.6.4 0 .2.3.3 1 .4 1.7.1 2.6.3 2.8.6.2.2.3 1.1.3 2.8v26.4c0 1.6-.1 2.6-.3 2.9-.2.3-1 .4-2.4.5-.9 0-1.3.2-1.3.5s.2.5.7.5h2c.8-.1 38.2 0 39 0h7.3c.4 0 .6-.1.6-.4-.3-.4-.5-.5-.8-.5M160.4 261.4c-.9-.1-.9.7-1 1.1-.3 1.3-1.5 2.2-3.1 2-1.4-.1-1.2-1.3-1.3-2.8v-.9-29.1c0-.5.1-.9-.7-.9h-7.5c-.4 0-.6.1-.6.4 0 .2.3.3 1 .4 1.7.1 2.6.3 2.8.6.2.2.3 1.1.3 2.8V252.7c0 1.4-.2 2.7-.7 3.9-.9 2.3-2.8 5.3-5.3 6-3.4 1-6.2-.5-7.1-3.6-.2-.8-.3-1.8-.3-2.7v-24.4c0-.9-.2-1.1-1.1-1.1h-7.2c-.4 0-.6.1-.6.4 0 .2.3.3 1 .4 1.7.1 2.6.3 2.8.6.2.2.3 1.1.3 2.8v23.1c0 5.9 5.3 8.5 9.6 7.4 4.3-1.1 6.3-3.8 8.7-7.7 0 4.8 1.2 8.3 5.9 7.8 1.8-.2 3.7-1.5 4.3-2.7.2-.5.5-1.3-.2-1.5M33.1 255.2c.8 1.8-2.2 6.1-3 7-1.3 1.5-4.5 4.1-9.5 3.9-4-.1-7.8-2.2-10.1-4.4-4.1-4-5.6-8.7-5.6-13.7 0-5.2 1.5-9.5 4.4-12.9 3-3.3 6.8-5 11.5-5 1.7 0 3.1.1 4.1.4 1 .3 2.3.9 3.8 1.7.7.4 1.3.7 1.7.7.3 0 .6-.3.8-.8.4-.9.8-1.4 1.1-1.4.3 0 .4.1.4.4 0 .1 0 .3-.1.7-.4 1.6-.6 4.6-.6 9 0 .6 0 1-.1 1.1-.1.1-.2.1-.4.1-.3 0-.6-.3-.7-1-.4-2.7-1.1-4.7-1.9-6-1.6-2.7-4.2-4-7.7-4-2.7 0-4.8.9-6.4 2.7-2.8 3.2-4.3 8-4.3 14.2 0 5.6 1.2 9.9 3.5 13 2 2.7 4.6 3.7 6.7 3.9 1.7.2 5.4-.3 7.5-3.4 1.1-1.6 1.4-3.7 1.8-5.7.1-.8.4-1 .7-1.2.4 0 2-.3 2.4.7"/><path clip-path="url(#b)" fill-rule="evenodd" clip-rule="evenodd" fill="#745645" d="M23.6 204.3c-2.7 4.4-6.8 8.4-11.8 8.4-3.6 0-6.1-2.4-6.7-6-.6-4.3 1.1-7.3 4.4-9.7 2.9-2.1 5.1-2.8 8.6-3.2 1.5-.2 3.1-.2 4.7-.2.5 0 .7-.1.7-.7v-10.2c0-.9-.2-1.7-.4-2.5-.6-2-2.2-2.4-4.1-2.6-4.5-.2-8.1 2.6-6.9 4.5.4.7 1 1.3 1.3 2 .6 1.8-.5 3.2-2 4-1.4.8-3.9.2-4.7-1.7-1.1-2.5-.4-4.7 2.3-6.6 3-2.1 6.3-3.2 9.9-3.1 1.8 0 3.7.2 5.4.8 3.6 1.2 3.5 4.1 3.8 7.9.1 1.3.1 2.5.1 3.8v20.5c0 1.4.4 1.7 1.4 1.8 1.4.1 2.6-.7 2.9-2 0-.2.1-.5.2-.7.1-.3.5-.6 1-.4.5.2.3.9.1 1.2-.1.3-.3.5-.5.7-2.1 2.6-5.9 2.6-7.4 1.4-1.5-1.2-1.8-2.8-2.1-4.5-.1-1-.1-1.6-.2-2.9m-.1-8.5c0-.7 0-1-.9-1.1-4.8-.4-9.2.9-10.8 3.3-1.5 2.2-1.8 4.7-1.5 7.2.5 4.2 4.2 6 7.9 4.1 2-1 4-4.6 4.5-6.2 1.1-3 .8-6.6.8-7.3"/><path clip-path="url(#b)" fill="#745645" d="M64.1 181.5c0-.9 0-2.3-.2-4.3h-.6c-.2 0-.7 0-1.5.1s-1.6.1-2.6.1l-20.8.1c-.6 0-.9.2-.9.5 0 .2.5.4 1.4.5 1.3.1 2 .2 2.3.4.3.2.4.8.4 1.9V209c0 1.2-.1 2-.4 2.2-.2.2-1.1.3-2.7.3-.6 0-1 .2-1 .5s.2.5.6.5h.5c1.1-.1 3.3-.2 6.6-.2.3 0 .9 0 1.8.1.9 0 1.6.1 2.2.1h.6c.6 0 .9-.2.9-.5 0-.2-.1-.3-.3-.4s-.8-.1-1.7-.1c-1 0-1.5-.2-1.7-.5-.2-.3-.3-1.2-.3-2.6v-29.6c.9 0 2.2-.1 3.8-.1 3.9 0 6.7.2 8.3.6 1.6.4 2.7 1.2 3.3 2.3.6 1.1.9 2.6 1 4.5 0 .4.2.7.6.7.4 0 .6-.2.6-.8v-4.5zM132.7 211.6c0 .3-.3.5-.9.5h-10.9c-.7 0-1-.1-1-.4s.8-.4 2.3-.6c.8-.1 1.3-.2 1.4-.4.1-.2.2-1 .2-2.3v-14.6h-15.1V208c0 1.5.1 2.4.3 2.7.2.3 1 .4 2.4.6.9.1 1.3.2 1.3.5s-.3.5-1 .5H100.8c-.7 0-1-.1-1-.4s.3-.4 1-.5c.4 0 .9-.1 1.4-.1.7-.1 1.2-.2 1.4-.5.1-.2.2-1.1.2-2.8v-26.4c0-1.5-.1-2.4-.2-2.7-.1-.3-.7-.4-1.6-.5-1-.1-1.6-.1-1.8-.2-.2 0-.3-.2-.3-.4 0-.3.2-.4.7-.4.1 0 .4 0 .9.1.8.1 2.8.1 5.9.1 1.7 0 2.9 0 3.6-.1.2-.1.5-.1.9-.1.6 0 .9.2.9.5s-.5.5-1.6.5-1.7.1-2 .4c-.2.3-.3 1-.3 2.4v11.6H124V182c0-1.8-.1-2.8-.4-3.1-.3-.3-1.2-.5-2.8-.4-.5 0-.8-.2-.8-.5s.3-.5.9-.5h10.9c.7 0 1.1.1 1.1.5 0 .3-.7.5-2.2.5-.4 0-.8 0-1 .1-.3.1-.5.3-.6.6-.1.3-.1 1.1-.1 2.4v26.7c0 1.6.1 2.5.2 2.8.3.4 1.3.5 2.9.5.3-.5.6-.3.6 0M165.3 186.2c0 .4-.2.7-.6.7-.4 0-.7-.4-.9-1.3-.1-.6-.1-1.2-.2-1.8-.2-1.2-.6-2.2-1.2-3.1-.7-1.1-1.9-1.8-3.5-2.1-1-.2-1.9-.3-2.5-.2-1.6 0-2.5.1-2.9.1v30.3c0 1.2.3 2 1 2.3.3.2 1.3.3 2.8.3.4 0 .6.2.6.4 0 .3-.3.4-.8.4h-.7c-2-.1-3.4-.1-4.3-.1-1.1 0-2.1 0-3.1.1-1 0-2.2.1-3.7.1-.8 0-1.2-.1-1.2-.4 0-.3.7-.5 2.2-.5 1 0 1.7-.2 2-.7.2-.3.3-1 .3-2.1v-30.1c-3.3 0-5.4.2-6.2.5-2.1.8-3.3 2.8-3.7 6.2-.1 1-.3 1.5-.7 1.5-.4 0-.6-.4-.6-1.1 0-.4 0-.7.1-1.1l.1-1.2c.1-1.5.3-3.6.5-6.1h2.3l10.2.1h5.6l8.3-.1c.1 1.9.3 4.6.7 8.3 0 .1 0 .2.1.4v.3M231.1 186.2c0 .4-.2.7-.6.7-.4 0-.7-.4-.9-1.3-.1-.6-.1-1.2-.2-1.8-.2-1.2-.6-2.2-1.2-3.1-.7-1.1-1.9-1.8-3.5-2.1-1-.2-1.9-.3-2.5-.2-1.6 0-2.5.1-2.9.1v30.3c0 1.2.3 2 1 2.3.3.2 1.3.3 2.8.3.4 0 .6.2.6.4 0 .3-.3.4-.8.4h-.7c-2-.1-3.4-.1-4.3-.1-1.1 0-2.1 0-3.1.1-1 0-2.2.1-3.7.1-.8 0-1.2-.1-1.2-.4 0-.3.7-.5 2.2-.5 1 0 1.7-.2 2-.7.2-.3.3-1 .3-2.1v-30.1c-3.3 0-5.4.2-6.2.5-2.1.8-3.3 2.8-3.7 6.2-.1 1-.3 1.5-.7 1.5-.4 0-.6-.4-.6-1.1 0-.4 0-.7.1-1.1l.1-1.2c.1-1.5.3-3.6.5-6.1h2.3l10.2.1h5.6l8.3-.1c.1 1.9.3 4.6.7 8.3v.4c.1.2.1.3.1.3M260.7 202.9c0 3.4-1.6 5.9-4.7 7.6-1.5.8-3.7 1.3-6.5 1.5H236.6c-.6 0-.9-.1-.9-.4 0-.3.5-.4 1.6-.4 1.2 0 1.9-.1 2.1-.4.2-.3.3-1 .3-2.3v-27.1c0-1.5-.1-2.3-.2-2.6-.2-.4-1.1-.6-2.6-.7-.9 0-1.4-.2-1.4-.5s.4-.5 1.3-.5h.6c.4.1.7.1 1 .1h9.8c3.6 0 6.3.6 8.1 1.8 2.1 1.4 3.1 3.4 3.1 6 0 2.3-.9 4.1-2.6 5.6-1.7 1.5-4.1 2.4-7.2 2.7v.3c3 .2 5.4.8 7.1 1.9 2.7 1.8 4 4.2 4 7.4m-6.8-17.3c0-3.2-.7-5.3-2.2-6.4-.8-.6-2.2-.9-4.4-.9-.6 0-1.5 0-2.7.2V193h.5l2.8-.1c1.9-.1 3.4-.7 4.4-2 1.1-1.3 1.6-3 1.6-5.3m1.5 16.8c0-4.2-1.7-6.8-5.1-7.8-1-.3-2.9-.5-5.6-.5V209c0 1 .1 1.5.3 1.7.3.2 1.3.3 2.8.3 2.3 0 4.1-.7 5.5-2.2 1.4-1.4 2.1-3.6 2.1-6.4M299.3 194.9c0 5-1.5 9.2-4.5 12.6-3 3.4-6.7 5.2-11 5.2-4.6 0-8.5-1.7-11.6-5.2-3.1-3.5-4.7-7.8-4.7-12.9 0-5.2 1.5-9.5 4.5-12.8 3-3.3 6.9-5 11.6-5 4.4 0 8.2 1.7 11.2 5.2 3 3.4 4.5 7.7 4.5 12.9m-5.6.2c0-6.1-1.3-10.9-3.8-14.3-1.6-2.1-3.8-3.2-6.6-3.2-2.7 0-4.7.8-6.2 2.5-2.7 3-4.1 7.9-4.1 14.7 0 5.4.9 9.6 2.8 12.6s4.5 4.5 7.9 4.5c3.2 0 5.6-1.4 7.2-4.2 1.9-3.2 2.8-7.4 2.8-12.6M198.1 201.7c.8 1.8-2.2 6.1-3 7-1.3 1.5-4.5 4.1-9.5 3.9-4-.1-7.8-2.2-10.1-4.4-4.1-4-5.6-8.7-5.6-13.7 0-5.2 1.5-9.5 4.4-12.9 3-3.3 6.8-5 11.5-5 1.7 0 3.1.1 4.1.4 1 .3 2.3.9 3.8 1.7.7.4 1.3.7 1.7.7.3 0 .6-.3.9-.8.4-.9.8-1.4 1.1-1.4.3 0 .4.1.4.4 0 .1 0 .4-.1.7-.4 1.6-.5 4.6-.5 9 0 .6 0 1-.2 1.1-.1.1-.2.2-.4.2-.3 0-.6-.3-.7-1-.4-2.7-1.1-4.7-1.9-6-1.6-2.7-4.2-4-7.7-4-2.7 0-4.8.9-6.4 2.7-2.8 3.2-4.3 8-4.3 14.2 0 5.6 1.2 9.9 3.5 13 2 2.7 4.6 3.7 6.7 3.9 1.7.2 5.4-.3 7.5-3.4 1.1-1.6 1.4-3.7 1.8-5.7.1-.8.4-1 .7-1.2.3-.1 1.8-.5 2.3.6"/><path clip-path="url(#b)" fill-rule="evenodd" clip-rule="evenodd" fill="#745645" d="M88.2 150.7c-2.7 4.4-6.8 8.4-11.8 8.4-3.6 0-6.1-2.4-6.7-6-.6-4.3 1.1-7.3 4.4-9.7 2.9-2.1 5.1-2.8 8.6-3.2 1.6-.2 3.1-.2 4.7-.2.5 0 .7-.1.7-.7v-10.2c0-.9-.2-1.7-.4-2.5-.6-2-2.2-2.4-4.1-2.6-4.5-.2-8.1 2.6-6.9 4.5.4.7 1 1.3 1.3 2 .6 1.8-.5 3.2-2 4-1.4.8-3.9.2-4.7-1.7-1.1-2.5-.4-4.7 2.3-6.6 3-2.1 6.3-3.2 9.9-3.1 1.8 0 3.7.2 5.4.8 3.6 1.2 3.5 4.1 3.8 7.9.1 1.3.1 2.5.1 3.8v20.5c0 1.4.4 1.7 1.4 1.8 1.4.1 2.6-.7 2.9-2 0-.2.1-.5.2-.7.1-.3.5-.6 1-.4.5.2.3.9.1 1.2-.1.3-.3.5-.5.7-2.1 2.6-5.9 2.6-7.4 1.4-1.5-1.2-1.8-2.8-2.1-4.5-.1-1 0-1.6-.2-2.9m0-8.5c0-.7 0-1-.9-1.1-4.8-.4-9.2.9-10.8 3.3-1.5 2.2-1.8 4.7-1.5 7.2.5 4.2 4.2 6 7.9 4.1 2-1 4-4.6 4.5-6.2 1.1-3 .8-6.6.8-7.3"/><path clip-path="url(#b)" fill="#745645" d="M63.2 149.4c0 3.4-1.6 5.9-4.7 7.6-1.5.8-3.7 1.3-6.5 1.5H39.1c-.6 0-.9-.1-.9-.4 0-.3.5-.4 1.6-.4 1.2 0 1.9-.1 2.1-.4.2-.3.3-1 .3-2.3v-27.1c0-1.5-.1-2.3-.2-2.6-.2-.4-1.1-.6-2.6-.6-.9 0-1.4-.2-1.4-.5s.4-.5 1.3-.5h.6c.4.1.7.1 1 .1h9.8c3.6 0 6.3.6 8.1 1.8 2.1 1.4 3.1 3.4 3.1 6 0 2.3-.9 4.1-2.6 5.6-1.7 1.5-4.1 2.4-7.2 2.7v.3c3 .2 5.4.8 7.1 1.9 2.7 1.6 4 4 4 7.3m-6.7-17.3c0-3.2-.7-5.3-2.2-6.4-.8-.6-2.2-.9-4.4-.9-.6 0-1.5 0-2.7.2v14.5h.4l2.8-.1c1.9-.1 3.4-.7 4.4-2 1.2-1.3 1.7-3.1 1.7-5.3m1.4 16.7c0-4.2-1.7-6.8-5.1-7.8-1-.3-2.9-.4-5.6-.4v14.9c0 1 .1 1.5.3 1.7.3.2 1.3.4 2.8.4 2.3 0 4.1-.7 5.5-2.2 1.5-1.6 2.1-3.7 2.1-6.6M163.2 150.4c0 .1 0 1-.1 2.5s-.1 2.9-.1 4.3v1.7c-3.3-.2-9.8-.3-19.4-.3h-6.3c-.6 0-1-.1-1-.4 0-.2.1-.3.3-.3.1 0 .7 0 1.9-.1.9-.1 1.4-.2 1.6-.6.2-.3.3-1.1.3-2.4v-28.3c0-1-.1-1.5-.4-1.7-.3-.2-1.2-.3-2.7-.3-.5 0-.8-.1-.8-.4 0-.3.4-.4 1.1-.4h21.3c1 0 1.9-.1 2.8-.2.1 1.4.2 3.4.5 6l.2 2.2c0 .2.1.4.1.7 0 .3-.2.5-.5.5-.4 0-.6-.4-.8-1.3-.6-3-1.7-4.9-3.1-5.7-1.1-.6-3.9-.9-8.4-.9h-4.1v14.7h1.2c3.7 0 6-.3 6.8-.9.8-.6 1.4-2.2 1.7-5 .1-.7.2-1.1.6-1.1.4 0 .6.3.6.9 0 .6 0 1.5-.1 2.7-.1 1.2-.1 2.1-.1 2.7 0 3.6.1 6 .2 7.4v.9c0 .4-.2.7-.5.7-.2 0-.4-.1-.5-.4-.1-.3-.2-1.2-.4-2.8-.3-2-1.1-3.2-2.4-3.7-.6-.2-2.2-.3-4.7-.3h-2.2v16.8c7.3 0 11.7-.1 12.9-.4 2.2-.5 3.5-2.6 3.8-6.3.1-.8.3-1.2.7-1.2-.2-.3 0 0 0 .7M94.8 204c0 .1 0 1-.1 2.5s-.1 2.9-.1 4.3v1.7c-3.3-.2-9.8-.3-19.4-.3h-6.3c-.6 0-1-.1-1-.4 0-.2.1-.3.3-.3.1 0 .7 0 1.9-.1.9-.1 1.4-.2 1.6-.6.2-.3.3-1.1.3-2.4v-28.3c0-1-.1-1.5-.4-1.7-.3-.2-1.2-.3-2.7-.3-.5 0-.8-.1-.8-.4 0-.3.4-.4 1.1-.4h21.3c1 0 1.9-.1 2.8-.2.1 1.4.2 3.4.5 6l.2 2.2c0 .2.1.4.1.7 0 .3-.2.5-.5.5-.4 0-.6-.4-.8-1.3-.6-3-1.7-4.9-3.1-5.7-1.1-.6-3.9-.9-8.4-.9H77v14.7h1.2c3.7 0 6-.3 6.8-.9.8-.6 1.4-2.2 1.7-5 .1-.7.3-1.1.6-1.1.4 0 .6.3.6.9 0 .6 0 1.5-.1 2.7-.1 1.2-.1 2.1-.1 2.7 0 3.6.1 6 .2 7.4v.9c0 .4-.2.7-.5.7-.2 0-.4-.1-.5-.4-.1-.3-.2-1.2-.4-2.8-.3-2-1.1-3.2-2.4-3.7-.6-.2-2.2-.3-4.7-.3H77V211c7.4 0 11.7-.1 12.9-.4 2.2-.5 3.5-2.6 3.8-6.3.1-.8.3-1.2.6-1.2.3-.2.5.2.5.9M231.9 158.1c0 .3-.3.5-.9.5h-11c-.7 0-1-.1-1-.4 0-.3.8-.4 2.3-.5.8-.1 1.3-.2 1.4-.4.1-.2.2-1 .2-2.3v-14.6h-15.1v14.2c0 1.5.1 2.4.4 2.7.2.3 1 .4 2.4.6.9.1 1.3.2 1.3.5s-.3.5-1 .5H200c-.7 0-1-.1-1-.4 0-.3.3-.4 1-.5.4 0 .9-.1 1.4-.1.7-.1 1.2-.2 1.4-.5.1-.2.1-1.1.1-2.8v-26.4c0-1.5-.1-2.4-.2-2.7-.2-.3-.7-.4-1.6-.4-1-.1-1.6-.1-1.8-.2-.2 0-.3-.2-.3-.4 0-.3.2-.4.7-.4.1 0 .4 0 .9.1.8.1 2.8.1 5.9.1 1.7 0 2.9 0 3.6-.1.2 0 .5-.1.9-.1.6 0 .9.2.9.5s-.5.5-1.6.5-1.7.1-2 .4c-.2.3-.3 1-.3 2.4V139h15v-10.8c0-1.8-.1-2.8-.4-3.1-.3-.3-1.2-.5-2.8-.4-.5 0-.8-.2-.8-.5s.3-.5.8-.5h11c.7 0 1.1.2 1.1.5s-.7.5-2.2.5c-.4 0-.8 0-1 .1-.3.1-.5.3-.6.6-.1.3-.1 1.1-.1 2.4v26.7c0 1.6.1 2.5.2 2.8.3.4 1.3.6 2.9.6.5-.3.8-.2.8.2M268.7 141.3c0 5-1.5 9.2-4.5 12.6-3 3.4-6.7 5.2-11 5.2-4.6 0-8.5-1.7-11.6-5.2-3.1-3.5-4.7-7.8-4.7-12.9 0-5.2 1.5-9.5 4.5-12.8 3-3.3 6.9-5 11.6-5 4.4 0 8.2 1.7 11.2 5.2s4.5 7.8 4.5 12.9m-5.6.3c0-6.1-1.3-10.9-3.8-14.3-1.6-2.1-3.8-3.2-6.6-3.2-2.7 0-4.7.8-6.2 2.5-2.7 3-4.1 7.9-4.1 14.7 0 5.4.9 9.6 2.8 12.6s4.5 4.5 7.9 4.5c3.2 0 5.6-1.4 7.2-4.2 1.9-3.3 2.8-7.4 2.8-12.6M300.5 150.4c0 .1 0 1-.1 2.5s-.1 2.9-.1 4.3v1.7c-3.3-.2-9.8-.3-19.4-.3h-6.3c-.6 0-1-.1-1-.4 0-.2.1-.3.3-.3.1 0 .7 0 1.9-.1.9-.1 1.4-.2 1.6-.6.2-.3.3-1.1.3-2.4v-28.3c0-1-.1-1.5-.4-1.7-.3-.2-1.2-.3-2.7-.3-.5 0-.8-.1-.8-.4 0-.3.4-.4 1.1-.4h21.3c1 0 1.9-.1 2.8-.2.1 1.4.2 3.4.5 6l.2 2.2v.7c0 .3-.1.5-.5.5s-.6-.4-.8-1.3c-.6-3-1.7-4.9-3.1-5.7-1.1-.6-3.9-.9-8.4-.9h-4.1v14.7h1.2c3.7 0 6-.3 6.8-.9.8-.6 1.4-2.2 1.7-5 .1-.7.2-1.1.6-1.1.4 0 .6.3.6.9 0 .6 0 1.5-.1 2.7-.1 1.2-.1 2.1-.1 2.7 0 3.6.1 6 .2 7.4v.9c0 .4-.2.7-.5.7-.2 0-.4-.1-.5-.4-.1-.3-.2-1.2-.4-2.8-.3-2-1.1-3.2-2.4-3.7-.6-.2-2.2-.3-4.7-.3H283v16.8c7.4 0 11.7-.1 12.9-.4 2.2-.5 3.5-2.6 3.8-6.3.1-.8.3-1.2.7-1.2-.1-.3.1 0 .1.7M178.1 124.8h-.6c3.9 0 6.7.2 8.3.6 1.6.4 2.7 1.2 3.3 2.3.6 1.1.9 2.6 1 4.5 0 .4.2.7.6.7.4 0 .6-.3.6-.8v-4.4c0-.9 0-2.3-.1-4.3h-.6c-.2 0-.7 0-1.4.1-.8.1-1.6.1-2.6.1l-16.4.2c-.6 0-.9.1-.9.5 0 .2.5.4 1.4.5 1.3.1 2 .2 2.3.4.2.2.4.8.4 1.9M182.9 139.8c2.2.2 5.4 1.4 7.1 2.4 2.5 1.6 3.8 4 3.8 7.3 0 3.4-1.6 5.9-4.7 7.6-1.5.8-3.7 1.3-6.5 1.5h-6.8l5.1-.9c2.3 0 4.1-.9 5.5-2.3 1.4-1.5 2.1-3.6 2.1-6.5 0-4.2-1.7-6.8-5.1-7.8-1-.3-2.9-.3-5.6-.3v-1.1c0-.1 2.7-.1 5.1.1"/><path clip-path="url(#b)" fill="#745645" d="M186.5 155.6c-1.1 1.4-3.2 2.1-5.5 2.1-1.4 0-2.3-.2-2.8-.7-.2-.2-.3-.7-.3-1.4V127c0-.8-.1-2 .1-2.3l-7.2-1.1h-.7c-1 0-1.5.2-1.5.5 0 .2.4.4 1.1.4 1.6 0 2.5.1 2.7.5.3.1.4.5.5 1v29.6c0 1-.3 1.7-.9 1.9-.3.1-.9.2-1.8.2h-.9c-.5 0-.8.1-.8.4 0 .3.5.4 1.4.4h11c3.8 0 6.6-.7 8.4-2 .4-.3.8-.6 1.1-1h-3.9zM33.1 148.1c.8 1.8-2.2 6.1-3 7-1.3 1.5-4.5 4.1-9.5 3.9-4-.1-7.8-2.2-10.1-4.4-4.1-4-5.6-8.7-5.6-13.7 0-5.2 1.5-9.5 4.4-12.9 3-3.3 6.8-5 11.5-5 1.7 0 3.1.1 4.1.4 1 .3 2.3.9 3.8 1.7.7.4 1.3.6 1.7.6.3 0 .6-.3.8-.8.4-.9.8-1.4 1.1-1.4.3 0 .4.1.4.4 0 .1 0 .4-.1.7-.4 1.6-.6 4.6-.6 9 0 .6 0 1-.1 1.1-.1.1-.2.2-.4.2-.3 0-.6-.3-.7-1-.4-2.7-1.1-4.7-1.9-6-1.6-2.7-4.2-4-7.7-4-2.7 0-4.8.9-6.4 2.7-2.8 3.2-4.3 8-4.3 14.2 0 5.6 1.2 9.9 3.5 13 2 2.7 4.6 3.7 6.7 3.9 1.7.2 5.4-.3 7.5-3.4 1.1-1.6 1.4-3.7 1.8-5.7.1-.8.4-1 .7-1.2.4 0 2-.3 2.4.7M121.7 141.1v-14.3c0-2 0-2-2-2-1.4 0-8.3.1-9.3.1v2.3c-.1 1.1-.2 1.3-.4 2-.1.3-.1.9-.4.8-.3 0-.3-.3-.3-.5v-5.2c0-.8.7-.7 1.2-.7H126.8c.2 0 0 1.4 0 4.4v26.8c0 2.4.2 2.6 2.6 2.8.4 0 1-.1 1 .5 0 .5-.6.4-.9.4-3.1 0-7.3-.4-10.4-.4-.4 0-1.7.4-1.7-.1s1.3-.3 1.7-.3c2.8-.2 2.8-.2 2.8-3v-13.6zM102.6 159.2l-.4-1.2h.1c1.5-.5 2.6-1 3.2-1.6 1.7-1.5 3.7-8.1 3.5-30.3V125h1.3v1.1c.1 18.5-.9 28.9-3.7 31.5-1.1 1-3.2 1.4-3.9 1.6h-.1z"/><path clip-path="url(#b)" fill="#745645" d="M109.1 126.5c0-1-.1-1.6-.4-1.7-.3-.2-1.2-.3-2.7-.3-.5 0-.8-.1-.8-.4 0-.3.4-.4 1.1-.4h4.6M126.7 126.5c0-1 .1-1.6.4-1.7.3-.2 1.2-.3 2.7-.3.5 0 .8-.1.8-.4 0-.3-.4-.4-1.1-.4H125M112.6 158.6c-4 0-6.5.3-7.3.6-2.1.8-3.4 2.8-3.7 6.2-.1 1-.3 1.5-.7 1.5-.4 0-.6-.4-.6-1.1 0-.4 0-.7.1-1.1l.1-1.2c.1-1.5.3-3.6.5-6.1h2.3l12 .2h5.6l10.3-.2c.1 1.9.3 4.7.7 8.3 0 .1 0 .2.1.4v.3c0 .4-.2.7-.6.7-.4 0-.7-.4-.9-1.3-.1-.6-.1-1.2-.2-1.8-.2-1.2-.6-2.2-1.2-3.1-.7-1.1-1.9-1.8-3.5-2.1-1-.2-3.9-.3-4.5-.2h-8.5M62.5 311.1c0 .1 0 1-.1 2.5s-.1 2.9-.1 4.3v1.7c-3.3-.2-9.8-.3-19.4-.3h-6.3c-.6 0-1-.1-1-.4 0-.2.1-.3.3-.3.1 0 .7 0 1.9-.1.9-.1 1.4-.3 1.6-.6.2-.3.3-1.1.3-2.4v-28.3c0-1-.1-1.5-.4-1.7-.3-.2-1.2-.3-2.7-.3-.5 0-.8-.1-.8-.4 0-.3.4-.4 1.1-.4h21.3c1 0 1.9-.1 2.8-.2.1 1.4.2 3.4.5 6l.2 2.2c0 .2.1.4.1.7 0 .3-.1.5-.4.5-.4 0-.6-.4-.8-1.3-.6-3-1.7-4.9-3.1-5.8-1.1-.6-3.9-.9-8.4-.9H45v14.7h1.2c3.7 0 6-.3 6.8-.9.8-.6 1.4-2.2 1.7-5 .1-.7.2-1.1.6-1.1.4 0 .6.3.6.9 0 .6 0 1.5-.1 2.7-.1 1.2-.1 2.1-.1 2.7 0 3.6.1 6 .2 7.4v.9c0 .4-.2.7-.5.7-.2 0-.4-.1-.5-.4-.1-.3-.2-1.2-.4-2.8-.3-2-1.1-3.2-2.4-3.7-.6-.2-2.2-.3-4.7-.3h-2.2V318c7.4 0 11.7-.1 12.9-.4 2.2-.5 3.5-2.6 3.8-6.3.1-.8.3-1.2.7-1.2-.3-.1-.1.3-.1 1M91.5 292.7c0 3.2-1.4 5.8-4.2 7.6-1.7 1.1-3.9 1.7-6.6 1.7-1.1 0-2.4-.1-3.9-.4v14.2c0 .8 0 1.3.1 1.5.2.5.5.8 1.1.9 1 .1 1.9.2 2.8.2.4 0 .6.1.6.4 0 .3-.2.5-.7.5H69.2c-1 0-1.5-.2-1.5-.5 0-.2.4-.4 1.1-.4 1.6 0 2.5-.2 2.7-.5.3-.1.4-.5.5-1v-29.6c0-1-.3-1.7-.9-1.9-.3-.1-.9-.2-1.8-.2h-.9c-.5 0-.8-.1-.8-.4 0-.3.5-.4 1.4-.4h11c3.8 0 6.6.7 8.4 2 2.1 1.4 3.1 3.5 3.1 6.3m-5.2 0c0-5-2.1-7.6-6.3-7.6-1.4 0-2.3.2-2.8.7-.2.2-.3.7-.3 1.6v13.4h.9c2.2 0 4.1-.5 5.6-1.5 1.9-1.1 2.9-3.3 2.9-6.6M123.9 288.6c0-.9 0-2.3-.1-4.3h-.5c-.2 0-.7 0-1.5.1s-1.6.1-2.6.1l-20.8.2c-.6 0-.8.1-.8.5 0 .2.4.4 1.4.5 1.3.1 2 .2 2.3.4.2.2.4.8.4 1.9v28c0 1.2-.1 2-.4 2.2-.2.2-1.1.3-2.7.3-.6 0-1 .2-1 .6 0 .3.2.5.6.5h.4c1.1-.1 3.3-.2 6.6-.2.3 0 .9 0 1.8.1s1.6.1 2.2.1h.6c.6 0 .9-.2.9-.5 0-.2-.1-.3-.3-.4-.2-.1-.8-.1-1.7-.1-1 0-1.5-.2-1.7-.5-.2-.3-.3-1.2-.3-2.6v-29.6c.9 0 2.2-.1 3.8-.1 3.9 0 6.7.2 8.3.6s2.7 1.2 3.3 2.3c.6 1.1.9 2.6 1 4.5 0 .4.2.6.6.6.4 0 .6-.2.6-.8v-4.4zM159.7 302c0 5-1.5 9.2-4.5 12.6-3 3.4-6.7 5.2-11 5.2-4.6 0-8.5-1.7-11.6-5.2-3.1-3.5-4.7-7.8-4.7-12.9 0-5.2 1.5-9.5 4.5-12.8 3-3.3 6.9-5 11.6-5 4.4 0 8.2 1.7 11.2 5.2 2.9 3.4 4.5 7.7 4.5 12.9m-5.7.2c0-6.1-1.3-10.9-3.8-14.3-1.6-2.1-3.8-3.2-6.6-3.2-2.7 0-4.7.8-6.2 2.5-2.7 3-4.1 7.9-4.1 14.7 0 5.4.9 9.6 2.8 12.6s4.5 4.5 7.9 4.5c3.2 0 5.6-1.4 7.2-4.2 1.9-3.2 2.8-7.4 2.8-12.6M263.1 302c0 5-1.5 9.2-4.5 12.6-3 3.4-6.7 5.2-11 5.2-4.6 0-8.5-1.7-11.6-5.2-3.1-3.5-4.7-7.8-4.7-12.9 0-5.2 1.5-9.5 4.5-12.8 3-3.3 6.9-5 11.6-5 4.4 0 8.2 1.7 11.2 5.2 3 3.4 4.5 7.7 4.5 12.9m-5.6.2c0-6.1-1.3-10.9-3.8-14.3-1.6-2.1-3.8-3.2-6.6-3.2-2.7 0-4.7.8-6.2 2.5-2.7 3-4.1 7.9-4.1 14.7 0 5.4.9 9.6 2.8 12.6s4.5 4.5 7.9 4.5c3.2 0 5.6-1.4 7.2-4.2 1.9-3.2 2.8-7.4 2.8-12.6M293.7 310c0 3.4-1.6 5.9-4.7 7.6-1.5.8-3.7 1.3-6.5 1.5H269.6c-.6 0-.9-.1-.9-.4 0-.3.5-.4 1.6-.4 1.2 0 1.9-.1 2.1-.4.2-.2.3-1 .3-2.3v-27.1c0-1.5-.1-2.3-.2-2.6-.2-.4-1.1-.6-2.6-.7-.9 0-1.4-.2-1.4-.5s.4-.5 1.3-.5h.6c.4.1.7.2 1 .2h9.8c3.6 0 6.3.6 8.1 1.8 2.1 1.4 3.1 3.4 3.1 6 0 2.3-.9 4.1-2.6 5.6-1.7 1.5-4.1 2.4-7.2 2.7v.3c3 .2 5.4.8 7.1 1.9 2.8 1.7 4 4.1 4 7.3m-6.7-17.3c0-3.2-.7-5.3-2.2-6.4-.8-.6-2.2-.9-4.4-.9-.6 0-1.5.1-2.7.1V300h.5l2.8-.1c1.9-.1 3.4-.7 4.4-2 1.1-1.2 1.6-2.9 1.6-5.2m1.5 16.8c0-4.2-1.7-6.8-5.1-7.8-1-.3-2.9-.5-5.6-.5v14.9c0 1 .1 1.5.3 1.7.3.2 1.3.4 2.8.4 2.3 0 4.1-.7 5.5-2.2 1.4-1.5 2.1-3.7 2.1-6.5M332.5 302c0 5-1.5 9.2-4.5 12.6-3 3.4-6.7 5.2-11 5.2-4.6 0-8.5-1.7-11.6-5.2-3.1-3.5-4.7-7.8-4.7-12.9 0-5.2 1.5-9.5 4.5-12.8 3-3.3 6.9-5 11.6-5 4.4 0 8.2 1.7 11.2 5.2 3 3.4 4.5 7.7 4.5 12.9m-5.6.2c0-6.1-1.3-10.9-3.8-14.3-1.6-2.1-3.8-3.2-6.6-3.2-2.7 0-4.7.8-6.2 2.5-2.7 3-4.1 7.9-4.1 14.7 0 5.4.9 9.6 2.8 12.6s4.5 4.5 7.9 4.5c3.2 0 5.6-1.4 7.2-4.2 1.9-3.2 2.8-7.4 2.8-12.6"/><path clip-path="url(#b)" fill-rule="evenodd" clip-rule="evenodd" fill="#745645" d="M191.4 286c.3-.7-.2-.9-1.2-.9-.2 0-.4 0-.4-.2 0-.3.3-.2.5-.2h3.8c.2 0 .8-.1.8.2 0 .3-.3.2-.5.2-.6.1-1.1.1-1.4.7-4.1 9.4-8.8 18.6-12.9 28-1.2 2.8-3.4 5-6.4 5.6-2.6.5-5.1-.3-6.9-2.4-1.7-2-2.3-4.3-1.2-6.7.8-1.7 2.6-2.3 4.4-1.4 1.8.9 2.2 4.1-.4 5.2-1 .4-1.5.8-.9 2 .6 1.5 2.6 2.5 4.7 2.1 2.1-.4 4.3-1.5 6-5.9.1-.3 0-.5-.1-.7-3.9-8.9-7.5-17.2-11.4-26.1-.2-.4-.6-.5-1.3-.5-.2 0-.6.1-.6-.2 0-.3.4-.2.6-.2h7.9c.2 0 .6-.1.6.2 0 .3-.4.2-.6.2-.7.1-1.3 0-1.1.6 2.7 6.3 6 14.4 8.8 20.6-.1.2 7.1-15.6 9.2-20.2"/><path clip-path="url(#b)" fill="#745645" d="M169.7 289.8c-.5-1-1.4-3.1-1.7-3.6-.4-.5-1.6-.7-2.8-.7-1.2 0-1.8-.2-1.8-.5s.3-.4.8-.4c.7 0 2.1 0 4.2.1 1.2 0 2.1.1 2.6.1l5.8-.1c.2-.1.5-.1.8-.1.6 0 .9.2.9.5s-.6.5-1.7.5c-2.1 0-3 .4-3 1.1 0 .6 1.5 3.4 3.1 7.7M178.2 315c.8-1.5 7.3-16.1 8.3-18.3l2.7-6.1c1.1-2.1 1.7-3.5 1.7-4.2 0-.4-.3-.7-.8-.8-1.2-.2-1.9-.2-2.3-.2-.7 0-1.1-.1-1.1-.5 0-.3.3-.4.9-.4h4.5c3.4-.1 5.1.1 5.1.5 0 .3-.3.4-.8.4-1.8 0-3 .4-3.4 1-.4.4-1.8 3.2-4.3 8.6-1.1 2.4-2.1 4.4-3.1 6.2M368.1 314.6c-.8-.1-.9.7-1 1.1-.3 1.3-1.5 2.2-3.1 2-1.4-.1-1.2-1.3-1.3-2.8v-30c0-.5.1-.9-.7-.9h-7.5c-.4 0-.6.1-.6.4 0 .2.3.3 1 .4 1.7.1 2.6.3 2.8.6.2.2.3 1.1.3 2.8V305.9c0 1.3-.2 2.7-.7 3.9-.9 2.3-2.8 5.3-5.3 6-3.4 1-6.2-.4-7.1-3.6-.2-.8-.3-1.8-.3-2.7v-24.4c0-.9-.2-1.1-1.1-1.1h-7.2c-.4 0-.6.1-.6.4 0 .2.3.3 1 .4 1.7.1 2.6.3 2.8.6.2.2.3 1.1.3 2.8v23.1c0 5.9 5.3 8.5 9.6 7.4 4.3-1.1 6.3-3.8 8.7-7.7 0 4.8 1.2 8.3 5.9 7.8 1.8-.2 3.7-1.5 4.3-2.7.2-.5.5-1.3-.2-1.5M357.1 271.9c-.2-.6-.5-1.4-1.2-1-.9.5-.1 1.2.1 1.5.4.8.5 1.6 0 2.5-1.2 2.4-3.1 2.9-4.3 3.2-2 .6-4.4-.6-5.1-2-.6-1.2-.2-1.6.8-2.1 2.6-1.3 1.9-4.5 0-5.3-1.9-.8-3.7-.1-4.3 1.7-.9 2.4-.1 4.7 1.7 6.6 2 2 4.6 2.7 7.2 2 1.7-.5 2.9-1.2 3.8-2.3 1.1-1.3 1.6-3.5 1.3-4.8M225 308.8c.8 1.8-2.2 6.1-3 7-1.3 1.5-4.5 4.1-9.5 3.9-4-.1-7.8-2.2-10.1-4.4-4.1-4-5.6-8.7-5.6-13.7 0-5.2 1.5-9.5 4.4-12.9 3-3.3 6.8-5 11.5-5 1.7 0 3.1.1 4.1.4 1 .3 2.3.9 3.8 1.7.7.4 1.3.7 1.7.7.3 0 .6-.3.9-.8.4-.9.8-1.4 1.1-1.4.3 0 .4.1.4.4 0 .1 0 .4-.1.7-.4 1.6-.5 4.6-.5 9 0 .6-.1 1-.2 1.1-.1.1-.2.2-.4.2-.3 0-.6-.3-.7-1-.4-2.7-1.1-4.7-1.9-6-1.6-2.7-4.2-4-7.7-4-2.7 0-4.8.9-6.4 2.7-2.8 3.2-4.3 8-4.3 14.2 0 5.6 1.2 9.9 3.5 13 2 2.7 4.6 3.7 6.7 3.9 1.7.2 5.4-.3 7.5-3.4 1.1-1.6 1.4-3.7 1.8-5.7.1-.8.4-1 .7-1.2.2-.2 1.8-.5 2.3.6M21.5 301.9v-14.3c0-2 0-2-2-2h-9.3v2.3c-.1 1.1-.2 1.3-.4 2-.1.3-.1.9-.4.8-.3 0-.3-.3-.3-.5V285c0-.8.7-.7 1.2-.7H26.6c.2 0 0 1.4 0 4.4v26.8c0 2.4.2 2.6 2.6 2.8.4 0 1-.1 1 .5 0 .5-.6.4-.9.4-3.1 0-7.3-.4-10.4-.4-.3 0-1.7.4-1.7-.1s1.3-.3 1.7-.3c2.8-.2 2.8-.2 2.8-3v-13.5zM2.4 320l-.4-1.2h.1c1.5-.5 2.6-1 3.2-1.6 1.7-1.5 3.7-8.1 3.5-30.3v-1.1h1.3v1.1c.1 18.5-.9 28.9-3.7 31.5-1.1 1-3.3 1.4-3.9 1.6h-.1z"/><path clip-path="url(#b)" fill="#745645" d="M8.8 287.3c0-1-.1-1.6-.4-1.7-.3-.2-1.2-.3-2.7-.3-.5 0-.8-.1-.8-.4 0-.3.4-.4 1.1-.4h4.6M26.5 287.3c0-1 .1-1.6.4-1.7.3-.2 1.2-.3 2.7-.3.5 0 .8-.1.8-.4 0-.3-.4-.4-1.1-.4h-4.6M12.3 319.4c-4 0-6.5.3-7.3.6-2.1.8-3.4 2.8-3.7 6.2-.1 1-.3 1.5-.7 1.5-.4 0-.6-.4-.6-1.1 0-.4 0-.7.1-1.1l.1-1.2c.1-1.5.3-3.6.5-6.1H3l12 .1h5.6l10.3-.1c.1 1.9.3 4.7.7 8.3 0 .1 0 .2.1.4v.3c0 .4-.2.7-.6.7s-.7-.4-.9-1.3c-.1-.6-.1-1.2-.2-1.8-.2-1.2-.6-2.2-1.2-3.1-.7-1.1-1.9-1.8-3.5-2.1-1-.2-3.9-.3-4.5-.3-2 .1-4.4.1-8.5.1M87.9 70.4c-.4 3 2.9 10.6 4.2 12.9.6 1.2 4.8-1 4.7 1.4-1.8 0-3.1-.4-5.6-.3-3-.2-6.9.4-8.5-.2.1-2.1 6.3.6 6.5-2.4.1-1.7-1.2-4.9-1.9-6.6-.3-.9-2.2-4.3-1.3-4.9"/><path clip-path="url(#b)" fill="#C39977" d="M113.3 74.7c-.8 3 1.3 7.8 2.4 10.1.6 1.2 4.3-.3 3.6 1.4-1.9.2-6.8.3-8.5.2.3-2 2.8 0 3-1.9.1-1.7-1.6-6-1.8-6.9-.3-1.1-.6-2.8.4-3.3M120.1 75.2c-.7 3.6 3.6 6.7 4.9 9 1.3 2 4.8-.2 4.7 1.4-1.4.4-7.4.6-9.1.7.1-2 2.4.2 2.9-1.4.4-1.6-3.4-4.3-4.4-7 0-.1-.5-1.5-.1-2.5"/><path clip-path="url(#b)" fill="#745645" d="M97.9 70.7c-.4 3 6 11 7.3 13.3.9 1.1 4.4.6 4.6 2.1-.6.2-11.6-1.8-12.5-1.3.1-2.1 4.2.2 4.7-2.3.4-1.6-5.7-9.6-5.6-9.8-.7-.9-1.2-1.8.6-2.6.3 0 0 .1.2.3M66.2 93.2s.1 0 .3-.1c.1 0 0 0-.3.1M158.3 80.8s-3.7 1.3-7 1.1c-3.4-.9-4.3-3.8-4.3-2 .2.2 2.6 2.2 2.5 2.2-4.9 2-30.5 5.9-42.5 3.5-5.9-1.2-21.3-1.8-28.6-1.1-4.3.4-16-2.3-16-2.3s-4.3-4-6.2-5.4c-1.3-1.1-5.4-3.5-7-2.4.9.1 1.2.4 2.1.6 2.9 1 6 4.3 8.8 7-6.8-.6-13.7 1.4-19.7 2.2-2.9.4-5.9.7-8.8.9-2.8.2-15.1-.3-15.1-.3s-2.9-.1-3.9-.8c-2.4-1.6-4.8-2-6.3-2 .3-.6.4-1.9-.7-2.2-1.7-.4-3.4 2.1-1.2 2.9.5.2 1 .1 1.4-.2.6 0 4.7.5 5.8 2.2-1.3.1-5.1-.1-6.9 1.3-.2-.1-.5-.5-1-.6-2-.6-4.2 2.4-1.7 3.7 1.5.8 3.1-.9 3-2.4 2.7-1.9 7.1-1 7.6-.8-1.1 1.2-3.8 2.4-4.2 4.3-.5-.1-1.4.2-1.6 1.2-.6 3.1 4.5 1.9 2.4-.9-.1-1.6 3.2-3.1 4.6-3.8.9-.5 3.1-.3 3.1-.3s13.8 1.3 22 0c6.4-1 16.6-2.8 22.8-1.6 6.9 1.3 9.9 2.3 14 2.8-5 1-9.7 3.8-11.5 4.9.7.1 2.4 0 2.6.1.4-.5 1.1-1 1.7-1.4 2.2-1.6 8-2.9 10.7-3.8l10-1c6-.4 13.6 1.2 18.9 1.9 18.6 2.3 45.7-3.2 52.8-4.5.2 0-2.4-.2-2.6-3"/><path clip-path="url(#b)" fill="#745645" d="M39.6 86.3c.4-.1 3.5-.6 4.3-.6-1.2.1-11.1 3.7-11.8 6.1-.1-.1-.5-.3-.6-.5 1.3-2.3 4.9-4.4 7.4-5 .1.1.5 0 .7 0"/><path clip-path="url(#b)" fill="#C39977" d="M138.4 34.5c-5.9.6-11 6.5-16.8 8.2-6.2 1.9-15.8 3.9-21.9 1.5-5.1-2-6-5.6-6.5-6.5C89.5 29.3 87 21.9 82.6 13c-.8-1.7-4.2-7.5-10.7-4.7-6 2.6-2.7 12.6 7.4 26.5 5.7 7.9 21.2 11.7 21.2 11.7 1.6 4.7 3.8 1.4 8.5 3.4 3.3 1.3 8.1 8.1 8.8 8.5-3.3 11.2-8.4 12.8-10.6 14.2 2 2 9.6 3.5 14.6 2.5 6.1-1.1 11-5 14.2-9.4 4.2-5.8 5.8-11.7 9.4-17.7 2.7-4.4 5.5-4.6 7.9-5-7.7-.2-8.9-9.1-14.9-8.5m1.2 9.4c-.9 0-1.6-.7-1.6-1.5 0-.9.7-1.6 1.5-1.6.9 0 1.6.6 1.6 1.5s-.7 1.6-1.5 1.6"/><path clip-path="url(#b)" fill="#745645" d="M124.1 39.4c2.5-7 4.1-9.4 6.8-9.9-5-1.7-10.2-7.9-15.7-7-6.2.9-9.4 9-16.5 12.6-2.3 1.3-4.2 1.9-10.2 3.7-4.9 1.2-9.3 2.7-13.4 2.4-8.4-.6-12-3.6-16.9-9.7C51.6 23.2 44 12.9 37.8 5c-1.3-1.7-5.2-7.3-12.3-3.9-6.5 3.1-.9 15.8 12.7 27.8 6.6 5.8 15.4 14.6 25.8 17.3 5.8 1.7 11.2-2.8 21.4-3 10.2-.2 12.2 5.6 13.3 7.8-2.2-2.7-4.5-6.2-13.3-6.2-8.6 0-14.6 4.9-21.5 3.9-2.8-.4-7.7-2.6-8.5-3.2-.9 11.3 10.5 17.6 17.1 20.2 9.2 3.6 20.1.6 25.6-2.9-4 3.4-8.9 5.9-16.2 6.3 3.8 4.1 14.7 5.4 20.4 3.6 2.5-.8 3.9-1.5 6.3-2.9 2.5-1.6 5.5-3.5 8.5-8.9 0 0 2.9-4.7 5.8-17.2 0 .1.9-3.4 1.2-4.3m-6.5-6.8c-.9.1-1.6-.6-1.7-1.5-.1-.9.6-1.6 1.5-1.7.9 0 1.6.6 1.7 1.5 0 .9-.6 1.6-1.5 1.7"/><path clip-path="url(#b)" fill="#E8C5C6" d="M147.1 80s.2 0-1 .1c-4.5.1-7.3-3.7-7.3-7.9.9.5 1.7.8 2.7 1 1.7.4 3.3.8 4.6 2 1.2 1 2 2.9 1.4 4.5l-.1.2-.3.1zM69.2 91.4c-.8 1.6-.9 1.7-.9 1.7s-3.4 6.6-9.4 8.1c-4.7 1.2-10.3-1-13.7-4 3.3-2 7.5-5.9 10.9-7.2 4.6-1.7 8.7-.7 12 .1-.1.1 1.4.3 1.1 1.3M50.7 73.5c-1.8-5.7-9-7.6-15-7.3-4.1.2-6.3 1-8.4 1.9-1.9.8-3.5 1-5.7.6-.3-.1-.5-.1-.8-.2 2.2 9.9 16.3 13.8 24.4 9.4 1.9-1 3.8-3.6 6.1-2.9M12.6 109.1c3.1-1.1 11.9-1.2 16.3-5.1 4.5-4 9.2-15.8-1.4-13.3-4.2 1-8 3.9-10.7 7.2-3.2 3.8-4.9 11.4-4.2 11.2"/><path clip-path="url(#b)" fill="#745645" d="M127.8 87.4c-1.4 1.7-1.7 2.1-2.2 3.3 0 0-1.4 3.4-5.5 5.1-1.2.3-3.8.2-3.8.2-1.3.1-3-.2-4.8 1.1-.2-.1.2-.6-.3-.8-2-.6-4.2 1.9-1.9 3.4 1.7 1.1 3.1-.7 2.6-2 1.7-1.6 4.9-1.3 5.4-1.1 0 0 1.3.3.8.7-1.6 1.1-2.8 1.7-3.2 3.1 0 0-2.4-1-2.9.9 0 0-1 2.6 1.4 2.8 0 0 1.3-.1 1.8-.7.4-.5 1-1.3.5-2.6 0 0-.7-1.6 5.9-4.1 0 0 3.4-1.2 6.8-6.5.8-1.8 5.3-2.5 9.8-2.7"/></svg>