<svg width="120" height="120" viewBox="0 0 120 120" xmlns="http://www.w3.org/2000/svg"><title>Group</title><desc>Created with Sketch Beta.</desc><g fill="none" fill-rule="evenodd"><g><g><path d="M65.19 10.618c-4.59-.164-9.606-.15-15.015.113l-.312-4.502c-.048-.7.455-1.316 1.147-1.395 2.843-.326 7.777-.658 13.31 0 .692.082 1.203.692 1.156 1.392l-.285 4.393zm35.445 20.738h.002l-.008-.253-.014-.685c-.003 0-.005-.002-.008-.003-.025-.76-.065-1.928-.124-3.303v-.01c-.075-2.02-.167-3.89-.335-6.23-.207-2.843-2.167-5.26-4.896-6.015-1.593-.44-3.08-.858-5.38-1.344l-.002-.003-.066-.01c-.204-.044-.404-.087-.622-.13v.01l-1.89-.358-.013-.003-.393-.075v.002c-1.13-.212-2.32-.42-3.588-.62.114-1.11-.655-2.123-1.766-2.275l-4.61-.626c-1.132-.154-2.173.65-2.318 1.794v.01c-1.795-.17-3.675-.317-5.646-.433l.38-5.817c.118-1.812-1.185-3.44-2.967-3.707-7.532-1.13-14.142-.49-17.41-.007-1.79.264-3.095 1.898-2.97 3.72l.414 5.966c-2.073.142-4.198.32-6.38.54-.182-1.098-1.194-1.864-2.3-1.714l-4.61.627c-1.07.145-1.823 1.096-1.77 2.158-.504.072-1.016.153-1.523.23l-.002-.006-.55.09c-.387.06-.767.112-1.158.175v.013l-2.016.327.006-.023c-.733.12-1.372.232-1.99.344h-.003c-1.056.193-2.053.387-3.348.64-2.885.563-5.088 2.936-5.413 5.878-.132 1.19-.233 2.256-.324 3.593 0 0-.158 2.172-.266 4.643-.003 0-.005 0-.008.002-.01.286-.02.59-.028.885-.038 1.034-.065 2.08-.063 3.01v.008c-.077 9.266.774 21.66 4.256 35.553.65 2.596 2.76 4.56 5.38 5.01 10.962 1.878 41.175 5.846 67.98-1.718 2.224-.628 3.99-2.335 4.653-4.565 1.58-5.322 4.08-16.807 3.705-35.297z" fill="#f50"/><path d="M58.753 71.816l13.102 11.042c.56.893 1.923.578 2.042-.472l1.223-10.8-16.367.23" fill="#f50"/><path d="M28.865 49.93c.394-.09.793-.15 1.186-.182.224-.018.45-.028.673-.028 3.938 0 7.42 2.813 8.28 6.69.497 2.228.1 4.52-1.114 6.45-1.216 1.93-3.102 3.268-5.316 3.766-.387.09-.785.15-1.186.183-.222.017-.448.026-.67.026-3.94 0-7.422-2.813-8.283-6.69-.496-2.228-.1-4.52 1.115-6.45 1.214-1.93 3.1-3.268 5.315-3.767zm-.17-.913c-.006 0-.01.003-.014.004l-.79.18-.384-1.73c-.083-.374.15-.745.523-.83.03-.007.063-.01.092-.014.02-.002.038-.002.056-.002.32 0 .602.228.672.543l.385 1.73-.524.117-.016.003zm-7.16 11.334c.955 4.296 4.816 7.415 9.182 7.415.248 0 .498-.01.745-.03.442-.037.885-.103 1.315-.2 2.453-.555 4.546-2.038 5.892-4.178s1.785-4.68 1.235-7.153c-.955-4.295-4.817-7.414-9.184-7.414-.146 0-.295.01-.443.018l-.375-1.69c-.177-.793-.893-1.37-1.703-1.37-.127 0-.254.014-.38.042-.935.21-1.527 1.152-1.318 2.097l.383 1.725c-1.682.752-3.108 1.985-4.115 3.587-1.345 2.138-1.785 4.677-1.236 7.15z" fill="#fff"/><path d="M25.17 54.73c.838-1.332 2.093-2.296 3.57-2.763l.27 1.21c.055.257.287.444.55.444h.042c.027-.002.054-.007.08-.012.146-.033.27-.122.35-.25.082-.128.108-.28.076-.428l-.266-1.2c.12-.017.238-.045.36-.055.172-.015.347-.022.52-.022 2.858 0 5.407 1.916 6.262 4.63l-1.065.24c-.304.067-.495.372-.427.677.056.257.287.444.55.444.014 0 .03 0 .043-.002.026 0 .054-.006.08-.012l1.062-.24c.21 1.543-.122 3.097-.962 4.43-.84 1.336-2.093 2.3-3.567 2.77l-.26-1.164c-.057-.257-.286-.444-.547-.444-.043 0-.085.005-.124.014-.148.033-.274.122-.354.25-.08.128-.107.28-.075.428l.257 1.15c-.12.017-.238.046-.36.056-.173.014-.348.02-.52.02-2.858 0-5.407-1.914-6.262-4.627l.997-.225c.147-.033.272-.122.352-.25.08-.127.107-.28.075-.428-.06-.257-.29-.444-.55-.444-.042 0-.085.005-.125.014l-.994.225c-.21-1.545.12-3.1.96-4.434zm-1.796 5.206c.763 3.435 3.85 5.93 7.343 5.93.198 0 .4-.01.596-.025.356-.03.71-.083 1.052-.16 4.05-.914 6.606-4.98 5.7-9.06-.763-3.436-3.85-5.93-7.343-5.93-.2 0-.4.01-.597.025-.35.027-.702.08-1.05.16-1.964.443-3.638 1.63-4.713 3.34-1.077 1.71-1.428 3.742-.988 5.72z" fill="#fff"/><path d="M31.33 61.802l-2.27-2.4c-.1-.108-.048-.286.095-.318l3.372-.76c.143-.034.267.104.22.245l-1.04 3.148c-.034.104-.124.148-.214.154-.063 0-.12-.024-.162-.07zm-.872.47c.25.265.585.41.946.41.035 0 .07 0 .105-.004.526-.043.972-.396 1.14-.9l1-3.032c.11-.336.035-.705-.19-.974-.005-.005-.005-.012-.01-.016l-.006-.007-.003-.006c-.003-.004-.008-.007-.012-.01l-3.03-3.054c-.104-.11-.243-.17-.392-.17-.235 0-.443.15-.516.372l-1.455 4.063c-.002.004.002.008.002.013l-.003.007c-.105.35-.016.73.235.995l2.188 2.313z" fill="#fff"/><path d="M39.384 34.964c-.12-.398-.39-.725-.754-.92-.365-.195-.783-.236-1.18-.114-.224.068-.425.185-.596.345-.428.397-.6 1.042-.43 1.603l.764 2.52c-.036-.01-.075-.01-.11-.02-.05-.015-.092-.038-.14-.054-.142-.05-.284-.105-.422-.176-.04-.02-.077-.045-.115-.067-.134-.076-.262-.16-.382-.254-.04-.032-.08-.065-.118-.098-.11-.094-.21-.196-.304-.303-.036-.042-.073-.08-.107-.124-.09-.114-.17-.238-.244-.364-.025-.042-.054-.08-.077-.125-.09-.17-.164-.346-.222-.532-.007-.037-.007-.076-.02-.11-.027-.066-.053-.13-.074-.198l-.49-1.616-.29-.952V33.4l-1.147-3.778-1.973-6.5c-.07-.265-.133-.574-.162-.87-.007-.116-.016-.233-.01-.35 0-.012 0-.024.002-.037.023-.362.106-.723.252-1.064.08-.187.182-.362.294-.528.03-.045.065-.088.098-.132.083-.11.175-.214.272-.313.053-.054.105-.108.162-.157.14-.123.287-.234.445-.33l.018-.012.004-.003c.21-.126.437-.23.68-.305 1.657-.51 3.418.434 3.926 2.104l4.03 13.283c.216.712.172 1.486-.124 2.18-.16.37-.39.696-.67.98l-.788-2.603zM34.05 36.87c.054.136.112.268.177.395.01.02.017.037.027.055.107.204.233.395.37.577.024.03.044.06.068.09.132.164.28.316.436.46.04.038.08.076.124.112.152.127.315.244.486.35.03.02.056.046.087.064-.345-.055-.682-.17-.995-.335-.728-.39-1.26-1.035-1.513-1.817l.734.048zm-3.745-12.29l2.554 8.414-.72-.036-2.46-8.102.625-.275zm8.563 13.787c-.185.057-.374.093-.563.114l-.884-2.91c-.073-.248.09-.557.336-.634.13-.04.265-.027.385.037s.206.17.246.3l.885 2.92c-.13.06-.26.13-.402.174zm-8.77-18.023c-.005.013-.013.026-.018.04-.018.04-.025.08-.04.12-.077.193-.146.387-.193.587l-.005.03c-.01.05-.016.104-.026.157l-.482.212c.172-.47.44-.906.802-1.246-.016.032-.023.068-.038.1zm-2.424 3.68l-.248-.553 2.327-1.018c.002.034.004.068.01.103.02.183.065.362.11.542.016.062.02.125.038.186l.06.193c.008.03.015.066.023.094l-2.107.93-.212-.475zm6.035 11.77l-10.336-.67 1.82-.815c.845-.38 1.773-.556 2.68-.51l5.31.264.525 1.73zM31.88 18.368c-.288.027-.567.075-.83.157-1.177.362-2.135 1.23-2.627 2.384-.152.353-.24.726-.29 1.104l-1.61.705c-.12.052-.217.15-.277.29-.05.13-.047.28.01.407l.253.566-.524.242-1.69-.785c-.128-.06-.277-.064-.408-.013-.132.05-.236.153-.292.284l-.688 1.637-1.572-.687c-.13-.056-.28-.057-.41-.002-.124.053-.222.15-.283.293v.002l-.52 1.342-.327-.345c-.15-.16-.384-.206-.583-.12l-1.716.742c-.256.112-.384.436-.274.69.055.13.157.23.286.282.128.052.27.05.397-.005l1.386-.6.644.677c.124.13.303.185.478.15.17-.033.31-.148.385-.323l.618-1.6 1.557.678c.127.055.272.057.4.006.128-.052.233-.154.288-.283l.683-1.624 1.42.662c.14.065.298.065.436 0l.737-.34.206.464c.118.263.425.38.685.266l.888-.39 2.314 7.62-3.106-.154c-1.07-.053-2.162.154-3.157.6l-2.667 1.193c-.39.175-.604.65-.467 1.036.11.31.387.514.726.536l9.837.638.1.334c.325 1.073 1.05 1.956 2.043 2.484.99.53 2.123.64 3.19.31.22-.067.44-.165.654-.275 1.062.02 1.935-.61 2.038-.69.014-.01.027-.02.038-.032.018-.015.026-.038.04-.056.17-.117.336-.24.49-.384.432-.403.77-.886 1.005-1.435.396-.926.455-1.957.167-2.906l-4.03-13.284c-.678-2.225-3.03-3.48-5.242-2.797-.286.086-.555.204-.81.348z" fill="#fff"/><path d="M32.892 22.055c-.062-.208-.05-.433.036-.634.05-.12.125-.223.22-.31.1-.095.218-.163.35-.203.233-.072.48-.048.695.067.215.116.373.308.444.542.06.2.046.422-.04.624-.11.255-.316.446-.565.525-.48.147-.992-.127-1.14-.61zm2.2 1.18c.2-.188.357-.412.466-.667.185-.432.212-.914.077-1.36-.315-1.038-1.412-1.625-2.442-1.307-.284.09-.538.236-.754.437-.543.502-.76 1.32-.545 2.025.315 1.04 1.41 1.625 2.44 1.308.286-.087.54-.234.756-.436z" fill="#fff"/><path d="M54.883 28.486c-.237.13-.487.23-.772.308-2.405.77-4.088.888-5.076.85-.746-.024-1.41-.51-1.68-1.214-.512-1.33-.867-2.552-1.075-3.345-.107-.4.073-.81.447-1.017 3.867-2.035 8.206-3.19 9.892-3.59.267-.066.548.106.62.373l.14.525c.387 1.446-.008 5.73-2.497 7.11zm3.28-7.887c-.152-.57-.623-.997-1.197-1.085-.19-.03-.38-.02-.567.023-1.72.41-6.15 1.588-10.105 3.67l-.05.025c-.74.412-1.108 1.276-.89 2.1.213.815.58 2.074 1.107 3.445.367.957 1.215 1.647 2.213 1.8.107.016.215.028.323.032 1.066.038 2.865-.084 5.38-.89.338-.09.663-.22.966-.39 2.963-1.644 3.417-6.497 2.96-8.206l-.14-.525z" fill="#fff"/><path d="M71.86 23.45c-.16.102-.318.195-.48.286-1.16.644-2.625 1.167-4.358 1.558-.936.26-1.94.09-2.96-.496-1.828-1.05-3.255-3.19-3.543-4.266l-.14-.524c-.064-.234.038-.48.247-.595.032-.017.066-.032.1-.042 1.655-.507 5.975-1.707 10.343-1.91.057-.002.115 0 .172.01.347.052.63.305.723.642.216.79.52 2.03.74 3.437.12.75-.213 1.498-.844 1.9zm-.463-6.934c-.12-.02-.246-.025-.37-.02-4.47.208-8.886 1.434-10.577 1.952-.098.03-.194.07-.284.12-.597.332-.89 1.027-.71 1.69l.14.526c.338 1.266 1.914 3.657 3.99 4.85.635.365 1.272.6 1.897.696.603.092 1.2.057 1.772-.102 1.804-.405 3.347-.96 4.585-1.647.18-.1.355-.202.532-.314.956-.61 1.458-1.734 1.278-2.868-.227-1.45-.54-2.726-.762-3.542-.192-.704-.778-1.23-1.49-1.34z" fill="#fff"/><path d="M74.314 23.27c-.102.56-.732 1.174-1.82 1.778-1.57.872-3.992 1.637-6.173 1.95-.444.065-.844.07-1.22.01-1.04-.16-1.722-.762-2.52-1.47-.35-.308-.713-.63-1.124-.918-.59-.416-1.37-.456-2.004-.105-.355.197-.632.497-.802.867-.156.343-.296.694-.435 1.043-.52 1.307-1.01 2.54-2.42 3.323-.17.096-.357.184-.55.264-2.665 1.087-5.252 1.58-6.92 1.324-.654-.1-1.158-.315-1.496-.637-.97-.926-1.65-4.362-1.903-5.655-.16-.805.208-1.612.914-2.007l.08-.043c4.86-2.7 12.266-4.702 12.343-4.722.07-.02 7.042-2.066 13.07-2.17.11 0 .22.006.326.023.692.106 1.264.585 1.49 1.25.59 1.728 1.367 4.796 1.164 5.895zm.942.177c.28-1.518-.8-5.21-1.2-6.384-.343-1.005-1.205-1.73-2.252-1.89-.16-.025-.323-.036-.486-.033-6.15.104-13.246 2.184-13.313 2.204-.075.02-7.55 2.03-12.548 4.806l-.08.045c-1.07.6-1.627 1.828-1.385 3.058.32 1.626.988 5.012 2.18 6.146.485.46 1.166.762 2.024.894 2.624.404 6.054-.837 7.406-1.39.23-.092.45-.197.655-.31 1.71-.95 2.288-2.405 2.847-3.812l.013-.034c.127-.32.26-.65.4-.96.085-.183.222-.332.396-.428.317-.176.702-.158.994.05.37.26.718.567 1.05.863.827.73 1.682 1.487 2.996 1.69.47.072.963.07 1.504-.01 1.736-.25 4.48-.94 6.498-2.06 1.367-.76 2.14-1.582 2.3-2.446z" fill="#fff"/><path d="M77.522 31.87c.07.11.18.187.307.214.032.007.067.012.102.012.228 0 .428-.163.476-.387.237-1.104 1.214-1.905 2.323-1.905.168 0 .335.018.5.054.26.055.523-.12.58-.377.056-.264-.112-.527-.375-.585-.23-.05-.468-.076-.703-.076-1.565 0-2.944 1.127-3.277 2.678-.028.128-.004.26.067.37" fill="#fff"/><path d="M78.467 32.963c-.08-.252-.36-.4-.614-.317-.123.04-.225.126-.284.243-.06.116-.07.25-.03.374.082.262.198.515.343.75.07.113.184.194.31.222.035.007.07.01.105.01.09 0 .178-.024.256-.072.11-.07.188-.178.218-.306.03-.127.01-.26-.06-.37-.103-.17-.185-.348-.245-.535" fill="#fff"/><path d="M88.722 34.464c.034.007.07.01.103.01.228 0 .428-.16.477-.386.237-1.103 1.214-1.903 2.323-1.903.167 0 .334.018.498.053.257.057.524-.117.58-.375.028-.13.003-.26-.068-.372-.07-.11-.18-.184-.306-.21-.233-.053-.47-.078-.705-.078-1.564 0-2.942 1.126-3.277 2.678-.056.264.11.527.374.584" fill="#fff"/><path d="M89.36 35.342c-.08-.252-.358-.397-.612-.317-.256.083-.398.36-.316.618.084.262.2.514.344.75.07.114.18.193.312.222.034.007.068.012.103.012.092 0 .18-.027.258-.074.228-.143.3-.446.158-.677-.103-.167-.185-.347-.245-.534" fill="#fff"/><path d="M87.65 33.727c.407-1.888 2.08-3.258 3.98-3.258.286 0 .573.03.854.09 2.186.48 3.575 2.676 3.097 4.9-.405 1.888-2.08 3.257-3.98 3.257-.284 0-.57-.03-.85-.092-1.058-.23-1.963-.868-2.55-1.794-.584-.926-.78-2.027-.55-3.103zm3.586-9.092c-.635 0-1.233.2-1.743.53l.228-1.058c.098-.452.497-.78.95-.78.067 0 .136.008.202.022.33.072.602.32.71.644l.232.703c-.192-.034-.385-.062-.578-.062zm-2.292 3.084l.058-.273c.23-1.06 1.168-1.83 2.234-1.83.16 0 .32.017.478.052.772.168 1.41.744 1.667 1.502l1.068 3.192c-.526-.363-1.12-.623-1.758-.763-.35-.075-.706-.113-1.06-.113-1.264 0-2.445.49-3.347 1.306l.66-3.074zm-2.26.717c.05-.005.11-.008.172-.008.23 0 .554.052.884.247l-.126.584c-.383-.18-.75-.24-1.026-.24l-.03.002.126-.585zm-5.094-.255c2.186.478 3.576 2.675 3.098 4.897-.407 1.888-2.08 3.26-3.98 3.258-.285 0-.572-.03-.853-.092-2.186-.478-3.575-2.675-3.098-4.898.406-1.888 2.08-3.258 3.98-3.258.284 0 .57.03.853.092zm4.448-1.382l-.718 3.34c-.63-1.437-1.896-2.563-3.524-2.918-.35-.077-.705-.115-1.06-.115-.29 0-.575.026-.854.076l2.28-2.46c.54-.576 1.373-.842 2.138-.673 1.227.268 2.006 1.502 1.738 2.75zm-.02-4.51c.253.055.468.206.608.427.14.22.186.485.13.742l-.224 1.044c-.45-.697-1.13-1.18-1.923-1.38l.5-.544c.228-.248.584-.36.91-.29zm10.115 10.037l-1.828-5.47c-.237-.702-.707-1.292-1.307-1.688l-.492-1.487c-.216-.653-.763-1.15-1.428-1.294-.134-.03-.272-.045-.41-.045-.907 0-1.707.653-1.9 1.553l-.718 3.34-.098.45c-.394-.174-.767-.235-1.056-.238l.095-.44v-.003l.72-3.34c.228-1.06-.438-2.11-1.484-2.338-.657-.144-1.372.084-1.832.58l-1.067 1.16c-.71.112-1.378.448-1.874.98l-3.91 4.215.005.007c-.86.714-1.495 1.712-1.744 2.868-.286 1.33-.043 2.696.683 3.843.727 1.147 1.85 1.937 3.16 2.223.35.076.707.115 1.06.115 2.323 0 4.368-1.65 4.908-3.933h.004l.723-3.364c.066-.01.145-.02.24-.02.212 0 .514.057.815.26l-.7 3.252v.007l-.02.097h.003c-.252 1.3-.008 2.624.7 3.742.728 1.147 1.85 1.937 3.163 2.224.348.075.705.114 1.06.114 2.354 0 4.43-1.695 4.93-4.032.247-1.142.1-2.308-.404-3.34h.003z" fill="#fff"/><path d="M68.06 43.66l-1.873 3.954-10.21-4.914 1.873-3.953c.705-1.487 2.217-2.402 3.852-2.33.545.025 1.073.16 1.57.398l2.87 1.382c.98.472 1.72 1.3 2.082 2.332.363 1.032.305 2.144-.164 3.13zm-4.846 6.52l-7.348-3.538c-.294-.14-.418-.496-.278-.792l.54-1.142c.14-.296.493-.42.787-.28l7.348 3.537c.294.14.42.496.28.792L64 49.9c-.14.295-.492.42-.786.28zM56.38 68.305c-.2.426-.634.688-1.102.668-.155-.007-.307-.046-.45-.114l-8.108-3.902c-.28-.135-.492-.373-.596-.668-.103-.296-.087-.614.047-.897l5.794-12.225.535-1.128 1.443-3.047 10.21 4.913-7.772 16.4zm-9.515-12.943l2.565-5.415 1.504.724-2.566 5.414-1.503-.723zm-1.702-.11l3.1-6.543c.15-.32.475-.514.826-.5.115.007.228.034.334.086l2.146 1.033-.084.176-.06.127-1.564-.752c-.524-.25-1.186-.014-1.433.51l-2.625 5.538c-.255.538-.028 1.186.507 1.445l1.563.75-.156.332-2.146-1.032c-.434-.21-.618-.734-.41-1.17zm24.06-15.318c-.503-1.267-1.517-2.262-2.74-2.85l-2.72-1.31c-.714-.342-1.48-.516-2.272-.512-2.04.01-3.868 1.293-4.748 3.15l-1.97 4.16c-.176.37-.02.814.347.99l.232.113-1.05 2.214-.232-.112c-.368-.177-.808-.02-.983.35l-1.025 2.162-2.145-1.033c-.246-.118-.507-.184-.778-.196-.81-.035-1.558.417-1.908 1.154l-3.1 6.542c-.478 1.01-.053 2.222.95 2.706l2.145 1.032-2.05 4.325c-.23.486-.327 1.04-.21 1.567.156.72.617 1.3 1.26 1.61l8.11 3.9c.28.138.58.213.89.227.928.04 1.785-.477 2.185-1.32l7.946-16.77c.176-.37.02-.813-.347-.99l-.233-.113 1.05-2.213.232.112c.367.176.807.02.983-.35l2.048-4.322c.633-1.333.682-2.842.133-4.223z" fill="#fff"/><path d="M58.34 40.457c-.284-.14-.627-.016-.762.27l-.52 1.095c-.135.286-.014.63.27.766.072.035.147.053.222.056.222.01.44-.11.54-.327l.52-1.093c.136-.286.015-.63-.27-.767" fill="#fff"/><path d="M63.554 37.44c-1.984-.952-4.37-.103-5.316 1.897-.136.286-.015.63.27.767.07.034.146.052.22.055.222.01.44-.112.54-.328.677-1.426 2.377-2.033 3.794-1.352.286.14.626.015.76-.27.137-.288.016-.632-.268-.77" fill="#fff"/><path d="M82.89 44.934c-.18-.087-.372-.142-.575-.162l-4.088-.395c-1.936-.187-3.7 1.118-4.104 3.036l-2.98 14.153c-.347 1.653.55 3.322 2.142 3.926 1.758.66 3.72-.246 4.375-2.018l6.066-16.43c.303-.82-.056-1.727-.836-2.11zm-10.374 21.39c-1.847-.905-2.84-2.954-2.412-4.98l2.98-14.153c.515-2.45 2.77-4.118 5.245-3.88l4.086.396c.33.032.646.12.94.265 1.274.626 1.86 2.107 1.366 3.447l-6.066 16.43c-.86 2.325-3.434 3.514-5.74 2.65-.138-.053-.27-.11-.4-.173z" fill="#fff"/><path d="M72.157 53.553c-.02-.01-.04-.02-.06-.034-.247-.164-.314-.496-.152-.743 3.153-4.825 8.43-5.21 8.65-5.226l.228-.013.167.155c.092.085 2.246 2.13 1.55 5.62-.06.29-.34.478-.627.42-.284-.058-.475-.34-.416-.63.476-2.388-.646-3.96-1.072-4.455-1.024.135-5.1.904-7.593 4.72-.15.227-.44.302-.675.186" fill="#fff"/><path d="M80.397 48.567c-.23-.113-.35-.378-.277-.633l.436-1.492c.083-.284.38-.447.66-.363.283.083.442.38.36.664l-.436 1.493c-.083.283-.38.446-.66.363-.03-.01-.057-.02-.083-.033" fill="#fff"/><path d="M88.852 47.17c-.42-.207-.915-.223-1.355-.046-.443.18-.778.527-.946.98l-6.065 16.43c-.652 1.765.218 3.74 2.002 4.408 1.57.588 3.36-.083 4.166-1.56L93.58 54.71c.938-1.718.45-3.87-1.138-5.003l-3.35-2.393c-.077-.056-.157-.103-.24-.145zm-7.136 22.603c-2.075-1.017-3.033-3.43-2.227-5.613l6.066-16.43c.27-.74.82-1.308 1.546-1.6.857-.346 1.83-.247 2.606.31l3.35 2.393c2.027 1.45 2.652 4.198 1.453 6.392L87.586 67.9c-1.06 1.938-3.41 2.817-5.468 2.046-.138-.052-.27-.11-.4-.173z" fill="#fff"/><path d="M90.99 60.615c-.2-.098-.325-.316-.295-.55.588-4.533-2-7.8-2.686-8.575-.647.092-2.507.534-3.7 2.666-.145.257-.474.343-.724.203-.255-.146-.346-.473-.202-.73 1.736-3.1 4.692-3.23 4.818-3.233l.226-.008.162.16c.16.157 3.902 3.924 3.16 9.653-.04.293-.305.5-.596.462-.06-.007-.114-.025-.164-.05" fill="#fff"/><path d="M87.986 51.413c-.26-.126-.37-.438-.25-.703l.638-1.417c.12-.27.437-.388.704-.266.278.123.385.44.264.71l-.64 1.416c-.12.27-.436.39-.703.267l-.014-.007" fill="#fff"/><g fill="#FF5600"><path d="M94.59 110.258c-3.184-1.477-6.913-5.065-10.055-12.454 4.9-2.575 9.3-7.683 11.437-13.636.796-2.195-5.153-3.63-5.237-2.238-.084 2.07-2.723 7.473-6.24 10.723.878-3.292 1.632-6.12 1.967-7.515.46-2.786-2.932-4.81-8.462-4.22-1.425.422-1.634 4.094-.796 4.643 3.1-.294 4.524-.294 3.896 1.985-.378 1.605-5.11 19.716-5.53 21.53-.042 1.057 3.52 2.07 4.23.72.21-.845 1.132-4.223 2.18-8.022 1.8 4.39 5.906 10.09 9.048 11.61 1.383.506 4.944-2.49 3.56-3.125"/><path d="M99.908 92.907c1.466.718 3.267.17 3.77-1.393.42-1.435-.293-2.49-1.13-2.83.208-.252.25-.632.083-1.012-1.926-1.014-3.602-.042-4.188 1.478-.545 1.435 0 3.08 1.466 3.757"/><path d="M118.41 85.18c-.672.043-1.845.127-3.143.17.293-.887.502-1.562.587-1.858.083-1.013-1.132-1.773-2.095-2.068-.965-.338-2.557-.55-2.808.17-.168.505-.587 2.025-1.215 4.094-1.634.084-2.89.17-3.184.17-1.424.083-.042 3.207 1.048 3.42.197.03.473.065.804.097-2.824 9.36-5.766 14.295-5.766 14.295-1.94 2.907-4.44 2.834-3.485-.25.713-2.366 2.388-6.925 2.808-8.065.042-1.055-1.13-1.773-2.094-2.11-1.006-.338-2.388-.507-2.723.21-.42.803-2.472 7.81-2.85 10.218-.67 3.42.043 5.868 2.096 6.543 2.303.802 5.134.16 7.41-3.692.376-.517.767-1.213 1.148-1.993-.395 2.967.357 5.07 2.233 5.686 2.306.802 4.15-.802 5.74-2.955.922-1.265 2.012-3.63 2.766-5.74.293-1.098-1.508-1.817-2.095-.76-.417.97-.837 1.9-1.297 2.744-1.97 3.8-3.017 3.42-2.347-.084.377-2.028 2.263-8.402 3.938-13.68.88.043 1.634.043 2.053.043 1.466-.042 5.027-4.77 2.472-4.602"/></g><g fill="#626161"><path d="M17.83 83.28c-1.047 4.18-5.99 22.503-7.876 26.218-.712 1.35-3.1 1.14-4.105-.084-3.436-4.01-7.165-16.76-3.897-26.006 1.383-3.8 6.158-2.575 4.86.422-1.802 4.053-3.226 13.214.67 20.012 1.676-5.87 4.818-18.83 5.488-21.7.587-2.45 5.405-1.056 4.86 1.14"/><path d="M20.825 99.112c-.377 1.35-.837 2.956-1.298 4.35-1.048 3.377 1.298 3.672 2.555.422.293-.718 1.215-3.716 1.34-4.222.545-2.238-1.675-3.25-2.597-.55zm12.233 2.533c-.754 2.07-1.886 4.35-2.807 5.658-1.59 2.153-3.392 3.59-5.738 2.955-1.215-.295-2.01-1.646-2.18-2.617-1.465 2.28-2.973 3.125-5.068 2.703-2.094-.423-3.435-2.49-2.597-6.628.335-1.985 1.005-4.518 1.508-6.29 1.927-6.038 7.5-4.898 8.504-2.28.167-.676.334-1.267.46-1.69.252-.717 1.843-.506 2.85-.168.962.338 2.135 1.055 2.094 2.11-.42 1.14-2.095 5.7-2.807 8.064-1.048 3.38.377 3.886 2.346.085.42-.844.88-1.772 1.298-2.744.588-1.054 2.43-.252 2.138.845z"/><path d="M44.995 101.645c-.796 2.07-1.886 4.265-2.723 5.573-3.644 5.91-14.202 3.462-12.19-5.91.502-2.28 1.842-5.108 3.267-6.84 2.22-2.194 7.58-1.52 8.377-.21.755 1.182-.042 5.15-1.55 6.712-1.13.76-3.016.253-3.183-.76 1.09-1.52 1.675-3.757 1.09-4.052-1.007-.17-2.39 1.688-3.394 5.446-1.383 5.235 3.98 7.81 6.87 1.9.42-.844.88-1.73 1.256-2.703.63-1.054 2.43-.252 2.18.845"/><path d="M48.22 99.112c-.378 1.35-.84 2.956-1.3 4.35-1.047 3.377 1.3 3.672 2.556.422.293-.718 1.215-3.716 1.34-4.222.545-2.238-1.675-3.25-2.597-.55zm12.232 2.533c-.754 2.07-1.885 4.35-2.807 5.658-1.592 2.153-3.394 3.59-5.74 2.955-1.214-.295-2.01-1.646-2.178-2.617-1.466 2.28-2.974 3.125-5.07 2.703-2.093-.423-3.434-2.49-2.596-6.628.336-1.985 1.006-4.518 1.51-6.29 1.926-6.038 7.497-4.898 8.503-2.28.168-.676.336-1.267.46-1.69.252-.717 1.844-.506 2.85-.168.963.338 2.136 1.055 2.094 2.11-.42 1.14-2.094 5.7-2.806 8.064-1.046 3.38.378 3.886 2.347.085.418-.844.88-1.772 1.298-2.744.587-1.054 2.43-.252 2.137.845z"/><path d="M62.46 112.242c-1.047.803-2.01 1.773-2.68 2.576-.42.506-1.006 1.52-.503 1.308 1.215-.97 2.262-2.28 3.184-3.884zm13.658-10.3c-1.676 4.854-4.86 6.965-7.54 7.81-.043 0-.085 0-.127.042-.04.042-.04.085-.04.126-2.472 5.32-5.698 8.74-9.26 9.373-1.298.253-3.1.043-3.476-1.14-.838-2.45 1.13-5.995 5.613-7.852-.167 0-.334-.042-.46-.042-2.095-.422-4.273-2.49-3.435-6.628.377-2.407 2.43-9.414 2.848-10.217.377-.717 1.76-.548 2.723-.21.964.337 2.137 1.055 2.095 2.11-.377 1.14-2.053 5.7-2.807 8.064-1.046 3.377 2.263 3.757 3.395.42 1.214-3.502 1.927-8.78 2.052-9.75.042-2.195 5.237-.634 5.028 1.182-.21 1.308-1.174 7.555-2.975 11.44 0 .042 0 .084-.042.126 2.01-.76 3.226-2.954 4.147-5.192.922-2.196 2.807-1.098 2.263.337z"/></g></g></g></g></svg>