<svg width="110" height="36" viewBox="0 0 110 36" xmlns="http://www.w3.org/2000/svg"><title>logo</title><desc>Created with Sketch Beta.</desc><g fill="none" fill-rule="evenodd"><g fill="#fff"><g><g><path d="M95.1 6.503c-.408-.196-.813-.296-1.207-.296-.957 0-1.782.596-2.155 1.553-.47 1.227.05 2.55 1.205 3.08.352.172.734.26 1.11.26.934 0 1.71-.534 1.98-1.36.322-1.102-.194-1.956-.873-2.228-.096-.038-.168-.12-.193-.22-.026-.1 0-.207.065-.286.104-.125.128-.308.07-.503zM15.643 1.047C15.162.43 14.172 0 13.236 0c-.93 0-1.567.42-1.743 1.15-.716 3.043-3.62 14.89-5.138 20.16l-.066.05-.06-.035C2.547 14.945 3.89 6.5 5.6 2.672c.284-.647.27-1.238-.038-1.71-.325-.495-.938-.79-1.643-.79-.943 0-2.16.568-2.743 2.164-3.11 8.727.587 20.555 3.63 24.083.464.558 1.29.92 2.107.92.757 0 1.352-.302 1.632-.83 1.783-3.487 6.49-20.87 7.364-24.335.098-.39.005-.78-.268-1.128zm42.392 28.21c-.916 1.582-1.917 2.792-3.06 3.7L54.9 33c-.082.035-.157.052-.23.052-.156 0-.294-.086-.358-.223-.21-.452.595-1.44.687-1.55.736-.874 1.67-1.763 2.563-2.443.122-.09.293-.086.408.015.116.102.143.27.066.404zm-10.866-11.77c-.112.446-.985 3.275-1.27 3.966-.556 1.43-1.403 2.32-2.208 2.32-.307 0-.58-.14-.766-.394-.37-.504-.38-1.405-.025-2.54.455-1.366.91-2.953 1.212-4.03.377-1.097 1.038-1.742 1.774-1.742.385 0 .738.18.993.504.366.468.472 1.166.288 1.914zm-25.643 0c-.112.446-.986 3.275-1.27 3.966-.557 1.43-1.404 2.32-2.21 2.32-.306 0-.578-.14-.764-.394-.37-.504-.378-1.405-.024-2.54.455-1.366.91-2.953 1.213-4.03.376-1.097 1.037-1.742 1.772-1.742.386 0 .738.18.994.504.367.468.472 1.166.29 1.914zm48.708 1.933c.113-.293.093-.576-.05-.784-.112-.163-.284-.256-.47-.256-.37 0-.74.358-.994.958-.796 1.915-1.978 4.216-4.068 5-.144.052-.304 0-.386-.13-.067-.104-.066-.235-.005-.338l.025-.088c.74-1.58 1.814-4.672 2.74-10.426l.02-.117c.02-.185-.068-.398-.266-.618-.543-.61-1.772-1.105-2.74-1.105-.695 0-1.052.23-1.06.682-.127.986-.803 5.9-1.94 9.158-.597 1.746-1.73 2.367-2.516 2.367-.463 0-.866-.2-1.134-.565-.402-.547-.452-1.4-.14-2.397.452-1.407 1.237-3.59 1.867-5.345.334-.93.613-1.706.748-2.104-.006-.734-.9-1.307-1.745-1.6-.46-.16-.95-.252-1.347-.252-.245 0-.676.037-.81.293-.295.557-1.7 5.193-2.362 8.06l-.023.068c-.213.443-.427.87-.63 1.278-.517.99-1.51 2.644-2.39 2.644-.214 0-.405-.098-.536-.275-.41-.56-.152-1.77.135-2.69.304-1 1.005-3.11 2.613-7.453-.01-.73-.9-1.302-1.745-1.595-.5-.167-1.085-.272-1.522-.272-.408 0-.682.087-.733.232-.11.372-.267.917-.423 1.538-.034.137-.152.236-.293.245-.138.02-.27-.075-.32-.206-.396-1.022-1.667-1.764-3.025-1.764-.927 0-3.206.376-4.327 3.863-.266.928-.654 2.344-.98 3.752-.325.743-.644 1.39-.92 1.94-1.043 2.114-2.55 3.33-4.136 3.33-.918 0-1.744-.417-2.326-1.173-.79-1.03-.998-2.542-.57-4.15.94-3.487 2.303-5.508 3.542-5.295l.09.03c.123.06.284.195.356.49.194.785-.337 2.414-1.167 3.624.157.373.756.66 1.42.66.38 0 .726-.092 1-.267 1.297-1.366 2-4.86 1.388-5.81-.29-.474-1.696-.98-3.465-.98-1.668 0-3.083.45-3.88 1.232-1.273 1.538-2.504 4.094-2.97 6.193-.116.536-.19 1.076-.215 1.604l-.033.128-.208.42c-.517.99-1.51 2.644-2.39 2.644-.215 0-.406-.098-.537-.275-.41-.56-.153-1.77.134-2.69.44-1.445 1.32-3.953 2.614-7.453-.008-.73-.9-1.302-1.744-1.595-.5-.167-1.086-.272-1.523-.272-.41 0-.683.087-.734.232-.11.372-.267.917-.423 1.538-.033.137-.152.236-.293.245-.135.02-.27-.075-.32-.206-.396-1.022-1.668-1.764-3.025-1.764-.928 0-3.206.376-4.328 3.863-.465 1.627-1.088 3.963-1.4 5.797-.41 2.012-.27 3.606.402 4.62.412.62 1.01 1.013 1.774 1.167 1.805.36 3.087-.327 4.41-2.37.073-.11.207-.166.336-.14.13.027.23.13.254.26.13.755.775 1.927 1.797 2.173 1.81.485 3.328-.33 5.037-2.624.084-.118.175-.257.267-.4.064-.097.176-.154.29-.147.117.007.22.075.272.18.952 1.93 2.964 3.128 5.25 3.128 1.988 0 3.778-.895 4.91-2.455.075-.103.2-.15.324-.13.123.025.22.118.252.24.316 1.263 1.092 2.053 2.246 2.284 1.804.36 3.086-.327 4.41-2.37.072-.11.207-.166.336-.14.13.027.23.13.253.26.13.755.776 1.927 1.797 2.173 1.783.48 3.278-.305 4.954-2.515.072-.093.186-.138.305-.125.115.018.213.097.254.207.472 1.262 1.528 2.17 2.825 2.43h.01c.027 0 .09.007.153.015.065.007.134.018.203.018.155 0 .287.11.317.26.03.15-.05.303-.194.36-4.084 1.68-5.786 4.823-5.073 6.892.277.863 1.61.93 2.013.93.294 0 .596-.03.875-.084 3.114-.55 6.097-3.556 8.41-8.47.01-.073.038-.173.13-.264.1-.104.216-.128.29-.133 2.246-.713 5.235-2.513 6.808-7.04zm3.452 7.278c.193-.764.93-3.454 2.03-7.415.037-.133.154-.228.292-.236h.02c.13 0 .248.078.298.2 1.617 3.91 5.43 9.23 8.313 10.615.03.01.106.022.193.022 1.005 0 2.802-1.403 2.962-2.14.026-.12 0-.156-.095-.2-2.584-1.19-6.342-4.19-9.575-11.734-.067-.155-.002-.335.147-.413 4.586-2.392 8.63-7.178 10.55-12.49.095-.257.054-.505-.123-.758-.56-.803-2.267-1.4-3.418-1.4-.47 0-.728.107-.735.208-.08 1.95-2.493 7.012-5.947 10.178-.107.097-.264.114-.386.038-.123-.075-.182-.22-.144-.36.857-3.182 1.537-5.716 1.84-6.972.114-.686-.066-1.33-.54-1.89C78.227.61 75.547-.022 72.334.32c-.367.114-.73.79-.864 1.71-.136.936.012 1.7.197 1.947.744-.07 1.35-.114 1.857-.114.706 0 1.483.072 1.884.6.3.395.334.96.106 1.78-.162.686-1.215 4.72-2.33 8.994-1.295 4.964-2.635 10.097-2.843 10.993.002-.005.048.07.13.157.38.395 1.335.716 2.13.716.317 0 .87-.053 1.085-.402zm35.818-22.42l-.287.02c-.65.042-1.613.105-2.664.14-.11-.005-.207-.046-.27-.13-.063-.086-.08-.196-.048-.296.273-.817.468-1.44.546-1.712.05-.695-1.014-1.302-1.745-1.524-.944-.33-2.125-.342-2.23-.045-.07.214-.194.637-.364 1.22-.196.67-.454 1.55-.766 2.573-.04.13-.157.22-.293.227-.657.034-1.25.068-1.733.096-.65.036-1.104.062-1.263.062-.11.007-.226.037-.245.315-.05.747.744 2.117 1.286 2.22.17.03.422.06.723.09.095.01.182.06.235.14.054.082.07.182.04.274-2.624 8.632-5.4 13.305-5.43 13.35-.885 1.32-1.98 2.13-2.866 2.13-.385 0-.71-.158-.92-.443-.342-.464-.363-1.217-.06-2.182.303-1.002 1.005-3.11 2.613-7.455-.01-.73-.9-1.3-1.745-1.594-.48-.16-.98-.252-1.374-.252-.24 0-.662.037-.777.28-.35.663-2.282 7.138-2.64 9.404-.608 3.08.027 5.162 1.742 5.72.513.18 1.028.267 1.538.267 1.9 0 3.637-1.228 5.02-3.552.337-.462.69-1.068 1.064-1.83.07-.142.233-.21.383-.166.152.046.248.195.226.352-.357 2.67.307 4.42 1.872 4.93 1.703.59 3.22-.223 5.014-2.63.78-1.06 1.777-3.122 2.543-5.25.034-.134.003-.284-.1-.42-.153-.2-.44-.333-.713-.333-.176 0-.417.055-.563.315-.334.775-.753 1.71-1.214 2.548-1.397 2.674-2.054 2.675-2.27 2.675-.18 0-.346-.08-.467-.226-.118-.143-.477-.58-.06-2.744.354-1.89 2.128-7.84 3.696-12.744.044-.14.173-.25.322-.224.815.04 1.525.04 1.907.04.853-.026 2.843-2.38 2.83-3.36-.002-.132-.028-.303-.497-.27z"/></g></g></g></g></svg>