<svg width="130" height="90" viewBox="0 0 130 90" xmlns="http://www.w3.org/2000/svg"><title>Shape</title><desc>Created with Sketch Beta.</desc><g fill="none" fill-rule="evenodd"><g fill="#62CE51"><g><path d="M129.365 9.5l-48.85-48.864c-.406-.402-.966-.636-1.54-.636-.572 0-1.135.234-1.54.64L.64 37.42c-.405.41-.64.97-.64 1.544 0 .582.23 1.128.64 1.537l48.868 48.862c.412.41.96.638 1.54.638.584 0 1.13-.23 1.543-.638l76.775-76.784c.847-.85.847-2.232 0-3.08zM24.738 28.327l43.605-43.6 4.633-4.636-.313 6.546-1.99 41.616-.11 2.303-2.3.108-41.61 1.98-6.547.312 4.632-4.63zm89.838-15.5l-61.74 61.737-1.79 1.79-1.79-1.79L22.085 47.4l-4.05-4.05 5.718-.27 51.94-2.48c1.297-.053 2.478-.578 3.432-1.517.892-.896 1.427-2.096 1.483-3.363l2.47-51.975.27-5.717 4.05 4.045 27.175 27.174 1.79 1.787-1.79 1.794z"/></g></g></g></svg>