<svg version="1" xmlns="http://www.w3.org/2000/svg" width="48" height="48" viewBox="0 0 48 48"><path fill="#FFF" d="M41.3 24.1c-1.1 0-2 .9-2 2v10.3c0 3-1.9 5.7-4.7 6.7-.8.3-1.6.5-2.5.5H11.4c-4 0-7.2-3.2-7.2-7.2V15.8c0-4 3.2-7.2 7.2-7.2h10.3c1.1 0 2-.9 2-2s-.9-2-2-2H11.4C5.2 4.6.1 9.6.1 15.9v20.6c0 6.2 5.1 11.3 11.3 11.3H32c1.4 0 2.7-.2 3.9-.7 4.4-1.6 7.3-5.9 7.3-10.6V26.1c.1-1.1-.8-2-1.9-2z"/><g fill="#FFF"><path d="M37.2 17c-3.5 0-6.3-2.8-6.3-6.3s2.8-6.3 6.3-6.3 6.3 2.8 6.3 6.3c.1 3.4-2.8 6.3-6.3 6.3zm0-16.8c-5.7 0-10.4 4.7-10.4 10.4S31.5 21 37.2 21s10.4-4.7 10.4-10.4S43 .2 37.2.2zM16.1 21.8c0 1.1.9 2 2 2h7.1c1.1 0 2-.9 2-2s-.9-2-2-2h-7.1c-1.1 0-2 .9-2 2zM25.3 28.4h-7.1c-1.1 0-2 .9-2 2s.9 2 2 2h7.1c1.1 0 2-.9 2-2s-.9-2-2-2z"/></g></svg>