<svg xmlns="http://www.w3.org/2000/svg" width="35" height="35" viewBox="-9 -7 35 35" enable-background="new -9 -7 35 35"><title>Fill 2</title><desc>Created with Sketch Beta.</desc><g><g><g><g><g><path fill="#fff" d="M3.716 20.65c-.113-1.023-.215-2.592.045-3.707.235-1.008 1.516-6.422 1.516-6.422s-.386-.773-.386-1.917c0-1.796 1.042-3.138 2.338-3.138 1.102 0 1.635.828 1.635 1.82 0 1.108-.706 2.766-1.07 4.302-.304 1.286.645 2.335 1.913 2.335 2.297 0 4.062-2.422 4.062-5.917 0-3.094-2.223-5.256-5.397-5.256-3.675 0-5.833 2.756-5.833 5.606 0 1.11.428 2.3.96 2.95.106.126.122.24.09.37-.098.407-.316 1.285-.358 1.465-.057.237-.19.287-.433.173-1.614-.75-2.623-3.11-2.623-5.005C.174 4.232 3.134.49 8.71.49c4.483 0 7.966 3.193 7.966 7.462 0 4.453-2.808 8.036-6.705 8.036-1.308 0-2.54-.68-2.96-1.483l-.805 3.07c-.292 1.123-1.08 2.53-1.606 3.388 1.208.373-5.69-2.196-.884-.314z"/></g></g></g></g></g></svg>