<svg version="1" xmlns="http://www.w3.org/2000/svg" width="40" height="40" viewBox="0 0 40 40"><path fill="#F7F2CA" d="M31 18.2c0-1.2-.2-2.3-.7-3.5-.4-1.1-1.1-2.2-2-3.1-.9-.9-1.9-1.6-3.1-2S23 9 21.8 9c-1.2 0-2.3.2-3.5.7s-2.2 1.1-3.1 2c-.8.8-1.4 1.6-1.8 2.6-.4.9-.7 1.9-.8 3-.1 1 0 2 .2 3.1.2 1 .6 2 1.2 2.8l-4 4c-.5.5-.7 1.1-.7 1.7s.2 1.1.7 1.6c.5.5 1 .7 1.7.7s1.2-.2 1.7-.7l4.2-4.2c.9.5 1.8.8 2.7.9.9.2 1.9.2 2.8 0 .9-.1 1.9-.4 2.8-.9.9-.4 1.7-1 2.4-1.7.9-.9 1.6-1.9 2-3.1.5-1 .7-2.2.7-3.3zm9 1.8c0 1.8-.2 3.6-.7 5.3-.5 1.7-1.2 3.3-2 4.8-.9 1.5-1.9 2.8-3.1 4-1.2 1.2-2.6 2.3-4 3.1-1.5.9-3.1 1.5-4.8 2-1.8.6-3.6.8-5.4.8-1.8 0-3.6-.2-5.3-.7-1.7-.5-3.3-1.2-4.8-2-1.5-.9-2.8-1.9-4-3.1-1.2-1.2-2.3-2.6-3.1-4-.9-1.5-1.5-3.1-2-4.8C.2 23.6 0 21.8 0 20s.2-3.6.7-5.3c.5-1.7 1.2-3.3 2-4.8.9-1.5 1.9-2.8 3.1-4 1.2-1.2 2.6-2.3 4-3.1 1.5-.9 3.1-1.5 4.8-2C16.4.2 18.2 0 20 0c2.7 0 5.3.5 7.8 1.6 2.4 1.1 4.6 2.5 6.4 4.3 1.8 1.8 3.2 3.9 4.3 6.4 1 2.4 1.5 5 1.5 7.7zm-13.4-3.8c.2.6.4 1.3.4 1.9s-.1 1.3-.4 1.9c-.2.6-.6 1.2-1.1 1.7s-1.1.9-1.7 1.1c-.6.3-1.3.4-1.9.4s-1.3-.1-1.9-.4c-.6-.3-1.2-.6-1.7-1.1s-.9-1.1-1.1-1.7c-.3-.6-.4-1.3-.4-1.9s.1-1.3.4-1.9c.3-.6.6-1.2 1.1-1.7.5-.5 1.1-.9 1.7-1.1.6-.2 1.3-.4 1.9-.4s1.3.1 1.9.4c.6.2 1.2.6 1.7 1.1.4.5.8 1.1 1.1 1.7z"/></svg>