<svg xmlns="http://www.w3.org/2000/svg" width="35" height="35" viewBox="-8 -10 35 35" enable-background="new -8 -10 35 35"><title>Shape 6</title><desc>Created with Sketch Beta.</desc><g><g><g><g><g><path fill="#fff" d="M16.185 2.372c.763-.47 1.348-1.21 1.624-2.095-.715.434-1.505.75-2.347.92C14.79.46 13.83 0 12.768 0c-2.04 0-3.693 1.695-3.693 3.787 0 .297.032.586.095.863C6.1 4.492 3.38 2.984 1.56.693c-.32.56-.5 1.21-.5 1.904 0 1.314.65 2.473 1.642 3.152-.605-.02-1.175-.19-1.672-.475v.048c0 1.834 1.273 3.365 2.962 3.713-.31.087-.636.133-.973.133-.24 0-.47-.025-.696-.07.47 1.506 1.834 2.6 3.45 2.63-1.264 1.017-2.856 1.622-4.586 1.622-.298 0-.592-.018-.88-.053C1.937 14.372 3.88 15 5.965 15c6.792 0 10.507-5.77 10.507-10.774 0-.164-.004-.327-.01-.49.72-.534 1.347-1.2 1.84-1.96-.66.3-1.37.504-2.118.596z"/></g></g></g></g></g></svg>