<svg version="1" xmlns="http://www.w3.org/2000/svg" width="35" height="35" viewBox="0 0 35 35"><title>Rectangle 350</title><desc>Created with Sketch Beta.</desc><g><path fill="#fff" d="M28.73 12.63c-.23-1.64-1.77-3.02-3.42-3.08 0 0-5.57-.22-7.83-.22-2.25 0-7.82.22-7.82.22-1.66.06-3.18 1.44-3.41 3.08 0 0-.55 3.64-.55 4.82 0 1.18.55 4.82.55 4.82.22 1.64 1.75 3.04 3.41 3.12 0 0 5.57.28 7.82.28 2.26 0 7.83-.28 7.83-.28 1.66-.08 3.19-1.48 3.42-3.12 0 0 .57-3.64.57-4.82 0-1.18-.57-4.82-.57-4.82zm-13.75 8.32v-7l7 3.5-7 3.5z"/></g></svg>