<svg width="30" height="30" viewBox="0 0 30 30" xmlns="http://www.w3.org/2000/svg"><title>Slice 1</title><desc>Created with Sketch Beta.</desc><g fill="none" fill-rule="evenodd"><path d="M0 0h30v30H0z"/><path d="M17.625 5.452c-1.6-.057-3.35-.052-5.237.04l-.11-1.56c-.016-.24.16-.455.4-.482.992-.113 2.713-.228 4.643 0 .243.028.42.24.404.482l-.1 1.52zm12.362 7.178l-.002-.088-.005-.237h-.003c-.008-.265-.022-.67-.043-1.144v-.003c-.026-.7-.058-1.347-.117-2.156-.072-.983-.755-1.82-1.707-2.08-.556-.153-1.074-.298-1.877-.466l-.023-.005c-.07-.016-.14-.03-.217-.046v.004l-.66-.124h-.004l-.138-.027c-.394-.072-.81-.145-1.252-.214.04-.383-.228-.734-.615-.787l-1.608-.216c-.395-.054-.758.225-.808.62l-.002.004c-.625-.06-1.28-.11-1.968-.15l.132-2.013c.04-.626-.413-1.19-1.035-1.282-2.627-.39-4.932-.17-6.072-.002-.625.09-1.08.657-1.035 1.287l.144 2.065c-.723.05-1.465.11-2.225.187-.065-.38-.418-.645-.804-.593l-1.607.216c-.375.05-.637.38-.62.747-.175.025-.353.053-.53.08v-.002l-.193.03-.403.06V6.3l-.704.112.002-.008c-.255.042-.478.08-.694.12-.37.066-.717.134-1.17.22C1.124 6.94.356 7.762.242 8.78c-.044.41-.08.78-.11 1.243 0 0-.056.752-.094 1.607H.033l-.01.307c-.013.358-.022.72-.022 1.042h.002c-.028 3.208.27 7.498 1.484 12.306.227.898.963 1.578 1.876 1.734 3.823.65 14.36 2.023 23.71-.595.775-.217 1.39-.808 1.622-1.58.552-1.842 1.423-5.816 1.293-12.215z" fill="#FF5600"/></g></svg>