<?xml version="1.0" encoding="utf-8"?>
<!-- Generator: Adobe Illustrator 16.0.0, SVG Export Plug-In . SVG Version: 6.00 Build 0)  -->
<!DOCTYPE svg PUBLIC "-//W3C//DTD SVG 1.0//EN" "http://www.w3.org/TR/2001/REC-SVG-20010904/DTD/svg10.dtd">
<svg version="1.0" id="Layer_1" xmlns:sketch="http://www.bohemiancoding.com/sketch/ns"
	 xmlns="http://www.w3.org/2000/svg" xmlns:xlink="http://www.w3.org/1999/xlink" x="0px" y="0px" width="40px" height="40px"
	 viewBox="-2.5 -2.5 40 40" enable-background="new -2.5 -2.5 40 40" xml:space="preserve">
<title>Group</title>
<desc>Created with Sketch Beta.</desc>
<g id="Page-1" sketch:type="MSPage">
	<g id="desktop_wide_01" transform="translate(-1112.000000, -3478.000000)" sketch:type="MSArtboardGroup">
		<g id="Group-4" transform="translate(0.000000, 3459.000000)" sketch:type="MSLayerGroup">
			<g id="social_btns" transform="translate(1015.000000, 10.000000)" sketch:type="MSShapeGroup">
				<g id="google_x2B__x5F_icon" transform="translate(90.000000, 0.000000)">
					<g id="Group" transform="translate(7.000000, 9.000000)">
						<path id="Shape" d="M37.5,5.5h-6v-5.9h-2v5.9h-6v2h6v5.9h2V7.4h6V5.5L37.5,5.5z"/>
						<path id="Shape_1_" d="M16.1,20.2c-1-0.7-2.9-2.4-2.9-3.5c0-1.2,0.3-1.8,2.2-3.2c1.9-1.4,3.2-3.5,3.2-5.8
							c0-2.8-1.3-5.5-3.6-6.4h3.5l2.5-1.8H9.7c-5,0-9.7,3.8-9.7,8.2c0,4.5,3.4,8.1,8.5,8.1c0.4,0,0.7,0,1,0
							c-0.3,0.6-0.6,1.3-0.6,2.1c0,1.2,0.7,2.2,1.5,3.1c-0.6,0-1.3,0-1.9,0c-6.2,0-11,3.9-11,8c0,4,5.2,6.5,11.5,6.5
							c7.1,0,11-4,11-8C20,24.2,19,22.3,16.1,20.2L16.1,20.2L16.1,20.2z M10.1,14.6L10.1,14.6c-2.9-0.1-5.6-3.2-6.1-7
							C3.4,3.9,5.4,1,8.3,1.1c2.9,0.1,5.6,3.1,6.1,6.9C14.9,11.8,13,14.7,10.1,14.6L10.1,14.6L10.1,14.6z M8.9,33.7L8.9,33.7
							c-4.3,0-7.4-2.7-7.4-5.9c0-3.2,3.9-5.8,8.2-5.8c1,0,1.9,0.2,2.8,0.4c2.3,1.6,4,2.5,4.5,4.4c0.1,0.4,0.1,0.8,0.1,1.1
							C17.1,31.1,15,33.7,8.9,33.7L8.9,33.7z"/>
					</g>
				</g>
			</g>
		</g>
	</g>
</g>
</svg>
