<?xml version="1.0" encoding="utf-8"?>
<!-- Generator: Adobe Illustrator 16.0.0, SVG Export Plug-In . SVG Version: 6.00 Build 0)  -->
<!DOCTYPE svg PUBLIC "-//W3C//DTD SVG 1.0//EN" "http://www.w3.org/TR/2001/REC-SVG-20010904/DTD/svg10.dtd">
<svg version="1.0" id="Layer_1" xmlns:sketch="http://www.bohemiancoding.com/sketch/ns"
	 xmlns="http://www.w3.org/2000/svg" xmlns:xlink="http://www.w3.org/1999/xlink" x="0px" y="0px" width="40px" height="40px"
	 viewBox="-2.5 -2.5 40 40" enable-background="new -2.5 -2.5 40 40" xml:space="preserve">
<g id="pinterest_icon" transform="translate(135.000000, 0.000000)">
	<path id="Fill-2" d="M-126.7,36.9c-0.2-2-0.4-5.1,0.1-7.2c0.5-2,3-12.5,3-12.5s-0.8-1.5-0.8-3.7c0-3.5,2-6.1,4.6-6.1
		c2.2,0,3.2,1.6,3.2,3.6c0,2.2-1.4,5.4-2.1,8.4c-0.6,2.5,1.3,4.6,3.7,4.6c4.5,0,7.9-4.7,7.9-11.6c0-6-4.3-10.3-10.5-10.3
		c-7.2,0-11.4,5.4-11.4,11c0,2.2,0.8,4.5,1.9,5.8c0.2,0.2,0.2,0.5,0.2,0.7c-0.2,0.8-0.6,2.5-0.7,2.9c-0.1,0.5-0.4,0.6-0.8,0.3
		c-3.2-1.5-5.1-6.1-5.1-9.8c0-8,5.8-15.3,16.7-15.3c8.8,0,15.6,6.2,15.6,14.6c0,8.7-5.5,15.7-13.1,15.7c-2.6,0-5-1.3-5.8-2.9
		c0,0-1.3,4.8-1.6,6c-0.6,2.2-2.1,4.9-3.1,6.6C-126.7,36.9-125,37.5-126.7,36.9z"/>
</g>
</svg>
