<svg xmlns="http://www.w3.org/2000/svg" viewBox="0 0 164 164" enable-background="new 0 0 164 164"><g fill="#fff"><path d="M100.9 89H61.6c-1.2 0-2.1-.9-2.1-2.1V52.3c0-1.2.9-2.1 2.1-2.1H101c1.2 0 2.1.9 2.1 2.1v34.6c-.1 1.1-1 2.1-2.2 2.1zm-37.2-4.2h35.2V54.4H63.7v30.4zM95.5 54.4c-1.2 0-2.1-.9-2.1-2.1V47H69.1v5.2c0 1.2-.9 2.1-2.1 2.1s-2.1-.9-2.1-2.1v-7.3c0-1.2.9-2.1 2.1-2.1h28.5c1.2 0 2.1.9 2.1 2.1v7.3c0 1.2-.9 2.2-2.1 2.2zM92.3 47c-.7 0-1.4-.4-1.8-1.1l-4.1-7.1H76.3L71.5 46c-.6 1-1.9 1.2-2.9.6s-1.2-1.9-.6-2.9l5.4-8.2c.4-.6 1-.9 1.7-.9h12.5c.8 0 1.4.4 1.8 1.1l4.7 8.2c.6 1 .2 2.3-.8 2.9-.2.1-.6.2-1 .2zM81.5 47c-1.2 0-2.1-.9-2.1-2.1V23l-2.7 8.3v5.4c0 1.2-.9 2.1-2.1 2.1s-2.1-.9-2.1-2.1V31c0-.2 0-.4.1-.7l6.9-21.1c.3-1 1.3-1.6 2.3-1.4 1 .2 1.8 1 1.8 2.1v35c0 1.2-1 2.1-2.1 2.1zM81.5 47c-1.2 0-2.1-.9-2.1-2.1v-35c0-1 .7-1.9 1.8-2.1 1-.2 2 .4 2.3 1.4l6.9 21.1c.1.2.1.4.1.7v5.7c0 1.2-.9 2.1-2.1 2.1s-2.1-.9-2.1-2.1v-5.4L83.6 23v21.9c0 1.2-1 2.1-2.1 2.1zM74.3 54.4c-1.2 0-2.1-.9-2.1-2.1V45c0-1.2.9-2.1 2.1-2.1s2.1.9 2.1 2.1v7.3c0 1.1-1 2.1-2.1 2.1zM81.3 54.4c-1.2 0-2.1-.9-2.1-2.1V45c0-1.2.9-2.1 2.1-2.1s2.1.9 2.1 2.1v7.3c0 1.1-1 2.1-2.1 2.1zM88.2 54.4c-1.2 0-2.1-.9-2.1-2.1V45c0-1.2.9-2.1 2.1-2.1s2.1.9 2.1 2.1v7.3c0 1.1-1 2.1-2.1 2.1zM81.3 83.3c-7.6 0-13.8-6.2-13.8-13.8s6.2-13.8 13.8-13.8S95 62 95 69.6s-6.2 13.7-13.7 13.7zm0-23.3c-5.3 0-9.6 4.3-9.6 9.6s4.3 9.6 9.6 9.6 9.6-4.3 9.6-9.6-4.4-9.6-9.6-9.6zM81.3 71.7c-.4 0-.8-.1-1.2-.4l-2.5-1.7c-1-.7-1.2-2-.5-2.9s2-1.2 2.9-.5l1.3.9 4.4-3.2c.9-.7 2.3-.5 2.9.5.7.9.5 2.3-.5 2.9l-5.6 4c-.4.2-.8.4-1.2.4zM67 148.3c-1.2 0-2.1-.9-2.1-2.1V86.9c0-1.2.9-2.1 2.1-2.1s2.1.9 2.1 2.1v59.3c0 1.1-1 2.1-2.1 2.1zM53.3 148.4c-1.2 0-2.1-.9-2.1-2.1v-45.2l-.7 1.3c-.4.7-1.1 1.1-1.9 1.1-.8 0-1.5-.5-1.9-1.2l-.5-1v44.9c0 1.2-.9 2.1-2.1 2.1s-2.1-.9-2.1-2.1V92.4c0-1 .7-1.8 1.6-2 .9-.2 1.9.2 2.4 1.1l2.6 5.3 2.7-5.3c.4-.9 1.4-1.3 2.4-1.1.9.2 1.6 1.1 1.6 2v53.9c.1 1.2-.9 2.1-2 2.1zM31.3 148.4c-1.2 0-2.1-.9-2.1-2.1v-45.9l-1 1.8c-.4.7-1.1 1.1-1.9 1.1-.8 0-1.5-.5-1.8-1.2l-.1-.3v44.5c0 1.2-.9 2.1-2.1 2.1s-2.1-.9-2.1-2.1V92.4c0-1 .7-1.8 1.6-2 1-.2 1.9.3 2.4 1.2l2.4 5.1 3-5.3c.5-.8 1.4-1.2 2.4-1 .9.2 1.6 1.1 1.6 2v53.9c-.2 1.2-1.1 2.1-2.3 2.1zM95.5 148.3c-1.2 0-2.1-.9-2.1-2.1V86.9c0-1.2.9-2.1 2.1-2.1s2.1.9 2.1 2.1v59.3c0 1.1-.9 2.1-2.1 2.1zM74.3 148.3c-1.2 0-2.1-.9-2.1-2.1V86.9c0-1.2.9-2.1 2.1-2.1s2.1.9 2.1 2.1v59.3c0 1.1-1 2.1-2.1 2.1zM81.5 148.3c-1.2 0-2.1-.9-2.1-2.1V86.9c0-1.2.9-2.1 2.1-2.1s2.1.9 2.1 2.1v59.3c0 1.1-1 2.1-2.1 2.1zM88.4 148.3c-1.2 0-2.1-.9-2.1-2.1V86.9c0-1.2.9-2.1 2.1-2.1s2.1.9 2.1 2.1v59.3c0 1.1-.9 2.1-2.1 2.1zM44.2 109.5H31.3c-1.2 0-2.1-.9-2.1-2.1s.9-2.1 2.1-2.1h12.8c1.2 0 2.1.9 2.1 2.1s-.9 2.1-2 2.1zM22.3 109.5H8.5c-1.2 0-2.1-.9-2.1-2.1s.9-2.1 2.1-2.1h13.8c1.2 0 2.1.9 2.1 2.1s-1 2.1-2.1 2.1zM66.9 109.5H53.2c-1.2 0-2.1-.9-2.1-2.1s.9-2.1 2.1-2.1h13.6c1.2 0 2.1.9 2.1 2.1s-.9 2.1-2 2.1zM155.5 133.9h-60c-1.2 0-2.1-.9-2.1-2.1s.9-2.1 2.1-2.1h60c1.2 0 2.1.9 2.1 2.1s-.9 2.1-2.1 2.1zM125.3 148.3c-1.2 0-2.1-.9-2.1-2.1v-.2c0-2.8-4.3-5.3-9.3-5.3s-9.3 2.5-9.3 5.3v.2c0 1.2-.9 2.1-2.1 2.1s-2.1-.9-2.1-2.1v-.2c0-5.4 5.9-9.5 13.5-9.5s13.5 4.2 13.5 9.5v.2c0 1.2-1 2.1-2.1 2.1zM153.6 148.3c-1.2 0-2.1-.9-2.1-2.1v-.2c0-2.8-4.3-5.3-9.3-5.3s-9.3 2.5-9.3 5.3v.2c0 1.2-.9 2.1-2.1 2.1s-2.1-.9-2.1-2.1v-.2c0-5.4 5.9-9.5 13.5-9.5 7.5 0 13.5 4.2 13.5 9.5v.2c0 1.2-1 2.1-2.1 2.1z"/></g></svg>