<svg width="70" height="70" viewBox="0 0 70 70" xmlns="http://www.w3.org/2000/svg"><title>Slice 1</title><desc>Created with Sketch Beta.</desc><g fill="none" fill-rule="evenodd"><g fill="#fff"><g><path d="M58.913 55.304H11.087c-.598 0-1.087-.49-1.087-1.087V21.61c0-.6.49-1.088 1.087-1.088h47.826c.598 0 1.087.49 1.087 1.087v32.607c0 .598-.49 1.087-1.087 1.087zm-46.74-2.174h45.653V22.696H12.174V53.13zM44.783 20.522c0-2.4-1.948-4.348-4.348-4.348h-10.87c-2.4 0-4.348 1.948-4.348 4.348 0 .598-.49 1.087-1.087 1.087s-1.087-.49-1.087-1.088c0-3.596 2.927-6.522 6.522-6.522h10.87c3.595 0 6.522 2.926 6.522 6.522 0 .598-.49 1.087-1.087 1.087-.598 0-1.087-.49-1.087-1.088zM39.348 49.957h-8.696c-.598 0-1.087-.49-1.087-1.087v-5.435H24.13c-.597 0-1.087-.49-1.087-1.087v-8.696c0-.598.49-1.087 1.087-1.087h5.435V27.13c0-.597.49-1.087 1.087-1.087h8.696c.598 0 1.087.49 1.087 1.087v5.435h5.435c.597 0 1.087.49 1.087 1.087v8.696c0 .598-.49 1.087-1.087 1.087h-5.435v5.435c0 .597-.49 1.087-1.087 1.087zm-7.61-2.174h6.523v-5.435c0-.598.49-1.087 1.088-1.087h5.435v-6.52h-5.435c-.598 0-1.087-.49-1.087-1.088v-5.435h-6.52v5.435c0 .598-.49 1.087-1.088 1.087h-5.435v6.52h5.435c.598 0 1.087.49 1.087 1.088v5.435z"/></g></g></g></svg>