<svg xmlns="http://www.w3.org/2000/svg" viewBox="0 0 164 164" enable-background="new 0 0 164 164"><g fill="#fff"><path d="M21.6 117.3c-.6 0-1.1-.2-1.5-.6-.5-.5-.7-1.3-.5-2.1L39.7 48c0-.1.1-.2.1-.3 2.7-8.3 9.2-14.5 17.6-16.8 2.2-.6 4.4-.9 6.6-.9 11.5 0 21.6 7.8 24.6 18.8.6 2.1.9 4.4.9 6.7v.1c0 .4.4 11.1-7.9 24-7.5 11.8-23.9 27.8-59.5 37.4-.2.2-.4.3-.5.3zm22.1-67.8l-19 62.6c31.6-9.2 46.4-23.6 53.2-34.3 7.1-11 7.4-20.2 7.4-21.7v-.3c0-2-.2-4-.7-5.8-2.5-9.2-11-15.7-20.6-15.7-1.9 0-3.7.2-5.5.7-7 1.9-12.6 7.2-14.8 14.2v.3zM33.7 103.7c-.6 0-1.1-.2-1.5-.6-.5-.5-.7-1.3-.5-2.1l8.6-28.5c0-.1 0-.1.1-.2 1.3-3.9 4.4-6.8 8.3-7.9 1-.3 2.1-.4 3.1-.4 5.5 0 10.3 3.7 11.7 9 .3 1 .4 2 .4 3.1v.1c0 .8.5 19.3-29.7 27.5h-.5zm10.6-29.8l-7.4 24.6c22.2-7.3 22.9-20.5 22.9-22v-.2c0-.7-.1-1.5-.3-2.2-.9-3.4-4.1-5.8-7.6-5.8-.7 0-1.4.1-2.1.3-2.6.7-4.7 2.7-5.5 5.3 0-.1 0 0 0 0zM62.6 62.4c-5.2 0-9.8-3.5-11.2-8.6-.8-3-.4-6.1 1.1-8.8 1.5-2.7 4-4.6 7-5.4 1-.3 2-.4 3-.4 5.2 0 9.8 3.5 11.2 8.6 1.7 6.2-2 12.5-8.2 14.2-.9.2-1.9.4-2.9.4zm0-19c-.6 0-1.3.1-1.9.3-1.9.5-3.5 1.7-4.5 3.4s-1.2 3.7-.7 5.6c.9 3.2 3.8 5.5 7.1 5.5.6 0 1.3-.1 1.9-.3 3.9-1.1 6.3-5.1 5.2-9-.8-3.3-3.8-5.5-7.1-5.5z"/><circle cx="62.3" cy="50.6" r="3.5"/><path d="M87.7 62.8c-1 0-1.8-.7-2-1.6-.3-1.1.5-2.3 1.6-2.5 22.2-4.9 43.2-3.4 50.5-2.7-2.3-13-17.6-29.7-42.5-29.7-21 0-32.5 7.8-32.6 7.9-1 .7-2.3.4-2.9-.5-.7-1-.4-2.3.5-2.9.5-.4 12.7-8.6 35-8.6 29.1 0 46.2 21.4 47 36.2 0 .6-.2 1.2-.7 1.7-.5.4-1.1.6-1.7.5-.3 0-25.5-3.5-51.7 2.3-.2-.1-.4-.1-.5-.1zM119.7 46c-.4 0-.7-.1-1.1-.3-16.5-9.8-34.7-3.1-34.8-3.1-1.1.4-2.3-.1-2.7-1.2-.4-1.1.1-2.3 1.2-2.7.8-.3 20.3-7.5 38.5 3.4 1 .6 1.3 1.9.7 2.9-.4.7-1.1 1-1.8 1zM119.1 59.4c-1 0-1.8-.7-2-1.6-2.8-12.6 5-24.5 5.4-25 .6-1 2-1.2 2.9-.6 1 .6 1.2 1.9.6 2.9-.1.1-7.2 10.9-4.8 21.7.3 1.1-.5 2.3-1.6 2.5-.2.1-.3.1-.5.1zM16.1 138.3c-.5 0-1-.2-1.4-.5-.9-.8-.9-2.1-.2-3 24.5-27.1 70.8-28.5 84.6-28.3l-1.8-3.1c-1.1-1.9-1.1-4.1-.1-6 1.1-1.9 3-3 5.2-3 1.9 0 3.8.9 4.9 2.5l7.1 10 37.7 2c1.2.1 2 1.1 2 2.2-.1 1.2-1 2-2.2 2l-38.7-2.1c-.6 0-1.2-.4-1.6-.9l-7.7-10.9c-.3-.5-.9-.8-1.5-.8-.9 0-1.4.6-1.5.9-.2.3-.5 1 0 1.8l3.8 6.4c.4.7.4 1.5 0 2.2-.4.7-1.1 1-1.9 1-.6 0-58.1-3.1-85.1 26.8-.5.6-1 .8-1.6.8zM22.7 144.3c-.5 0-1.1-.2-1.5-.6-.8-.8-.8-2.2 0-3 22.6-22.6 51.7-23.6 52.9-23.6 1 0 1.9.6 2.1 1.6.2 1-.2 1.9-1.1 2.4-3.4 1.7-6.5 5.5-8.5 8.5-.4.5-.5 1.2-.3 1.9.2.6.7 1.1 1.3 1.4.9.4 2 0 2.7-.9 12.2-17.5 35.2-16.6 36.1-16.6l45.7 2c1.2.1 2.1 1 2 2.2-.1 1.2-1 2.1-2.2 2l-45.7-2c-.2 0-21.6-.8-32.5 14.8-1.8 2.5-4.9 3.5-7.7 2.4-1.8-.7-3.2-2.2-3.7-4.1-.6-1.9-.3-3.8.8-5.4 1.1-1.6 2.4-3.4 4-5.1-9.8 1.7-28.1 6.7-43 21.6-.3.3-.9.5-1.4.5zM49 126.4h-.4c-1.1-.2-1.9-1.3-1.7-2.4.7-4-2.6-5.6-2.8-5.6-.8-.3-1.3-1.1-1.3-1.9V107c0-1.2.9-2.1 2.1-2.1s2.1.9 2.1 2.1v8.3c2.2 1.5 4.8 4.7 4 9.5-.1.9-1 1.6-2 1.6zM42.6 128c-.9 0-1.7-.6-2-1.5-2.1-6.7 2.7-11.4 2.9-11.6.3-.3.6-.5 1-.5 4-.9 12-.6 14.3 6.9.3 1.1-.3 2.3-1.4 2.6-1.1.3-2.3-.3-2.6-1.4-1.4-4.8-6.9-4.4-8.7-4.1-.8 1-2.5 3.6-1.5 6.9.4 1.1-.3 2.3-1.4 2.6-.2 0-.4.1-.6.1zM69.2 121.5c-1 0-1.9-.7-2.1-1.7-1.3-6.3-6.8-5.9-7.1-5.9-.6 0-1.2-.2-1.6-.6-.4-.4-.7-1-.7-1.5v-13c0-1.2.9-2.1 2.1-2.1s2.1.9 2.1 2.1v11c3.4.5 7.9 2.8 9.2 9.2.2 1.1-.5 2.2-1.6 2.5h-.3zM61.5 122.8h-.1c-1.2-.1-2-1.1-2-2.2.3-4.9-1.3-7.7-1.3-7.7-.6-1-.3-2.3.7-2.9 1-.6 2.3-.3 2.9.7.1.2 2.3 3.9 1.9 10.1-.1 1.1-1 2-2.1 2z"/></g></svg>