<svg xmlns="http://www.w3.org/2000/svg" viewBox="0 0 164 164" enable-background="new 0 0 164 164"><path fill="#fff" d="M11 154.3c-.6 0-1.2-.3-1.6-.8-.7-.9-.6-2.2.3-3l7.9-6.6c12.7-10.1 20-10.4 29.7-9.7 9.6.7 19.1 0 28.4-2.1l24.1-5.5c7.1-2 12.8-2.8 17.8-3.5 10.5-1.5 18.7-2.7 35-13.3 1-.6 2.3-.4 2.9.6.6 1 .4 2.3-.6 2.9-17 11.1-26.1 12.4-36.7 13.9-5.1.7-10.5 1.5-17.4 3.4l-24.2 5.5c-9.7 2.2-19.6 3-29.6 2.2-9-.7-15.2-.4-26.7 8.7l-7.8 6.6c-.5.5-1 .7-1.5.7z"/><g fill="#fff"><path d="M61.7 138.4c-1.6 0-3.3-.5-4.7-1.3-2.1-1.3-3.5-3.4-4-5.8s.1-4.9 1.5-6.8c5.5-7.6 10.1-15.1 9.9-30.8v-.1L66 52.4c0-4.6 2.5-9.8 7.8-10.7l5.1-.9c3.1-.6 6.5.2 9 2.2l11.2 8.6c1.5 1.2 3.5 1.6 5.3 1.3l6.6-1.2c.4-.1.9-.1 1.3-.1 3.6 0 6.7 2.6 7.4 6.2.7 4.1-2 8-6.1 8.7l-7.9 1.4c-3.9.7-8 .1-11.5-1.5l-3.7-1.7L89.2 75c-.3 2.4-.1 4.7.7 6.7.3.8.7 1.7 1.8 2.9 7.2 8.1 11 18.5 10.6 29.4l-.2 9.9c-.2 4.6-3.9 8.2-8.5 8.2h-.2c-4.7-.1-8.4-4-8.3-8.7l.1-10.8c.1-4.2-1-8.3-3.2-11.8l-.4-.7c-1.4 12.8-7.9 27.4-12.7 34.6-1.5 2.3-4.2 3.7-7.2 3.7zm7-44.7c.2 16.9-5 25.4-10.7 33.3-.8 1-1 2.3-.8 3.6.3 1.3 1 2.4 2.1 3.1.7.5 1.6.7 2.4.7 1.5 0 3-.8 3.8-2 5.4-8.1 13.1-26.2 12.2-39.2-.1-1 .5-1.8 1.5-2.1.9-.3 1.9.1 2.4.9l4.1 6.6c2.6 4.2 4 9.1 3.9 14.1l-.1 10.8c0 2.4 1.9 4.4 4.2 4.4 2.4 0 4.3-1.8 4.4-4.2l.2-9.9c.4-9.8-3-19.2-9.6-26.5-1.2-1.4-2-2.6-2.6-4.2-1-2.7-1.3-5.7-.9-8.7l1.7-13.2c.1-.7.5-1.3 1.1-1.6.6-.3 1.3-.3 1.9-.1l6.3 3c2.8 1.3 5.9 1.7 9 1.2l7.9-1.4c1.8-.3 3-2 2.7-3.8-.3-1.8-2-3-3.8-2.7l-6.6 1.2c-3 .5-6.2-.2-8.6-2.1l-11.2-8.6c-1.6-1.2-3.7-1.7-5.7-1.4l-5.1.9c-3 .5-4.3 3.8-4.4 6.7l-1.7 41.2zM80.6 42.9c-6.2 0-11.4-4.4-12.5-10.5-.6-3.3.1-6.7 2.1-9.5s4.8-4.7 8.2-5.3c.7-.1 1.5-.2 2.3-.2 6.2 0 11.4 4.4 12.5 10.5 1.2 6.9-3.4 13.5-10.3 14.8-.7.2-1.5.2-2.3.2zm.1-21.2c-.5 0-1 0-1.5.1-4.6.8-7.7 5.3-6.9 9.9.7 4.1 4.2 7 8.4 7 .5 0 1 0 1.5-.1 4.6-.8 7.7-5.3 6.9-9.9-.8-4-4.3-7-8.4-7zM118.4 125.6c-1.2 0-2.1-.9-2.1-2.1l-.2-74.3c0-1.2.9-2.1 2.1-2.1 1.2 0 2.1.9 2.1 2.1l.2 74.3c0 1.2-.9 2.1-2.1 2.1zM121.4 121.1h-6.2c-1.2 0-2.1-.9-2.1-2.1s.9-2.1 2.1-2.1h6.2c1.2 0 2.1.9 2.1 2.1s-1 2.1-2.1 2.1zM66.6 92.2h-.1l-12.2-.7c-2.5-.2-4.9-1.4-6.5-3.4-1.6-2-2.3-4.6-1.9-7.1l4.6-31.3c.7-4.4 4.5-7.8 9-7.8.6 0 1.1.1 1.7.2l1.7.3c4.2.8 7.3 4.3 7.4 8.6l.2 5.8v.2l-1.8 33.1c0 .6-.3 1.1-.7 1.5-.4.4-.9.6-1.4.6zm-7.2-46.1c-2.4 0-4.5 1.8-4.9 4.2l-4.6 31.3c-.2 1.4.2 2.7 1 3.8.9 1.1 2.1 1.7 3.5 1.8l10.1.6L66.3 57l-.2-5.8c-.1-2.3-1.7-4.2-4-4.7l-1.7-.3c-.4 0-.7-.1-1-.1z"/></g></svg>