<svg width="72" height="72" viewBox="0 0 72 72" xmlns="http://www.w3.org/2000/svg"><title>Slice 1</title><desc>Created with Sketch Beta.</desc><g fill="none" fill-rule="evenodd"><g><g fill="#514F38"><path d="M5.072 47.536v-.142c0-.284 0-.497.07-.64 0-.07 0-.142.073-.284.502-9.098 8.743-16.56 19.278-17.698l-.07-1.635c0-.355.214-.64.572-.64s.645.214.645.57l.143 1.634c6.38-.354 12.4 1.778 16.555 5.474l.86.853c2.437 2.487 4.157 5.473 4.73 8.884 0 .144 0 .357-.143.5-.072.14-1.792 2.416-5.017 2.416-.645 0-1.29-.143-2.006-.285-.072.072-.072.072-.144.072-.43.356-2.508 1.92-5.805 1.92-.93 0-1.935-.143-3.08-.427-.073.07-1.72 1.208-4.373 1.493l1.433 17.556c0 .355-.215.64-.573.64-.43 0-.645-.214-.717-.57L26.07 49.6c-1.29 0-2.795-.214-4.443-.853-1.72.853-3.37 1.137-4.73 1.137-2.365 0-3.942-.853-4.372-1.066-.072 0-.072-.07-.143-.07-1.147.496-2.15.71-3.01.71-2.58 0-4.23-1.564-4.3-1.635.07-.07.07-.142.07-.142 0-.07-.07-.07-.07-.142zm25.8-.426s0-.07 0 0v-.07c-.072-.072-.072-.143-.072-.286 0-.07-.645-7.676-5.518-16.276-3.37 9.31-2.867 16.845-2.867 16.916v.213c4.443 1.564 7.597 0 8.457-.497zm15.838-3.27c-1.505-7.676-9.03-13.29-17.988-13.93 5.805 2.842 8.815 6.538 10.32 9.38 1.36 2.56 1.79 4.764 1.863 5.9 3.368.996 5.232-.71 5.805-1.35zm-7.023 1.848c-.144-1.706-1.362-10.377-13.044-15.28 4.73 8.67 5.375 15.92 5.375 16.275v.07c4.157 1.21 6.952-.496 7.67-1.065zm-18.49 1.92v-.072c0-.355-.574-7.605 2.723-16.916-10.893 6.752-10.678 15.424-10.463 17.13.788.426 3.798 1.705 7.74-.143zm-9.03-.143c-.072-1.137 0-3.34.93-6.112 1.005-3.057 3.37-7.18 8.673-10.875-8.528 1.99-14.907 8.387-15.408 16.063 0 .214 0 .286-.072.428v.07c.645.57 2.723 1.92 5.877.427z"/></g><g transform="translate(1 1) translate(41 4)" stroke="#514F37" stroke-width="1.2"><g id="Line-+-Line-3"><path d="M7.566 18.07L4.78 20.855" id="Line"/><path d="M21.5 4.133L18.715 6.92" id="Line-2"/></g><g id="Line-+-Line-2"><path d="M6.798 6.364L4.01 3.577" id="Line"/><path d="M20.733 20.3l-2.787-2.788" id="Line-2"/></g><g><path d="M4.595 12.378H.653" id="Line"/><path d="M24.305 12.378h-3.942" id="Line-2"/></g><g><path d="M12.324 3.942V0"/><path d="M12.324 23.652V19.71"/></g><ellipse fill-opacity="0" fill="#D8D8D8" cx="12.48" cy="11.826" rx="5.46" ry="5.519"/></g></g></g></svg>