<svg xmlns="http://www.w3.org/2000/svg" viewBox="0 0 164 164" enable-background="new 0 0 164 164"><g fill="#fff"><circle cx="110.5" cy="60.4" r="3.7"/><path d="M89.4 147.9c-12.8 0-26-9.1-26-24.3 0-12.2 8.7-22.3 20.8-23.9 9.4-1.3 16.5 2.7 18.5 10.4.3 1.3-.3 2.6-1.5 3.1 0 0-3.4 1.5-5.1 4.2-.5.7-1.3 1.2-2.2 1.2-.9 0-1.7-.4-2.2-1.1-.7-.9-2-1.8-3.7-1.4-1.3.3-2.3 1.3-2.6 2.6-.2 1.1 0 2.2.7 3 .7.8 1.7 1.3 2.7 1.3 1.5 0 2.7 1.2 2.7 2.7s-1.2 2.7-2.7 2.7c-2.7 0-5.2-1.2-6.9-3.3s-2.3-4.8-1.8-7.5c.7-3.3 3.3-6 6.6-6.7 2.4-.5 4.8-.1 6.8 1.2 1.1-1.1 2.3-1.9 3.3-2.6-2.6-5.2-9.1-4.9-11.9-4.6-9.4 1.3-16.2 9.1-16.2 18.7 0 11.9 10.5 19 20.7 19 18.7 0 34.3-13.9 36.3-32.3.2-1.5 1.5-2.5 2.9-2.4 1.5.2 2.5 1.5 2.4 2.9-2.3 21.1-20.2 37.1-41.6 37.1zM89.4 128.2c-1.5 0-2.7-1.2-2.7-2.7s1.2-2.7 2.7-2.7c5.4 0 8.7-3.2 8.7-8.7 0-1-.2-1.9-.5-2.8-.5-1.4.3-2.9 1.7-3.4s2.9.3 3.4 1.7.7 2.9.7 4.5c-.1 8.5-5.7 14.1-14 14.1zM131.1 112c-5.5 0-11.6-1.2-17.3-4.8-1.2-.8-1.6-2.4-.8-3.7s2.4-1.6 3.7-.8c7.6 4.8 16.3 4.4 22.7 3-17.4-5.2-25.8-16.1-26.2-16.6-.9-1.2-.6-2.8.5-3.7 1.2-.9 2.8-.6 3.7.5.1.2 10.7 13.7 32.4 16.6 1.2.2 2.1 1 2.3 2.2.2 1.1-.4 2.3-1.4 2.8-.7.3-9.2 4.5-19.6 4.5zM98.2 109.3c-.8 0-1.6-.4-2.1-1.1-.1-.1-7-9.4-15.5-11.6-.8-.2-1.4-.7-1.7-1.4-.3-.5-.3-1.1-.2-1.6-4.2 4.4-11.1 8.6-22.4 8.6h-1.5C39.4 102.1 27 89.7 27 74.5V22.8c0-1.5 1.2-2.7 2.7-2.7h29.9c6.9 0 13.7 2.4 19.2 6.6v-4c0-1.5 1.2-2.7 2.7-2.7H88c23.8 0 43.2 19.4 43.2 43.2v33.9c0 1.5-1.2 2.7-2.7 2.7-1.5 0-2.7-1.2-2.7-2.7V63.3c0-20.9-17-37.9-37.9-37.9h-4v7.4c0 1.1-.6 2-1.6 2.4-1 .4-2.1.2-2.9-.5L75.5 31c-4.5-3.7-10.3-5.7-16.1-5.7H32.3v49c0 12.3 10 22.3 22.3 22.3h1.5c19.5 0 23.1-14.2 23.1-14.4.3-1.2 1.3-2 2.6-2.1 1.2 0 2.3.8 2.6 2 1 4 .6 7.6.1 9.9 9.1 3.6 15.6 12.4 15.9 12.8.9 1.2.6 2.8-.6 3.7-.5.6-1.1.8-1.6.8zM110.5 141.8c-.8 0-1.5-.3-2.1-1l-5.2-6.4c-.9-1.1-.7-2.8.4-3.7 1.1-.9 2.8-.7 3.7.4l5.2 6.4c.9 1.1.7 2.8-.4 3.7-.4.4-1 .6-1.6.6zM101.2 146.1c-1 0-2-.6-2.4-1.6l-2.3-5.3c-.6-1.3 0-2.9 1.4-3.5 1.3-.6 2.9 0 3.5 1.4l2.3 5.3c.6 1.3 0 2.9-1.4 3.5-.4.1-.7.2-1.1.2zM91.3 147.8c-1.3 0-2.5-1-2.6-2.3l-1-8.5c-.2-1.5.9-2.8 2.3-2.9 1.5-.2 2.8.9 2.9 2.3l1 8.5c.2 1.5-.9 2.8-2.3 2.9h-.3zM80.4 146.2c-.3 0-.6 0-.8-.1-1.4-.5-2.1-2-1.7-3.3l1.8-5.4c.5-1.4 2-2.2 3.3-1.7 1.4.5 2.1 2 1.7 3.3l-1.8 5.4c-.4 1.1-1.4 1.8-2.5 1.8zM71.4 140.2c-.7 0-1.4-.3-2-.9-1-1.1-.9-2.8.2-3.7l6.2-5.7c1.1-1 2.8-.9 3.7.2 1 1.1.9 2.8-.2 3.7l-6.2 5.7c-.4.4-1.1.7-1.7.7zM117.5 135.4c-.5 0-1-.1-1.4-.4l-4.5-2.9c-1.2-.8-1.6-2.4-.8-3.7.8-1.2 2.4-1.6 3.7-.8l4.5 2.9c1.2.8 1.6 2.4.8 3.7-.6.7-1.4 1.2-2.3 1.2z"/></g></svg>