<svg xmlns="http://www.w3.org/2000/svg" viewBox="0 0 164 164" enable-background="new 0 0 164 164"><g fill="#fff"><path d="M98.3 32.6c-7.3 0-14.6-.8-21.8-2.5-3.3-.8-6.6-1.6-9.8-2.4-18.3-4.8-35.6-9.3-58.6 1.3-1.1.5-2.3 0-2.8-1s0-2.3 1-2.8c24.3-11.3 42.4-6.6 61.4-1.7 3.2.8 6.4 1.7 9.7 2.4 17.2 4 34.7 3 52.1-2.9 1.1-.4 2.3.2 2.7 1.3.4 1.1-.2 2.3-1.3 2.7-10.8 3.7-21.7 5.6-32.6 5.6zM156.8 32c-.6 0-1.2-.3-1.6-.8-3.1-3.8-9-7.4-16.4-6.2-1.1.2-2.2-.6-2.4-1.8-.2-1.1.6-2.2 1.8-2.4 9.1-1.4 16.4 3.1 20.3 7.7.7.9.6 2.2-.3 3-.5.3-1 .5-1.4.5z"/></g><g fill="#fff"><path d="M98.5 92H61.3c-15.5 0-28.1-12.6-28.1-28.1v-1.4c0-15.5 12.6-28.1 28.1-28.1h37.2c15.5 0 28.1 12.6 28.1 28.1v1.4C126.6 79.4 114 92 98.5 92zM61.3 38.6c-13.2 0-23.9 10.7-23.9 23.9v1.4c0 13.2 10.7 23.9 23.9 23.9h37.2c13.2 0 23.9-10.7 23.9-23.9v-1.4c0-13.2-10.7-23.9-23.9-23.9H61.3zM96.7 84.4H95c-6 0-11.2-3.8-13.2-9.4-.3-.8-1.1-1.4-2-1.4-.9 0-1.7.6-2 1.4-1.9 5.6-7.2 9.4-13.2 9.4h-2.1c-5.8 0-11.2-2.3-15.2-6.5s-6.1-9.7-5.9-15.5C41.9 51.2 51.6 42 63.1 42h34c5.8 0 11.2 2.3 15.2 6.5s6.1 9.7 5.9 15.5c-.3 11.2-10 20.4-21.5 20.4zm-16.8-15c2.7 0 5.1 1.7 5.9 4.2 1.3 3.9 5 6.6 9.2 6.6h1.6c9.3 0 17.1-7.3 17.4-16.3.2-4.7-1.5-9.1-4.7-12.4-3.2-3.3-7.6-5.2-12.2-5.2h-34c-9.3 0-17.1 7.3-17.4 16.3-.2 4.7 1.5 9.1 4.7 12.4 3.2 3.3 7.6 5.2 12.2 5.2h2.1c4.2 0 7.9-2.6 9.2-6.6.9-2.5 3.3-4.2 6-4.2zM85.6 119.3H74.2c-7.1 0-12.8-5.8-12.8-12.8s5.8-12.8 12.8-12.8h11.5c7.1 0 12.8 5.8 12.8 12.8s-5.8 12.8-12.9 12.8zM74.2 97.8c-4.8 0-8.6 3.9-8.6 8.6s3.9 8.6 8.6 8.6h11.5c4.8 0 8.6-3.9 8.6-8.6s-3.9-8.6-8.6-8.6H74.2zM79.9 114.9c-4.7 0-8.5-3.8-8.5-8.5s3.8-8.5 8.5-8.5 8.5 3.8 8.5 8.5-3.8 8.5-8.5 8.5zm0-12.8c-2.4 0-4.3 1.9-4.3 4.3s1.9 4.3 4.3 4.3 4.3-1.9 4.3-4.3-1.9-4.3-4.3-4.3zM107.1 152h-1c-17.9-.5-32.4-15.8-32.4-34.1V115h12.4v3c0 11.5 9.1 21.2 20.2 21.6 5.8.2 11.2-1.9 15.4-5.9 4.2-4 6.5-9.4 6.5-15.1V14.3c0-1.2.9-2.1 2.1-2.1s2.1.9 2.1 2.1v104.3c0 6.9-2.7 13.4-7.7 18.2-5 4.8-11.6 7.3-18.5 7-13-.5-23.6-11.4-24.2-24.5h-4c.7 15.4 13.1 28.1 28.3 28.5 8 .2 15.5-2.7 21.2-8.2 5.7-5.6 8.9-13 8.9-20.9V14.3c0-1.2.9-2.1 2.1-2.1s2.1.9 2.1 2.1v104.3c0 9.1-3.6 17.6-10.2 24-6.3 6.1-14.5 9.4-23.3 9.4zM45.8 114.6c-5.7 0-10.3-4.6-10.3-10.3S40.1 94 45.8 94 56 98.6 56 104.3s-4.6 10.3-10.2 10.3zm0-16.4c-3.4 0-6.1 2.7-6.1 6.1s2.7 6.1 6.1 6.1 6.1-2.7 6.1-6.1-2.8-6.1-6.1-6.1zM25.1 123.2c-4.3 0-7.8-3.5-7.8-7.8s3.5-7.8 7.8-7.8 7.8 3.5 7.8 7.8-3.5 7.8-7.8 7.8zm0-11.5c-2 0-3.6 1.6-3.6 3.6s1.6 3.6 3.6 3.6 3.6-1.6 3.6-3.6c0-1.9-1.6-3.6-3.6-3.6zM25.1 94.2c-3.6 0-6.5-2.9-6.5-6.5s2.9-6.5 6.5-6.5 6.5 2.9 6.5 6.5-2.9 6.5-6.5 6.5zm0-8.8c-1.3 0-2.3 1-2.3 2.3s1 2.3 2.3 2.3c1.3 0 2.3-1 2.3-2.3s-1-2.3-2.3-2.3z"/></g></svg>