<svg xmlns="http://www.w3.org/2000/svg" viewBox="0 0 164 164" enable-background="new 0 0 164 164"><path fill="#fff" d="M91.3 38.3c-4.8 0-9.8-.6-14.9-2.1S66 32.5 60.8 30.4c-17.3-7-35.1-14.2-52.3-1.6-.9.7-2.2.5-2.9-.5-.7-.9-.5-2.2.5-2.9 19.1-14 38.9-6 56.4 1.1 5.3 2.1 10.3 4.2 15.2 5.6 20.9 6.2 41.7-4.9 41.9-5 18.1-8.9 28.9-8.6 38.7 1.2.8.8.8 2.1 0 3-.8.8-2.1.8-3 0-7.1-7.1-15.2-9.6-33.8-.4-.7.4-13.8 7.4-30.2 7.4z"/><g fill="#fff"><path d="M149.4 131.8h-15.2c-5.7 0-11.2-2.1-15.3-6.1l-6.6-6.2c-2.4-2.3-5.6-3.5-8.9-3.5h-8.8c-8.9 0-17.5 1.6-25.4 4.8-5.6 2.3-14.4 5.3-26 5.3h-7.6c-3.7 0-6.8-3-6.8-6.8s3-6.8 6.8-6.8h4.2c10.3 0 18.3-2.3 26-6-14.1 0-22.4-5.7-32.6-16.1-1.4-1.4-2.2-3.3-2.1-5.4.1-2 .9-3.9 2.4-5.2 1.4-1.2 3.1-1.9 4.9-1.9 2 0 4 .8 5.4 2.3 7.2 7.7 11.5 11.7 21.5 11.7h50.5c5.4 0 9.8 4.4 9.8 9.8v5.2c0 1.9.7 3.7 2 5.1 3.4 3.7 8.3 5.7 13.3 5.7h8.6c3.9 0 7 3.2 7 7s-3.2 7.1-7.1 7.1zm-54.8-19.9h8.8c4.4 0 8.5 1.6 11.7 4.6l6.6 6.2c3.4 3.2 7.8 4.9 12.5 4.9h15.2c1.6 0 2.8-1.3 2.8-2.8s-1.3-2.8-2.8-2.8h-8.6c-6.2 0-12.1-2.6-16.3-7.1-2-2.2-3.1-5-3.1-7.9v-5.2c0-3.1-2.5-5.6-5.6-5.6H65.2c-11.7 0-16.9-4.9-24.5-13-1.1-1.2-3.2-1.3-4.4-.2-.6.6-1 1.4-1 2.2 0 .9.3 1.7.9 2.3 9.7 9.9 16.9 14.9 29.8 14.9h8c.9 0 1.8.6 2 1.5.2.9-.1 1.9-1 2.4-10.7 6.3-20.8 10.5-35.3 10.5h-4.2c-1.4 0-2.6 1.1-2.6 2.6s1.1 2.6 2.6 2.6h7.6c10.8 0 19.1-2.8 24.4-5 8.5-3.4 17.6-5.1 27.1-5.1zM116.9 90.1H83.1c-4.9 0-8.8-4-8.8-8.8s4-8.8 8.8-8.8h33.8c4.9 0 8.8 4 8.8 8.8s-4 8.8-8.8 8.8zM83.1 76.6c-2.6 0-4.6 2.1-4.6 4.6s2.1 4.6 4.6 4.6h33.8c2.6 0 4.6-2.1 4.6-4.6s-2.1-4.6-4.6-4.6H83.1zM134.4 115.3c-7.1 0-12.9-5.8-12.9-12.9s5.8-12.9 12.9-12.9c7.1 0 12.9 5.8 12.9 12.9s-5.8 12.9-12.9 12.9zm0-21.6c-4.8 0-8.7 3.9-8.7 8.7 0 4.8 3.9 8.7 8.7 8.7s8.7-3.9 8.7-8.7c0-4.8-3.9-8.7-8.7-8.7zM145 106.6c-1.2 0-2.1-.9-2.1-2.1s.9-2.1 2.1-2.1c1.9 0 3.5-1.6 3.5-3.5V77.8c0-1.2.9-2.1 2.1-2.1s2.1.9 2.1 2.1v21.1c0 4.2-3.5 7.7-7.7 7.7zM146 71.4c-2.9 0-5.3-2.4-5.3-5.3s2.4-5.3 5.3-5.3 5.3 2.4 5.3 5.3c0 3-2.4 5.3-5.3 5.3zm0-6.4c-.6 0-1.1.5-1.1 1.1 0 .6.5 1.1 1.1 1.1s1.1-.5 1.1-1.1c0-.6-.5-1.1-1.1-1.1zM132.7 63.7c-4.4 0-8-3.6-8-8s3.6-8 8-8 8 3.6 8 8-3.6 8-8 8zm0-11.9c-2.1 0-3.8 1.7-3.8 3.8 0 2.1 1.7 3.8 3.8 3.8s3.8-1.7 3.8-3.8c0-2.1-1.7-3.8-3.8-3.8zM131.2 94.2c-1.2 0-2.1-.9-2.1-2.1v-3.2c0-3-2.5-5.5-5.5-5.5-1.2 0-2.1-.9-2.1-2.1s.9-2.1 2.1-2.1c5.4 0 9.7 4.4 9.7 9.7v3.2c0 1.2-.9 2.1-2.1 2.1zM33.9 90.1c-.5 0-1-.2-1.5-.6-.4-.4-10.6-10.4-16.5-24.2-.4-.8-.1-1.8.6-2.4.3-.3 7.5-6.2 17.9-7.8.6-.1 1.2.1 1.6.5.5.4.7.9.8 1.5 0 .1.6 14.5 7.1 23.3.7.9.5 2.2-.5 2.9-.9.7-2.2.5-2.9-.5-5.6-7.6-7.3-18.4-7.7-23.2-5.8 1.3-10.3 4-12.4 5.5C26 77.4 35.2 86.3 35.3 86.4c.8.8.9 2.1.1 3-.4.5-.9.7-1.5.7zM38.2 126.1H9c-1 0-1.9-.7-2.1-1.7-.1-.4-1.7-9.4 2.6-18.5.2-.5.7-.9 1.2-1.1s1.1-.1 1.6.1c.1.1 15 7.6 28.1 7.6 1.2 0 2.1.9 2.1 2.1s-.9 2.1-2.1 2.1c-11.3 0-23.3-4.9-28-7.1-1.9 5-1.8 9.8-1.7 12.2h27.4c1.2 0 2.1.9 2.1 2.1s-.8 2.2-2 2.2z"/></g></svg>