<svg width="70" height="70" viewBox="0 0 70 70" xmlns="http://www.w3.org/2000/svg"><title>Slice 1</title><desc>Created with Sketch Beta.</desc><g fill="none" fill-rule="evenodd"><g fill="#fff"><g><path d="M38.322 42.263c-.007.02.022 0 .123-.118l-.018.013-.105.105zM69.956 43.047c-.63-1.774-1.56-3.468-2.55-4.992-.888-1.37-1.9-2.625-3.034-3.715-2.274-2.19-4.97-3.646-7.808-4.485-.928-.273-1.866-.488-2.81-.66-.462-.278-.933-.535-1.412-.77-2.114-1.04-4.33-1.524-6.606-1.715-2.183-.184-4.407-.122-6.552.432-2.736.706-5.137 2.353-6.947 4.75-.025-.087-.09-.152-.21-.177-1.682-.35-3.492.114-4.782 1.48-1.218 1.29-1.868 3.11-2.043 5.005-.346 3.745 1.273 7.875 4.196 9.566.872.505 1.836.78 2.804.824-1.14.307-2.305.312-3.497-.018-1.483-.41-3.193-1.44-3.818-3.187-.394-1.103-.257-2.317.13-3.394.245-.684-.53-.595-.727-.118-.875 2.133-.797 4.543.685 6.27 1.428 1.663 3.598 2.278 5.552 2.222 1.116-.032 2.322-.32 3.253-1.082.228-.187.487-.487.472-.842.623-.132 1.224-.357 1.727-.72.277-.202.577-.594.557-1.012-.002-.043-.008-.084-.016-.123.168-.214.282-.49.345-.806-.054.273.025-.096.03-.125.033-.145.07-.313.096-.47.032-.186.056-.375.087-.562l.04-.24.018-.08c.052-.18.1-.36.16-.537.05-.14.236-.527.067-.197.072-.14.14-.282.217-.416.076-.132.168-.252.245-.384 0-.002 0-.004.003-.005.05-.06.1-.12.152-.18.097-.107.198-.21.303-.307l.037-.03c.006-.014.037-.048.072-.072l.033-.02c.017-.016.034-.03.05-.047l-.033.034c.243-.16.48-.312.736-.448l.074-.04.08-.026c.132-.044.263-.09.396-.128.134-.037.27-.07.404-.096.082-.016.165-.025.246-.04l.008-.003h.016c.28-.005.558-.025.84-.005.14.01.28.035.42.047h.026l.013.005c.084.02.168.037.25.058.278.072.55.165.818.28.053.022.303.147.296.138.123.07.245.144.364.224.25.168.482.363.71.566.047.042.253.274.037.032.042.047.087.09.127.14.123.147.246.29.36.447.097.132.186.27.275.41l.068.115.066.122c.17.353.312.718.43 1.1 0-.005.028.096.047.162l.04.174c.042.195.075.392.102.59.068.507.102 1.027.095 1.54-.01.797-.09 1.544-.242 2.268-1.978 1.835-4.205 3.026-6.67 3.64-2.55.635-5.135.763-7.735.8-6.217.093-12.42-.38-18.63-.57-3.737-.112-7.526-.162-11.243.34-.684.093-.663 1.468.053 1.446 3.37-.103 6.73-.137 10.1.02 3.375.155 6.747.397 10.124.55 3 .135 6.003.2 9.004.174 1.137-.01 2.284-.05 3.428-.144-5.243 1.332-10.612 2.02-15.962 2.585-1.82.193-3.64.402-5.46.565-.514.046-.855 1.093-.184 1.092 4.437-.01 8.857-.315 13.265-.91 3.232-.438 6.456-1.004 9.632-1.85 2.78-.74 5.603-1.664 8.133-3.25l.074-.046c-.36.474-.75.922-1.166 1.347-2.378 2.44-5.315 3.923-8.288 5.215-1.756.764-3.687 1.455-5.566 1.972-.79.218-1.745.437-2.465.524-.374.046-.752.067-1.127.06-.268-.006-.516-.04-.772.1-.12.067-.232.158-.35.226-.32.184-.466.707-.223 1.043.277.383.542.592.98.64.362.04.728.04 1.093.026.874-.035 1.747-.163 2.608-.334 1.92-.38 3.803-1.013 5.65-1.726 3.44-1.33 6.805-2.914 9.626-5.662 1.638-1.595 3.04-3.583 3.847-5.92.76-2.198 1.028-4.88.508-7.194-.805-3.58-3.55-5.913-6.654-5.998-1.004-.027-2.014.185-2.938.638.086-.086.172-.17.262-.254.027-.025.055-.05.083-.073.025-.017.144-.115.16-.128.11-.086.22-.168.333-.25.285-.203.576-.39.875-.56l.153-.085c.058-.028.17-.085.156-.08.14-.068.283-.133.426-.196.32-.14.646-.265.974-.373.62-.203 1.14-.32 1.836-.412 1.263-.17 2.448-.14 3.7.128 2.408.515 4.388 2.166 5.63 4.702 1.36 2.77 1.6 6.112.933 9.183-.935 4.302-3.548 7.795-6.683 10.112-.38.28-.266.988.205.67 3.18-2.15 5.898-5.372 7.23-9.46 1.087-3.335 1.26-7.127.118-10.48-1.066-3.13-3.132-5.515-5.873-6.48-2.716-.954-5.83-.682-8.455.535-1.614.748-3.078 1.867-4.212 3.43-1.063 1.463-1.907 3.493-1.71 5.46.025.244.1.4.207.49 0 .17.008.342.024.51-1.194-.73-2.21-1.864-2.794-3.31-.81-2.008-.77-4.187.082-6.17 1.434-3.34 3.766-5.658 6.808-6.626 1.853-.59 3.78-.71 5.69-.624 2.066.094 4.097.414 6.06 1.208 3.51 1.42 6.727 4.28 8.658 8.054 1.035 2.024 1.71 4.282 1.882 6.642.083 1.15.037 2.29-.125 3.428-.18 1.257-.552 2.44-.852 3.66-.12.492-.057 1.03.39 1.25.41.2.952 0 1.19-.455 1.168-2.224 1.53-5.013 1.46-7.598-.067-2.34-.605-4.68-1.49-6.77-1.075-2.534-2.614-4.714-4.45-6.48.71.305 1.408.648 2.09 1.034 2.508 1.418 4.716 3.465 6.46 6.024 1.112 1.63 1.93 3.42 2.798 5.23.44.915 1.795-.165 1.493-1.017zm-32.845 1.38c-.012.067-.008.046 0 0zm-6.525-9.797c-1.2 2.53-1.682 5.543-.6 8.266.668 1.68 1.783 2.994 3.13 3.84-.654.014-1.497-.14-2.1-.404-1.38-.607-2.42-1.71-3.203-3.19-.7-1.318-1.096-3.007-1.135-4.578-.02-.842.028-1.43.222-2.24.1-.42.124-.5.29-.905.182-.438.212-.493.435-.833.354-.536.88-1.04 1.447-1.34.816-.43 1.737-.555 2.623-.588-.407.615-.78 1.272-1.11 1.97z"/></g></g></g></svg>