<svg width="70" height="70" viewBox="0 0 70 70" xmlns="http://www.w3.org/2000/svg"><title>Slice 1</title><desc>Created with Sketch Beta.</desc><g fill="none" fill-rule="evenodd"><g fill="#fff"><path d="M26.347 18.508c.333-.333.874-.333 1.21 0L53.2 44.154c.16.16.252.378.252.604v6.485l8.298 8.298c.333.334.333.875 0 1.21-.167.167-.386.25-.605.25-.22 0-.438-.083-.604-.25l-8.297-8.298h-6.485c-.227 0-.444-.09-.604-.25L19.508 26.555c-.333-.334-.333-.875 0-1.21l6.84-6.838zm-.193 12.276c.042-.112.103-.218.193-.308l1.71-1.71c.333-.333.874-.333 1.21 0 .333.334.333.875 0 1.21l-1.71 1.71c-.09.09-.196.15-.31.192l2.327 2.325c.04-.11.102-.217.192-.308l1.71-1.71c.333-.333.874-.333 1.21 0 .334.335.333.875 0 1.21l-1.71 1.71c-.09.09-.196.15-.308.192l2.325 2.326c.042-.113.103-.218.193-.308l1.71-1.71c.333-.334.874-.334 1.21 0 .333.333.332.874 0 1.21l-1.71 1.71c-.09.09-.197.15-.31.192l2.326 2.325c.042-.112.103-.218.193-.308l1.71-1.71c.334-.333.874-.333 1.21 0 .333.334.333.874 0 1.21l-1.71 1.71c-.09.09-.197.15-.31.192l2.327 2.325c.04-.11.102-.216.192-.306l1.71-1.71c.334-.334.875-.334 1.21 0 .334.333.333.874 0 1.21l-1.71 1.71c-.09.09-.197.15-.31.19l5.188 5.188h5.63v-5.63l-24.79-24.79-5.63 5.63 4.832 4.832zM16.09 11.67c.332-.334.873-.334 1.208 0l3.42 3.42c.333.333.333.874 0 1.208l-3.42 3.42c-.166.166-.385.25-.604.25-.22 0-.44-.084-.605-.25l-3.42-3.42c-.334-.334-.334-.875 0-1.21l3.42-3.418zm8.547 3.42c.333-.335.874-.335 1.21 0 .334.333.333.874 0 1.208l-8.55 8.548c-.165.167-.384.25-.603.25-.22 0-.44-.083-.605-.25-.335-.333-.335-.874 0-1.21l8.547-8.547zM9.25 13.38l5.13-5.13c.332-.333.873-.333 1.208 0 .335.334.334.875 0 1.21l-5.13 5.128c-.165.167-.384.25-.603.25-.22 0-.44-.083-.605-.25-.333-.333-.333-.875 0-1.21z"/></g></g></svg>