<svg xmlns="http://www.w3.org/2000/svg" viewBox="0 0 164 164" enable-background="new 0 0 164 164"><g fill="#fff"><path d="M93.4 128.1c-2.8 0-5.6-.2-8.6-.5-1.5-.2-2.5-1.5-2.4-2.9.2-1.5 1.5-2.5 2.9-2.4 17 1.8 31.2-2 41.1-10.9 9.7-8.7 15.1-22 15.3-37.5H62.8c-7.8 0-14.1-6.3-14.1-14.2 0-1.5 1.2-2.7 2.6-2.7h.6c8.7 0 15.8-7.1 15.8-15.8v-3.1c-5.8 1.4-13.5 1-14.5.9-2.6-.2-4.9 1.5-5.7 4.2l-1.2 3.9c-.3 1.1-1.3 1.8-2.5 1.9-1.1 0-2.2-.7-2.6-1.7l-1.8-4.9c-.9-2.4-2.3-3.1-6.1-3.1s-7.5-.5-11-1.3v3.3c0 8.7 7.1 15.8 15.8 15.8.4 0 .7.1 1 .2l.3.1c1.2.5 1.9 1.8 1.5 3.1-1 4.1-1.6 8.3-1.6 12.6 0 17.2 8.4 33 22.4 42.4 1.2.8 1.5 2.5.7 3.7-.8 1.2-2.5 1.5-3.7.7C43.2 109.5 34 92 34 73.1c0-3.7.4-7.3 1.1-10.9C24.8 60.8 16.9 52 16.9 41.3v-6.8c0-.8.4-1.6 1.1-2.1.7-.5 1.6-.6 2.4-.4l.8.3c3.7 1.2 7.8 1.8 12 1.8 2.4 0 7.6 0 10.3 5 2.1-3.5 6-5.5 10-5.2 4.3.3 12.4 0 15.5-1.7.8-.5 1.8-.5 2.6 0s1.3 1.3 1.3 2.3v6.8c0 10.8-8.2 19.8-18.7 20.9 1.1 3.7 4.5 6.3 8.5 6.3h81.7c1.4 0 2.6 1.2 2.6 2.6V73c0 17.4-6 32.4-17 42.3-9.2 8.5-21.8 12.8-36.6 12.8zM68.1 133.3c-9.2 0-16.6-3.5-17-3.7-.9-.4-1.4-1.3-1.5-2.2-.1-1 .4-1.9 1.2-2.4.1-.1 10.2-6.7 11.8-16.6.2-1.4 1.6-2.4 3-2.2 1.4.2 2.4 1.6 2.2 3-1.3 7.8-6.6 13.8-10.3 17.1 4.6 1.4 12.3 2.8 19.7.1 6.8-2.5 12.2-8.1 15.9-16.5.6-1.3 2.2-1.9 3.5-1.4 1.3.6 1.9 2.2 1.4 3.5-4.3 9.9-10.7 16.4-19 19.4-3.7 1.4-7.5 1.9-10.9 1.9zM109.5 98.8c-1.4 0-2.6-1.1-2.6-2.6s1.1-2.7 2.6-2.7c26.8-.6 32.4-22.6 32.5-22.8.3-1.4 1.8-2.3 3.2-2 1.4.3 2.3 1.8 2 3.2-.2.2-6.9 26.2-37.7 26.9z"/><circle cx="96.9" cy="91.6" r="3.3"/></g></svg>