<?xml version="1.0" encoding="utf-8"?>
<!-- Generator: Adobe Illustrator 18.0.0, SVG Export Plug-In . SVG Version: 6.00 Build 0)  -->
<!DOCTYPE svg PUBLIC "-//W3C//DTD SVG 1.1//EN" "http://www.w3.org/Graphics/SVG/1.1/DTD/svg11.dtd">
<svg version="1.1" id="Layer_1" xmlns="http://www.w3.org/2000/svg" xmlns:xlink="http://www.w3.org/1999/xlink" x="0px" y="0px"
	 viewBox="0 0 164 164" enable-background="new 0 0 164 164" xml:space="preserve">
<g>
	<path fill="#FFFFFF" d="M100.9,89H61.6c-1.2,0-2.1-0.9-2.1-2.1V52.3c0-1.2,0.9-2.1,2.1-2.1h39.4c1.2,0,2.1,0.9,2.1,2.1v34.6
		C103,88,102.1,89,100.9,89z M63.7,84.8h35.2V54.4H63.7V84.8z"/>
	<path fill="#FFFFFF" d="M95.5,54.4c-1.2,0-2.1-0.9-2.1-2.1V47H69.1v5.2c0,1.2-0.9,2.1-2.1,2.1s-2.1-0.9-2.1-2.1v-7.3
		c0-1.2,0.9-2.1,2.1-2.1h28.5c1.2,0,2.1,0.9,2.1,2.1v7.3C97.6,53.4,96.7,54.4,95.5,54.4z"/>
	<path fill="#FFFFFF" d="M92.3,47c-0.7,0-1.4-0.4-1.8-1.1l-4.1-7.1H76.3l-4.8,7.2c-0.6,1-1.9,1.2-2.9,0.6c-1-0.6-1.2-1.9-0.6-2.9
		l5.4-8.2c0.4-0.6,1-0.9,1.7-0.9h12.5c0.8,0,1.4,0.4,1.8,1.1l4.7,8.2c0.6,1,0.2,2.3-0.8,2.9C93.1,46.9,92.7,47,92.3,47z"/>
	<path fill="#FFFFFF" d="M81.5,47c-1.2,0-2.1-0.9-2.1-2.1V23l-2.7,8.3v5.4c0,1.2-0.9,2.1-2.1,2.1s-2.1-0.9-2.1-2.1V31
		c0-0.2,0-0.4,0.1-0.7l6.9-21.1c0.3-1,1.3-1.6,2.3-1.4c1,0.2,1.8,1,1.8,2.1v35C83.6,46.1,82.6,47,81.5,47z"/>
	<path fill="#FFFFFF" d="M81.5,47c-1.2,0-2.1-0.9-2.1-2.1v-35c0-1,0.7-1.9,1.8-2.1c1-0.2,2,0.4,2.3,1.4l6.9,21.1
		c0.1,0.2,0.1,0.4,0.1,0.7v5.7c0,1.2-0.9,2.1-2.1,2.1s-2.1-0.9-2.1-2.1v-5.4L83.6,23v21.9C83.6,46.1,82.6,47,81.5,47z"/>
	<path fill="#FFFFFF" d="M74.3,54.4c-1.2,0-2.1-0.9-2.1-2.1v-7.3c0-1.2,0.9-2.1,2.1-2.1s2.1,0.9,2.1,2.1v7.3
		C76.4,53.4,75.4,54.4,74.3,54.4z"/>
	<path fill="#FFFFFF" d="M81.3,54.4c-1.2,0-2.1-0.9-2.1-2.1v-7.3c0-1.2,0.9-2.1,2.1-2.1s2.1,0.9,2.1,2.1v7.3
		C83.4,53.4,82.4,54.4,81.3,54.4z"/>
	<path fill="#FFFFFF" d="M88.2,54.4c-1.2,0-2.1-0.9-2.1-2.1v-7.3c0-1.2,0.9-2.1,2.1-2.1s2.1,0.9,2.1,2.1v7.3
		C90.3,53.4,89.3,54.4,88.2,54.4z"/>
	<path fill="#FFFFFF" d="M81.3,83.3c-7.6,0-13.8-6.2-13.8-13.8s6.2-13.8,13.8-13.8S95,62,95,69.6S88.8,83.3,81.3,83.3z M81.3,60
		c-5.3,0-9.6,4.3-9.6,9.6s4.3,9.6,9.6,9.6s9.6-4.3,9.6-9.6S86.5,60,81.3,60z"/>
	<path fill="#FFFFFF" d="M81.3,71.7c-0.4,0-0.8-0.1-1.2-0.4l-2.5-1.7c-1-0.7-1.2-2-0.5-2.9s2-1.2,2.9-0.5l1.3,0.9l4.4-3.2
		c0.9-0.7,2.3-0.5,2.9,0.5c0.7,0.9,0.5,2.3-0.5,2.9l-5.6,4C82.1,71.5,81.7,71.7,81.3,71.7z"/>
	<path fill="#FFFFFF" d="M67,148.3c-1.2,0-2.1-0.9-2.1-2.1V86.9c0-1.2,0.9-2.1,2.1-2.1s2.1,0.9,2.1,2.1v59.3
		C69.1,147.3,68.1,148.3,67,148.3z"/>
	<path fill="#FFFFFF" d="M53.3,148.4c-1.2,0-2.1-0.9-2.1-2.1v-45.2l-0.7,1.3c-0.4,0.7-1.1,1.1-1.9,1.1c0,0,0,0,0,0
		c-0.8,0-1.5-0.5-1.9-1.2l-0.5-1v44.9c0,1.2-0.9,2.1-2.1,2.1s-2.1-0.9-2.1-2.1V92.4c0-1,0.7-1.8,1.6-2c0.9-0.2,1.9,0.2,2.4,1.1
		l2.6,5.3l2.7-5.3c0.4-0.9,1.4-1.3,2.4-1.1c0.9,0.2,1.6,1.1,1.6,2v53.9C55.4,147.5,54.4,148.4,53.3,148.4z"/>
	<path fill="#FFFFFF" d="M31.3,148.4c-1.2,0-2.1-0.9-2.1-2.1v-45.9l-1,1.8c-0.4,0.7-1.1,1.1-1.9,1.1c-0.8,0-1.5-0.5-1.8-1.2
		l-0.1-0.3v44.5c0,1.2-0.9,2.1-2.1,2.1s-2.1-0.9-2.1-2.1V92.4c0-1,0.7-1.8,1.6-2c1-0.2,1.9,0.3,2.4,1.2l2.4,5.1l3-5.3
		c0.5-0.8,1.4-1.2,2.4-1c0.9,0.2,1.6,1.1,1.6,2v53.9C33.4,147.5,32.5,148.4,31.3,148.4z"/>
	<path fill="#FFFFFF" d="M95.5,148.3c-1.2,0-2.1-0.9-2.1-2.1V86.9c0-1.2,0.9-2.1,2.1-2.1s2.1,0.9,2.1,2.1v59.3
		C97.6,147.3,96.7,148.3,95.5,148.3z"/>
	<path fill="#FFFFFF" d="M74.3,148.3c-1.2,0-2.1-0.9-2.1-2.1V86.9c0-1.2,0.9-2.1,2.1-2.1s2.1,0.9,2.1,2.1v59.3
		C76.4,147.3,75.4,148.3,74.3,148.3z"/>
	<path fill="#FFFFFF" d="M81.5,148.3c-1.2,0-2.1-0.9-2.1-2.1V86.9c0-1.2,0.9-2.1,2.1-2.1s2.1,0.9,2.1,2.1v59.3
		C83.6,147.3,82.6,148.3,81.5,148.3z"/>
	<path fill="#FFFFFF" d="M88.4,148.3c-1.2,0-2.1-0.9-2.1-2.1V86.9c0-1.2,0.9-2.1,2.1-2.1s2.1,0.9,2.1,2.1v59.3
		C90.5,147.3,89.6,148.3,88.4,148.3z"/>
	<path fill="#FFFFFF" d="M44.2,109.5H31.3c-1.2,0-2.1-0.9-2.1-2.1s0.9-2.1,2.1-2.1h12.8c1.2,0,2.1,0.9,2.1,2.1
		S45.3,109.5,44.2,109.5z"/>
	<path fill="#FFFFFF" d="M22.3,109.5H8.5c-1.2,0-2.1-0.9-2.1-2.1s0.9-2.1,2.1-2.1h13.8c1.2,0,2.1,0.9,2.1,2.1S23.4,109.5,22.3,109.5
		z"/>
	<path fill="#FFFFFF" d="M66.9,109.5H53.2c-1.2,0-2.1-0.9-2.1-2.1s0.9-2.1,2.1-2.1h13.6c1.2,0,2.1,0.9,2.1,2.1S68,109.5,66.9,109.5z
		"/>
	<path fill="#FFFFFF" d="M155.5,133.9h-60c-1.2,0-2.1-0.9-2.1-2.1s0.9-2.1,2.1-2.1h60c1.2,0,2.1,0.9,2.1,2.1
		S156.7,133.9,155.5,133.9z"/>
	<path fill="#FFFFFF" d="M125.3,148.3c-1.2,0-2.1-0.9-2.1-2.1V146c0-2.8-4.3-5.3-9.3-5.3s-9.3,2.5-9.3,5.3v0.2
		c0,1.2-0.9,2.1-2.1,2.1s-2.1-0.9-2.1-2.1V146c0-5.4,5.9-9.5,13.5-9.5s13.5,4.2,13.5,9.5v0.2C127.4,147.4,126.4,148.3,125.3,148.3z"
		/>
	<path fill="#FFFFFF" d="M153.6,148.3c-1.2,0-2.1-0.9-2.1-2.1V146c0-2.8-4.3-5.3-9.3-5.3s-9.3,2.5-9.3,5.3v0.2
		c0,1.2-0.9,2.1-2.1,2.1s-2.1-0.9-2.1-2.1V146c0-5.4,5.9-9.5,13.5-9.5c7.5,0,13.5,4.2,13.5,9.5v0.2
		C155.7,147.4,154.7,148.3,153.6,148.3z"/>
</g>
</svg>
