<?xml version="1.0" encoding="utf-8"?>
<!-- Generator: Adobe Illustrator 18.0.0, SVG Export Plug-In . SVG Version: 6.00 Build 0)  -->
<!DOCTYPE svg PUBLIC "-//W3C//DTD SVG 1.1//EN" "http://www.w3.org/Graphics/SVG/1.1/DTD/svg11.dtd">
<svg version="1.1" id="Layer_1" xmlns="http://www.w3.org/2000/svg" xmlns:xlink="http://www.w3.org/1999/xlink" x="0px" y="0px"
	 viewBox="0 0 164 164" enable-background="new 0 0 164 164" xml:space="preserve">
<path fill="#FFFFFF" d="M11,154.3c-0.6,0-1.2-0.3-1.6-0.8c-0.7-0.9-0.6-2.2,0.3-3l7.9-6.6c12.7-10.1,20-10.4,29.7-9.7
	c9.6,0.7,19.1,0,28.4-2.1l24.1-5.5c7.1-2,12.8-2.8,17.8-3.5c10.5-1.5,18.7-2.7,35-13.3c1-0.6,2.3-0.4,2.9,0.6c0.6,1,0.4,2.3-0.6,2.9
	c-17,11.1-26.1,12.4-36.7,13.9c-5.1,0.7-10.5,1.5-17.4,3.4l-24.2,5.5c-9.7,2.2-19.6,3-29.6,2.2c-9-0.7-15.2-0.4-26.7,8.7l-7.8,6.6
	C12,154.1,11.5,154.3,11,154.3z"/>
<g>
	<path fill="#FFFFFF" d="M61.7,138.4c-1.6,0-3.3-0.5-4.7-1.3c-2.1-1.3-3.5-3.4-4-5.8c-0.5-2.4,0.1-4.9,1.5-6.8
		c5.5-7.6,10.1-15.1,9.9-30.8c0,0,0-0.1,0-0.1l1.6-41.2c0-4.6,2.5-9.8,7.8-10.7l5.1-0.9c3.1-0.6,6.5,0.2,9,2.2l11.2,8.6
		c1.5,1.2,3.5,1.6,5.3,1.3l6.6-1.2c0.4-0.1,0.9-0.1,1.3-0.1c3.6,0,6.7,2.6,7.4,6.2c0.7,4.1-2,8-6.1,8.7l-7.9,1.4
		c-3.9,0.7-8,0.1-11.5-1.5l-3.7-1.7l-1.3,10.3c-0.3,2.4-0.1,4.7,0.7,6.7c0.3,0.8,0.7,1.7,1.8,2.9c7.2,8.1,11,18.5,10.6,29.4
		l-0.2,9.9c-0.2,4.6-3.9,8.2-8.5,8.2l-0.2,0c-4.7-0.1-8.4-4-8.3-8.7l0.1-10.8c0.1-4.2-1-8.3-3.2-11.8l-0.4-0.7
		c-1.4,12.8-7.9,27.4-12.7,34.6C67.4,137,64.7,138.4,61.7,138.4z M68.7,93.7c0.2,16.9-5,25.4-10.7,33.3c-0.8,1-1,2.3-0.8,3.6
		c0.3,1.3,1,2.4,2.1,3.1c0.7,0.5,1.6,0.7,2.4,0.7c1.5,0,3-0.8,3.8-2c5.4-8.1,13.1-26.2,12.2-39.2c-0.1-1,0.5-1.8,1.5-2.1
		c0.9-0.3,1.9,0.1,2.4,0.9l4.1,6.6c2.6,4.2,4,9.1,3.9,14.1l-0.1,10.8c0,2.4,1.9,4.4,4.2,4.4c0,0,0,0,0,0c2.4,0,4.3-1.8,4.4-4.2
		l0.2-9.9c0.4-9.8-3-19.2-9.6-26.5c-1.2-1.4-2-2.6-2.6-4.2c-1-2.7-1.3-5.7-0.9-8.7l1.7-13.2c0.1-0.7,0.5-1.3,1.1-1.6
		c0.6-0.3,1.3-0.3,1.9-0.1l6.3,3c2.8,1.3,5.9,1.7,9,1.2l7.9-1.4c1.8-0.3,3-2,2.7-3.8c-0.3-1.8-2-3-3.8-2.7l-6.6,1.2
		c-3,0.5-6.2-0.2-8.6-2.1l-11.2-8.6c-1.6-1.2-3.7-1.7-5.7-1.4l-5.1,0.9c-3,0.5-4.3,3.8-4.4,6.7L68.7,93.7z"/>
	<path fill="#FFFFFF" d="M80.6,42.9C80.6,42.9,80.6,42.9,80.6,42.9c-6.2,0-11.4-4.4-12.5-10.5c-0.6-3.3,0.1-6.7,2.1-9.5
		s4.8-4.7,8.2-5.3c0.7-0.1,1.5-0.2,2.3-0.2c6.2,0,11.4,4.4,12.5,10.5c1.2,6.9-3.4,13.5-10.3,14.8C82.2,42.9,81.4,42.9,80.6,42.9z
		 M80.7,21.7c-0.5,0-1,0-1.5,0.1c-4.6,0.8-7.7,5.3-6.9,9.9c0.7,4.1,4.2,7,8.4,7l0,0c0.5,0,1,0,1.5-0.1c4.6-0.8,7.7-5.3,6.9-9.9
		C88.3,24.7,84.8,21.7,80.7,21.7z"/>
	<path fill="#FFFFFF" d="M118.4,125.6c-1.2,0-2.1-0.9-2.1-2.1l-0.2-74.3c0-1.2,0.9-2.1,2.1-2.1c0,0,0,0,0,0c1.2,0,2.1,0.9,2.1,2.1
		l0.2,74.3C120.5,124.7,119.6,125.6,118.4,125.6C118.4,125.6,118.4,125.6,118.4,125.6z"/>
	<path fill="#FFFFFF" d="M121.4,121.1h-6.2c-1.2,0-2.1-0.9-2.1-2.1s0.9-2.1,2.1-2.1h6.2c1.2,0,2.1,0.9,2.1,2.1
		S122.5,121.1,121.4,121.1z"/>
	<path fill="#FFFFFF" d="M66.6,92.2c0,0-0.1,0-0.1,0l-12.2-0.7c-2.5-0.2-4.9-1.4-6.5-3.4c-1.6-2-2.3-4.6-1.9-7.1l4.6-31.3
		c0.7-4.4,4.5-7.8,9-7.8c0.6,0,1.1,0.1,1.7,0.2l1.7,0.3c4.2,0.8,7.3,4.3,7.4,8.6l0.2,5.8c0,0.1,0,0.1,0,0.2l-1.8,33.1
		c0,0.6-0.3,1.1-0.7,1.5C67.6,92,67.1,92.2,66.6,92.2z M59.4,46.1c-2.4,0-4.5,1.8-4.9,4.2l-4.6,31.3c-0.2,1.4,0.2,2.7,1,3.8
		c0.9,1.1,2.1,1.7,3.5,1.8l10.1,0.6L66.3,57l-0.2-5.8c-0.1-2.3-1.7-4.2-4-4.7l-1.7-0.3C60,46.2,59.7,46.1,59.4,46.1z"/>
</g>
</svg>
