<?xml version="1.0" encoding="UTF-8" standalone="no"?>
<svg width="72px" height="72px" viewBox="0 0 72 72" version="1.1" xmlns="http://www.w3.org/2000/svg" xmlns:xlink="http://www.w3.org/1999/xlink" xmlns:sketch="http://www.bohemiancoding.com/sketch/ns">
    <!-- Generator: Sketch Beta 3.3 (11970) - http://www.bohemiancoding.com/sketch -->
    <title>Slice 1</title>
    <desc>Created with Sketch Beta.</desc>
    <defs></defs>
    <g id="Page-1" stroke="none" stroke-width="1" fill="none" fill-rule="evenodd" sketch:type="MSPage">
        <g id="Rectangle-61" sketch:type="MSLayerGroup" transform="translate(1.000000, 1.000000)">
            <g id="umbrella" transform="translate(25.500000, 46.000000) scale(-1, 1) translate(-25.500000, -46.000000) translate(4.000000, 25.000000)" fill="#514F38" sketch:type="MSShapeGroup">
                <path d="M42.9283333,21.5363077 L42.9283333,21.3941538 C42.9283333,21.1098462 42.9283333,20.8966154 42.8566667,20.7544615 C42.8566667,20.6833846 42.8566667,20.6123077 42.785,20.4701538 C42.2833333,11.3723077 34.0416667,3.90923077 23.5066667,2.772 L23.5783333,1.13723077 C23.5783333,0.781846154 23.3633333,0.497538462 23.005,0.497538462 C22.6466667,0.497538462 22.36,0.710769231 22.36,1.06615385 L22.2166667,2.70092308 C15.8383333,2.34553846 9.81833333,4.47784615 5.66166667,8.17384615 L4.80166667,9.02676923 C2.365,11.5144615 0.645,14.4996923 0.0716666667,17.9113846 C0.0716666667,18.0535385 0.0716666667,18.2667692 0.215,18.4089231 C0.286666667,18.5510769 2.00666667,20.8255385 5.23166667,20.8255385 C5.87666667,20.8255385 6.52166667,20.6833846 7.23833333,20.5412308 C7.31,20.6123077 7.31,20.6123077 7.38166667,20.6123077 C7.81166667,20.9676923 9.89,22.5313846 13.1866667,22.5313846 C14.1183333,22.5313846 15.1216667,22.3892308 16.2683333,22.1049231 C16.34,22.176 17.9883333,23.3132308 20.64,23.5975385 L19.2066667,41.1535385 C19.2066667,41.5089231 19.4216667,41.7932308 19.78,41.7932308 C20.21,41.7932308 20.425,41.58 20.4966667,41.2246154 L21.93,23.5975385 C23.22,23.5975385 24.725,23.3843077 26.3733333,22.7446154 C28.0933333,23.5975385 29.7416667,23.8818462 31.1033333,23.8818462 C33.4683333,23.8818462 35.045,23.0289231 35.475,22.8156923 C35.5466667,22.8156923 35.5466667,22.7446154 35.6183333,22.7446154 C36.765,23.2421538 37.7683333,23.4553846 38.6283333,23.4553846 C41.2083333,23.4553846 42.8566667,21.8916923 42.9283333,21.8206154 C42.8566667,21.7495385 42.8566667,21.6784615 42.8566667,21.6784615 C42.8566667,21.6073846 42.9283333,21.6073846 42.9283333,21.5363077 Z M17.1283333,21.1098462 C17.1283333,21.1098462 17.1283333,21.0387692 17.1283333,21.1098462 L17.1283333,21.0387692 C17.2,20.9676923 17.2,20.8966154 17.2,20.7544615 C17.2,20.6833846 17.845,13.0781538 22.7183333,4.47784615 C26.0866667,13.7889231 25.585,21.3230769 25.585,21.3941538 L25.585,21.6073846 C21.1416667,23.1710769 17.9883333,21.6073846 17.1283333,21.1098462 L17.1283333,21.1098462 Z M1.29,17.8403077 C2.795,10.164 10.32,4.54892308 19.2783333,3.90923077 C13.4733333,6.75230769 10.4633333,10.4483077 8.95833333,13.2913846 C7.59666667,15.8501538 7.16666667,18.0535385 7.095,19.1907692 C3.72666667,20.1858462 1.86333333,18.48 1.29,17.8403077 L1.29,17.8403077 Z M8.31333333,19.6883077 C8.45666667,17.9824615 9.675,9.31107692 21.3566667,4.40676923 C16.6266667,13.0781538 15.9816667,20.328 15.9816667,20.6833846 L15.9816667,20.7544615 C11.825,21.9627692 9.03,20.2569231 8.31333333,19.6883077 L8.31333333,19.6883077 Z M26.8033333,21.6073846 L26.8033333,21.5363077 C26.8033333,21.1809231 27.3766667,13.9310769 24.08,4.62 C34.9733333,11.3723077 34.7583333,20.0436923 34.5433333,21.7495385 C33.755,22.176 30.745,23.4553846 26.8033333,21.6073846 L26.8033333,21.6073846 Z M35.8333333,21.4652308 C35.905,20.328 35.8333333,18.1246154 34.9016667,15.3526154 C33.8983333,12.2963077 31.5333333,8.17384615 26.23,4.47784615 C34.7583333,6.468 41.1366667,12.8649231 41.6383333,20.5412308 C41.6383333,20.7544615 41.6383333,20.8255385 41.71,20.9676923 L41.71,21.0387692 C41.065,21.6073846 38.9866667,22.9578462 35.8333333,21.4652308 L35.8333333,21.4652308 Z" id="Shape"></path>
            </g>
            <g id="sun" transform="translate(41.000000, 4.000000)" stroke="#514F37" stroke-width="1.2" sketch:type="MSShapeGroup">
                <g id="Line-+-Line-3" transform="translate(13.335913, 12.445062) rotate(-135.000000) translate(-13.335913, -12.445062) translate(11.775913, 0.445062)">
                    <path d="M1.664,3.94202899 L1.664,1.55653268e-13" id="Line"></path>
                    <path d="M1.664,23.6521739 L1.664,19.7101449" id="Line-2"></path>
                </g>
                <g id="Line-+-Line-2" transform="translate(12.232827, 11.944963) rotate(-45.000000) translate(-12.232827, -11.944963) translate(10.672827, -0.576776)">
                    <path d="M1.664,4.73043478 L1.664,0.788405797" id="Line"></path>
                    <path d="M1.664,24.4405797 L1.664,20.4985507" id="Line-2"></path>
                </g>
                <g id="Line-+-Line-3" transform="translate(12.780444, 11.962319) rotate(-90.000000) translate(-12.780444, -11.962319) translate(11.740444, -0.559420)">
                    <path d="M0.624,4.33623188 L0.624,0.394202899" id="Line"></path>
                    <path d="M0.624,24.0463768 L0.624,20.1043478" id="Line-2"></path>
                </g>
                <g id="Line-+-Line-2" transform="translate(11.700000, 0.000000)">
                    <path d="M0.624,3.94202899 L0.624,0" id="Line"></path>
                    <path d="M0.624,23.6521739 L0.624,19.7101449" id="Line-2"></path>
                </g>
                <ellipse id="Oval-11" fill-opacity="0" fill="#D8D8D8" cx="12.48" cy="11.826087" rx="5.46" ry="5.51884058"></ellipse>
            </g>
        </g>
    </g>
</svg>