<?xml version="1.0" encoding="utf-8"?>
<!-- Generator: Adobe Illustrator 18.0.0, SVG Export Plug-In . SVG Version: 6.00 Build 0)  -->
<!DOCTYPE svg PUBLIC "-//W3C//DTD SVG 1.1//EN" "http://www.w3.org/Graphics/SVG/1.1/DTD/svg11.dtd">
<svg version="1.1" id="Layer_1" xmlns="http://www.w3.org/2000/svg" xmlns:xlink="http://www.w3.org/1999/xlink" x="0px" y="0px"
	 viewBox="0 0 164 164" enable-background="new 0 0 164 164" xml:space="preserve">
<g>
	<circle fill="#FFFFFF" cx="110.5" cy="60.4" r="3.7"/>
	<g>
		<path fill="#FFFFFF" d="M89.4,147.9c-12.8,0-26-9.1-26-24.3c0-12.2,8.7-22.3,20.8-23.9c9.4-1.3,16.5,2.7,18.5,10.4
			c0.3,1.3-0.3,2.6-1.5,3.1c0,0-3.4,1.5-5.1,4.2c-0.5,0.7-1.3,1.2-2.2,1.2c-0.9,0-1.7-0.4-2.2-1.1c-0.7-0.9-2-1.8-3.7-1.4
			c-1.3,0.3-2.3,1.3-2.6,2.6c-0.2,1.1,0,2.2,0.7,3c0.7,0.8,1.7,1.3,2.7,1.3c1.5,0,2.7,1.2,2.7,2.7s-1.2,2.7-2.7,2.7
			c-2.7,0-5.2-1.2-6.9-3.3s-2.3-4.8-1.8-7.5c0.7-3.3,3.3-6,6.6-6.7c2.4-0.5,4.8-0.1,6.8,1.2c1.1-1.1,2.3-1.9,3.3-2.6
			c-2.6-5.2-9.1-4.9-11.9-4.6c-9.4,1.3-16.2,9.1-16.2,18.7c0,11.9,10.5,19,20.7,19c18.7,0,34.3-13.9,36.3-32.3
			c0.2-1.5,1.5-2.5,2.9-2.4c1.5,0.2,2.5,1.5,2.4,2.9C128.7,131.9,110.8,147.9,89.4,147.9z"/>
		<path fill="#FFFFFF" d="M89.4,128.2c-1.5,0-2.7-1.2-2.7-2.7s1.2-2.7,2.7-2.7c5.4,0,8.7-3.2,8.7-8.7c0-1-0.2-1.9-0.5-2.8
			c-0.5-1.4,0.3-2.9,1.7-3.4c1.4-0.5,2.9,0.3,3.4,1.7c0.5,1.4,0.7,2.9,0.7,4.5C103.3,122.6,97.7,128.2,89.4,128.2z"/>
		<path fill="#FFFFFF" d="M131.1,112c-5.5,0-11.6-1.2-17.3-4.8c-1.2-0.8-1.6-2.4-0.8-3.7s2.4-1.6,3.7-0.8c7.6,4.8,16.3,4.4,22.7,3
			c-17.4-5.2-25.8-16.1-26.2-16.6c-0.9-1.2-0.6-2.8,0.5-3.7c1.2-0.9,2.8-0.6,3.7,0.5c0.1,0.2,10.7,13.7,32.4,16.6
			c1.2,0.2,2.1,1,2.3,2.2c0.2,1.1-0.4,2.3-1.4,2.8C150,107.8,141.5,112,131.1,112z"/>
		<path fill="#FFFFFF" d="M98.2,109.3c-0.8,0-1.6-0.4-2.1-1.1l0,0c-0.1-0.1-7-9.4-15.5-11.6c-0.8-0.2-1.4-0.7-1.7-1.4
			c-0.3-0.5-0.3-1.1-0.2-1.6c-4.2,4.4-11.1,8.6-22.4,8.6h-1.5C39.4,102.1,27,89.7,27,74.5V22.8c0-1.5,1.2-2.7,2.7-2.7h29.9
			c6.9,0,13.7,2.4,19.2,6.6v-4c0-1.5,1.2-2.7,2.7-2.7H88c23.8,0,43.2,19.4,43.2,43.2v33.9c0,1.5-1.2,2.7-2.7,2.7
			c-1.5,0-2.7-1.2-2.7-2.7V63.3c0-20.9-17-37.9-37.9-37.9h-4v7.4c0,1.1-0.6,2-1.6,2.4c-1,0.4-2.1,0.2-2.9-0.5l-3.9-3.7
			c-4.5-3.7-10.3-5.7-16.1-5.7H32.3v49c0,12.3,10,22.3,22.3,22.3h1.5c19.5,0,23.1-14.2,23.1-14.4c0.3-1.2,1.3-2,2.6-2.1c0,0,0,0,0,0
			c1.2,0,2.3,0.8,2.6,2c1,4,0.6,7.6,0.1,9.9c9.1,3.6,15.6,12.4,15.9,12.8c0.9,1.2,0.6,2.8-0.6,3.7C99.3,109.1,98.7,109.3,98.2,109.3
			z"/>
		<path fill="#FFFFFF" d="M110.5,141.8c-0.8,0-1.5-0.3-2.1-1l-5.2-6.4c-0.9-1.1-0.7-2.8,0.4-3.7c1.1-0.9,2.8-0.7,3.7,0.4l5.2,6.4
			c0.9,1.1,0.7,2.8-0.4,3.7C111.7,141.6,111.1,141.8,110.5,141.8z"/>
		<path fill="#FFFFFF" d="M101.2,146.1c-1,0-2-0.6-2.4-1.6l-2.3-5.3c-0.6-1.3,0-2.9,1.4-3.5c1.3-0.6,2.9,0,3.5,1.4l2.3,5.3
			c0.6,1.3,0,2.9-1.4,3.5C101.9,146,101.6,146.1,101.2,146.1z"/>
		<path fill="#FFFFFF" d="M91.3,147.8c-1.3,0-2.5-1-2.6-2.3l-1-8.5c-0.2-1.5,0.9-2.8,2.3-2.9c1.5-0.2,2.8,0.9,2.9,2.3l1,8.5
			c0.2,1.5-0.9,2.8-2.3,2.9C91.6,147.8,91.4,147.8,91.3,147.8z"/>
		<path fill="#FFFFFF" d="M80.4,146.2c-0.3,0-0.6,0-0.8-0.1c-1.4-0.5-2.1-2-1.7-3.3l1.8-5.4c0.5-1.4,2-2.2,3.3-1.7
			c1.4,0.5,2.1,2,1.7,3.3l-1.8,5.4C82.5,145.5,81.5,146.2,80.4,146.2z"/>
		<path fill="#FFFFFF" d="M71.4,140.2c-0.7,0-1.4-0.3-2-0.9c-1-1.1-0.9-2.8,0.2-3.7l6.2-5.7c1.1-1,2.8-0.9,3.7,0.2
			c1,1.1,0.9,2.8-0.2,3.7l-6.2,5.7C72.7,139.9,72,140.2,71.4,140.2z"/>
		<path fill="#FFFFFF" d="M117.5,135.4c-0.5,0-1-0.1-1.4-0.4l-4.5-2.9c-1.2-0.8-1.6-2.4-0.8-3.7c0.8-1.2,2.4-1.6,3.7-0.8l4.5,2.9
			c1.2,0.8,1.6,2.4,0.8,3.7C119.2,134.9,118.4,135.4,117.5,135.4z"/>
	</g>
</g>
</svg>
