<?xml version="1.0" encoding="utf-8"?>
<!-- Generator: Adobe Illustrator 18.0.0, SVG Export Plug-In . SVG Version: 6.00 Build 0)  -->
<!DOCTYPE svg PUBLIC "-//W3C//DTD SVG 1.1//EN" "http://www.w3.org/Graphics/SVG/1.1/DTD/svg11.dtd">
<svg version="1.1" id="Layer_1" xmlns="http://www.w3.org/2000/svg" xmlns:xlink="http://www.w3.org/1999/xlink" x="0px" y="0px"
	 viewBox="0 0 164 164" enable-background="new 0 0 164 164" xml:space="preserve">
<g>
	<path fill="#FFFFFF" d="M98.3,32.6c-7.3,0-14.6-0.8-21.8-2.5c-3.3-0.8-6.6-1.6-9.8-2.4C48.4,22.9,31.1,18.4,8.1,29
		c-1.1,0.5-2.3,0-2.8-1s0-2.3,1-2.8c24.3-11.3,42.4-6.6,61.4-1.7c3.2,0.8,6.4,1.7,9.7,2.4c17.2,4,34.7,3,52.1-2.9
		c1.1-0.4,2.3,0.2,2.7,1.3c0.4,1.1-0.2,2.3-1.3,2.7C120.1,30.7,109.2,32.6,98.3,32.6z"/>
	<path fill="#FFFFFF" d="M156.8,32c-0.6,0-1.2-0.3-1.6-0.8c-3.1-3.8-9-7.4-16.4-6.2c-1.1,0.2-2.2-0.6-2.4-1.8
		c-0.2-1.1,0.6-2.2,1.8-2.4c9.1-1.4,16.4,3.1,20.3,7.7c0.7,0.9,0.6,2.2-0.3,3C157.7,31.8,157.2,32,156.8,32z"/>
</g>
<g>
	<g>
		<path fill="#FFFFFF" d="M98.5,92H61.3c-15.5,0-28.1-12.6-28.1-28.1v-1.4c0-15.5,12.6-28.1,28.1-28.1h37.2
			c15.5,0,28.1,12.6,28.1,28.1v1.4C126.6,79.4,114,92,98.5,92z M61.3,38.6c-13.2,0-23.9,10.7-23.9,23.9v1.4
			c0,13.2,10.7,23.9,23.9,23.9h37.2c13.2,0,23.9-10.7,23.9-23.9v-1.4c0-13.2-10.7-23.9-23.9-23.9H61.3z"/>
		<path fill="#FFFFFF" d="M96.7,84.4H95c-6,0-11.2-3.8-13.2-9.4c-0.3-0.8-1.1-1.4-2-1.4c-0.9,0-1.7,0.6-2,1.4
			c-1.9,5.6-7.2,9.4-13.2,9.4h-2.1c-5.8,0-11.2-2.3-15.2-6.5c-4-4.2-6.1-9.7-5.9-15.5C41.9,51.2,51.6,42,63.1,42h34
			c5.8,0,11.2,2.3,15.2,6.5c4,4.2,6.1,9.7,5.9,15.5C117.9,75.2,108.2,84.4,96.7,84.4z M79.9,69.4c2.7,0,5.1,1.7,5.9,4.2
			c1.3,3.9,5,6.6,9.2,6.6h1.6c9.3,0,17.1-7.3,17.4-16.3c0.2-4.7-1.5-9.1-4.7-12.4c-3.2-3.3-7.6-5.2-12.2-5.2h-34
			c-9.3,0-17.1,7.3-17.4,16.3c-0.2,4.7,1.5,9.1,4.7,12.4c3.2,3.3,7.6,5.2,12.2,5.2h2.1c4.2,0,7.9-2.6,9.2-6.6
			C74.8,71.1,77.2,69.4,79.9,69.4z"/>
		<path fill="#FFFFFF" d="M85.6,119.3H74.2c-7.1,0-12.8-5.8-12.8-12.8s5.8-12.8,12.8-12.8h11.5c7.1,0,12.8,5.8,12.8,12.8
			S92.7,119.3,85.6,119.3z M74.2,97.8c-4.8,0-8.6,3.9-8.6,8.6s3.9,8.6,8.6,8.6h11.5c4.8,0,8.6-3.9,8.6-8.6s-3.9-8.6-8.6-8.6H74.2z"
			/>
		<path fill="#FFFFFF" d="M79.9,114.9c-4.7,0-8.5-3.8-8.5-8.5s3.8-8.5,8.5-8.5c4.7,0,8.5,3.8,8.5,8.5S84.6,114.9,79.9,114.9z
			 M79.9,102.1c-2.4,0-4.3,1.9-4.3,4.3s1.9,4.3,4.3,4.3c2.4,0,4.3-1.9,4.3-4.3S82.3,102.1,79.9,102.1z"/>
		<path fill="#FFFFFF" d="M107.1,152c-0.3,0-0.7,0-1,0c-17.9-0.5-32.4-15.8-32.4-34.1v-2.9h12.4v3c0,11.5,9.1,21.2,20.2,21.6
			c5.8,0.2,11.2-1.9,15.4-5.9c4.2-4,6.5-9.4,6.5-15.1V14.3c0-1.2,0.9-2.1,2.1-2.1s2.1,0.9,2.1,2.1v104.3c0,6.9-2.7,13.4-7.7,18.2
			c-5,4.8-11.6,7.3-18.5,7c-13-0.5-23.6-11.4-24.2-24.5h-4c0.7,15.4,13.1,28.1,28.3,28.5c8,0.2,15.5-2.7,21.2-8.2
			c5.7-5.6,8.9-13,8.9-20.9V14.3c0-1.2,0.9-2.1,2.1-2.1s2.1,0.9,2.1,2.1v104.3c0,9.1-3.6,17.6-10.2,24
			C124.1,148.7,115.9,152,107.1,152z"/>
	</g>
	<path fill="#FFFFFF" d="M45.8,114.6c-5.7,0-10.3-4.6-10.3-10.3S40.1,94,45.8,94S56,98.6,56,104.3S51.4,114.6,45.8,114.6z
		 M45.8,98.2c-3.4,0-6.1,2.7-6.1,6.1s2.7,6.1,6.1,6.1s6.1-2.7,6.1-6.1S49.1,98.2,45.8,98.2z"/>
	<path fill="#FFFFFF" d="M25.1,123.2c-4.3,0-7.8-3.5-7.8-7.8c0-4.3,3.5-7.8,7.8-7.8c4.3,0,7.8,3.5,7.8,7.8
		C32.9,119.7,29.4,123.2,25.1,123.2z M25.1,111.7c-2,0-3.6,1.6-3.6,3.6c0,2,1.6,3.6,3.6,3.6c2,0,3.6-1.6,3.6-3.6
		C28.7,113.4,27.1,111.7,25.1,111.7z"/>
	<path fill="#FFFFFF" d="M25.1,94.2c-3.6,0-6.5-2.9-6.5-6.5s2.9-6.5,6.5-6.5c3.6,0,6.5,2.9,6.5,6.5S28.7,94.2,25.1,94.2z M25.1,85.4
		c-1.3,0-2.3,1-2.3,2.3s1,2.3,2.3,2.3c1.3,0,2.3-1,2.3-2.3S26.4,85.4,25.1,85.4z"/>
</g>
</svg>
