<?xml version="1.0" encoding="UTF-8" standalone="no"?>
<svg width="30px" height="30px" viewBox="0 0 30 30" version="1.1" xmlns="http://www.w3.org/2000/svg" xmlns:xlink="http://www.w3.org/1999/xlink" xmlns:sketch="http://www.bohemiancoding.com/sketch/ns">
    <!-- Generator: Sketch Beta 3.3.1 (11988) - http://www.bohemiancoding.com/sketch -->
    <title>Slice 1</title>
    <desc>Created with Sketch Beta.</desc>
    <defs></defs>
    <g id="Page-1" stroke="none" stroke-width="1" fill="none" fill-rule="evenodd" sketch:type="MSPage">
        <rect id="Rectangle-1" sketch:type="MSShapeGroup" x="0" y="0" width="30" height="30"></rect>
        <path d="M17.6248655,5.45223616 C16.0237643,5.39543516 14.2744397,5.4000217 12.3877233,5.49121174 L12.2789622,3.93294965 C12.2621182,3.69064413 12.4377727,3.4774401 12.6791148,3.450021 C13.6704765,3.33716006 15.3914105,3.22215606 17.3214388,3.450021 C17.5625426,3.47840147 17.7406045,3.68968276 17.7244815,3.93174794 L17.6248655,5.45223616 L17.6248655,5.45223616 Z M29.9868216,12.6295089 L29.9875426,12.6295089 C29.9875426,12.6295089 29.9865813,12.5977437 29.9848989,12.5419241 C29.9832165,12.4625168 29.9820148,12.3845536 29.980092,12.3046697 C29.9791306,12.3044274 29.9784096,12.3039427 29.9774482,12.3037064 C29.9687759,12.040467 29.9545957,11.6364629 29.9341265,11.1605082 C29.9341265,11.1593104 29.9338861,11.1583471 29.9338861,11.156901 C29.9081494,10.4578922 29.8759034,9.81038087 29.8171997,9.00140928 C29.7454975,8.01702755 29.0618826,7.18014015 28.1099852,6.91906786 C27.5543729,6.76675065 27.0363142,6.62238479 26.2333692,6.45394459 L26.2328885,6.45322357 L26.2100159,6.44913774 C26.1387943,6.43421646 26.0690148,6.41953553 25.9929864,6.40413356 L25.9929864,6.40821939 L25.3334259,6.28406234 L25.3334259,6.283822 C25.3322442,6.28358166 25.3305418,6.28334131 25.32934,6.28310097 L25.1919441,6.25734424 L25.1919441,6.25830561 C24.7983028,6.18492097 24.3827502,6.11249769 23.9404795,6.04319887 C23.9806568,5.65989227 23.7123742,5.30881163 23.3249618,5.25635683 L21.7173694,5.03956769 C21.3222659,4.98639186 20.9591682,5.2650292 20.9086361,5.6606133 L20.9081554,5.66445879 C20.2827636,5.60527439 19.6268423,5.55426165 18.9396243,5.51406432 L19.071967,3.5007934 C19.1131117,2.87371919 18.6588199,2.31019561 18.0372916,2.21778383 C15.4104177,1.82702661 13.1050162,2.04864263 11.9647101,2.21562074 C11.3402957,2.30707115 10.8855191,2.87251748 10.9295519,3.50271614 L11.0736855,5.56772084 C10.3506164,5.61705118 9.60949954,5.67865904 8.84889292,5.7549278 C8.78512799,5.37450531 8.43213462,5.10958754 8.04641459,5.16156166 L6.43881815,5.37837083 C6.06489093,5.42864251 5.80261693,5.75783194 5.82065866,6.12525588 C5.64549087,6.15027156 5.46694426,6.17843171 5.29009007,6.20488944 L5.28912469,6.2029667 L5.09735322,6.23377063 C4.96235872,6.25421979 4.82978167,6.2727462 4.69358946,6.29441711 C4.69358946,6.29585916 4.69310877,6.29730122 4.69310877,6.29898362 L3.99049284,6.41230522 C3.99121387,6.4094211 3.9919349,6.40701768 3.99241558,6.40413356 C3.73687518,6.4462336 3.51405945,6.48498886 3.29822166,6.5237241 L3.29749863,6.52396444 C2.92886696,6.59037915 2.58116714,6.65775523 2.12927875,6.74534012 C1.12323814,6.93999771 0.354689986,7.76124881 0.241355972,8.77955491 C0.195638078,9.19149834 0.160508183,9.56013001 0.12874607,10.0230922 L0.12874607,10.0230922 C0.12874607,10.0230922 0.0736435741,10.7745538 0.0361060256,11.6297233 C0.0351440538,11.6299636 0.0341811807,11.6302059 0.033219229,11.6304443 C0.029368638,11.7295817 0.0267223244,11.8347336 0.0235941236,11.9367591 C0.0101193365,12.2945633 0.000975209416,12.6566957 0.0014571074,12.9788912 C0.0014571074,12.9798525 0.00169759734,12.9803332 0.00169759734,12.9812966 C-0.0257347794,16.1880654 0.271195924,20.4778767 1.48561448,25.2857487 C1.71252125,26.1842266 2.44858408,26.8642293 3.36246728,27.0196709 C7.18523254,27.669829 17.7225568,29.0430579 27.0714443,26.4250945 C27.8472105,26.2078122 28.4632089,25.6170852 28.6944587,24.8454068 C29.2459451,23.0034462 30.1174879,19.0286101 29.9868216,12.6295089 L29.9868216,12.6295089 Z" id="vk_logo_footer2" fill="#FF5600" sketch:type="MSShapeGroup"></path>
    </g>
</svg>