<?xml version="1.0" encoding="utf-8"?>
<!-- Generator: Adobe Illustrator 16.0.0, SVG Export Plug-In . SVG Version: 6.00 Build 0)  -->
<!DOCTYPE svg PUBLIC "-//W3C//DTD SVG 1.0//EN" "http://www.w3.org/TR/2001/REC-SVG-20010904/DTD/svg10.dtd">
<svg version="1.0" id="Layer_1" xmlns:sketch="http://www.bohemiancoding.com/sketch/ns"
	 xmlns="http://www.w3.org/2000/svg" xmlns:xlink="http://www.w3.org/1999/xlink" x="0px" y="0px" width="40px" height="40px"
	 viewBox="-2.5 -2.5 40 40" enable-background="new -2.5 -2.5 40 40" xml:space="preserve">
<title>Shape 7</title>
<desc>Created with Sketch Beta.</desc>
<g id="Page-1" sketch:type="MSPage">
	<g id="desktop_wide_01" transform="translate(-1027.000000, -3478.000000)" sketch:type="MSArtboardGroup">
		<g id="Group-4" transform="translate(0.000000, 3459.000000)" sketch:type="MSLayerGroup">
			<g id="social_btns" transform="translate(1015.000000, 10.000000)" sketch:type="MSShapeGroup">
				<g id="facebook_icon" transform="translate(0.000000, 1.000000)">
					<path id="Shape-7" d="M23.4,20.1V18v-2v-0.3c0-2,0.1-5,1.5-6.8c1.5-2,3.5-3.3,7-3.3c5.7,0,8.1,0.8,8.1,0.8l-1.1,6.8
						c0,0-1.9-0.6-3.6-0.6c-1.8,0-3.3,0.6-3.3,2.4v0.7V18v2.1h6.7L38,26.5h-6.2l0,10.3l0,8.8h-8.5l-0.1-19h-4.3l0.1-6.3L23.4,20.1
						L23.4,20.1z"/>
				</g>
			</g>
		</g>
	</g>
</g>
</svg>
