<?xml version="1.0" encoding="utf-8"?>
<!-- Generator: Adobe Illustrator 16.0.0, SVG Export Plug-In . SVG Version: 6.00 Build 0)  -->
<!DOCTYPE svg PUBLIC "-//W3C//DTD SVG 1.0//EN" "http://www.w3.org/TR/2001/REC-SVG-20010904/DTD/svg10.dtd">
<svg version="1.0" id="Layer_1" xmlns:sketch="http://www.bohemiancoding.com/sketch/ns"
	 xmlns="http://www.w3.org/2000/svg" xmlns:xlink="http://www.w3.org/1999/xlink" x="0px" y="0px" width="40px" height="40px"
	 viewBox="0 0 40 40" enable-background="new 0 0 40 40" xml:space="preserve">
<title>€</title>
<desc>Created with Sketch Beta.</desc>
<g id="Page-1" sketch:type="MSPage">
	<g id="desktop_wide_02" transform="translate(-1027.000000, -527.000000)" sketch:type="MSArtboardGroup">
		<g id="sideinfo" transform="translate(930.000000, 390.000000)" sketch:type="MSLayerGroup">
			<g id="Capital-city-_x2B_-Bangkok-2" transform="translate(0.000000, 71.000000)" sketch:type="MSShapeGroup">
				<g id="_x33_7-THB-_x2B_-Oval-52" transform="translate(90.000000, 60.000000)">
					<g id="Oval-52">
						<path id="_x20AC_" d="M11.6,21.7h4.6c0.2-2.4,0.8-4.6,1.6-6.4c0.8-2,1.8-3.6,3.2-5c1.2-1.4,2.6-2.4,4.4-3.2
							c1.6-0.8,3.6-1,5.6-1c1.2,0,2.2,0.2,3.2,0.4c1,0.2,2,0.6,2.8,1c0.8,0.4,1.6,1,2.4,1.6c0.8,0.6,1.4,1.2,2.2,2L41,12l-0.2,0.2
							c0,0-0.2,0-0.4,0c-0.2,0-0.4,0-0.6-0.2s-0.4-0.4-0.8-0.8c-0.4-0.2-0.6-0.6-1.2-1c-0.4-0.4-1-0.6-1.6-1
							c-0.6-0.2-1.4-0.4-2.2-0.6c-0.8-0.2-1.8-0.2-2.8-0.2c-1.6,0-3.2,0.2-4.6,0.8c-1.4,0.6-2.6,1.4-3.6,2.6c-1,1-2,2.4-2.6,4.2
							c-0.6,1.6-1.2,3.6-1.4,5.8h16.7v0.8c0,0.2,0,0.4-0.2,0.6c-0.2,0.2-0.4,0.2-0.6,0.2H18.7c0,0.8,0,1.8,0,2.6c0,0.4,0,0.8,0,1.2
							c0,0.4,0,0.8,0,1h14.5v0.8c0,0.2,0,0.4-0.2,0.6s-0.4,0.2-0.6,0.2H18.9c0.2,2.2,0.6,4.4,1.4,6c0.6,1.8,1.6,3.2,2.6,4.4
							c1,1.2,2.2,2,3.6,2.6c1.4,0.6,3,0.8,4.6,0.8c1.2,0,2.2-0.2,3-0.4s1.6-0.6,2.4-0.8c0.6-0.4,1.2-0.8,1.8-1.2
							c0.4-0.4,0.8-0.8,1.2-1.2c0.4-0.4,0.6-0.6,0.8-0.8c0.2-0.2,0.4-0.4,0.6-0.4s0.4,0,0.4,0.2l1,1c-0.6,0.8-1.4,1.6-2.2,2.4
							c-0.8,0.6-1.6,1.2-2.6,1.8c-1,0.4-2,0.8-3,1.2c-1.2,0.2-2.4,0.4-3.6,0.4c-2,0-4-0.4-5.6-1c-1.6-0.8-3.2-1.8-4.4-3.2
							c-1.2-1.4-2.2-3-3-5c-0.8-2-1.2-4.2-1.6-6.8h-4.6v-1.6h4.2c0-0.4,0-0.8,0-1c0-0.4,0-0.8,0-1.2c0-1,0-1.8,0-2.6h-4.2V21.7z"/>
					</g>
				</g>
			</g>
		</g>
	</g>
</g>
</svg>
