<?xml version="1.0" encoding="utf-8"?>
<!-- Generator: Adobe Illustrator 16.0.0, SVG Export Plug-In . SVG Version: 6.00 Build 0)  -->
<!DOCTYPE svg PUBLIC "-//W3C//DTD SVG 1.0//EN" "http://www.w3.org/TR/2001/REC-SVG-20010904/DTD/svg10.dtd">
<svg version="1.0" id="Layer_1" xmlns:sketch="http://www.bohemiancoding.com/sketch/ns"
	 xmlns="http://www.w3.org/2000/svg" xmlns:xlink="http://www.w3.org/1999/xlink" x="0px" y="0px" width="40px" height="40px"
	 viewBox="0 0 40 40" enable-background="new 0 0 40 40" xml:space="preserve">
<title>$</title>
<desc>Created with Sketch Beta.</desc>
<g id="Page-1" sketch:type="MSPage">
	<g id="desktop_wide_02" transform="translate(-939.000000, -525.000000)" sketch:type="MSArtboardGroup">
		<g id="sideinfo" transform="translate(930.000000, 390.000000)" sketch:type="MSLayerGroup">
			<g id="Capital-city-_x2B_-Bangkok-2" transform="translate(0.000000, 71.000000)" sketch:type="MSShapeGroup">
				<g id="_x33_2-THB-_x2B_-Oval-51" transform="translate(0.000000, 60.000000)">
					<g id="Oval-51">
						<path id="_x24_" d="M27.9,38.9c-1.8-0.1-3.4-0.5-4.7-1.2c-1.3-0.7-2.5-1.6-3.5-2.7l0.6-0.8c0.2-0.2,0.4-0.3,0.6-0.3
							c0.1,0,0.3,0.1,0.5,0.2c0.2,0.1,0.4,0.3,0.7,0.6c0.3,0.2,0.6,0.5,1,0.8s0.8,0.5,1.3,0.8c0.5,0.2,1,0.5,1.7,0.6
							c0.6,0.2,1.3,0.3,2.1,0.3l0.7-13.5c-1-0.3-1.9-0.6-2.8-1c-0.9-0.4-1.7-0.8-2.4-1.4c-1-0.6-1.6-1.3-2-2.2
							C21.2,18.3,21,17.2,21,16c0-1,0.2-1.9,0.6-2.9c0.4-0.9,0.9-1.7,1.6-2.4c0.7-0.7,1.6-1.3,2.6-1.7s2.2-0.7,3.6-0.7l0.2-3.6
							c0-0.2,0.1-0.4,0.2-0.5C29.9,4.1,30.1,4,30.2,4H31l-0.2,4.3c1.4,0.1,2.7,0.4,3.8,0.9c1.1,0.5,2.1,1.2,3,2.1L37,12.1
							c-0.1,0.2-0.3,0.4-0.6,0.4c-0.2,0-0.4-0.1-0.7-0.3c-0.3-0.2-0.6-0.5-1.1-0.8c-0.4-0.3-1-0.6-1.6-0.8c-0.7-0.3-1.4-0.4-2.4-0.5
							L30,22.2c1,0.3,2,0.7,3,1c1,0.4,1.9,0.8,2.7,1.4c0.8,0.6,1.4,1.3,1.9,2.1s0.7,1.9,0.7,3.2c0,1.2-0.2,2.4-0.6,3.4
							c-0.4,1-1,2-1.8,2.8c-0.8,0.8-1.7,1.5-2.9,2c-1.1,0.5-2.4,0.8-3.9,0.8L29,43.3c0,0.2-0.1,0.3-0.2,0.5
							c-0.1,0.1-0.3,0.2-0.5,0.2h-0.8L27.9,38.9z M36.4,30.1c0-0.9-0.2-1.7-0.5-2.4c-0.4-0.7-0.8-1.2-1.4-1.7s-1.3-0.8-2.1-1.1
							c-0.8-0.3-1.6-0.6-2.4-0.9l-0.7,13.1c1.1-0.1,2.1-0.3,3-0.7c0.9-0.4,1.6-0.9,2.2-1.5c0.6-0.6,1.1-1.4,1.4-2.2
							C36.3,31.9,36.4,31,36.4,30.1L36.4,30.1z M22.9,15.8c0,0.9,0.2,1.6,0.5,2.2c0.3,0.6,0.7,1.2,1.3,1.6c0.5,0.5,1.1,0.9,1.8,1.2
							c0.7,0.3,1.4,0.6,2.2,0.9L29.3,10c-1.1,0.1-2,0.3-2.8,0.6c-0.8,0.3-1.5,0.8-2,1.3s-0.9,1.1-1.2,1.8
							C23.1,14.4,22.9,15.1,22.9,15.8L22.9,15.8z"/>
					</g>
				</g>
			</g>
		</g>
	</g>
</g>
</svg>
