<?xml version="1.0" encoding="utf-8"?>
<!-- Generator: Adobe Illustrator 16.0.0, SVG Export Plug-In . SVG Version: 6.00 Build 0)  -->
<!DOCTYPE svg PUBLIC "-//W3C//DTD SVG 1.0//EN" "http://www.w3.org/TR/2001/REC-SVG-20010904/DTD/svg10.dtd">
<svg version="1.0" id="Layer_1" xmlns:sketch="http://www.bohemiancoding.com/sketch/ns"
	 xmlns="http://www.w3.org/2000/svg" xmlns:xlink="http://www.w3.org/1999/xlink" x="0px" y="0px" width="40px" height="40px"
	 viewBox="-2.5 -2.5 40 40" enable-background="new -2.5 -2.5 40 40" xml:space="preserve">
<title>Rectangle 350</title>
<desc>Created with Sketch Beta.</desc>
<g id="Page-1" sketch:type="MSPage">
	<path id="desktop_wide_01" sketch:type="MSArtboardGroup" d="M36.5,9.2c-0.4-2.8-3-5.1-5.8-5.2c0,0-9.4-0.4-13.3-0.4
		C13.7,3.7,4.2,4,4.2,4C1.4,4.1-1.2,6.5-1.6,9.2c0,0-0.9,6.2-0.9,8.2c0,2,0.9,8.2,0.9,8.2c0.4,2.8,3,5.2,5.8,5.3
		c0,0,9.4,0.5,13.3,0.5c3.8,0,13.3-0.5,13.3-0.5c2.8-0.1,5.4-2.5,5.8-5.3c0,0,1-6.2,1-8.2C37.5,15.4,36.5,9.2,36.5,9.2z M13.2,23.3
		V11.5l11.9,5.9L13.2,23.3z"/>
</g>
</svg>
