<?xml version="1.0" encoding="UTF-8" standalone="no"?>
<svg width="72px" height="15px" viewBox="0 0 72 15" version="1.1" xmlns="http://www.w3.org/2000/svg" xmlns:xlink="http://www.w3.org/1999/xlink" xmlns:sketch="http://www.bohemiancoding.com/sketch/ns">
    <!-- Generator: Sketch Beta 3.3 (11970) - http://www.bohemiancoding.com/sketch -->
    <title>on + amazon logo</title>
    <desc>Created with Sketch Beta.</desc>
    <defs></defs>
    <g id="Page-1" stroke="none" stroke-width="1" fill="none" fill-rule="evenodd" sketch:type="MSPage">
        <g id="desktop_wide_01" sketch:type="MSArtboardGroup" transform="translate(-1036.000000, -1270.000000)">
            <g id="Group" sketch:type="MSLayerGroup" transform="translate(101.500000, 784.000000)">
                <g id="1" transform="translate(316.500000, 349.000000)">
                    <g id="Group-6" transform="translate(40.000000, 105.000000)">
                        <g id="Group">
                            <g id="$22.46---$39.95-+-on-Amazon" transform="translate(547.000000, 0.000000)">
                                <g id="on-+-amazon-logo" transform="translate(31.000000, 28.000000)">
                                    <text id="on" sketch:type="MSTextLayer" font-family="Lato" font-size="13" font-weight="260" fill="#4A4A4A">
                                        <tspan x="0" y="13">on</tspan>
                                    </text>
                                    <g id="amazon-logo" transform="translate(22.000000, 4.000000)" sketch:type="MSShapeGroup">
                                        <path d="M31.0137993,11.6995115 C28.1116866,13.8140516 23.9052512,14.9422352 20.2835888,14.9422352 C15.2054337,14.9422352 10.6337911,13.0855672 7.17516675,9.99756639 C6.90343375,9.75473689 7.14690556,9.4238041 7.47298682,9.6129082 C11.2055167,11.759682 15.8206394,13.0511844 20.5879313,13.0511844 C23.8030796,13.0511844 27.3399627,12.3936131 30.5920688,11.0290484 C31.0833632,10.8227508 31.4942239,11.3470885 31.0137993,11.6995115 Z M32.2202968,10.3349467 C31.850738,9.86648197 29.7681733,10.1136082 28.8334104,10.2232033 C28.5486327,10.2575861 28.5051567,10.012609 28.7616716,9.8363959 C30.4203333,8.68242541 33.1420166,9.0155082 33.4594013,9.40231393 C33.7767844,9.79126967 33.3767944,12.4881672 31.8181302,13.7753697 C31.579005,13.9730705 31.3507488,13.8677746 31.4572695,13.6056049 C31.8072612,12.7417385 32.5920282,10.8055607 32.2202968,10.3349467 Z" id="path8" fill="#FF9900"></path>
                                        <path d="M28.8986269,1.68983443 L28.8986269,0.568097541 C28.8986269,0.398332787 29.0290589,0.284440164 29.1855771,0.284440164 L34.2659046,0.284440164 C34.4289461,0.284440164 34.5593781,0.400481967 34.5593781,0.568097541 L34.5593781,1.52866557 C34.5572056,1.68983443 34.4202504,1.90042869 34.1767761,2.23351148 L31.5442231,5.94899754 C32.5224643,5.92536066 33.5550514,6.06933689 34.4419892,6.56358934 C34.6419851,6.67533279 34.6963317,6.83865082 34.7115489,6.99982131 L34.7115489,8.19677049 C34.7115489,8.36008852 34.5289436,8.55134098 34.3376434,8.4524918 C32.7746318,7.64234754 30.6985887,7.5542418 28.970364,8.4610877 C28.7942811,8.55564016 28.6095025,8.36653525 28.6095025,8.20321721 L28.6095025,7.0664377 C28.6095025,6.88377951 28.611675,6.57218443 28.7964536,6.29497377 L31.8463905,1.97134344 L29.1920987,1.97134344 C29.0290589,1.97134344 28.8986269,1.85745164 28.8986269,1.68983443 L28.8986269,1.68983443 Z M10.3664039,8.68887213 L8.82078449,8.68887213 C8.67296277,8.67812869 8.55557305,8.56853361 8.54470323,8.42885246 L8.54470323,0.587439344 C8.54470323,0.430568033 8.67730937,0.305929508 8.8425233,0.305929508 L10.2837969,0.305929508 C10.4337953,0.312372131 10.5533566,0.426268852 10.5642273,0.568097541 L10.5642273,1.59313443 L10.5924876,1.59313443 C10.9685664,0.602480328 11.6750722,0.140462295 12.6272273,0.140462295 C13.5945979,0.140462295 14.1989329,0.602480328 14.6337066,1.59313443 C15.007612,0.602480328 15.8575938,0.140462295 16.7684454,0.140462295 C17.416258,0.140462295 18.1249387,0.404779508 18.5575382,0.997881967 C19.0466585,1.65760082 18.9466601,2.61601967 18.9466601,3.45624918 L18.9444868,8.40521557 C18.9444868,8.56208689 18.8118807,8.68887213 18.6466667,8.68887213 L17.1032198,8.68887213 C16.9488765,8.67812869 16.8249661,8.55564016 16.8249661,8.40521557 L16.8249661,4.24920082 C16.8249661,3.91826721 16.8553989,3.09308115 16.7814885,2.7793377 C16.6662737,2.25285328 16.3206286,2.10457623 15.872811,2.10457623 C15.4989056,2.10457623 15.1076095,2.35170246 14.9489172,2.74710492 C14.7902248,3.14250656 14.805442,3.80437295 14.805442,4.24920082 L14.805442,8.40521557 C14.805442,8.56208689 14.6728359,8.68887213 14.507622,8.68887213 L12.9641767,8.68887213 C12.8076585,8.67812869 12.6859213,8.55564016 12.6859213,8.40521557 L12.683748,4.24920082 C12.683748,3.37459016 12.8293956,2.08738525 11.7315938,2.08738525 C10.6207464,2.08738525 10.664224,3.34235492 10.664224,4.24920082 L10.664224,8.40521557 C10.664224,8.56208689 10.5316178,8.68887213 10.3664039,8.68887213 L10.3664039,8.68887213 Z M38.9331998,0.140462295 C41.2266302,0.140462295 42.467908,2.08738525 42.467908,4.56294344 C42.467908,6.95469262 41.0961965,8.85219016 38.9331998,8.85219016 C36.6810721,8.85219016 35.45501,6.90526721 35.45501,4.47913525 C35.45501,2.03795984 36.6962894,0.140462295 38.9331998,0.140462295 Z M38.9462421,1.74140984 C37.8071368,1.74140984 37.735398,3.27573852 37.735398,4.23200984 C37.735398,5.19042869 37.7201808,7.23620164 38.9331998,7.23620164 C40.1310008,7.23620164 40.1875216,5.58583115 40.1875216,4.58013361 C40.1875216,3.91826721 40.1592612,3.12746393 39.9570904,2.49997787 C39.7831808,1.95415328 39.4375373,1.74140984 38.9462421,1.74140984 L38.9462421,1.74140984 Z M45.4417595,8.68887213 L43.9026617,8.68887213 C43.7483159,8.67812869 43.6244055,8.55564016 43.6244055,8.40521557 L43.622233,0.56165082 C43.6352761,0.417672951 43.7635348,0.305929508 43.9200531,0.305929508 L45.3526327,0.305929508 C45.4874113,0.312372131 45.5982786,0.402631148 45.6287139,0.525119672 L45.6287139,1.72421721 L45.6569726,1.72421721 C46.0895738,0.651905738 46.6960813,0.140462295 47.7634502,0.140462295 C48.4569138,0.140462295 49.1329876,0.387588525 49.5677612,1.06449836 C49.9721003,1.69198361 49.9721003,2.74710492 49.9721003,3.50567295 L49.9721003,8.44174754 C49.9547098,8.57927705 49.8264511,8.68887213 49.6742819,8.68887213 L48.1243134,8.68887213 C47.9830108,8.67812869 47.8656219,8.57498033 47.8504063,8.44174754 L47.8504063,4.18258443 C47.8504063,3.32516475 47.9504038,2.07019344 46.883034,2.07019344 C46.5069561,2.07019344 46.1613101,2.31946967 45.9895746,2.69767869 C45.7721891,3.17688934 45.7439287,3.65395 45.7439287,4.18258443 L45.7439287,8.40521557 C45.7417562,8.56208689 45.6069751,8.68887213 45.4417612,8.68887213 L45.4417595,8.68887213 Z M24.8487106,4.94330246 C24.8487106,5.53855328 24.8639279,6.0349541 24.5595862,6.56358934 C24.3139395,6.99337459 23.9226434,7.2576918 23.4900439,7.2576918 C22.8965779,7.2576918 22.5487595,6.81071475 22.5487595,6.1509959 C22.5487595,4.84875 23.7291692,4.61236885 24.8487106,4.61236885 L24.8487106,4.94330246 Z M26.407374,8.66738279 C26.3052032,8.7576377 26.1573789,8.76408443 26.0421642,8.70391557 C25.529131,8.28272705 25.4356551,8.08717541 25.1552264,7.68532705 C24.3074179,8.54059754 23.7052554,8.79631803 22.6074527,8.79631803 C21.305306,8.79631803 20.2944578,8.00336639 20.2944578,6.41531475 C20.2944578,5.17538607 20.9727056,4.33085984 21.9422504,3.91826721 C22.7813632,3.55294918 23.9530763,3.48848279 24.8487106,3.38748361 L24.8487106,3.18978279 C24.8487106,2.82661393 24.876971,2.39682951 24.6595846,2.08308852 C24.4726318,1.80157869 24.1117687,1.68553689 23.7922114,1.68553689 C23.203092,1.68553689 22.6791915,1.98423689 22.550932,2.60312623 C22.5248458,2.7406582 22.422675,2.87604016 22.2813723,2.88248689 L20.783578,2.72346557 C20.6574934,2.69553115 20.5161925,2.59453033 20.5531485,2.40327787 C20.8966194,0.606779508 22.5400638,0.06525 24.009597,0.06525 C24.7617562,0.06525 25.7443441,0.26295082 26.3378101,0.825968033 C27.0899677,1.52006967 27.0182305,2.44625492 27.0182305,3.4541 L27.0182305,5.83510492 C27.0182305,6.55069672 27.3182239,6.8644377 27.6008267,7.25124508 C27.6986517,7.38877459 27.7203905,7.5542418 27.594301,7.65739016 C27.2790904,7.91741066 26.7182322,8.40091803 26.4095431,8.67168197 L26.4073706,8.66737869 L26.407374,8.66738279 Z M4.58609129,4.94330246 C4.58609129,5.53855328 4.60130688,6.0349541 4.29696683,6.56358934 C4.05131841,6.99337459 3.66219652,7.2576918 3.22742289,7.2576918 C2.63395688,7.2576918 2.2883126,6.81071475 2.2883126,6.1509959 C2.2883126,4.84875 3.46872222,4.61236885 4.58609129,4.61236885 L4.58609129,4.94330246 Z M6.14475381,8.66738279 C6.04258217,8.7576377 5.89475796,8.76408443 5.7795432,8.70391557 C5.26651169,8.28272705 5.17520821,8.08717541 4.89260539,7.68532705 C4.04479685,8.54059754 3.44481095,8.79631803 2.3448325,8.79631803 C1.04485904,8.79631803 0.0318383085,8.00336639 0.0318383085,6.41531475 C0.0318383085,5.17538607 0.712258706,4.33085984 1.67962935,3.91826721 C2.51874212,3.55294918 3.69045688,3.48848279 4.58609129,3.38748361 L4.58609129,3.18978279 C4.58609129,2.82661393 4.61435166,2.39682951 4.39913856,2.08308852 C4.21001078,1.80157869 3.84915008,1.68553689 3.53176451,1.68553689 C2.9426476,1.68553689 2.41657048,1.98423689 2.2883126,2.60312623 C2.26222554,2.7406582 2.1600539,2.87604016 2.02092703,2.88248689 L0.520958541,2.72346557 C0.394873964,2.69553115 0.255746269,2.59453033 0.290528192,2.40327787 C0.6361733,0.606779508 2.27744279,0.06525 3.74697844,0.06525 C4.49913524,0.06525 5.48172313,0.26295082 6.07518914,0.825968033 C6.82734834,1.52006967 6.75560954,2.44625492 6.75560954,3.4541 L6.75560954,5.83510492 C6.75560954,6.55069672 7.05560456,6.8644377 7.33820738,7.25124508 C7.43820489,7.38877459 7.4599437,7.5542418 7.33385912,7.65739016 C7.01864851,7.91741066 6.45779113,8.40091803 6.14910041,8.67168197 L6.14475381,8.66737869" id="path12" fill="#221F1F"></path>
                                    </g>
                                </g>
                            </g>
                        </g>
                    </g>
                </g>
            </g>
        </g>
    </g>
</svg>