<?xml version="1.0" encoding="utf-8"?>
<!-- Generator: Adobe Illustrator 16.0.0, SVG Export Plug-In . SVG Version: 6.00 Build 0)  -->
<!DOCTYPE svg PUBLIC "-//W3C//DTD SVG 1.0//EN" "http://www.w3.org/TR/2001/REC-SVG-20010904/DTD/svg10.dtd">
<svg version="1.0" id="Layer_1" xmlns:sketch="http://www.bohemiancoding.com/sketch/ns"
	 xmlns="http://www.w3.org/2000/svg" xmlns:xlink="http://www.w3.org/1999/xlink" x="0px" y="0px" width="30px" height="14px"
	 viewBox="1 3 30 14" enable-background="new 1 3 30 14" xml:space="preserve">
<filter  width="200%" height="200%" id="filter-4" filterUnits="objectBoundingBox" y="-50%" x="-50%">
	<feOffset  result="shadowOffsetOuter1" in="SourceAlpha" dy="2" dx="0"></feOffset>
	<feGaussianBlur  stdDeviation="2" result="shadowBlurOuter1" in="shadowOffsetOuter1"></feGaussianBlur>
	
		<feColorMatrix  type="matrix" values="0 0 0 0 0   0 0 0 0 0   0 0 0 0 0  0 0 0 0.07 0" result="shadowMatrixOuter1" in="shadowBlurOuter1">
		</feColorMatrix>
	<feMerge>
		<feMergeNode  in="shadowMatrixOuter1"></feMergeNode>
		<feMergeNode  in="SourceGraphic"></feMergeNode>
	</feMerge>
</filter>
<g>
	<path id="path-5" fill="#FFFFFF" d="M13.875,3.877c1.174-1.169,3.075-1.171,4.25,0l10.75,10.707
		c1.174,1.17,0.777,2.117-0.875,2.117H4c-1.657,0-2.05-0.945-0.875-2.117L13.875,3.877z"/>
</g>
<title>Rectangle 92</title>
<desc>Created with Sketch Beta.</desc>
<g id="Page-1" sketch:type="MSPage">
	<g id="desktop_wide_02" transform="translate(-307.000000, -10.000000)" sketch:type="MSArtboardGroup">
		<g id="Rectangle-60" transform="translate(150.000000, 11.000000)" sketch:type="MSLayerGroup">
			<g sketch:type="MSShapeGroup" filter="url(#filter-4)">
				<g id="path-5_2_">
					<g opacity="0.97">
						<path fill="#FFFFFF" d="M170.875,3.026c1.174-1.168,3.075-1.17,4.25,0l10.75,10.707c1.174,1.17,0.777,2.117-0.875,2.117h-24
							c-1.657,0-2.05-0.945-0.875-2.117L170.875,3.026z"/>
					</g>
				</g>
			</g>
		</g>
	</g>
</g>
</svg>
