<?xml version="1.0" encoding="utf-8"?>
<!-- Generator: Adobe Illustrator 16.0.0, SVG Export Plug-In . SVG Version: 6.00 Build 0)  -->
<!DOCTYPE svg PUBLIC "-//W3C//DTD SVG 1.1//EN" "http://www.w3.org/Graphics/SVG/1.1/DTD/svg11.dtd">
<svg version="1.1" id="Layer_1" xmlns:sketch="http://www.bohemiancoding.com/sketch/ns"
	 xmlns="http://www.w3.org/2000/svg" xmlns:xlink="http://www.w3.org/1999/xlink" x="0px" y="0px" width="35px" height="35px"
	 viewBox="-12 -7.5 35 35" enable-background="new -12 -7.5 35 35" xml:space="preserve">
<title>Shape 7</title>
<desc>Created with Sketch Beta.</desc>
<g id="Page-1" sketch:type="MSPage">
	<g id="desktop_wide_01" transform="translate(-1027.000000, -3478.000000)" sketch:type="MSArtboardGroup">
		<g id="Group-4" transform="translate(0.000000, 3459.000000)" sketch:type="MSLayerGroup">
			<g id="social_btns" transform="translate(1015.000000, 10.000000)" sketch:type="MSShapeGroup">
				<g id="facebook_icon" transform="translate(0.000000, 1.000000)">
					<path id="Shape-7" fill="#FFFFFF" d="M15.011,15.006v-0.985v-0.965v-0.161c0-0.929,0.024-2.365,0.69-3.253
						c0.703-0.941,1.667-1.581,3.326-1.581c2.701,0,3.841,0.39,3.841,0.39l-0.536,3.217c0,0-0.893-0.262-1.727-0.262
						c-0.832,0-1.578,0.302-1.578,1.146v0.342v1.126v0.985h3.188l-0.265,3.015H19l0.006,4.873l0.021,4.167h-4.017l-0.026-9.04
						h-2.037l0.027-3.015H15.011z"/>
				</g>
			</g>
		</g>
	</g>
</g>
</svg>
