<?xml version="1.0" encoding="utf-8"?>
<!-- Generator: Adobe Illustrator 16.0.0, SVG Export Plug-In . SVG Version: 6.00 Build 0)  -->
<!DOCTYPE svg PUBLIC "-//W3C//DTD SVG 1.1//EN" "http://www.w3.org/Graphics/SVG/1.1/DTD/svg11.dtd">
<svg version="1.1" id="Layer_1" xmlns:sketch="http://www.bohemiancoding.com/sketch/ns"
	 xmlns="http://www.w3.org/2000/svg" xmlns:xlink="http://www.w3.org/1999/xlink" x="0px" y="0px" width="35px" height="35px"
	 viewBox="-7 -8.5 35 35" enable-background="new -7 -8.5 35 35" xml:space="preserve">
<title>Group</title>
<desc>Created with Sketch Beta.</desc>
<g id="Page-1" sketch:type="MSPage">
	<g id="desktop_wide_01" transform="translate(-1112.000000, -3478.000000)" sketch:type="MSArtboardGroup">
		<g id="Group-4" transform="translate(0.000000, 3459.000000)" sketch:type="MSLayerGroup">
			<g id="social_btns" transform="translate(1015.000000, 10.000000)" sketch:type="MSShapeGroup">
				<g id="google_x2B__x5F_icon" transform="translate(90.000000, 0.000000)">
					<g id="Group" transform="translate(7.000000, 9.000000)">
						<path id="Shape" fill="#FFFFFF" d="M20.971,2.963h-2.987V0.004h-0.997v2.959H14v0.99h2.986v2.959h0.997V3.953h2.987V2.963z"/>
						<path id="Shape_1_" fill="#FFFFFF" d="M10.222,10.363c-0.507-0.357-1.478-1.224-1.478-1.734c0-0.598,0.172-0.892,1.078-1.594
							c0.928-0.72,1.584-1.732,1.584-2.911c0-1.402-0.628-2.768-1.809-3.219h1.779l1.256-0.902H7.021
							c-2.516,0-4.884,1.893-4.884,4.086c0,2.24,1.715,4.049,4.275,4.049c0.178,0,0.351-0.003,0.52-0.016
							C6.766,8.439,6.647,8.795,6.647,9.164c0,0.623,0.337,1.127,0.764,1.539c-0.322,0-0.633,0.01-0.973,0.01
							c-3.117,0-5.516,1.971-5.516,4.016C0.922,16.74,3.552,18,6.669,18c3.553,0,5.515-2.002,5.515-4.016
							C12.184,12.371,11.705,11.404,10.222,10.363L10.222,10.363L10.222,10.363z M7.224,7.571L7.224,7.571
							c-1.446-0.043-2.82-1.606-3.07-3.492c-0.25-1.886,0.72-3.329,2.166-3.286c1.446,0.043,2.82,1.556,3.07,3.441
							C9.639,6.12,8.669,7.613,7.224,7.571L7.224,7.571L7.224,7.571z M6.657,17.109L6.657,17.109c-2.154,0-3.71-1.354-3.71-2.98
							c0-1.594,1.93-2.921,4.084-2.897c0.502,0.005,0.971,0.085,1.396,0.222c1.169,0.808,2.008,1.264,2.245,2.185
							c0.045,0.187,0.069,0.378,0.069,0.575C10.741,15.839,9.686,17.109,6.657,17.109L6.657,17.109z"/>
					</g>
				</g>
			</g>
		</g>
	</g>
</g>
</svg>
