<?xml version="1.0" encoding="UTF-8" standalone="no"?>
<svg width="30px" height="26px" viewBox="0 0 30 26" version="1.1" xmlns="http://www.w3.org/2000/svg" xmlns:xlink="http://www.w3.org/1999/xlink" xmlns:sketch="http://www.bohemiancoding.com/sketch/ns">
    <!-- Generator: Sketch Beta 3.3 (11920) - http://www.bohemiancoding.com/sketch -->
    <title>vk_logo_footer2</title>
    <desc>Created with Sketch Beta.</desc>
    <defs></defs>
    <g id="Page-1" stroke="none" stroke-width="1" fill="none" fill-rule="evenodd" sketch:type="MSPage">
        <g id="desktop_wide_01" sketch:type="MSArtboardGroup" transform="translate(-30.000000, -3474.000000)" fill-opacity="0.5" fill="#656D7C">
            <g id="Group-4" sketch:type="MSLayerGroup" transform="translate(0.000000, 3459.000000)">
                <path d="M47.6248655,18.4700135 C46.0237643,18.4132125 44.2744397,18.417799 42.3877233,18.5089891 L42.2789622,16.950727 C42.2621182,16.7084215 42.4377727,16.4952174 42.6791148,16.4677983 C43.6704765,16.3549374 45.3914105,16.2399334 47.3214388,16.4677983 C47.5625426,16.4961788 47.7406045,16.7074601 47.7244815,16.9495253 L47.6248655,18.4700135 L47.6248655,18.4700135 Z M59.9868216,25.6472863 L59.9875426,25.6472863 C59.9875426,25.6472863 59.9865813,25.615521 59.9848989,25.5597014 C59.9832165,25.4802942 59.9820148,25.402331 59.980092,25.3224471 C59.9791306,25.3222047 59.9784096,25.32172 59.9774482,25.3214837 C59.9687759,25.0582443 59.9545957,24.6542402 59.9341265,24.1782855 C59.9341265,24.1770878 59.9338861,24.1761244 59.9338861,24.1746784 C59.9081494,23.4756696 59.8759034,22.8281582 59.8171997,22.0191866 C59.7454975,21.0348049 59.0618826,20.1979175 58.1099852,19.9368452 C57.5543729,19.784528 57.0363142,19.6401621 56.2333692,19.4717219 L56.2328885,19.4710009 L56.2100159,19.4669151 C56.1387943,19.4519938 56.0690148,19.4373129 55.9929864,19.4219109 L55.9929864,19.4259967 L55.3334259,19.3018397 L55.3334259,19.3015993 C55.3322442,19.301359 55.3305418,19.3011187 55.32934,19.3008783 L55.1919441,19.2751216 L55.1919441,19.276083 C54.7983028,19.2026983 54.3827502,19.130275 53.9404795,19.0609762 C53.9806568,18.6776696 53.7123742,18.326589 53.3249618,18.2741342 L51.7173694,18.057345 C51.3222659,18.0041692 50.9591682,18.2828066 50.9086361,18.6783907 L50.9081554,18.6822361 C50.2827636,18.6230517 49.6268423,18.572039 48.9396243,18.5318417 L49.071967,16.5185708 C49.1131117,15.8914965 48.6588199,15.327973 48.0372916,15.2355612 C45.4104177,14.844804 43.1050162,15.06642 41.9647101,15.2333981 C41.3402957,15.3248485 40.8855191,15.8902948 40.9295519,16.5204935 L41.0736855,18.5854982 C40.3506164,18.6348285 39.6094995,18.6964364 38.8488929,18.7727051 C38.785128,18.3922827 38.4321346,18.1273649 38.0464146,18.179339 L36.4388182,18.3961482 C36.0648909,18.4464199 35.8026169,18.7756093 35.8206587,19.1430332 C35.6454909,19.1680489 35.4669443,19.1962091 35.2900901,19.2226668 L35.2891247,19.220744 L35.0973532,19.251548 C34.9623587,19.2719971 34.8297817,19.2905236 34.6935895,19.3121945 C34.6935895,19.3136365 34.6931088,19.3150786 34.6931088,19.316761 L33.9904928,19.4300826 C33.9912139,19.4271985 33.9919349,19.424795 33.9924156,19.4219109 C33.7368752,19.4640109 33.5140594,19.5027662 33.2982217,19.5415014 L33.2974986,19.5417418 C32.928867,19.6081565 32.5811671,19.6755326 32.1292787,19.7631175 C31.1232381,19.9577751 30.35469,20.7790262 30.241356,21.7973323 C30.1956381,22.2092757 30.1605082,22.5779074 30.1287461,23.0408695 L30.1287461,23.0408695 C30.1287461,23.0408695 30.0736436,23.7923311 30.036106,24.6475006 C30.0351441,24.6477409 30.0341812,24.6479833 30.0332192,24.6482216 C30.0293686,24.747359 30.0267223,24.8525109 30.0235941,24.9545364 C30.0101193,25.3123407 30.0009752,25.6744731 30.0014571,25.9966685 C30.0014571,25.9976299 30.0016976,25.9981106 30.0016976,25.9990739 C29.9742652,29.2058428 30.2711959,33.4956541 31.4856145,38.3035261 C31.7125213,39.2020039 32.4485841,39.8820066 33.3624673,40.0374483 C37.1852325,40.6876064 47.7225568,42.0608352 57.0714443,39.4428718 C57.8472105,39.2255896 58.4632089,38.6348626 58.6944587,37.8631842 C59.2459451,36.0212235 60.1174879,32.0463874 59.9868216,25.6472863 L59.9868216,25.6472863 Z" id="vk_logo_footer2" sketch:type="MSShapeGroup"></path>
            </g>
        </g>
    </g>
</svg>