<?xml version="1.0" encoding="UTF-8" standalone="no"?>
<svg width="120px" height="120px" viewBox="0 0 120 120" version="1.1" xmlns="http://www.w3.org/2000/svg" xmlns:xlink="http://www.w3.org/1999/xlink" xmlns:sketch="http://www.bohemiancoding.com/sketch/ns">
    <!-- Generator: Sketch Beta 3.3.1 (12005) - http://www.bohemiancoding.com/sketch -->
    <title>Group</title>
    <desc>Created with Sketch Beta.</desc>
    <defs></defs>
    <g id="Page-1" stroke="none" stroke-width="1" fill="none" fill-rule="evenodd" sketch:type="MSPage">
        <g id="hp_desktop_wide" sketch:type="MSArtboardGroup" transform="translate(-30.000000, -20.000000)">
            <g id="Group" sketch:type="MSLayerGroup" transform="translate(30.000000, 20.000000)">
                <path d="M65.1906873,10.6182138 C60.6000044,10.4541145 55.5843267,10.467324 50.1747198,10.7308436 L49.862888,6.22833279 C49.8145856,5.52821558 50.3182276,4.9122007 51.0102019,4.83295769 C53.8526451,4.50685351 58.786918,4.17452161 64.3207034,4.83295769 C65.0119988,4.91497944 65.5225412,5.52542288 65.4763172,6.22485587 L65.1906873,10.6182138 L65.1906873,10.6182138 Z M100.634973,31.3564509 L100.637051,31.3564509 C100.637051,31.3564509 100.63428,31.2646826 100.629458,31.103376 C100.624622,30.8739413 100.621186,30.6486817 100.615643,30.4178506 C100.6129,30.4171525 100.610835,30.4157561 100.608064,30.4150719 C100.58322,29.6544647 100.542538,28.487114 100.483872,27.1118743 C100.483872,27.1084113 100.483207,27.1056326 100.483207,27.1014575 C100.409367,25.0817173 100.316919,23.2107864 100.148595,20.8733202 C99.9429983,18.0290059 97.982954,15.6108863 95.2536598,14.8565208 C93.6606363,14.4164184 92.1752609,13.9992581 89.8730122,13.5125874 L89.8716404,13.5104928 L89.806101,13.4986657 C89.6018896,13.4555603 89.4018073,13.4131671 89.1838091,13.3686513 L89.1838091,13.3804645 L87.2927405,13.0217276 L87.2927405,13.0210294 C87.2893042,13.0203312 87.2844684,13.019647 87.2810321,13.0189488 L86.887089,12.9445512 L86.887089,12.9473299 C85.7583838,12.7352798 84.5668966,12.5260084 83.2988405,12.3257715 C83.414054,11.2182126 82.6448042,10.2038323 81.5340427,10.0522582 L76.9247372,9.42584048 C75.791889,9.27218585 74.7508238,10.0772948 74.6059304,11.2203071 L74.6045586,11.2314221 C72.8114528,11.0603968 70.9307625,10.9129978 68.9603677,10.7968911 L69.3398312,4.97964452 C69.4578022,3.16779331 68.1552444,1.53949265 66.3731957,1.27251004 C58.8414141,0.143405406 52.2313551,0.783744757 48.9618526,1.26626834 C47.1715319,1.53047221 45.8676023,3.16433036 45.9938453,4.98520201 L46.4071039,10.9519421 C44.3339245,11.0944538 42.2089925,11.2724469 40.0281649,11.4928472 C39.8453473,10.3936385 38.8332413,9.628158 37.7273018,9.77832176 L33.1179962,10.4047674 C32.0458656,10.5500718 31.2938666,11.5011974 31.3456053,12.5628442 C30.8433628,12.6351613 30.3314348,12.7164989 29.8243564,12.7929771 L29.8215852,12.7874196 L29.2717331,12.8764231 C28.8846764,12.9355168 28.5045477,12.9890529 28.1140548,13.0516235 C28.1140548,13.0557846 28.112683,13.0599597 28.112683,13.0648469 L26.0981426,13.3922916 C26.1002072,13.3839554 26.1022717,13.3770015 26.1036574,13.3686513 C25.3709738,13.4903295 24.7321099,13.6022611 24.1132543,13.7142067 L24.1111898,13.7149049 C23.0542454,13.9067917 22.0573119,14.1014711 20.7616544,14.3545321 C17.8771302,14.9170108 15.6735509,17.2899305 15.3485973,20.2322827 C15.2175046,21.4225615 15.1167845,22.4876992 15.0257221,23.825391 L15.0257221,23.825391 C15.0257221,23.825391 14.8677347,25.9966913 14.7601004,28.4676488 C14.7573431,28.468347 14.7545857,28.4690452 14.7518283,28.4697294 C14.740785,28.7561771 14.7331919,29.0600095 14.724227,29.3548074 C14.6855961,30.3886529 14.6593665,31.4350097 14.6607521,32.3659719 C14.6607521,32.3687506 14.6614449,32.370147 14.6614449,32.3729257 C14.5827838,41.6386744 15.4341588,54.0337887 18.9161448,67.925793 C19.5667309,70.5218917 21.6771694,72.4867133 24.2974575,72.9358501 C35.2581146,74.814433 65.4707886,78.7822944 92.2759948,71.2178617 C94.5002614,70.5900476 96.2664586,68.8831742 96.9294459,66.6534645 C98.5107195,61.3312389 101.0096,49.8462252 100.634973,31.3564509 L100.634973,31.3564509 Z" id="Fill-1" fill="#FF5500" sketch:type="MSShapeGroup"></path>
                <path d="M58.752541,71.816492 L71.8546605,82.8579264 C72.414877,83.7506564 73.7781523,83.4356951 73.8968161,82.3858475 L75.1200338,71.5849768 L58.752541,71.816492" id="Fill-2" fill="#FF5500" sketch:type="MSShapeGroup"></path>
                <path d="M28.864682,49.9289731 C29.2586252,49.8399835 29.6580831,49.7787953 30.0513334,49.747517 C30.2741675,49.7301324 30.5004655,49.7203999 30.7233134,49.7203999 C34.6606389,49.7203999 38.1433039,52.5334219 39.0043228,56.4088169 C39.4996788,58.6378284 39.1043639,60.9294105 37.8894321,62.8587648 C36.6744865,64.7895014 34.7875748,66.1278774 32.5743378,66.6263753 C32.1873088,66.7153788 31.7885298,66.7758688 31.388393,66.8085434 C31.1655451,66.8266262 30.9399399,66.8356606 30.7171058,66.8356606 C26.7783947,66.8356606 23.2957159,64.0226386 22.434697,60.1465454 C21.9393409,57.9175339 22.3353625,55.6259518 23.5496015,53.6965975 C24.7638404,51.766559 26.651445,50.428183 28.864682,49.9289731 L28.864682,49.9289731 Z M28.6935867,49.01749 C28.6894437,49.0181881 28.6853146,49.0195845 28.6811716,49.0209669 L27.8905279,49.1989599 L27.5055635,47.4691444 C27.4227732,47.0964859 27.6573434,46.7245115 28.0285071,46.6410795 C28.0602515,46.6327432 28.0933676,46.6285681 28.1223407,46.6257894 C28.1416561,46.624407 28.1595998,46.624407 28.1782224,46.624407 C28.4976474,46.624407 28.7798272,46.8524453 28.8501885,47.1667084 L29.2351668,48.8958258 L28.7108376,49.014013 C28.705309,49.0154094 28.6991014,49.0160936 28.6935867,49.01749 L28.6935867,49.01749 Z M21.5343683,60.3509435 C22.4898998,64.6462775 26.3513354,67.7652264 30.7171058,67.7652264 C30.96477,67.7652264 31.2152193,67.7547957 31.4622045,67.7346324 C31.9044362,67.6984668 32.346668,67.6317351 32.7771774,67.5343954 C35.2304993,66.9802808 37.3230081,65.4972846 38.6690325,63.3572626 C40.0157359,61.2165564 40.4545175,58.6767587 39.9046653,56.2044188 C38.9498267,51.9090847 35.0876982,48.7901498 30.721235,48.7901498 C30.5735981,48.7901498 30.4252684,48.8012648 30.2769387,48.8082186 L29.901632,47.1194279 C29.7250081,46.3247497 29.0088687,45.7476791 28.1989234,45.7476791 C28.0733593,45.7476791 27.9464096,45.7615728 27.8208455,45.7900864 C26.8846433,46.0014383 26.2933891,46.9421331 26.5024225,47.886989 L26.8853223,49.6119452 C25.2033287,50.363518 23.7772713,51.5969162 22.7700011,53.1987978 C21.4246694,55.3381077 20.9851951,57.8772072 21.5343683,60.3509435 L21.5343683,60.3509435 Z" id="Fill-3" fill="#FFFFFF" sketch:type="MSShapeGroup"></path>
                <path d="M25.1695197,54.7311272 C26.0077592,53.3983087 27.2627074,52.4339876 28.7398246,51.9667681 L29.0088826,53.1772242 C29.0654571,53.4344742 29.2965771,53.6208035 29.5587486,53.6208035 C29.5732421,53.6208035 29.5877217,53.6208035 29.6015224,53.6194072 C29.6291099,53.6180108 29.6560185,53.6131515 29.6808625,53.607594 C29.8278066,53.5749194 29.9533707,53.4859159 30.0334175,53.357996 C30.1141293,53.2300761 30.1403451,53.0778039 30.1079218,52.9297067 L29.8416212,51.7296953 C29.9623495,51.7130089 30.0796276,51.6845094 30.2017416,51.6747628 C30.3742225,51.6601709 30.5494607,51.6532031 30.7212488,51.6532031 C33.58025,51.6532031 36.1287912,53.5686497 36.9842815,56.2815673 L35.9190651,56.5221169 C35.6161843,56.5902589 35.4250807,56.8947894 35.4926847,57.2000042 C35.5492592,57.4572542 35.7803792,57.6435835 36.0418718,57.6435835 C36.0570442,57.6435835 36.0715377,57.6435835 36.0860174,57.6421871 C36.1115403,57.6407908 36.1398345,57.6359315 36.1653575,57.630374 L37.2278304,57.3905086 C37.4368638,58.9332826 37.1057165,60.4871856 36.2660914,61.8214005 C35.4271592,63.1556014 34.1728899,64.1213188 32.698544,64.5885384 L32.4405154,63.4260469 C32.3832481,63.1688109 32.1535137,62.9824816 31.8927278,62.9824816 C31.849954,62.9824816 31.807873,62.9873549 31.7685355,62.9963893 C31.6215914,63.0290639 31.4960273,63.1180674 31.4159944,63.2459873 C31.3352825,63.3739071 31.3090529,63.5261794 31.3414762,63.6742626 L31.5974402,64.8249269 C31.4767119,64.8409151 31.358727,64.8701129 31.2366131,64.8798454 C31.0641322,64.8937531 30.8888939,64.9007069 30.7164269,64.9007069 C27.8587974,64.9007069 25.3095773,62.9859585 24.454766,60.273055 L25.4516856,60.0477814 C25.5986436,60.0151068 25.7242077,59.9261172 25.8042406,59.7981834 C25.8849663,59.6709617 25.9111682,59.5186895 25.8787449,59.3699081 C25.8207987,59.1126581 25.5910504,58.9263288 25.3302645,58.9263288 C25.2881835,58.9263288 25.2454097,58.9312021 25.2053932,58.9402365 L24.2105381,59.1647979 C24.0007981,57.6199293 24.3312803,56.0646439 25.1695197,54.7311272 L25.1695197,54.7311272 Z M23.3736704,59.9358498 C24.1374055,63.3711284 27.2254622,65.865028 30.7171058,65.865028 C30.9151236,65.865028 31.1158848,65.8566918 31.3131959,65.8407035 C31.6685082,65.8114919 32.0217421,65.7572715 32.3646255,65.6800951 C36.4144211,64.7658193 38.9712344,60.7013303 38.0653771,56.6194566 C37.3023347,53.184178 34.2135992,50.6895802 30.7219416,50.6895802 C30.523245,50.6895802 30.3231765,50.6986286 30.1251588,50.7146029 C29.7760679,50.7417201 29.422834,50.7959544 29.073743,50.8745132 C27.1109414,51.3181065 25.437206,52.5042102 24.3616252,54.2159429 C23.2853654,55.9262793 22.934196,57.9571345 23.3736704,59.9358498 L23.3736704,59.9358498 Z" id="Fill-4" fill="#FFFFFF" sketch:type="MSShapeGroup"></path>
                <path d="M31.3311534,61.8019493 L29.0599562,59.4012143 C28.9585433,59.294142 29.0123466,59.116149 29.1551616,59.0841864 L32.5267697,58.3228671 C32.6695847,58.2901925 32.7937632,58.4278589 32.7468464,58.5689882 L31.7071529,61.7178191 C31.673344,61.8221126 31.5829605,61.8659162 31.492591,61.8721719 C31.4304879,61.8721719 31.3739272,61.8478334 31.3311534,61.8019493 L31.3311534,61.8019493 Z M30.4577194,62.27333 C30.706783,62.5368357 31.0427661,62.6828383 31.4035931,62.6828383 C31.4387738,62.6828383 31.4739683,62.6814559 31.509149,62.677965 C32.0355566,62.6348736 32.4819175,62.2823644 32.6488837,61.778309 L33.6485607,58.7462831 C33.7596313,58.4104743 33.685127,58.0412926 33.4595217,57.7715313 C33.4553926,57.766658 33.4553926,57.7604023 33.4505568,57.7562412 L33.4443493,57.7492874 C33.4429637,57.747891 33.4422847,57.7457965 33.4408991,57.7444141 C33.4367561,57.740239 33.4319342,57.7374603 33.4277912,57.7332852 L30.3970158,54.6797135 C30.2935244,54.5705606 30.1548525,54.5093725 30.00583,54.5093725 C29.7712598,54.5093725 29.5629054,54.6602483 29.4897729,54.882031 L28.0347562,58.9451377 C28.0333706,58.9492988 28.0374997,58.9534739 28.0368208,58.957635 C28.0368208,58.957635 28.0347562,58.9618101 28.0340634,58.9645889 C27.9285075,59.3143053 28.0181843,59.6953141 28.2686336,59.9602161 L30.4577194,62.27333 L30.4577194,62.27333 Z" id="Fill-5" fill="#FFFFFF" sketch:type="MSShapeGroup"></path>
                <path d="M39.3844791,34.9641651 C39.263058,34.5664699 38.9946789,34.2390113 38.6304017,34.0436336 C38.2647527,33.8489681 37.8466583,33.8079572 37.4499578,33.9296214 C37.2257381,33.9984616 37.0249769,34.1152525 36.8538816,34.2751628 C36.4261295,34.6721598 36.2543553,35.3173585 36.4233722,35.8777287 L37.1884929,38.3987455 C37.1519266,38.3890129 37.1132819,38.3869324 37.0767156,38.3765016 C37.0291199,38.3625939 36.9856533,38.34035 36.9394293,38.3243618 C36.7959215,38.2742886 36.6537993,38.2193701 36.5158202,38.1477511 C36.4764965,38.1276018 36.4392374,38.1025791 36.4006066,38.0810055 C36.2660776,38.003843 36.138435,37.9197268 36.0183857,37.82585 C35.9783831,37.7938735 35.9390594,37.7611849 35.9004147,37.727826 C35.7914087,37.6339492 35.6906886,37.5317502 35.596176,37.4246919 C35.5602887,37.3829688 35.5230296,37.3440385 35.4892346,37.3009331 C35.3988511,37.1862088 35.319511,37.062464 35.2456856,36.9359126 C35.2208555,36.8935054 35.1918823,36.8545751 35.1691029,36.8107715 C35.0807979,36.6411286 35.0056008,36.4638337 34.9483334,36.2775184 C34.941447,36.2406547 34.941447,36.2024226 34.9269535,36.1676534 C34.9007238,36.1023041 34.8752147,36.037653 34.8538209,35.9702092 L34.3632867,34.3537356 L34.0742205,33.4019119 L34.0735277,33.3998173 L32.9268927,29.6224882 L30.9537406,23.1217969 C30.8854299,22.8568948 30.8205833,22.547519 30.792303,22.252721 C30.7854026,22.1359161 30.7757449,22.0191112 30.7819525,21.9023063 C30.7819525,21.889795 30.7833381,21.8779819 30.784017,21.8654706 C30.8067965,21.5025446 30.8902657,21.1416991 31.035838,20.801017 C31.1165637,20.6126072 31.2179766,20.4380911 31.3297401,20.2719251 C31.3607916,20.2267252 31.3945867,20.1836337 31.4284094,20.1398162 C31.5111997,20.0292809 31.6029411,19.9256855 31.7002248,19.8269494 C31.7533492,19.7734272 31.8050879,19.7191929 31.8616624,19.6698458 C32.0010272,19.5474695 32.1493569,19.4362221 32.3066515,19.3409769 C32.3128729,19.3374999 32.3183876,19.3326267 32.3245952,19.3284655 C32.3259808,19.3277674 32.3273525,19.3256868 32.3287381,19.3249747 C32.5412216,19.1991493 32.7668407,19.09554 33.0089902,19.0204581 C34.6668603,18.5101471 36.428208,19.4535927 36.9359791,21.1243146 L40.9671383,34.4065596 C41.182393,35.1185179 41.1382336,35.8930327 40.8415742,36.5875925 L40.8415742,36.5875925 C40.6822011,36.9581565 40.4524668,37.2828643 40.1730582,37.5658212 L39.3844791,34.9641651 L39.3844791,34.9641651 Z M34.0514549,36.8705633 C34.1038864,37.0061352 34.1618327,37.1375599 34.227386,37.2654797 C34.2363509,37.2835485 34.243944,37.3023295 34.2536018,37.3204122 C34.3605294,37.5241122 34.4867863,37.7153007 34.6254583,37.8967707 C34.6475311,37.9266666 34.6682321,37.9572607 34.6916905,37.9864584 C34.8241549,38.1505438 34.9711129,38.3034863 35.1277147,38.4467242 C35.1691029,38.4849563 35.2091194,38.5232024 35.251907,38.559354 C35.4043659,38.6872738 35.567189,38.8040787 35.7382843,38.9104529 C35.7686431,38.929918 35.7941799,38.9556528 35.8252176,38.9737216 C35.4802558,38.918803 35.142901,38.8054751 34.8303625,38.6386109 C34.1018219,38.2499641 33.5685139,37.6047655 33.3173857,36.8232828 L34.0514549,36.8705633 L34.0514549,36.8705633 Z M30.305219,24.5811389 L32.8585959,32.9944981 L32.1390064,32.9583326 L29.6808487,24.8564717 L30.305219,24.5811389 L30.305219,24.5811389 Z M38.868422,38.3674672 C38.6828332,38.4244803 38.4944871,38.4599337 38.305462,38.4814794 L37.4209846,35.5697352 C37.3471731,35.3222178 37.5106753,35.0128419 37.7562887,34.9356655 C37.885303,34.8960231 38.0212176,34.9092465 38.1405603,34.9731995 C38.259238,35.0371664 38.3461574,35.1435405 38.3861738,35.2721586 L39.2713301,38.1922529 C39.1395584,38.2541392 39.011237,38.3229654 38.868422,38.3674672 L38.868422,38.3674672 Z M30.0982502,20.3442422 C30.0927216,20.3574517 30.0851424,20.369963 30.0796276,20.3831585 C30.0623768,20.422801 30.0554764,20.4652082 30.0396112,20.5048367 C29.9630284,20.6967374 29.8940388,20.8907048 29.847122,21.0909557 C29.8450575,21.0999901 29.8443647,21.1097087 29.8422862,21.1187571 C29.830564,21.1708969 29.825742,21.224433 29.8160705,21.277271 L29.3338223,21.4886229 C29.5063032,21.0186526 29.7732967,20.5840937 30.1355093,20.2441237 C30.1196302,20.2761002 30.1127299,20.3115676 30.0982502,20.3442422 L30.0982502,20.3442422 Z M27.6739014,24.0249577 L27.6739014,24.0235474 L27.6732086,24.0235474 L27.4262096,23.4708152 L29.7526095,22.4522598 C29.755353,22.4863168 29.7574314,22.5204018 29.7615744,22.555171 C29.7822754,22.7380094 29.8278066,22.9173988 29.872645,23.0967742 C29.8885102,23.1586606 29.8926532,23.2219153 29.9105969,23.2831035 L29.969236,23.4756885 C29.9775081,23.5048862 29.9851012,23.5424341 29.9926944,23.5702634 L27.8863849,24.4998153 L27.6739014,24.0249577 L27.6739014,24.0249577 Z M33.7085715,35.7942967 L23.3736704,35.1233772 L25.1936432,34.3085357 C26.0394897,33.9296214 26.966727,33.7537229 27.8746627,33.799607 L33.1835357,34.0637969 L33.7085715,35.7942967 L33.7085715,35.7942967 Z M31.8816706,18.3683196 C31.5939761,18.3954228 31.3145676,18.4434014 31.0517171,18.524739 C29.8747234,18.8869528 28.9171135,19.7560427 28.4245148,20.9094857 C28.2727488,21.2633773 28.18443,21.6360219 28.134063,22.014238 L26.5258809,22.7185442 C26.4044597,22.7720943 26.3078688,22.8687219 26.2478441,23.0091531 L26.2471513,23.0105634 C26.1974771,23.1405778 26.2009273,23.288661 26.2575018,23.4165948 L26.5107084,23.9825365 L25.9856725,24.2251807 L24.2947001,23.4395229 C24.1677504,23.3797451 24.0194207,23.3755839 23.8876491,23.4270256 C23.7558774,23.4784672 23.6516933,23.579982 23.5958116,23.7113788 L22.9079803,25.3466193 L21.3363506,24.6603958 C21.2059507,24.604081 21.056942,24.6034107 20.927235,24.6583292 C20.8023637,24.7111672 20.7037081,24.808507 20.6429906,24.9510327 L20.6422978,24.9524151 L20.1241762,26.2935698 L19.7957724,25.9494247 C19.646071,25.7908968 19.4121798,25.7436303 19.2134831,25.8298551 L17.4969877,26.5723795 C17.2410237,26.6836129 17.1127023,27.0076086 17.2230939,27.2627781 C17.27759,27.3927925 17.3796957,27.4921988 17.50871,27.5443526 C17.6384171,27.5964924 17.7798464,27.5943979 17.907489,27.5387951 L19.2928232,26.9394666 L19.9372156,27.6173539 C20.0613941,27.7466701 20.2400826,27.8022868 20.4153208,27.7675316 C20.5836588,27.7341448 20.7250881,27.6194345 20.8002853,27.4442341 L20.8002853,27.4435359 L21.4184481,25.8430506 L22.9748915,26.5216221 C23.1018412,26.5772388 23.2474135,26.5793333 23.3764278,26.5278777 C23.5033775,26.4764361 23.6075477,26.3742231 23.6634295,26.2449069 L24.3464389,24.6214795 L25.7662748,25.2819822 C25.9049607,25.3466193 26.0643337,25.3466193 26.2023129,25.2826664 L26.9391394,24.9419843 L27.1461082,25.4057409 C27.2640792,25.6685345 27.5711029,25.7874199 27.831196,25.6720114 L28.7177379,25.2805858 L31.0316951,32.9027158 L27.9257086,32.748377 C26.8556564,32.6948408 25.7642103,32.9020177 24.7693552,33.3476915 L22.1028431,34.5414612 C21.7137357,34.7145671 21.4991738,35.1894386 21.6357812,35.5759909 C21.7447734,35.8846965 22.0228102,36.0897928 22.3622572,36.1120367 L32.1990311,36.7502815 L32.299765,37.0840098 C32.6253975,38.1574977 33.3511946,39.039783 34.3425996,39.5681768 C35.3326189,40.0965845 36.466146,40.2071198 37.5334409,39.8782648 C37.7542103,39.810807 37.9722224,39.7134812 38.1874771,39.602946 C39.2492573,39.6238075 40.1219985,38.9931867 40.2254898,38.9139298 C40.2392766,38.903513 40.2517055,38.8930822 40.2634278,38.8812551 C40.2813715,38.8652669 40.2889508,38.8423248 40.3041371,38.8235439 C40.4738468,38.7074372 40.6387345,38.5829942 40.7925928,38.4397703 C41.2251668,38.0365177 41.5639211,37.5540081 41.7984912,37.0047528 C42.1938062,36.079362 42.253138,35.0482953 41.9654435,34.0992503 L37.9335916,20.8163211 C37.2574825,18.5907865 34.9062524,17.3351444 32.6930154,18.0185891 C32.4073854,18.1061963 32.1376346,18.2243835 31.8816706,18.3683196 L31.8816706,18.3683196 Z" id="Fill-6" fill="#FFFFFF" sketch:type="MSShapeGroup"></path>
                <path d="M32.8924187,22.0545925 C32.8303295,21.8474018 32.8427445,21.6221422 32.9282922,21.4205089 C32.979352,21.3009113 33.0531773,21.1966317 33.1469971,21.1097227 C33.24841,21.0151756 33.3663809,20.9470336 33.4981664,20.906707 C33.7306582,20.835102 33.9776434,20.8594265 34.1928981,20.9741648 C34.4081528,21.0895593 34.5661403,21.2821582 34.6372083,21.5164522 C34.6979119,21.715991 34.6834323,21.9377877 34.596499,22.1401052 C34.487493,22.3952746 34.2812031,22.5864632 34.0321533,22.665036 C33.550598,22.812435 33.0400556,22.5384985 32.8924187,22.0545925 L32.8924187,22.0545925 Z M35.0911623,23.2337564 C35.2919235,23.0474271 35.4492319,22.8228518 35.558238,22.5683944 C35.7431201,22.1359301 35.7700287,21.6541186 35.6354997,21.209143 C35.3195249,20.1697261 34.2232569,19.5829368 33.1925283,19.901375 C32.9089768,19.9889543 32.6550912,20.135683 32.4391575,20.3372884 C31.8968846,20.8392771 31.6795654,21.6561992 31.8948201,22.3618879 C32.2101021,23.4013187 33.3056773,23.9874237 34.3364059,23.6696837 C34.6213292,23.5827747 34.8745358,23.4360739 35.0911623,23.2337564 L35.0911623,23.2337564 Z" id="Fill-7" fill="#FFFFFF" sketch:type="MSShapeGroup"></path>
                <path d="M54.8833875,28.4857595 C54.64606,28.6171563 54.3956246,28.7172748 54.1113803,28.793753 C51.7049752,29.5641067 50.0215821,29.682294 49.0336273,29.6447461 C48.2878358,29.6197234 47.6248346,29.1337369 47.3536982,28.4301288 C46.8424769,27.1014854 46.4871646,25.8778198 46.278824,25.084524 C46.1732682,24.6847482 46.3533284,24.2759381 46.7265705,24.0680631 L46.7265705,24.0680631 C50.5942137,22.0330189 54.9330617,20.8788916 56.6191983,20.4770353 C56.8868984,20.4123702 57.1676787,20.5841076 57.2394395,20.8510902 L57.3794833,21.3753089 C57.7672189,22.8214554 57.371904,27.1042781 54.8833875,28.4857595 L54.8833875,28.4857595 Z M58.1632266,20.5994117 C58.010754,20.0292809 57.5402419,19.6031002 56.9655457,19.5147948 C56.7771996,19.4855971 56.5867889,19.4939333 56.3991217,19.5384351 C54.6798689,19.9479434 50.2513164,21.1257109 46.2946754,23.2087198 C46.2843249,23.2128809 46.2463869,23.2330443 46.2463869,23.2330443 C45.5047245,23.6453453 45.137011,24.5088637 45.3536375,25.3320414 C45.5682132,26.1475811 45.934555,27.4073983 46.4623344,28.778449 C46.8293551,29.735132 47.6772662,30.4248324 48.6748786,30.578487 C48.7818063,30.5944753 48.8901334,30.6056042 48.9984466,30.6097653 C50.0643559,30.6480114 51.8629626,30.5256351 54.3776809,29.7198419 C54.7157424,29.6301542 55.040696,29.4994416 55.3442557,29.3311812 C58.3067344,27.686208 58.7613812,22.8332965 58.303977,21.1243146 L58.1632266,20.5994117 L58.1632266,20.5994117 Z" id="Fill-8" fill="#FFFFFF" sketch:type="MSShapeGroup"></path>
                <path d="M71.8614499,23.4499537 C71.7000124,23.5521667 71.5420111,23.6453313 71.3785228,23.7357172 C70.2194589,24.3795195 68.7554635,24.903068 67.0223962,25.2937953 C66.086194,25.5545223 65.082374,25.3848934 64.0613031,24.7980902 C62.2344161,23.7468322 60.8069731,21.6089187 60.5185997,20.5319539 L60.3785421,20.0077352 C60.31576,19.7741254 60.4178657,19.5294007 60.6269129,19.41328 C60.6586434,19.3958954 60.6931452,19.3813035 60.7283258,19.3708728 C62.382053,18.8633405 66.7015856,17.6633012 71.0701273,17.4596013 C71.1273946,17.4575067 71.1846481,17.4602994 71.2419154,17.4693478 C71.5889279,17.5221718 71.8731722,17.7745625 71.9649413,18.1117538 C72.1808749,18.902955 72.4844485,20.1412125 72.7059108,21.5491269 C72.8238818,22.3013979 72.4920417,23.0481113 71.8614499,23.4499537 L71.8614499,23.4499537 Z M71.3971316,16.5161417 C71.2757105,16.4973608 71.1508392,16.4911051 71.0266468,16.4966765 C66.5573989,16.7038534 62.1412753,17.9302977 60.4496101,18.4482608 C60.3516197,18.4781567 60.2564282,18.5191815 60.1660447,18.5685426 C59.5692758,18.9001903 59.2767455,19.59475 59.4547411,20.2587296 L59.5947987,20.7836464 C59.9342458,22.0504035 61.5100046,24.4414059 63.5873271,25.6344635 C64.2206762,25.9994979 64.8581544,26.2331077 65.4832175,26.3297353 C66.086194,26.4222018 66.6836558,26.3874466 67.2549018,26.2282345 C69.0590232,25.8228873 70.6016659,25.2680745 71.8400561,24.5811528 C72.020823,24.4803502 72.1946895,24.3781371 72.3719923,24.2655073 C73.3275238,23.6571584 73.8297663,22.5315307 73.6503989,21.3975528 C73.4227291,19.9486416 73.1101906,18.672138 72.8880494,17.855914 C72.6962392,17.152306 72.1104997,16.6259788 71.3971316,16.5161417 L71.3971316,16.5161417 Z" id="Fill-9" fill="#FFFFFF" sketch:type="MSShapeGroup"></path>
                <path d="M74.3141206,23.2712764 C74.2120149,23.8295661 73.5821299,24.4441846 72.493455,25.0476742 C70.9239037,25.9195288 68.5016195,26.6850233 66.3208058,26.9992724 C65.8758167,27.0632393 65.4763449,27.0667162 65.0996664,27.0083208 C64.0585873,26.8483965 63.3783214,26.245619 62.5800846,25.5392322 C62.2296219,25.2298145 61.8667303,24.9093097 61.4562291,24.6200832 C60.8670394,24.2043192 60.0860673,24.1639925 59.4520392,24.5151054 C59.0974197,24.7118514 58.8200757,25.0115087 58.6503522,25.3821007 C58.4937504,25.7248633 58.3536928,26.0759622 58.2150208,26.4249805 C57.6955135,27.7320782 57.2043004,28.9661606 55.7954939,29.7483415 C55.6237058,29.8435867 55.438117,29.931892 55.2435633,30.0118472 C52.5798086,31.0985306 49.9933294,31.5928673 48.3244298,31.3363155 C47.6710863,31.2354988 47.1674443,31.0213682 46.8287039,30.6987688 C45.8586928,29.7740623 45.1811981,26.3380715 44.9266198,25.0448955 C44.7672467,24.2397726 45.1349603,23.4325831 45.8407491,23.0376666 L45.9187036,22.9945612 C50.7791512,20.2962496 58.1860477,18.2932098 58.2626304,18.2730464 C58.33162,18.2521849 65.3052496,16.2067239 71.3343911,16.1038267 C71.4433971,16.1024304 71.5517242,16.1093842 71.6586519,16.1260706 C72.3520118,16.2324448 72.9239506,16.7114775 73.1502487,17.375471 C73.7394383,19.1038762 74.5169603,22.1720677 74.3141206,23.2712764 L74.3141206,23.2712764 Z M75.2558653,23.4471749 C75.5352738,21.9287114 74.454871,18.2361967 74.0547203,17.0626043 C73.7132226,16.0579286 72.8508319,15.333473 71.8042242,15.1728645 C71.644865,15.1478279 71.4806562,15.1367269 71.3178469,15.1401899 C65.1686422,15.2444695 58.0722058,17.3240154 58.0052808,17.3441648 C57.9300837,17.3636299 50.4555694,19.3750339 45.4571565,22.1498238 L45.3764446,22.1950098 C44.3056996,22.7936261 43.749626,24.0228492 43.9917893,25.2527845 C44.3125999,26.8790046 44.980423,30.2649081 46.1719103,31.3989 C46.6569158,31.8605342 47.3378607,32.1615878 48.1961083,32.2936827 C50.8198466,32.6976475 54.2500938,31.4572815 55.6023258,30.9052475 C55.8313674,30.8120828 56.0514579,30.7071051 56.2570411,30.5930789 C57.9659571,29.6447461 58.5447963,28.188867 59.1036272,26.7816648 L59.1174279,26.748278 C59.2443638,26.4284714 59.3761493,26.0975079 59.5182714,25.7874199 C59.6024335,25.6045676 59.7390409,25.4564844 59.9128935,25.3598428 C60.2295612,25.1839443 60.6152322,25.2020131 60.9070697,25.409902 C61.2782334,25.6713272 61.624567,25.9772401 61.9584855,26.2727222 C62.7843098,27.0041317 63.6391074,27.7598936 64.9526947,27.9622111 C65.4239134,28.0345282 65.9158331,28.0317355 66.4567204,27.9531767 C68.193224,27.7028665 70.9363188,27.0131801 72.9550022,25.8924256 C74.3224066,25.1338711 75.0964784,24.3106933 75.2558653,23.4471749 L75.2558653,23.4471749 Z" id="Fill-10" fill="#FFFFFF" sketch:type="MSShapeGroup"></path>
                <path d="M77.5221989,31.8709649 C77.5925603,31.980816 77.7015663,32.0572942 77.828516,32.0844114 C77.8623111,32.0913512 77.8974918,32.0955263 77.9319935,32.0955263 C78.1596772,32.0955263 78.3597456,31.9328373 78.408048,31.7089601 C78.6453755,30.6055902 79.622287,29.8053546 80.7309978,29.8053546 C80.8979639,29.8053546 81.0649162,29.8234234 81.229125,29.8588767 C81.4892182,29.9152056 81.7534542,29.7413876 81.8086431,29.4834534 C81.8659243,29.2185374 81.6982515,28.9557299 81.4353872,28.8980326 C81.2035882,28.8472891 80.9669535,28.8222525 80.7316906,28.8222525 C79.1669612,28.8222525 77.7884996,29.9485645 77.4545672,31.5004009 C77.4269797,31.6283207 77.4511309,31.7604296 77.5221989,31.8709649" id="Fill-11" fill="#FFFFFF" sketch:type="MSShapeGroup"></path>
                <path d="M78.4673522,32.9632198 C78.3866403,32.7108291 78.1072318,32.5627459 77.8533601,32.646178 C77.7298744,32.6858064 77.6284476,32.7720172 77.5691296,32.8888221 C77.5097839,33.005627 77.4987682,33.1391183 77.5387708,33.2642594 C77.6222539,33.5263967 77.7381465,33.7787735 77.883026,34.0144638 C77.9526945,34.1271076 78.0665364,34.2077609 78.194165,34.2355762 C78.2279601,34.2425161 78.2631546,34.2466912 78.2976425,34.2466912 C78.3880259,34.2466912 78.4763171,34.2216686 78.5542854,34.1736899 C78.6646632,34.1041515 78.7419249,33.996395 78.7722698,33.8684612 C78.8019496,33.7405274 78.7805696,33.6077342 78.71158,33.4965008 C78.6087815,33.3289245 78.526684,33.1495491 78.4673522,32.9632198" id="Fill-12" fill="#FFFFFF" sketch:type="MSShapeGroup"></path>
                <path d="M88.7222481,34.4642709 C88.7560709,34.4712247 88.7905449,34.4753998 88.8250466,34.4753998 C89.0534092,34.4753998 89.2534776,34.3127108 89.30178,34.0881354 C89.5390937,32.9847655 90.5160051,32.1845298 91.625381,32.1845298 C91.7916544,32.1845298 91.9592995,32.2025986 92.1228017,32.238052 C92.3801513,32.2950511 92.6471309,32.1205629 92.7023336,31.8626147 C92.7306139,31.7339967 92.7064766,31.6018878 92.6354086,31.4913385 C92.5650334,31.3814875 92.4560273,31.3057074 92.3290915,31.2786042 C92.0972787,31.2271486 91.860644,31.202112 91.625381,31.202112 C90.0606655,31.202112 88.6829383,32.3284379 88.3483131,33.8795622 C88.2917525,34.1444503 88.4593976,34.4065596 88.7222481,34.4642709" id="Fill-13" fill="#FFFFFF" sketch:type="MSShapeGroup"></path>
                <path d="M89.3611119,35.342409 C89.2810651,35.0900323 89.0016566,34.9447278 88.747771,35.0253672 C88.4918071,35.1081011 88.3503777,35.3855144 88.4324752,35.6434627 C88.5159583,35.9048738 88.6318647,36.1572506 88.7760514,36.3929549 C88.8464266,36.5069671 88.9568182,36.5855398 89.0878971,36.6147236 C89.121706,36.6223756 89.1561939,36.6265507 89.1906817,36.6265507 C89.281758,36.6265507 89.3700768,36.6001317 89.4480313,36.5528512 C89.6757011,36.4103255 89.7467691,36.1071913 89.6060326,35.8756761 C89.5032202,35.708798 89.4211227,35.5294365 89.3611119,35.342409" id="Fill-14" fill="#FFFFFF" sketch:type="MSShapeGroup"></path>
                <path d="M87.6514892,33.7273039 C88.0571546,31.8389884 89.73089,30.4693202 91.6308958,30.4693202 C91.9158329,30.4693202 92.2028484,30.4999003 92.4836426,30.5611024 C94.669971,31.0387388 96.0594483,33.2364581 95.5806503,35.4592 C95.1749848,37.3475294 93.5012494,38.7171837 91.6012298,38.7171837 C91.3163066,38.7171837 91.0299838,38.6866036 90.7491897,38.6254154 C89.6922453,38.3939002 88.7870808,37.7570377 88.2013552,36.8309488 C87.6156157,35.9041756 87.4203692,34.8028724 87.6514892,33.7273039 L87.6514892,33.7273039 Z M91.2355808,24.634689 C90.60086,24.634689 90.0033982,24.8335436 89.4928697,25.1651773 L89.7205395,24.1069934 C89.8178094,23.6550639 90.2172673,23.3269071 90.6698496,23.3269071 C90.7374674,23.3269071 90.805778,23.3345451 90.8719964,23.349151 C91.2017719,23.4221663 91.4736012,23.6689716 91.5812355,23.9943636 L91.8137272,24.6972735 C91.6219309,24.6625043 91.4287628,24.634689 91.2355808,24.634689 L91.2355808,24.634689 Z M88.9436826,27.7188687 L89.0023356,27.4470268 C89.2306982,26.3867344 90.1696577,25.617791 91.2362736,25.617791 C91.3956467,25.617791 91.5563776,25.6344774 91.713686,25.6692326 C92.4863999,25.8381773 93.124571,26.4138795 93.3812139,27.1723922 L94.447816,30.3636303 C93.9221012,30.0014164 93.3294613,29.7406895 92.6899185,29.6009285 C92.3408276,29.5251624 91.9841297,29.4869164 91.6302168,29.4869164 C90.3663037,29.4869164 89.1851531,29.9784604 88.2827599,30.7926177 L88.9436826,27.7188687 L88.9436826,27.7188687 Z M86.6842354,28.4370827 C86.7352952,28.4321954 86.7932415,28.4287325 86.8560097,28.4287325 C87.0871435,28.4287325 87.4100187,28.4822547 87.7397942,28.6769341 L87.6142301,29.2609586 C87.2306374,29.0801868 86.8642956,29.0210931 86.5883234,29.0210931 C86.577294,29.0210931 86.5683152,29.0224755 86.5579785,29.0224755 L86.6842354,28.4370827 L86.6842354,28.4370827 Z M81.5899105,28.1819132 C83.7755601,28.6595635 85.1657301,30.8565846 84.6876249,33.0793265 C84.2812666,34.967656 82.608224,36.3387066 80.7082044,36.3380084 C80.4232812,36.3380084 80.1362656,36.3067162 79.8554715,36.2455419 C77.669143,35.7678916 76.2796519,33.5708705 76.7570782,31.3481147 C77.1634364,29.4604974 78.837158,28.0901449 80.7364986,28.0901449 C81.0214219,28.0901449 81.3084236,28.120725 81.5899105,28.1819132 L81.5899105,28.1819132 Z M86.0377785,26.8004318 L85.3195745,30.1390688 C84.6910612,28.7026689 83.4237118,27.5770412 81.7962004,27.2217533 C81.4470956,27.145275 81.0911182,27.1070429 80.7371914,27.1070429 C80.4467257,27.1070429 80.1611097,27.1327637 79.8816873,27.1828229 L82.1632349,24.7236785 C82.7020576,24.1466079 83.5347824,23.8810356 84.2999031,24.0499803 C85.5265571,24.3183593 86.3061437,25.5517435 86.0377785,26.8004318 L86.0377785,26.8004318 Z M86.0191558,22.2895847 C86.2709769,22.3445033 86.4862177,22.4960773 86.6255825,22.7171618 C86.7649473,22.9382603 86.8118641,23.201752 86.7566752,23.459016 L86.5317628,24.5039904 C86.0812451,23.806638 85.4016859,23.3241284 84.6089637,23.1231932 L85.1091556,22.5802076 C85.337532,22.3319919 85.6935095,22.2200603 86.0191558,22.2895847 L86.0191558,22.2895847 Z M96.1332736,32.3270555 L94.3050149,26.8574309 C94.0676596,26.1552331 93.5978404,25.564953 92.9976213,25.1693664 L92.5063943,23.6828792 C92.2904745,23.0300425 91.743352,22.5343234 91.0782862,22.3889911 C90.9437434,22.3590951 90.805778,22.3445033 90.6691706,22.3445033 C89.7605421,22.3445033 88.9609335,22.9980521 88.7670726,23.8977081 L88.0495753,27.2370573 L88.0488687,27.2384397 L87.9522916,27.6882746 C87.5583484,27.5144567 87.1851062,27.4532825 86.89604,27.4498195 L86.9912454,27.009005 L86.9912454,27.0069104 L87.7094354,23.6675892 C87.9377981,22.6066266 87.2720256,21.5574771 86.2261246,21.3287266 C85.569331,21.1855167 84.8538983,21.4142532 84.3944157,21.9113547 L83.3271208,23.069671 C82.6158172,23.1823008 81.949352,23.5181096 81.4526242,24.0513767 L77.5421933,28.2653453 L77.5484008,28.271587 C76.6867168,28.9856258 76.0526749,29.9840318 75.8043041,31.1395415 C75.5179952,32.4709776 75.7608375,33.8357726 76.4873274,34.982946 C77.2144962,36.1301334 78.33698,36.9199383 79.6484889,37.2064001 C79.9975937,37.2821661 80.3542777,37.3211104 80.7082044,37.3211104 C83.0297686,37.3211104 85.0753605,35.6712501 85.6148622,33.3866358 L85.6190051,33.387334 L86.3427238,30.0229621 C86.408956,30.0125314 86.4876033,30.0027988 86.5828087,30.0027988 C86.7953061,30.0027988 87.0967874,30.0597979 87.3982964,30.2635118 L86.6987151,33.5152538 L86.6987151,33.5173344 L86.6980361,33.5215095 L86.6766423,33.6188492 L86.6814781,33.6195334 C86.4282715,34.9189791 86.6724993,36.2441596 87.3810317,37.3621353 C88.1082144,38.5093087 89.2306982,39.2991276 90.5429137,39.5855753 C90.8913257,39.6613554 91.2480098,39.7002997 91.6019365,39.7002997 C93.9572957,39.7002997 96.0318469,38.0045412 96.5341033,35.6677871 C96.7797168,34.5261572 96.6334655,33.3602028 96.1291307,32.3284379 L96.1332736,32.3270555 L96.1332736,32.3270555 Z" id="Fill-15" fill="#FFFFFF" sketch:type="MSShapeGroup"></path>
                <path d="M68.0600667,43.6612073 L66.1869418,47.6144629 L55.976912,42.7003492 L57.8500369,38.7470936 C58.5551191,37.2599502 60.0667241,36.3449762 61.7018148,36.4179775 C62.246845,36.4423159 62.7746244,36.5764915 63.2720589,36.8149745 L66.1434752,38.1971401 C67.1231579,38.6685348 67.8627418,39.4965858 68.2242617,40.5290489 C68.5871533,41.5615119 68.5285142,42.6739302 68.0600667,43.6612073 L68.0600667,43.6612073 Z M63.2141126,50.1792832 L55.8658414,46.6424898 C55.5719394,46.5006483 55.4477609,46.1460725 55.5878046,45.8498782 L56.1287057,44.7082622 C56.2694423,44.4120958 56.6212906,44.2869408 56.9151926,44.4280841 L64.2634638,47.9648636 C64.5573659,48.1060069 64.6822372,48.4612809 64.5415006,48.7574752 L64.0006134,49.8990911 C63.8605558,50.1952575 63.5080147,50.3204126 63.2141126,50.1792832 L63.2141126,50.1792832 Z M56.3812057,68.3061176 C56.1797517,68.7323123 55.745792,68.9944216 55.2780374,68.9735741 C55.1228073,68.9666202 54.9710274,68.9283881 54.8289053,68.8595479 L46.7203491,64.957734 C46.4395688,64.8228603 46.2277504,64.5850894 46.1235801,64.2902914 C46.0207816,63.9941111 46.0366607,63.6756869 46.1711897,63.392702 L51.9643755,51.1679427 L52.499069,50.0395223 L53.9430562,46.9928905 L64.1530722,51.906306 L56.3812057,68.3061176 L56.3812057,68.3061176 Z M46.8645497,55.3631443 L49.4303278,49.9484522 L50.9336607,50.6715254 L48.3678549,56.0862175 L46.8645497,55.3631443 L46.8645497,55.3631443 Z M45.1632129,55.2525951 L48.2630057,48.7101947 C48.4140927,48.3910722 48.7383535,48.1956946 49.08883,48.2109847 C49.2054154,48.2165561 49.3178716,48.2443575 49.4241203,48.2958131 L51.5697534,49.3289743 L51.4862703,49.505571 L51.4262456,49.6328067 L49.8615301,48.8805217 C49.3378798,48.6288432 48.6755715,48.8659299 48.4285724,49.3908467 L45.8048341,54.9279012 C45.5495768,55.4660415 45.7765538,56.1140189 46.3119263,56.3726653 L47.87527,57.1242381 L47.7186544,57.4551736 L45.5737141,56.4227245 C45.1404473,56.2141374 44.9555513,55.6892205 45.1632129,55.2525951 L45.1632129,55.2525951 Z M69.2232459,39.9352918 C68.7196039,38.6678366 67.7061261,37.6729214 66.4829084,37.0847359 L63.7639648,35.7762558 C63.049211,35.432781 62.2820396,35.258977 61.491382,35.2631521 C59.4492541,35.2735828 57.6223671,36.5563281 56.7420328,38.4133793 L54.7709452,42.5724293 C54.5957069,42.9429933 54.7516297,43.3865726 55.1186643,43.5638675 L55.3518627,43.6757992 L54.3024977,45.8902188 L54.0699921,45.7782732 C53.7022785,45.6009923 53.2621114,45.7581099 53.0868592,46.1286879 L52.062352,48.2902556 L49.916719,47.2570943 C49.6711055,47.1388931 49.4096268,47.0728456 49.139197,47.0610325 C48.3306096,47.0248809 47.5820608,47.4774946 47.2322632,48.2137774 L44.1324982,54.7561778 C43.6536863,55.7650006 44.07936,56.9782355 45.0811293,57.4621414 L47.2267485,58.4939063 L45.1770136,62.8191223 C44.9458936,63.3064912 44.8500093,63.8599216 44.9659018,64.386933 C45.1232103,65.1058311 45.5840646,65.6870768 46.2284432,65.9964667 L54.3363066,69.8982667 C54.6177935,70.0345367 54.9172103,70.1096186 55.2269776,70.1235263 C56.1549215,70.1652493 57.0117836,69.6465881 57.4119343,68.8025349 L65.3583601,52.034924 C65.5342773,51.66436 65.3783683,51.2207807 65.0106271,51.0434858 L64.7774425,50.930856 L65.8268076,48.7171345 L66.0593132,48.8290801 C66.4270267,49.0056768 66.8671939,48.8492434 67.0431111,48.4786654 L69.0907814,44.1576246 C69.7227449,42.8248061 69.7724191,41.316089 69.2232459,39.9352918 L69.2232459,39.9352918 Z" id="Fill-16" fill="#FFFFFF" sketch:type="MSShapeGroup"></path>
                <path d="M58.3398782,40.4567457 C58.0563267,40.3183951 57.7134295,40.4407715 57.5782077,40.7279034 L57.0593932,41.8215407 C56.9234786,42.1079885 57.0435141,42.4514353 57.329144,42.5884036 C57.400212,42.6231588 57.4754092,42.6412416 57.5499273,42.6440203 C57.7720824,42.654451 57.9887089,42.5327868 58.0908146,42.3172459 L58.6089501,41.2243068 C58.7455575,40.937873 58.6248154,40.593714 58.3398782,40.4567457" id="Fill-17" fill="#FFFFFF" sketch:type="MSShapeGroup"></path>
                <path d="M63.5542248,37.4414062 C61.5700293,36.4875019 59.1849903,37.3371126 58.237731,39.3366755 C58.1018302,39.6231233 58.2232375,39.9665841 58.5074956,40.1035523 C58.5785498,40.1383215 58.6537469,40.1563903 58.7282651,40.159183 C58.9504202,40.1695858 59.1670605,40.0479356 59.2691662,39.8324086 C59.9452753,38.4057273 61.6452403,37.7994589 63.0616261,38.4801249 C63.3479488,38.6198579 63.6880749,38.495415 63.8232967,38.2089672 C63.9592113,37.9218353 63.838483,37.5776762 63.5542248,37.4414062" id="Fill-18" fill="#FFFFFF" sketch:type="MSShapeGroup"></path>
                <path d="M82.8904177,44.93422 C82.7110503,44.8466128 82.5178822,44.7923785 82.3150425,44.7722152 L78.2273089,44.3773127 C76.290723,44.1902852 74.5259252,45.4945902 74.123031,47.4128295 L71.1439804,61.5662729 C70.7955823,63.218898 71.6924608,64.8875254 73.2854705,65.4917132 C75.0426751,66.1508195 77.0061557,65.2455921 77.6602058,63.4740675 L83.7259136,47.0436339 C84.0294733,46.2232349 83.6700319,45.3166111 82.8904177,44.93422 L82.8904177,44.93422 Z M72.5162206,66.3239393 C70.6686325,65.4187118 69.6772276,63.3704721 70.1035941,61.3444763 L73.0826447,47.1910329 C73.5987018,44.7395405 75.854006,43.0716114 78.3294146,43.3107786 L82.4164554,43.7056811 C82.745552,43.7376715 83.0615268,43.8273593 83.3554427,43.9712813 C84.6296925,44.5956324 85.2174965,46.0772323 84.7221543,47.4169907 L78.6564327,63.8474243 C77.7974922,66.1723792 75.2220563,67.3605774 72.9149857,66.4956767 C72.7776993,66.4442211 72.6452349,66.387208 72.5162206,66.3239393 L72.5162206,66.3239393 Z" id="Fill-19" fill="#FFFFFF" sketch:type="MSShapeGroup"></path>
                <path d="M72.1567237,53.5533457 C72.1360227,53.5436131 72.1160283,53.5318 72.0960062,53.5185905 C71.8504066,53.3559015 71.7828026,53.0242538 71.9449192,52.7767363 C75.0978224,47.9516261 80.3742721,47.5657581 80.5964133,47.5511662 L80.8227114,47.5365603 L80.9896775,47.6916113 C81.0821255,47.777124 83.2360168,49.8232831 82.5385278,53.3120839 C82.4812743,53.6027068 82.2004663,53.7904324 81.9127718,53.732023 C81.6292203,53.6743257 81.4381168,53.392053 81.4967559,53.100732 C81.9734755,50.7139047 80.8509917,49.1412208 80.4246391,48.646898 C79.400797,48.7824699 75.3254922,49.5514272 72.83214,53.3663183 C72.6831313,53.5936724 72.3926795,53.6687543 72.1567237,53.5533457" id="Fill-20" fill="#FFFFFF" sketch:type="MSShapeGroup"></path>
                <path d="M80.3970377,48.5669708 C80.1679823,48.454341 80.0458684,48.1894529 80.1203727,47.9342834 L80.5557318,46.4415546 C80.6385221,46.1578717 80.9345025,45.9951826 81.2160033,46.0786147 C81.4988759,46.1634431 81.6582489,46.4596234 81.5761376,46.7439906 L81.1401134,48.2367194 C81.0573092,48.5203885 80.7613288,48.6830915 80.4798418,48.5996454 C80.4508548,48.5913092 80.4232673,48.5801803 80.3970377,48.5669708" id="Fill-21" fill="#FFFFFF" sketch:type="MSShapeGroup"></path>
                <path d="M88.8519552,47.1694872 C88.4311034,46.9629946 87.937133,46.9470063 87.4969658,47.1242873 C87.0540413,47.3036767 86.718751,47.6506144 86.5511059,48.1032281 L80.4846638,64.5329496 C79.8327059,66.2989166 80.7026897,68.2734569 82.4874957,68.9422958 C84.0556753,69.5297972 85.8466888,68.8588777 86.6532116,67.3828353 L93.5799521,54.7089112 C94.5182327,52.9916071 94.0290842,50.8411683 92.4422821,49.7071904 L89.0934257,47.3141074 C89.0154712,47.2584767 88.9347593,47.210512 88.8519552,47.1694872 L88.8519552,47.1694872 Z M81.7161674,69.7731395 C79.6409096,68.7559665 78.6832997,66.342022 79.4891297,64.1596068 L85.5555441,47.7298714 C85.8273734,46.9908099 86.3772394,46.4220895 87.1016509,46.1300703 C87.9592058,45.7838447 88.9313091,45.8825528 89.7081521,46.4401583 L93.0577014,48.8332412 C95.0853496,50.2828646 95.7097338,53.0305513 94.5113324,55.2254919 L87.5845919,67.8994159 C86.5255691,69.8377906 84.1750318,70.7173112 82.1170248,69.9455611 C81.9790318,69.8941195 81.8458745,69.8364082 81.7161674,69.7731395 L81.7161674,69.7731395 Z" id="Fill-22" fill="#FFFFFF" sketch:type="MSShapeGroup"></path>
                <path d="M90.9900089,60.6151613 C90.7892338,60.5171234 90.6650692,60.2988177 90.6947352,60.0645237 C91.2832182,55.532089 88.6946744,52.2650569 88.0088799,51.4898439 C87.3631296,51.5816121 85.5031126,52.0244933 84.3102536,54.156179 C84.1653741,54.4127169 83.8355986,54.4989417 83.5858421,54.3591947 C83.330571,54.2138763 83.2395086,53.8871159 83.3837092,53.6291677 C85.11952,50.5296839 88.0764978,50.4003677 88.2020619,50.3968908 L88.4283599,50.3892388 L88.5897836,50.5491491 C88.7498633,50.7069788 92.4919424,54.4739051 91.7496011,60.2028743 C91.7109702,60.4962619 91.4446696,60.7027545 91.1535111,60.6645224 C91.094872,60.6575686 91.0396831,60.640184 90.9900089,60.6151613" id="Fill-23" fill="#FFFFFF" sketch:type="MSShapeGroup"></path>
                <path d="M87.9861143,51.4133517 C87.727393,51.2868142 87.6156296,50.9746456 87.7349723,50.7097575 L88.3738638,49.2928228 C88.4952849,49.0237596 88.8105669,48.9048741 89.0782671,49.0272365 C89.355611,49.1502971 89.4632453,49.4673389 89.3418103,49.7364021 L88.7022537,51.1533229 C88.5808187,51.4230842 88.2662295,51.5419697 87.9985294,51.4196073 C87.9944003,51.4175268 87.9902573,51.4154462 87.9861143,51.4133517" id="Fill-24" fill="#FFFFFF" sketch:type="MSShapeGroup"></path>
                <g id="Fill-25-+-Fill-26-+-Fill-27" transform="translate(74.769231, 80.000000)" fill="#FF5600" sketch:type="MSShapeGroup">
                    <path d="M19.8200007,30.2581642 C16.6367387,28.7807366 12.9077675,25.1925016 9.76589373,17.8039534 C14.6670367,15.2287163 19.0659371,10.1206492 21.2025776,4.16783072 C21.9987499,1.97289019 16.0503203,0.537174461 15.9661444,1.930469 C15.8819823,3.99888602 13.2430716,9.40313343 9.72450552,12.6534791 C10.604147,9.3607262 11.3582106,6.53170198 11.6928219,5.13840744 C12.1536901,2.35248863 8.76070196,0.326506753 3.23104566,0.917485041 C1.8063739,1.33950467 1.59663391,5.01186998 2.43488722,5.56112525 C5.53465228,5.26564309 6.95933789,5.26564309 6.33082457,7.54539807 C5.95343946,9.15005849 1.21995546,27.2608934 0.801168276,29.076223 C0.759087259,30.1316337 4.31973437,31.144619 5.03240973,29.7937289 C5.24144306,28.9496799 6.1631656,25.5721 7.2104661,21.772513 C9.01181631,26.1630797 13.1174937,31.8621362 16.2593674,33.3819668 C17.6419443,33.8888121 21.2025776,30.8915441 19.8200007,30.2581642" id="Fill-25"></path>
                    <path d="M25.1385868,12.9072383 C26.6046191,13.624754 28.4059831,13.0761829 28.9089185,11.5139437 C29.3283985,10.0789262 28.6157231,9.02352102 27.7781626,8.68493346 C27.9872098,8.43185852 28.0292908,8.05224612 27.8616457,7.67193554 C25.9347175,6.65825341 24.2589314,7.62954228 23.672513,9.15005849 C23.1281756,10.585076 23.672513,12.2314455 25.1385868,12.9072383" id="Fill-26"></path>
                    <path d="M43.6399488,5.18081467 C42.9693406,5.2232219 41.796476,5.30735214 40.4980889,5.34977333 C40.7912842,4.46331288 41.0003314,3.78752014 41.0845073,3.49203797 C41.1679904,2.47904006 39.9530586,1.71911707 38.989934,1.42363491 C38.0261166,1.08574552 36.4344926,0.875063851 36.1833643,1.59259357 C36.0150264,2.09942765 35.5962531,3.61925966 34.9677398,5.68766272 C33.3340347,5.771779 32.0777009,5.85662138 31.7844916,5.85662138 C30.3598199,5.94073765 31.7423968,9.06523007 32.8317783,9.27660992 C33.0283827,9.30928457 33.3043688,9.3426574 33.6348232,9.37533205 C30.8110165,18.7342314 27.869225,23.6698908 27.869225,23.6698908 C25.9284823,26.5774668 23.4275646,26.5044572 24.3844817,23.4195946 C25.097157,21.054313 26.7722642,16.4954873 27.1917303,15.3552677 C27.2331324,14.2998486 26.0602816,13.5823468 25.097157,13.2444574 C24.0912586,12.9072383 22.7093607,12.7382936 22.3740704,13.4558093 C21.9552832,14.2581395 19.9020982,21.265665 19.5247269,23.6726556 C18.8548254,27.0919501 19.5668079,29.5406596 21.619993,30.2157528 C23.9236135,31.0180872 26.7550133,30.3770608 29.0303535,26.5239209 C29.4070458,26.0066449 29.7975388,25.311387 30.179053,24.5306165 C29.7837242,27.4972931 30.5364299,29.5990634 32.4122983,30.2157528 C34.7166116,31.0180872 36.5600428,29.4141193 38.1516946,27.2608962 C39.0734033,25.9948318 40.1627709,23.6302484 40.9168484,21.5187539 C41.2100576,20.4216257 39.4087074,19.7034257 38.8222889,20.7588169 C38.4035017,21.7301058 37.9840218,22.6589595 37.5238602,23.5037109 C35.5541721,27.3033118 34.5068854,26.9230041 35.1774798,23.4195946 C35.5541721,21.3922024 37.4396843,15.0180625 39.1154981,9.74103678 C39.9951397,9.78344401 40.7492171,9.78344401 41.1679904,9.78344401 C42.6340504,9.74103678 46.1953903,5.01186998 43.6399488,5.18081467" id="Fill-27"></path>
                </g>
                <g transform="translate(0.000000, 80.000000)" fill="#626161" sketch:type="MSShapeGroup">
                    <path d="M17.830255,3.28132838 C16.7829683,7.46055569 11.8397471,25.7834659 9.95421547,29.498251 C9.24222046,30.8491522 6.85443517,30.6384817 5.84922678,29.4141249 C2.41414931,25.4031693 -1.31482561,12.6534651 1.9532922,3.40787981 C3.33587462,-0.391721143 8.11076069,0.832614733 6.81234446,3.82989944 C5.01098178,7.88257532 3.58700698,17.0440304 7.48294018,23.8416003 C9.15874568,17.9729121 12.3006098,5.01184205 12.9705127,2.14110878 C13.5569394,-0.306906689 18.3752991,1.08570363 17.830255,3.28132838" id="Fill-28"></path>
                    <path d="M20.8251431,19.1124474 C20.4484508,20.4633487 19.9875826,22.0680091 19.5267283,23.4613176 C18.4794278,26.8388934 20.8251431,27.1343685 22.0821698,23.8840354 C22.375379,23.1658215 23.2971015,20.1678526 23.4226656,19.6617027 C23.9670169,17.424355 21.7468657,16.4106589 20.8251431,19.1124474 L20.8251431,19.1124474 Z M33.0579993,21.6452913 C32.3039218,23.7150907 31.1724732,25.9948457 30.2514296,27.3033244 C28.6591127,29.4558591 26.8577486,30.8915651 24.5120471,30.2581879 C23.2971015,29.962696 22.5009431,28.6118101 22.333298,27.6412278 C20.8672241,29.9202846 19.3590693,30.7650346 17.264496,30.3430038 C15.1699227,29.9202846 13.8294172,27.8518885 14.6669735,23.7150907 C15.0022637,21.7301058 15.6721791,19.1972759 16.1751283,17.424355 C18.1020565,11.3874062 23.6737938,12.5269277 24.6789995,15.1446 C24.8466446,14.4687933 25.0142897,13.8778289 25.1398677,13.4557953 C25.3916887,12.7382936 26.9833127,12.9489473 27.9892112,13.2868507 C28.9523219,13.62474 30.1251865,14.3422558 30.0837845,15.3976749 C29.6650111,16.5379085 27.9892112,21.0967203 27.2772148,23.4613176 C26.2292353,26.8388934 27.6539071,27.3457386 29.6229163,23.5454339 C30.0417034,22.7006965 30.5025578,21.772513 30.921345,20.8012381 C31.5077634,19.745833 33.3512223,20.5481632 33.0579993,21.6452913 L33.0579993,21.6452913 Z" id="Fill-29"></path>
                    <path d="M44.9949165,21.6452774 C44.1987442,23.7150768 43.1093627,25.9100173 42.2718161,27.2184988 C38.627672,33.1289058 28.0698953,30.680195 30.0809994,21.3080861 C30.5839486,19.0283172 31.9244583,16.1999912 33.3491301,14.4687933 C35.5692813,12.2738527 40.9313064,12.9489613 41.7274648,14.2581395 C42.4815422,15.4400682 41.6853838,19.4079296 40.1772289,20.9701828 C39.0464592,21.7301058 37.1609192,21.2232577 36.9939531,20.2102598 C38.0826418,18.6904278 38.6690741,16.4530661 38.0826418,16.1575839 C37.0774362,15.9886392 35.6948454,17.8463746 34.6896398,21.6042525 C33.3070352,26.8388808 38.6690741,29.4141249 41.5598197,23.5030127 C41.978593,22.6596716 42.4394612,21.772513 42.8161535,20.8012241 C43.4446668,19.745833 45.2460447,20.5481632 44.9949165,21.6452774" id="Fill-30"></path>
                    <path d="M48.2187908,19.1124474 C47.8420985,20.4633487 47.3812303,22.0680091 46.920376,23.4613176 C45.8730755,26.8388934 48.2187908,27.1343685 49.4758036,23.8840354 C49.7690267,23.1658215 50.6907492,20.1678526 50.8163133,19.6617027 C51.3613435,17.424355 49.1405133,16.4106589 48.2187908,19.1124474 L48.2187908,19.1124474 Z M60.451647,21.6452913 C59.6975695,23.7150907 58.5667998,25.9948457 57.6450773,27.3033244 C56.0527604,29.4558591 54.2513963,30.8915651 51.905681,30.2581879 C50.6907492,29.962696 49.8945908,28.6118101 49.7269318,27.6412278 C48.2608718,29.9202846 46.752717,30.7650346 44.6581437,30.3430038 C42.5635704,29.9202846 41.2230607,27.8518885 42.0606212,23.7150907 C42.3959253,21.7301058 43.0658268,19.1972759 43.568776,17.424355 C45.4963832,11.3874062 51.0674415,12.5269277 52.0733399,15.1446 C52.2409851,14.4687933 52.4086302,13.8778289 52.5341943,13.4557953 C52.7853225,12.7382936 54.3769466,12.9489473 55.382845,13.2868507 C56.3459696,13.62474 57.5188204,14.3422558 57.4774321,15.3976749 C57.057966,16.5379085 55.382845,21.0967203 54.6708625,23.4613176 C53.623562,26.8388934 55.0475548,27.3457386 57.0165639,23.5454339 C57.4353373,22.7006965 57.8962055,21.772513 58.3149926,20.8012381 C58.9021039,19.745833 60.7448423,20.5481632 60.451647,21.6452913 L60.451647,21.6452913 Z" id="Fill-31"></path>
                    <path d="M62.4607003,32.2424496 C61.4134137,33.0447756 60.4495963,34.0153677 59.7796947,34.8176951 C59.3602286,35.3238408 58.7738101,36.3375397 59.2767455,36.126178 C60.4916911,35.1548961 61.5389639,33.8464118 62.4607003,32.2424496 L62.4607003,32.2424496 Z M76.1175354,21.9414577 C74.4417354,26.7964638 71.2577806,28.9072727 68.5767751,29.7513231 C68.534694,29.7513231 68.4925992,29.7513231 68.4512109,29.7937373 C68.4091299,29.8361529 68.4091299,29.878556 68.4091299,29.9202692 C65.9378643,35.2397119 62.7118285,38.6597061 59.1511814,39.2930884 C57.8520876,39.5461634 56.0507235,39.335502 55.6740174,38.1528608 C54.8357779,35.7041486 56.8047871,32.1576226 61.2871568,30.3005854 C61.1201906,30.3005854 60.9525455,30.2581712 60.8263024,30.2581712 C58.7324081,29.8361529 56.5536589,27.7677471 57.3918984,23.6302484 C57.7686045,21.2232577 59.8210968,14.2157183 60.2398701,13.4133881 C60.6172414,12.6958724 61.9998321,12.8648171 62.9629567,13.2027204 C63.9267603,13.5399116 65.0996249,14.2581256 65.0582228,15.3135307 C64.6808377,16.4530661 63.0050377,21.01259 62.2509603,23.3771734 C61.2036737,26.7540608 64.5131926,27.1343671 65.6446551,23.7984949 C66.8588941,20.2950743 67.5715694,15.0180485 67.6971474,14.0467597 C67.7392145,11.8518331 72.9335806,13.4133881 72.7245334,15.2287023 C72.5147934,16.5378945 71.5510037,22.785497 69.7496258,26.6699319 C69.7496258,26.7123461 69.7496258,26.7540608 69.7075586,26.7964638 C71.7186488,26.0365408 72.9335806,23.8416003 73.8553031,21.6042525 C74.7770257,19.4079296 76.6618728,20.505742 76.1175354,21.9414577 L76.1175354,21.9414577 Z" id="Fill-32"></path>
                </g>
            </g>
        </g>
    </g>
</svg>