<?xml version="1.0" encoding="UTF-8" standalone="no"?>
<svg width="110px" height="36px" viewBox="0 0 110 36" version="1.1" xmlns="http://www.w3.org/2000/svg" xmlns:xlink="http://www.w3.org/1999/xlink" xmlns:sketch="http://www.bohemiancoding.com/sketch/ns">
    <!-- Generator: Sketch Beta 3.3 (11920) - http://www.bohemiancoding.com/sketch -->
    <title>logo</title>
    <desc>Created with Sketch Beta.</desc>
    <defs></defs>
    <g id="Page-1" stroke="none" stroke-width="1" fill="none" fill-rule="evenodd" sketch:type="MSPage">
        <g id="desktop_wide_01" sketch:type="MSArtboardGroup" transform="translate(-30.000000, -14.000000)" fill="#FFFFFF">
            <g id="Group" sketch:type="MSLayerGroup">
                <g id="Countries-+-Popular-kits-+-Rectangle-5" transform="translate(30.000000, 14.000000)" sketch:type="MSShapeGroup">
                    <path d="M95.100718,6.50303832 C94.6917507,6.30662481 94.2866181,6.20712242 93.8925245,6.20712242 C92.9362534,6.20712242 92.1105335,6.80282369 91.7377627,7.76035553 C91.2686617,8.98665305 91.7868573,10.3111689 92.9433997,10.8403281 C93.2954869,11.0115435 93.6766823,11.0994143 94.0520676,11.0994143 C94.9870159,11.1000534 95.7636412,10.5657291 96.0317736,9.74002082 C96.3554497,8.63840631 95.8392295,7.78426376 95.1601545,7.51225028 C95.0638825,7.47412494 94.9921868,7.39208166 94.9669713,7.29194016 C94.9411168,7.19179286 94.9656931,7.08517901 95.0315788,7.00570957 C95.1355781,6.88100331 95.1601545,6.69816782 95.100718,6.50303832 Z M15.6422036,1.04668658 C15.1608551,0.430307454 14.1716703,0 13.236112,0 C12.3050738,0 11.6693067,0.418681606 11.4929087,1.15072079 C10.7770388,4.19258541 7.87150625,16.0395516 6.35509704,21.30982 L6.28918818,21.3589205 L6.23104151,21.325327 C2.54566207,14.9437471 3.8882692,6.49852975 5.60109018,2.67228929 C5.88408459,2.02489628 5.8705182,1.43370359 5.56167501,0.962063654 C5.23733417,0.467131356 4.62418251,0.171860369 3.91928483,0.171860369 C2.9772547,0.171860369 1.76129321,0.739795558 1.17656997,2.33567421 C-1.9318368,11.0632469 1.76388157,22.8908367 4.80831944,26.419209 C5.2709277,26.9780922 6.09730068,27.3386214 6.91397441,27.3386214 C7.67120584,27.3386214 8.26562891,27.0381794 8.54603786,26.510316 C10.3292838,23.0232877 15.0361547,5.63919885 15.910336,2.17543969 C16.0078978,1.78648214 15.9148562,1.39624058 15.6422036,1.04668658 Z M58.034364,29.2562531 C57.117572,30.8392044 56.1174063,32.0487092 54.9750868,32.9558421 L54.8982028,33.0010643 C54.815503,33.0353138 54.7405537,33.0521135 54.6694856,33.0521135 C54.5118307,33.0521135 54.3742146,32.9661856 54.3102463,32.8285573 C54.0989707,32.3775772 54.9046519,31.3909796 54.9970544,31.279852 C55.7329689,30.4056654 56.6665809,29.5166349 57.5595053,28.8369323 C57.6822652,28.7458254 57.852859,28.7510022 57.9684784,28.8524393 C58.0841559,28.9538764 58.1112887,29.1231571 58.034364,29.2562531 Z M47.1682162,17.4855259 C47.0557923,17.9332809 46.1829067,20.7619178 45.8979659,21.4532578 C45.341674,22.8817905 44.4946371,23.7721178 43.6902341,23.7721178 C43.3826866,23.7721178 43.1106847,23.6325553 42.9239623,23.379285 C42.5537421,22.8759746 42.5453466,21.9746547 42.8994034,20.841393 C43.3549089,19.4735867 43.8097695,17.8867601 44.1121403,16.8103494 C44.4894662,15.7132667 45.1504314,15.0678143 45.885701,15.0678143 C46.2714281,15.0678143 46.6241893,15.2467803 46.879406,15.5724144 C47.2463958,16.0401965 47.3517024,16.7379856 47.1682162,17.4855259 L47.1682162,17.4855259 Z M21.5249875,17.4855259 C21.4125695,17.9332809 20.5390389,20.7619178 20.2547546,21.4532578 C19.6984511,22.8817905 18.8514084,23.7721178 18.0463721,23.7721178 C17.7388188,23.7721178 17.4668111,23.6325553 17.2807336,23.379285 C16.9105192,22.8759746 16.9021179,21.9746547 17.2561805,20.841393 C17.7110353,19.4735867 18.1658959,17.8867601 18.4689232,16.8103494 C18.8455926,15.7132667 19.5065636,15.0678143 20.2424781,15.0678143 C20.6275487,15.0678143 20.9803273,15.2467803 21.2355382,15.5724144 C21.6025222,16.0401965 21.7078346,16.7379856 21.5249875,17.4855259 L21.5249875,17.4855259 Z M70.2334871,19.419966 C70.345911,19.1272805 70.3258664,18.8442803 70.182417,18.6362409 C70.0706322,18.4734268 69.89883,18.3797344 69.712096,18.3797344 C69.3437988,18.3797344 68.9723062,18.737678 68.7189894,19.3379111 C67.9236558,21.2529632 66.741956,23.5543873 64.6518016,24.3381066 C64.5083522,24.3904375 64.3481119,24.3374559 64.2660744,24.2088918 C64.1994916,24.1042185 64.2001307,23.9730573 64.2609035,23.8703304 L64.2854218,23.7818089 C65.0239333,22.2014372 66.0990774,19.1098272 67.0255431,13.3556306 L67.0443094,13.2386866 C67.0649931,13.0551829 66.9770875,12.8419785 66.7794307,12.6216567 C66.2372978,12.0130282 65.0084206,11.5174626 64.0399485,11.5174626 C63.3447216,11.5174626 62.9880445,11.7468305 62.9796781,12.1991115 C62.8530197,13.1863441 62.1771982,18.101266 61.0394222,21.3576249 C60.4430818,23.1040469 59.3110576,23.7249521 58.5241486,23.7249521 C58.0608577,23.7249521 57.658357,23.5240126 57.3902304,23.159614 C56.9877065,22.6130132 56.9379553,21.7614445 57.2500172,20.7632134 C57.7022866,19.3560035 58.4873131,17.1728191 59.1172354,15.4179957 C59.4513115,14.4876083 59.7297857,13.7122787 59.8648106,13.3136358 C59.8590006,12.5796561 58.9660587,12.0072181 58.1196551,11.7138819 C57.6590077,11.5530083 57.168613,11.4619014 56.7732006,11.4619014 C56.5283257,11.4619014 56.0967284,11.499376 55.9616919,11.755226 C55.6683557,12.3121686 54.2637254,16.9479655 53.6008255,19.8160292 L53.5769173,19.8832163 C53.3637012,20.3258003 53.1504967,20.754173 52.9476108,21.1605665 C52.4300776,22.150402 51.4363725,23.8037824 50.5583218,23.8044273 L50.5576827,23.8044273 C50.3425202,23.8044273 50.1519225,23.7062206 50.0207614,23.5285386 C49.6111318,22.9709568 49.8676325,21.7595097 50.154508,20.841393 C50.4588252,19.8392867 51.1598447,17.7304066 52.7679941,13.3872894 C52.7589537,12.6559068 51.8679698,12.0853861 51.0228677,11.7920615 C50.5227935,11.6247155 49.9380557,11.520048 49.5006542,11.520048 C49.0923145,11.520048 48.8177155,11.6066289 48.7666687,11.7519956 C48.6555521,12.1241622 48.499832,12.6688225 48.3441234,13.2903725 C48.3098792,13.4273553 48.1916337,13.5255563 48.050793,13.5345967 C47.9118871,13.5546296 47.7807201,13.4603039 47.7296732,13.3291428 C47.3342608,12.3076542 46.0627381,11.5659181 44.7052561,11.5659181 C43.7781049,11.5659181 41.4992991,11.9419542 40.3776575,15.4289767 C40.1121105,16.3580685 39.7238095,17.7736913 39.3975189,19.182191 C39.0731745,19.9252169 38.7539953,20.570681 38.4781124,21.1211513 C37.4353011,23.2364979 35.9279439,24.4511812 34.3417563,24.4511812 C33.4236396,24.4511812 32.5979197,24.0350909 32.0164298,23.2791377 C31.225599,22.2499044 31.0181929,20.7380154 31.4459265,19.1292094 C32.3853544,15.6434884 33.7492738,13.622479 34.9878653,13.8350328 L35.0789548,13.8647684 C35.2010756,13.9255006 35.361955,14.0598805 35.4343188,14.3545124 C35.6275078,15.1395273 35.0970588,16.7689995 34.2668129,17.9791452 C34.4238112,18.3532465 35.0227545,18.6407669 35.6869443,18.6407669 C36.0668556,18.6407669 36.4125227,18.5483702 36.6884115,18.3732794 C37.9844873,17.0074078 38.6855126,13.5132797 38.0749493,12.5635101 C37.7842043,12.0892614 36.3789234,11.5833714 34.6098887,11.5833714 C32.9416463,11.5833714 31.5273307,12.0324104 30.7293885,12.8148515 C29.4565643,14.3532109 28.225735,16.9092011 27.7592486,19.007751 C27.6435943,19.5440158 27.5712305,20.0835109 27.5447426,20.6120251 L27.511794,20.7399559 L27.303743,21.1605665 C26.7868605,22.150402 25.7925164,23.8037824 24.9138149,23.8044273 C24.6986524,23.8044273 24.5080548,23.7062206 24.3768936,23.5285386 C23.967264,22.9709568 24.2237647,21.7595097 24.5106344,20.841393 C24.9493431,19.3954187 25.8293345,16.8865885 27.1241263,13.3872894 C27.115725,12.6559068 26.224102,12.0853861 25.3796506,11.7920615 C24.8789199,11.6247155 24.2941996,11.520048 23.8574256,11.520048 C23.4484409,11.520048 23.1744927,11.6066289 23.1234516,11.7519956 C23.0116843,12.1241622 22.8559584,12.6688225 22.7002556,13.2903725 C22.6666563,13.4273553 22.5477659,13.5255563 22.4069252,13.5345967 C22.2718887,13.5546296 22.1368523,13.4603039 22.0858113,13.3291428 C21.6910379,12.3076542 20.4188644,11.5659181 19.0620448,11.5659181 C18.1342429,11.5659181 15.8560762,11.9419542 14.7344404,15.4289767 C14.2692438,17.0565141 13.6457532,19.3934723 13.3330347,21.2271144 C12.922766,23.2390834 13.0629618,24.8330215 13.7355587,25.8467537 C14.1477737,26.4683095 14.7447764,26.8604916 15.5097642,27.0136205 C17.3149779,27.3754336 18.5968482,26.6873414 19.9207134,24.6450093 C19.9930772,24.5332361 20.1274687,24.4783082 20.2560445,24.5035063 C20.3865607,24.5306507 20.4867022,24.6340225 20.5099656,24.7645388 C20.640476,25.5191906 21.2846445,26.6912167 22.3067779,26.937393 C24.1184581,27.4219719 25.6348615,26.607872 27.344448,24.3129086 C27.4284493,24.1953138 27.5188997,24.056402 27.6106457,23.9142599 C27.6739633,23.816059 27.7863872,23.7585514 27.9007516,23.766302 C28.0170449,23.7727685 28.1204226,23.841257 28.1721143,23.9452796 C29.1244694,25.8751879 31.1364384,27.0737077 33.4216991,27.0737077 C35.4104106,27.0737077 37.2001173,26.1788602 38.3327457,24.6185098 C38.4070384,24.5170727 38.5323837,24.4692678 38.6557944,24.4912355 C38.7791992,24.5151437 38.8774117,24.6081796 38.9077749,24.7302887 C39.2237121,25.9934276 40.0003374,26.7829627 41.153632,27.0136205 C42.9575558,27.3741554 44.2400653,26.6873414 45.5639421,24.6450093 C45.6363001,24.5332361 45.7706916,24.4783082 45.8999065,24.5035063 C46.029772,24.5306507 46.1305642,24.6340225 46.1531884,24.7645388 C46.284338,25.5191906 46.9285123,26.6912167 47.9500008,26.937393 C49.7332526,27.4161502 51.2276825,26.6324193 52.9043204,24.4221021 C52.9760451,24.3290604 53.089753,24.2838353 53.2086434,24.2974016 C53.3249367,24.3148433 53.4231493,24.3936737 53.4644992,24.5041512 C53.9361507,25.7659944 54.9918835,26.6750707 56.2886217,26.9348018 L56.3008925,26.9328554 C56.3273862,26.9328554 56.3887632,26.9406176 56.4533822,26.9490131 C56.5179839,26.9574144 56.5871231,26.9677562 56.6562565,26.9677562 C56.8106578,26.9677562 56.9431204,27.0769439 56.9728386,27.228138 C57.0032134,27.3793205 56.9217976,27.5311538 56.7790164,27.5893004 C52.6956303,29.2678847 50.9937885,32.4111748 51.7070962,34.4799989 C51.9842632,35.3425525 53.3178311,35.4090983 53.7197101,35.4090983 L53.720355,35.4090983 C54.0136913,35.4090983 54.3160621,35.3806758 54.5951812,35.326402 C57.7094038,34.777211 60.6924478,31.7695959 63.0048936,26.8559772 C63.0138991,26.7829627 63.0430073,26.6828212 63.1341084,26.5917259 C63.2355513,26.4883425 63.3511707,26.4644342 63.4254809,26.4592691 C65.6713438,25.7472629 68.6595529,23.9472085 70.2334871,19.419966 Z M73.684929,26.6983398 C73.8781121,25.9339969 74.6159846,23.243621 75.7156469,19.2829948 C75.7524825,19.1498989 75.8694381,19.0549225 76.0070775,19.047172 L76.0264249,19.0465212 C76.1562788,19.0465212 76.2752099,19.1247009 76.3249436,19.2455202 C77.9421044,23.1563894 81.7535351,28.4783496 84.6377449,29.8623136 C84.6694095,29.8720047 84.7443587,29.8836422 84.830928,29.8836422 C85.8349574,29.8842813 87.6324031,28.4809409 87.7920043,27.7443873 C87.818498,27.6229172 87.7913652,27.5880222 87.6970105,27.5447318 C85.1125977,26.3552524 81.3554907,23.3547493 78.1217502,15.8101837 C78.0552255,15.6551259 78.1198329,15.4748584 78.2690923,15.3966788 C82.856393,13.0047984 86.8997596,8.21910884 88.8212492,2.90618324 C88.9149648,2.65032742 88.8735975,2.40222217 88.6965662,2.14895181 C88.135725,1.34712849 86.4300196,0.748835948 85.2786481,0.748835948 C84.8108834,0.748835948 84.5518147,0.856739625 84.5453075,0.957537649 C84.4652454,2.90877451 82.0519958,7.97034706 78.5979394,11.1362556 C78.4913255,11.2331783 78.3343388,11.2499867 78.2122122,11.1743926 C78.0894465,11.0994375 78.03001,10.9534201 78.0681237,10.8145083 C78.9248692,7.63179724 79.6045833,5.09776897 79.9082149,3.84174158 C80.0219751,3.15622904 79.8416902,2.51271131 79.3667792,1.95253249 C78.228364,0.608645994 75.5483184,-0.023251697 72.3352615,0.317889392 C71.9676035,0.431603088 71.6051164,1.10743034 71.4713698,2.02942229 C71.3344276,2.96369081 71.4824088,3.7286728 71.6671674,3.97548823 C72.411489,3.90635481 73.0162539,3.86113543 73.5240496,3.86113543 C74.2302574,3.86113543 75.0068827,3.93219777 75.4081226,4.46006126 C75.7079196,4.85484045 75.7415015,5.42017856 75.5140974,6.23944356 C75.3518816,6.92624593 74.2993966,10.9611648 73.1842216,15.2338588 C71.8894007,20.1978753 70.5493778,25.3311842 70.3413791,26.2266883 C70.3420182,26.2221622 70.3878593,26.2964666 70.470594,26.3843257 C70.850453,26.7790991 71.8054459,27.100213 72.6001403,27.100213 C72.9167283,27.100213 73.4710622,27.0472315 73.684929,26.6983398 Z M109.503058,4.27914307 L109.21616,4.29722966 C108.56689,4.33988101 107.602892,4.40254207 106.551685,4.43679213 C106.441178,4.43291104 106.344906,4.39221186 106.282216,4.30692658 C106.218887,4.22228622 106.201457,4.11179709 106.234458,4.0116556 C106.507064,3.19498186 106.702222,2.57213618 106.779728,2.3001227 C106.831437,1.60491904 105.765996,0.998225214 105.03527,0.775968738 C104.090677,0.44709841 102.910197,0.434171117 102.806198,0.730743548 C102.735141,0.943953824 102.611097,1.36714981 102.440515,1.95058033 C102.244079,2.61994102 101.986288,3.49929324 101.673593,4.52272232 C101.633504,4.65259368 101.516548,4.74370059 101.380884,4.7501439 C100.723132,4.78439396 100.130684,4.81799331 99.6474066,4.84577101 C98.9980789,4.88195581 98.5425153,4.90780458 98.3842504,4.90780458 C98.2750801,4.91490443 98.1581244,4.94462848 98.139358,5.2230969 C98.0902634,5.96998649 98.8836796,7.33973919 99.4257544,7.44375597 C99.5963366,7.47284092 99.847678,7.50190264 100.148753,7.53227742 C100.245025,7.54196853 100.331595,7.59364865 100.385221,7.67441373 C100.438847,7.75453389 100.453721,7.8546812 100.425949,7.94707793 C97.8008082,16.5790293 95.0238514,21.2516617 94.9960795,21.2981709 C94.1096449,22.616871 93.0138172,23.427084 92.1286608,23.427084 C91.74549,23.427084 91.4192574,23.2694349 91.2092252,22.9838551 C90.868119,22.5199599 90.8474353,21.7665921 91.1492077,20.8019604 C91.4534784,19.79986 92.1545153,17.6909798 93.7626706,13.3472177 C93.7536069,12.6171133 92.8626405,12.0459652 92.0181542,11.7526289 C91.5387695,11.5930393 91.0367838,11.5006484 90.6439103,11.5006484 C90.4029107,11.5006484 89.9823234,11.5374723 89.866646,11.7810631 C89.5183934,12.4433182 87.5845866,18.9179223 87.2273285,21.1844631 C86.6186709,24.2644298 87.2544613,26.345538 88.9692304,26.9044212 C89.4828942,27.0827481 89.9984753,27.1712579 90.5076073,27.1712579 C92.4090523,27.1712579 94.1451441,25.9423691 95.5284516,23.6176875 C95.8650841,23.1563662 96.2172294,22.5496723 96.5919756,21.7885598 C96.661754,21.6464119 96.8245507,21.5772843 96.9750883,21.6218646 C97.1269041,21.6677463 97.222537,21.8169882 97.2012142,21.9739982 C96.843259,24.6437078 97.5074604,26.3946327 99.0723309,26.9044212 C100.77548,27.4936559 102.292534,26.6808749 104.086145,24.2741267 C104.864688,23.2125781 105.862907,21.1515028 106.628551,19.0238854 C106.664051,18.8901388 106.633083,18.7395954 106.529026,18.6039198 C106.376571,18.4049092 106.090311,18.2711684 105.817066,18.2711684 C105.640674,18.2711684 105.399674,18.3254514 105.25361,18.5851767 C104.919592,19.3598614 104.500922,20.2941299 104.039607,21.1327597 C102.642704,23.8069895 101.986288,23.8076461 101.770504,23.8076461 C101.58958,23.8076461 101.42353,23.7275201 101.303378,23.5815027 C101.185086,23.4387099 100.825911,23.0032373 101.243245,20.8375003 C101.597365,18.9489362 103.370874,12.9970246 104.93894,8.09438516 C104.983561,7.95483431 105.113415,7.84369445 105.262035,7.87018814 C106.077413,7.90895259 106.786816,7.90895259 107.168709,7.90895259 C108.02284,7.88440525 110.013469,5.53064445 109.999931,4.55050583 C109.997956,4.41805482 109.972159,4.24748428 109.503058,4.27914307 Z" id="logo"></path>
                </g>
            </g>
        </g>
    </g>
</svg>