<?xml version="1.0" encoding="UTF-8" standalone="no"?>
<svg width="130px" height="90px" viewBox="0 0 130 90" version="1.1" xmlns="http://www.w3.org/2000/svg" xmlns:xlink="http://www.w3.org/1999/xlink" xmlns:sketch="http://www.bohemiancoding.com/sketch/ns">
    <!-- Generator: Sketch Beta 3.3 (11920) - http://www.bohemiancoding.com/sketch -->
    <title>Shape</title>
    <desc>Created with Sketch Beta.</desc>
    <defs></defs>
    <g id="Page-1" stroke="none" stroke-width="1" fill="none" fill-rule="evenodd" sketch:type="MSPage">
        <g id="desktop_wide_04" sketch:type="MSArtboardGroup" transform="translate(-575.000000, -240.000000)" fill="#62CE51">
            <g id="Rectangle-60" sketch:type="MSLayerGroup" transform="translate(350.000000, 239.000000)">
                <path d="M354.364712,10.499179 L305.514946,-38.363711 C305.108526,-38.7660099 304.548843,-39 303.974108,-39 C303.403478,-39 302.83969,-38.7660099 302.434638,-38.3596059 L225.640419,38.4206349 C225.235368,38.8297756 225,39.3908046 225,39.9641489 C225,40.5457033 225.228526,41.0916804 225.640419,41.500821 L274.507975,90.3623426 C274.919869,90.7714833 275.467236,91 276.047445,91 C276.631759,91 277.177757,90.7714833 277.591019,90.3623426 L354.364712,13.5779967 C355.211763,12.728243 355.211763,11.3461959 354.364712,10.499179 L354.364712,10.499179 Z M249.738251,29.3278599 L293.342873,-14.270936 L297.976334,-18.9083196 L297.662967,-12.362069 L295.671919,29.2539683 L295.562446,31.5569239 L293.263505,31.6650246 L251.652667,33.6464149 L245.106158,33.9570334 L249.738251,29.3278599 L249.738251,29.3278599 Z M339.576225,13.8284072 L277.837335,75.5648604 L276.046076,77.3560482 L274.254818,75.5648604 L247.084889,48.3987411 L243.035742,44.3497537 L248.754359,44.0801861 L300.692643,41.5993432 C301.991271,41.5473454 303.172215,41.0218938 304.126002,40.0831965 C305.01821,39.1869184 305.553262,37.9868637 305.609367,36.7197592 L308.07936,-15.2547893 L308.350307,-20.9718117 L312.399454,-16.9269294 L339.574856,10.2474001 L341.364746,12.0344828 L339.576225,13.8284072 L339.576225,13.8284072 Z" id="Shape" sketch:type="MSShapeGroup"></path>
            </g>
        </g>
    </g>
</svg>