<?xml version="1.0" encoding="utf-8"?>
<!-- Generator: Adobe Illustrator 16.0.0, SVG Export Plug-In . SVG Version: 6.00 Build 0)  -->
<!DOCTYPE svg PUBLIC "-//W3C//DTD SVG 1.1//EN" "http://www.w3.org/Graphics/SVG/1.1/DTD/svg11.dtd">
<svg version="1.1" id="Layer_1" xmlns:sketch="http://www.bohemiancoding.com/sketch/ns"
	 xmlns="http://www.w3.org/2000/svg" xmlns:xlink="http://www.w3.org/1999/xlink" x="0px" y="0px" width="35px" height="35px"
	 viewBox="-9 -7 35 35" enable-background="new -9 -7 35 35" xml:space="preserve">
<title>Fill 2</title>
<desc>Created with Sketch Beta.</desc>
<g id="Page-1" sketch:type="MSPage">
	<g id="desktop_wide_01" transform="translate(-1159.000000, -3476.000000)" sketch:type="MSArtboardGroup">
		<g id="Group-4" transform="translate(0.000000, 3459.000000)" sketch:type="MSLayerGroup">
			<g id="social_btns" transform="translate(1015.000000, 10.000000)" sketch:type="MSShapeGroup">
				<g id="pinterest_icon" transform="translate(135.000000, 0.000000)">
					<path id="Fill-2" fill="#FFFFFF" d="M12.716,27.649c-0.113-1.022-0.215-2.591,0.045-3.706c0.234-1.008,1.515-6.422,1.515-6.422
						s-0.386-0.774-0.386-1.918c0-1.796,1.042-3.138,2.338-3.138c1.102,0,1.635,0.828,1.635,1.82c0,1.108-0.706,2.766-1.07,4.302
						c-0.304,1.286,0.645,2.335,1.913,2.335c2.297,0,4.062-2.422,4.062-5.917c0-3.094-2.223-5.256-5.397-5.256
						c-3.676,0-5.834,2.757-5.834,5.607c0,1.11,0.428,2.301,0.961,2.949c0.105,0.127,0.121,0.24,0.089,0.37
						c-0.098,0.408-0.316,1.286-0.358,1.466c-0.056,0.236-0.188,0.286-0.432,0.172c-1.614-0.751-2.623-3.11-2.623-5.005
						c0-4.076,2.961-7.818,8.537-7.818c4.482,0,7.965,3.193,7.965,7.462c0,4.453-2.808,8.036-6.705,8.036
						c-1.309,0-2.54-0.681-2.961-1.483c0,0-0.647,2.467-0.805,3.071c-0.292,1.122-1.079,2.528-1.606,3.387
						C14.808,28.336,7.91,25.767,12.716,27.649z"/>
				</g>
			</g>
		</g>
	</g>
</g>
</svg>
