<?xml version="1.0" encoding="utf-8"?>
<!-- Generator: Adobe Illustrator 16.0.0, SVG Export Plug-In . SVG Version: 6.00 Build 0)  -->
<!DOCTYPE svg PUBLIC "-//W3C//DTD SVG 1.1//EN" "http://www.w3.org/Graphics/SVG/1.1/DTD/svg11.dtd">
<svg version="1.1" id="Layer_1" xmlns:sketch="http://www.bohemiancoding.com/sketch/ns"
	 xmlns="http://www.w3.org/2000/svg" xmlns:xlink="http://www.w3.org/1999/xlink" x="0px" y="0px" width="35px" height="35px"
	 viewBox="-8 -10 35 35" enable-background="new -8 -10 35 35" xml:space="preserve">
<title>Shape 6</title>
<desc>Created with Sketch Beta.</desc>
<g id="Page-1" sketch:type="MSPage">
	<g id="desktop_wide_01" transform="translate(-1069.000000, -3479.000000)" sketch:type="MSArtboardGroup">
		<g id="Group-4" transform="translate(0.000000, 3459.000000)" sketch:type="MSLayerGroup">
			<g id="social_btns" transform="translate(1015.000000, 10.000000)" sketch:type="MSShapeGroup">
				<g id="twitter_icon" transform="translate(45.000000, 0.000000)">
					<path id="Shape-6" fill="#FFFFFF" d="M25.185,12.372c0.763-0.469,1.348-1.211,1.624-2.095
						c-0.714,0.434-1.504,0.749-2.346,0.919C23.789,10.46,22.83,10,21.768,10c-2.039,0-3.693,1.695-3.693,3.787
						c0,0.297,0.032,0.586,0.095,0.863c-3.069-0.158-5.79-1.666-7.611-3.957c-0.318,0.56-0.5,1.21-0.5,1.904
						c0,1.314,0.652,2.473,1.643,3.152c-0.605-0.02-1.175-0.19-1.672-0.474c0,0.016,0,0.032,0,0.048
						c0,1.834,1.273,3.365,2.962,3.713c-0.31,0.087-0.636,0.133-0.973,0.133c-0.238,0-0.469-0.024-0.695-0.068
						c0.47,1.505,1.834,2.6,3.45,2.63c-1.264,1.016-2.856,1.621-4.586,1.621c-0.298,0-0.592-0.018-0.881-0.053
						C10.939,24.373,12.881,25,14.966,25c6.792,0,10.507-5.77,10.507-10.774c0-0.164-0.004-0.327-0.011-0.49
						c0.722-0.534,1.348-1.201,1.842-1.96C26.643,12.077,25.932,12.28,25.185,12.372z"/>
				</g>
			</g>
		</g>
	</g>
</g>
</svg>
