<?xml version="1.0" encoding="utf-8"?>
<!-- Generator: Adobe Illustrator 16.0.0, SVG Export Plug-In . SVG Version: 6.00 Build 0)  -->
<!DOCTYPE svg PUBLIC "-//W3C//DTD SVG 1.0//EN" "http://www.w3.org/TR/2001/REC-SVG-20010904/DTD/svg10.dtd">
<svg version="1.0" id="Layer_1" xmlns:sketch="http://www.bohemiancoding.com/sketch/ns"
	 xmlns="http://www.w3.org/2000/svg" xmlns:xlink="http://www.w3.org/1999/xlink" x="0px" y="0px" width="35px" height="35px"
	 viewBox="0 0 35 35" enable-background="new 0 0 35 35" xml:space="preserve">
<title>Rectangle 350</title>
<desc>Created with Sketch Beta.</desc>
<g id="Page-1" sketch:type="MSPage">
	<path id="desktop_wide_01" transform="translate(-1200.000000, -3478.000000)" sketch:type="MSArtboardGroup" fill="#FFFFFF" d="
		M1228.73,3490.63c-0.23-1.64-1.771-3.02-3.421-3.08c0,0-5.569-0.22-7.83-0.22c-2.25,0-7.82,0.22-7.82,0.22
		c-1.66,0.06-3.18,1.44-3.41,3.08c0,0-0.55,3.64-0.55,4.82c0,1.18,0.55,4.819,0.55,4.819c0.22,1.641,1.75,3.04,3.41,3.12
		c0,0,5.57,0.28,7.82,0.28c2.26,0,7.83-0.28,7.83-0.28c1.66-0.08,3.19-1.479,3.421-3.12c0,0,0.569-3.64,0.569-4.819
		C1229.3,3494.27,1228.73,3490.63,1228.73,3490.63z M1214.98,3498.95v-7l7,3.5L1214.98,3498.95z"/>
</g>
</svg>
