<?xml version="1.0" encoding="UTF-8" standalone="no"?>
<svg width="71px" height="70px" viewBox="0 0 71 70" version="1.1" xmlns="http://www.w3.org/2000/svg" xmlns:xlink="http://www.w3.org/1999/xlink" xmlns:sketch="http://www.bohemiancoding.com/sketch/ns">
    <!-- Generator: Sketch Beta 3.3 (11970) - http://www.bohemiancoding.com/sketch -->
    <title>Slice 1</title>
    <desc>Created with Sketch Beta.</desc>
    <defs></defs>
    <g id="Page-1" stroke="none" stroke-width="1" fill="none" fill-rule="evenodd" sketch:type="MSPage">
        <g id="Rectangle-61" sketch:type="MSLayerGroup" transform="translate(1.000000, 0.000000)" stroke="#FFFFFF" stroke-width="2" stroke-linejoin="round">
            <path d="M11.6142276,33.1226016 C11.6142276,33.1226016 19.927864,39.4738211 30.6369549,38.697561 C30.6369549,38.697561 32.1869549,38.8386992 29.6505913,31.4289431 L31.9755913,33.2637398 C31.9755913,33.2637398 33.4551367,30.3704065 35.5687731,31.358374 L35.6392276,28.676748 C35.6392276,28.676748 38.7392276,32.7697561 40.1483186,32.8403252 C40.1483186,32.8403252 46.7710458,25.7834146 45.8551367,13.4338211 C45.8551367,13.4338211 55.0142276,15.5508943 62.7642276,8 C62.7642276,8 55.2960458,15.4803252 57.7619549,22.043252 C57.7619549,22.043252 48.4619549,24.724878 51.5619549,36.721626 C51.5619549,36.721626 39.0915004,41.3086179 43.1074095,49.9886179 C43.1074095,49.9886179 33.4551367,42.3671545 27.0437731,51.4 C27.0437731,51.4 21.0551367,42.3671545 12.3892276,49.424065 C12.3892276,49.424065 9.2187731,44.4136585 0.764227642,46.6013008 C0.764227642,46.6013008 7.52786401,42.72 11.6142276,33.1226016 Z" id="Shape" sketch:type="MSShapeGroup"></path>
        </g>
    </g>
</svg>