<?xml version="1.0" encoding="UTF-8" standalone="no"?>
<svg width="70px" height="70px" viewBox="0 0 70 70" version="1.1" xmlns="http://www.w3.org/2000/svg" xmlns:xlink="http://www.w3.org/1999/xlink" xmlns:sketch="http://www.bohemiancoding.com/sketch/ns">
    <!-- Generator: Sketch Beta 3.3 (11970) - http://www.bohemiancoding.com/sketch -->
    <title>Slice 1</title>
    <desc>Created with Sketch Beta.</desc>
    <defs></defs>
    <g id="Page-1" stroke="none" stroke-width="1" fill="none" fill-rule="evenodd" sketch:type="MSPage">
        <g id="Rectangle-61" sketch:type="MSLayerGroup" fill="#FFFFFF">
            <g id="Shape-+-Shape-+-Shape" transform="translate(10.000000, 14.000000)" sketch:type="MSShapeGroup">
                <path d="M48.9130435,41.3043478 L1.08695652,41.3043478 C0.489130435,41.3043478 0,40.8152174 0,40.2173913 L0,7.60869565 C0,7.01086957 0.489130435,6.52173913 1.08695652,6.52173913 L48.9130435,6.52173913 C49.5108696,6.52173913 50,7.01086957 50,7.60869565 L50,40.2173913 C50,40.8152174 49.5108696,41.3043478 48.9130435,41.3043478 L48.9130435,41.3043478 Z M2.17391304,39.1304348 L47.826087,39.1304348 L47.826087,8.69565217 L2.17391304,8.69565217 L2.17391304,39.1304348 L2.17391304,39.1304348 Z" id="Shape"></path>
                <path d="M34.7826087,6.52173913 C34.7826087,4.12173913 32.8347826,2.17391304 30.4347826,2.17391304 L19.5652174,2.17391304 C17.1652174,2.17391304 15.2173913,4.12173913 15.2173913,6.52173913 C15.2173913,7.11956522 14.7282609,7.60869565 14.1304348,7.60869565 C13.5326087,7.60869565 13.0434783,7.11956522 13.0434783,6.52173913 C13.0434783,2.92608696 15.9695652,0 19.5652174,0 L30.4347826,0 C34.0304348,0 36.9565217,2.92608696 36.9565217,6.52173913 C36.9565217,7.11956522 36.4673913,7.60869565 35.8695652,7.60869565 C35.2717391,7.60869565 34.7826087,7.11956522 34.7826087,6.52173913 Z" id="Shape"></path>
                <path d="M29.3478261,35.9565217 L20.6521739,35.9565217 C20.0543478,35.9565217 19.5652174,35.4673913 19.5652174,34.8695652 L19.5652174,29.4347826 L14.1304348,29.4347826 C13.5326087,29.4347826 13.0434783,28.9456522 13.0434783,28.3478261 L13.0434783,19.6521739 C13.0434783,19.0543478 13.5326087,18.5652174 14.1304348,18.5652174 L19.5652174,18.5652174 L19.5652174,13.1304348 C19.5652174,12.5326087 20.0543478,12.0434783 20.6521739,12.0434783 L29.3478261,12.0434783 C29.9456522,12.0434783 30.4347826,12.5326087 30.4347826,13.1304348 L30.4347826,18.5652174 L35.8695652,18.5652174 C36.4673913,18.5652174 36.9565217,19.0543478 36.9565217,19.6521739 L36.9565217,28.3478261 C36.9565217,28.9456522 36.4673913,29.4347826 35.8695652,29.4347826 L30.4347826,29.4347826 L30.4347826,34.8695652 C30.4347826,35.4673913 29.9456522,35.9565217 29.3478261,35.9565217 L29.3478261,35.9565217 Z M21.7391304,33.7826087 L28.2608696,33.7826087 L28.2608696,28.3478261 C28.2608696,27.75 28.75,27.2608696 29.3478261,27.2608696 L34.7826087,27.2608696 L34.7826087,20.7391304 L29.3478261,20.7391304 C28.75,20.7391304 28.2608696,20.25 28.2608696,19.6521739 L28.2608696,14.2173913 L21.7391304,14.2173913 L21.7391304,19.6521739 C21.7391304,20.25 21.25,20.7391304 20.6521739,20.7391304 L15.2173913,20.7391304 L15.2173913,27.2608696 L20.6521739,27.2608696 C21.25,27.2608696 21.7391304,27.75 21.7391304,28.3478261 L21.7391304,33.7826087 L21.7391304,33.7826087 Z" id="Shape"></path>
            </g>
        </g>
    </g>
</svg>