<?xml version="1.0" encoding="utf-8"?>
<!-- Generator: Adobe Illustrator 18.0.0, SVG Export Plug-In . SVG Version: 6.00 Build 0)  -->
<!DOCTYPE svg PUBLIC "-//W3C//DTD SVG 1.1//EN" "http://www.w3.org/Graphics/SVG/1.1/DTD/svg11.dtd">
<svg version="1.1" id="Layer_1" xmlns="http://www.w3.org/2000/svg" xmlns:xlink="http://www.w3.org/1999/xlink" x="0px" y="0px"
	 viewBox="0 0 164 164" enable-background="new 0 0 164 164" xml:space="preserve">
<g>
	<g>
		<path fill="#FFFFFF" d="M21.6,117.3c-0.6,0-1.1-0.2-1.5-0.6c-0.5-0.5-0.7-1.3-0.5-2.1L39.7,48c0-0.1,0.1-0.2,0.1-0.3
			c2.7-8.3,9.2-14.5,17.6-16.8c2.2-0.6,4.4-0.9,6.6-0.9c11.5,0,21.6,7.8,24.6,18.8c0.6,2.1,0.9,4.4,0.9,6.7c0,0,0,0.1,0,0.1
			c0,0.4,0.4,11.1-7.9,24c-7.5,11.8-23.9,27.8-59.5,37.4C21.9,117.2,21.7,117.3,21.6,117.3z M43.7,49.5l-19,62.6
			c31.6-9.2,46.4-23.6,53.2-34.3c7.1-11,7.4-20.2,7.4-21.7c0-0.1,0-0.2,0-0.3c0-2-0.2-4-0.7-5.8C82.1,40.8,73.6,34.3,64,34.3
			c-1.9,0-3.7,0.2-5.5,0.7c-7,1.9-12.6,7.2-14.8,14.2C43.7,49.4,43.7,49.4,43.7,49.5z"/>
		<path fill="#FFFFFF" d="M33.7,103.7c-0.6,0-1.1-0.2-1.5-0.6c-0.5-0.5-0.7-1.3-0.5-2.1l8.6-28.5c0-0.1,0-0.1,0.1-0.2
			c1.3-3.9,4.4-6.8,8.3-7.9c1-0.3,2.1-0.4,3.1-0.4c5.5,0,10.3,3.7,11.7,9c0.3,1,0.4,2,0.4,3.1c0,0,0,0,0,0.1
			c0,0.8,0.5,19.3-29.7,27.5C34.1,103.7,33.9,103.7,33.7,103.7z M44.3,73.9l-7.4,24.6c22.2-7.3,22.9-20.5,22.9-22c0-0.1,0-0.1,0-0.2
			c0-0.7-0.1-1.5-0.3-2.2c-0.9-3.4-4.1-5.8-7.6-5.8c-0.7,0-1.4,0.1-2.1,0.3c-2.6,0.7-4.7,2.7-5.5,5.3C44.3,73.8,44.3,73.9,44.3,73.9
			z"/>
		<path fill="#FFFFFF" d="M62.6,62.4L62.6,62.4c-5.2,0-9.8-3.5-11.2-8.6c-0.8-3-0.4-6.1,1.1-8.8c1.5-2.7,4-4.6,7-5.4
			c1-0.3,2-0.4,3-0.4c5.2,0,9.8,3.5,11.2,8.6c1.7,6.2-2,12.5-8.2,14.2C64.6,62.2,63.6,62.4,62.6,62.4z M62.6,43.4
			c-0.6,0-1.3,0.1-1.9,0.3c-1.9,0.5-3.5,1.7-4.5,3.4c-1,1.7-1.2,3.7-0.7,5.6c0.9,3.2,3.8,5.5,7.1,5.5l0,0c0.6,0,1.3-0.1,1.9-0.3
			c3.9-1.1,6.3-5.1,5.2-9C68.9,45.6,65.9,43.4,62.6,43.4z"/>
		<circle fill="#FFFFFF" cx="62.3" cy="50.6" r="3.5"/>
		<path fill="#FFFFFF" d="M87.7,62.8c-1,0-1.8-0.7-2-1.6c-0.3-1.1,0.5-2.3,1.6-2.5c22.2-4.9,43.2-3.4,50.5-2.7
			c-2.3-13-17.6-29.7-42.5-29.7c-21,0-32.5,7.8-32.6,7.9c-1,0.7-2.3,0.4-2.9-0.5c-0.7-1-0.4-2.3,0.5-2.9c0.5-0.4,12.7-8.6,35-8.6
			c29.1,0,46.2,21.4,47,36.2c0,0.6-0.2,1.2-0.7,1.7c-0.5,0.4-1.1,0.6-1.7,0.5c-0.3,0-25.5-3.5-51.7,2.3C88,62.8,87.8,62.8,87.7,62.8
			z"/>
		<path fill="#FFFFFF" d="M119.7,46c-0.4,0-0.7-0.1-1.1-0.3c-16.5-9.8-34.7-3.1-34.8-3.1c-1.1,0.4-2.3-0.1-2.7-1.2
			c-0.4-1.1,0.1-2.3,1.2-2.7c0.8-0.3,20.3-7.5,38.5,3.4c1,0.6,1.3,1.9,0.7,2.9C121.1,45.7,120.4,46,119.7,46z"/>
		<path fill="#FFFFFF" d="M119.1,59.4c-1,0-1.8-0.7-2-1.6c-2.8-12.6,5-24.5,5.4-25c0.6-1,2-1.2,2.9-0.6c1,0.6,1.2,1.9,0.6,2.9
			c-0.1,0.1-7.2,10.9-4.8,21.7c0.3,1.1-0.5,2.3-1.6,2.5C119.4,59.4,119.3,59.4,119.1,59.4z"/>
	</g>
	<path fill="#FFFFFF" d="M16.1,138.3c-0.5,0-1-0.2-1.4-0.5c-0.9-0.8-0.9-2.1-0.2-3c24.5-27.1,70.8-28.5,84.6-28.3l-1.8-3.1
		c-1.1-1.9-1.1-4.1-0.1-6c1.1-1.9,3-3,5.2-3c1.9,0,3.8,0.9,4.9,2.5l7.1,10l37.7,2c1.2,0.1,2,1.1,2,2.2c-0.1,1.2-1,2-2.2,2l-38.7-2.1
		c-0.6,0-1.2-0.4-1.6-0.9l-7.7-10.9c-0.3-0.5-0.9-0.8-1.5-0.8c-0.9,0-1.4,0.6-1.5,0.9c-0.2,0.3-0.5,1,0,1.8l3.8,6.4
		c0.4,0.7,0.4,1.5,0,2.2c-0.4,0.7-1.1,1-1.9,1c-0.6,0-58.1-3.1-85.1,26.8C17.2,138.1,16.7,138.3,16.1,138.3z"/>
	<path fill="#FFFFFF" d="M22.7,144.3c-0.5,0-1.1-0.2-1.5-0.6c-0.8-0.8-0.8-2.2,0-3c22.6-22.6,51.7-23.6,52.9-23.6
		c1,0,1.9,0.6,2.1,1.6c0.2,1-0.2,1.9-1.1,2.4c-3.4,1.7-6.5,5.5-8.5,8.5c-0.4,0.5-0.5,1.2-0.3,1.9c0.2,0.6,0.7,1.1,1.3,1.4
		c0.9,0.4,2,0,2.7-0.9c12.2-17.5,35.2-16.6,36.1-16.6l45.7,2c1.2,0.1,2.1,1,2,2.2c-0.1,1.2-1,2.1-2.2,2l-45.7-2
		c-0.2,0-21.6-0.8-32.5,14.8c-1.8,2.5-4.9,3.5-7.7,2.4c-1.8-0.7-3.2-2.2-3.7-4.1c-0.6-1.9-0.3-3.8,0.8-5.4c1.1-1.6,2.4-3.4,4-5.1
		c-9.8,1.7-28.1,6.7-43,21.6C23.8,144.1,23.2,144.3,22.7,144.3z"/>
	<path fill="#FFFFFF" d="M49,126.4c-0.1,0-0.2,0-0.4,0c-1.1-0.2-1.9-1.3-1.7-2.4c0.7-4-2.6-5.6-2.8-5.6c-0.8-0.3-1.3-1.1-1.3-1.9
		v-9.5c0-1.2,0.9-2.1,2.1-2.1s2.1,0.9,2.1,2.1v8.3c2.2,1.5,4.8,4.7,4,9.5C50.9,125.7,50,126.4,49,126.4z"/>
	<path fill="#FFFFFF" d="M42.6,128c-0.9,0-1.7-0.6-2-1.5c-2.1-6.7,2.7-11.4,2.9-11.6c0.3-0.3,0.6-0.5,1-0.5c4-0.9,12-0.6,14.3,6.9
		c0.3,1.1-0.3,2.3-1.4,2.6c-1.1,0.3-2.3-0.3-2.6-1.4c-1.4-4.8-6.9-4.4-8.7-4.1c-0.8,1-2.5,3.6-1.5,6.9c0.4,1.1-0.3,2.3-1.4,2.6
		C43,127.9,42.8,128,42.6,128z"/>
	<path fill="#FFFFFF" d="M69.2,121.5c-1,0-1.9-0.7-2.1-1.7c-1.3-6.3-6.8-5.9-7.1-5.9c-0.6,0-1.2-0.2-1.6-0.6c-0.4-0.4-0.7-1-0.7-1.5
		v-13c0-1.2,0.9-2.1,2.1-2.1s2.1,0.9,2.1,2.1v11c3.4,0.5,7.9,2.8,9.2,9.2c0.2,1.1-0.5,2.2-1.6,2.5C69.4,121.5,69.3,121.5,69.2,121.5
		z"/>
	<path fill="#FFFFFF" d="M61.5,122.8c0,0-0.1,0-0.1,0c-1.2-0.1-2-1.1-2-2.2c0.3-4.9-1.3-7.7-1.3-7.7c-0.6-1-0.3-2.3,0.7-2.9
		c1-0.6,2.3-0.3,2.9,0.7c0.1,0.2,2.3,3.9,1.9,10.1C63.5,121.9,62.6,122.8,61.5,122.8z"/>
</g>
</svg>
