<?xml version="1.0" encoding="utf-8"?>
<!-- Generator: Adobe Illustrator 18.0.0, SVG Export Plug-In . SVG Version: 6.00 Build 0)  -->
<!DOCTYPE svg PUBLIC "-//W3C//DTD SVG 1.1//EN" "http://www.w3.org/Graphics/SVG/1.1/DTD/svg11.dtd">
<svg version="1.1" id="Layer_1" xmlns="http://www.w3.org/2000/svg" xmlns:xlink="http://www.w3.org/1999/xlink" x="0px" y="0px"
	 viewBox="0 0 164 164" enable-background="new 0 0 164 164" xml:space="preserve">
<g>
	<g>
		<path fill="#FFFFFF" d="M91.3,38.3c-4.8,0-9.8-0.6-14.9-2.1c-5.1-1.5-10.4-3.7-15.6-5.8c-17.3-7-35.1-14.2-52.3-1.6
			c-0.9,0.7-2.2,0.5-2.9-0.5c-0.7-0.9-0.5-2.2,0.5-2.9c19.1-14,38.9-6,56.4,1.1c5.3,2.1,10.3,4.2,15.2,5.6c20.9,6.2,41.7-4.9,41.9-5
			c18.1-8.9,28.9-8.6,38.7,1.2c0.8,0.8,0.8,2.1,0,3c-0.8,0.8-2.1,0.8-3,0c-7.1-7.1-15.2-9.6-33.8-0.4
			C120.8,31.3,107.7,38.3,91.3,38.3z"/>
	</g>
	<g>
		<g>
			<path fill="#FFFFFF" d="M149.4,131.8h-15.2c-5.7,0-11.2-2.1-15.3-6.1l-6.6-6.2c-2.4-2.3-5.6-3.5-8.9-3.5h-8.8
				c-8.9,0-17.5,1.6-25.4,4.8c-5.6,2.3-14.4,5.3-26,5.3h-7.6c-3.7,0-6.8-3-6.8-6.8s3-6.8,6.8-6.8h4.2c10.3,0,18.3-2.3,26-6
				c-14.1,0-22.4-5.7-32.6-16.1c-1.4-1.4-2.2-3.3-2.1-5.4c0.1-2,0.9-3.9,2.4-5.2c1.4-1.2,3.1-1.9,4.9-1.9c2,0,4,0.8,5.4,2.3
				c7.2,7.7,11.5,11.7,21.5,11.7h50.5c5.4,0,9.8,4.4,9.8,9.8v5.2c0,1.9,0.7,3.7,2,5.1c3.4,3.7,8.3,5.7,13.3,5.7h8.6c3.9,0,7,3.2,7,7
				S153.3,131.8,149.4,131.8z M94.6,111.9h8.8c4.4,0,8.5,1.6,11.7,4.6l6.6,6.2c3.4,3.2,7.8,4.9,12.5,4.9h15.2c1.6,0,2.8-1.3,2.8-2.8
				s-1.3-2.8-2.8-2.8h-8.6c-6.2,0-12.1-2.6-16.3-7.1c-2-2.2-3.1-5-3.1-7.9v-5.2c0-3.1-2.5-5.6-5.6-5.6H65.2
				c-11.7,0-16.9-4.9-24.5-13c-1.1-1.2-3.2-1.3-4.4-0.2c-0.6,0.6-1,1.4-1,2.2c0,0.9,0.3,1.7,0.9,2.3c9.7,9.9,16.9,14.9,29.8,14.9H74
				c0.9,0,1.8,0.6,2,1.5c0.2,0.9-0.1,1.9-1,2.4c-10.7,6.3-20.8,10.5-35.3,10.5h-4.2c-1.4,0-2.6,1.1-2.6,2.6s1.1,2.6,2.6,2.6h7.6
				c10.8,0,19.1-2.8,24.4-5C76,113.6,85.1,111.9,94.6,111.9z"/>
			<path fill="#FFFFFF" d="M116.9,90.1H83.1c-4.9,0-8.8-4-8.8-8.8s4-8.8,8.8-8.8h33.8c4.9,0,8.8,4,8.8,8.8S121.7,90.1,116.9,90.1z
				 M83.1,76.6c-2.6,0-4.6,2.1-4.6,4.6s2.1,4.6,4.6,4.6h33.8c2.6,0,4.6-2.1,4.6-4.6s-2.1-4.6-4.6-4.6H83.1z"/>
			<path fill="#FFFFFF" d="M134.4,115.3c-7.1,0-12.9-5.8-12.9-12.9s5.8-12.9,12.9-12.9c7.1,0,12.9,5.8,12.9,12.9
				S141.5,115.3,134.4,115.3z M134.4,93.7c-4.8,0-8.7,3.9-8.7,8.7c0,4.8,3.9,8.7,8.7,8.7s8.7-3.9,8.7-8.7
				C143.1,97.6,139.2,93.7,134.4,93.7z"/>
			<path fill="#FFFFFF" d="M145,106.6c-1.2,0-2.1-0.9-2.1-2.1s0.9-2.1,2.1-2.1c1.9,0,3.5-1.6,3.5-3.5V77.8c0-1.2,0.9-2.1,2.1-2.1
				s2.1,0.9,2.1,2.1v21.1C152.7,103.1,149.2,106.6,145,106.6z"/>
			<path fill="#FFFFFF" d="M146,71.4c-2.9,0-5.3-2.4-5.3-5.3c0-2.9,2.4-5.3,5.3-5.3s5.3,2.4,5.3,5.3C151.3,69.1,148.9,71.4,146,71.4
				z M146,65c-0.6,0-1.1,0.5-1.1,1.1c0,0.6,0.5,1.1,1.1,1.1s1.1-0.5,1.1-1.1C147.1,65.5,146.6,65,146,65z"/>
			<path fill="#FFFFFF" d="M132.7,63.7c-4.4,0-8-3.6-8-8s3.6-8,8-8s8,3.6,8,8S137.1,63.7,132.7,63.7z M132.7,51.8
				c-2.1,0-3.8,1.7-3.8,3.8c0,2.1,1.7,3.8,3.8,3.8s3.8-1.7,3.8-3.8C136.5,53.5,134.8,51.8,132.7,51.8z"/>
			<path fill="#FFFFFF" d="M131.2,94.2c-1.2,0-2.1-0.9-2.1-2.1v-3.2c0-3-2.5-5.5-5.5-5.5c-1.2,0-2.1-0.9-2.1-2.1s0.9-2.1,2.1-2.1
				c5.4,0,9.7,4.4,9.7,9.7v3.2C133.3,93.3,132.4,94.2,131.2,94.2z"/>
		</g>
		<path fill="#FFFFFF" d="M33.9,90.1c-0.5,0-1-0.2-1.5-0.6C32,89.1,21.8,79.1,15.9,65.3c-0.4-0.8-0.1-1.8,0.6-2.4
			c0.3-0.3,7.5-6.2,17.9-7.8c0.6-0.1,1.2,0.1,1.6,0.5c0.5,0.4,0.7,0.9,0.8,1.5c0,0.1,0.6,14.5,7.1,23.3c0.7,0.9,0.5,2.2-0.5,2.9
			c-0.9,0.7-2.2,0.5-2.9-0.5c-5.6-7.6-7.3-18.4-7.7-23.2c-5.8,1.3-10.3,4-12.4,5.5c5.6,12.3,14.8,21.2,14.9,21.3
			c0.8,0.8,0.9,2.1,0.1,3C35,89.9,34.5,90.1,33.9,90.1z"/>
		<path fill="#FFFFFF" d="M38.2,126.1H9c-1,0-1.9-0.7-2.1-1.7c-0.1-0.4-1.7-9.4,2.6-18.5c0.2-0.5,0.7-0.9,1.2-1.1s1.1-0.1,1.6,0.1
			c0.1,0.1,15,7.6,28.1,7.6c1.2,0,2.1,0.9,2.1,2.1s-0.9,2.1-2.1,2.1c-11.3,0-23.3-4.9-28-7.1c-1.9,5-1.8,9.8-1.7,12.2h27.4
			c1.2,0,2.1,0.9,2.1,2.1S39.4,126.1,38.2,126.1z"/>
	</g>
</g>
</svg>
