<?xml version="1.0" encoding="UTF-8" standalone="no"?>
<svg width="70px" height="70px" viewBox="0 0 70 70" version="1.1" xmlns="http://www.w3.org/2000/svg" xmlns:xlink="http://www.w3.org/1999/xlink" xmlns:sketch="http://www.bohemiancoding.com/sketch/ns">
    <!-- Generator: Sketch Beta 3.3 (11970) - http://www.bohemiancoding.com/sketch -->
    <title>Slice 1</title>
    <desc>Created with Sketch Beta.</desc>
    <defs></defs>
    <g id="Page-1" stroke="none" stroke-width="1" fill="none" fill-rule="evenodd" sketch:type="MSPage">
        <g id="Rectangle-61" sketch:type="MSLayerGroup" fill="#FFFFFF">
            <g id="Group" transform="translate(0.000000, 26.000000)" sketch:type="MSShapeGroup">
                <path id="Shape" d="M38.3223077,16.2631667 C38.3146154,16.2818963 38.3438462,16.2642072 38.4446154,16.1445455 C38.4384615,16.1487076 38.4330769,16.1528698 38.4269231,16.1580724 C38.3930769,16.1924102 38.3576923,16.2277884 38.3223077,16.2631667 L38.3223077,16.2631667 Z"></path>
                <path d="M69.9561538,17.0472727 C69.3261538,15.2727273 68.3953846,13.5790909 67.4061538,12.0545455 C66.5176923,10.6854545 65.5046154,9.43 64.3723077,8.34 C62.0984615,6.15090909 59.4007692,4.69363636 56.5638462,3.85545455 C55.6361538,3.58181818 54.6984615,3.36727273 53.7538462,3.19636364 C53.2923077,2.91727273 52.8207692,2.66 52.3415385,2.42454545 C50.2276923,1.38545455 48.0123077,0.900909091 45.7361538,0.71 C43.5530769,0.526363636 41.3292308,0.588181818 39.1838462,1.14181818 C36.4484615,1.84818182 34.0469231,3.49454545 32.2369231,5.89090909 C32.2115385,5.80545455 32.1461538,5.74 32.0261538,5.71454545 C30.3453846,5.36363636 28.5353846,5.82909091 27.2446154,7.19545455 C26.0269231,8.48454545 25.3769231,10.3054545 25.2015385,12.2 C24.8561538,15.9445455 26.4753846,20.0745455 29.3976923,21.7663636 C30.27,22.2709091 31.2338462,22.5463636 32.2023077,22.59 C31.0615385,22.8972727 29.8969231,22.9018182 28.7053846,22.5718182 C27.2215385,22.1609091 25.5115385,21.1318182 24.8869231,19.3845455 C24.4930769,18.2818182 24.63,17.0681818 25.0161538,15.9909091 C25.2615385,15.3063636 24.4861538,15.3945455 24.29,15.8718182 C23.4146154,18.0054545 23.4930769,20.4145455 24.9746154,22.1409091 C26.4030769,23.8054545 28.5730769,24.42 30.5269231,24.3636364 C31.6430769,24.3318182 32.8492308,24.0445455 33.78,23.2818182 C34.0076923,23.0954545 34.2669231,22.7954545 34.2515385,22.44 C34.8746154,22.3081818 35.4761538,22.0827273 35.9792308,21.7190909 C36.2569231,21.5181818 36.5569231,21.1263636 36.5369231,20.7081818 C36.5346154,20.6645455 36.5292308,20.6236364 36.5207692,20.5845455 C36.6876923,20.3709091 36.8023077,20.0936364 36.8646154,19.7790909 C36.8107692,20.0527273 36.89,19.6836364 36.8961538,19.6554545 C36.9284615,19.51 36.9661538,19.3418182 36.9907692,19.1863636 C37.0215385,18.9990909 37.0461538,18.81 37.0769231,18.6227273 C37.09,18.5427273 37.1038462,18.4618182 37.1169231,18.3818182 C37.1230769,18.3527273 37.13,18.3236364 37.1353846,18.3036364 C37.1869231,18.1236364 37.2338462,17.9427273 37.2953846,17.7663636 C37.3446154,17.6263636 37.5307692,17.2390909 37.3623077,17.5690909 C37.4338462,17.4290909 37.5015385,17.2881818 37.5792308,17.1536364 C37.6561538,17.0218182 37.7476923,16.9018182 37.8246154,16.77 C37.8261538,16.7681818 37.8261538,16.7663636 37.8276923,16.7645455 C37.8792308,16.7063636 37.9276923,16.6436364 37.98,16.5863636 C38.0769231,16.4781818 38.1784615,16.3754545 38.2830769,16.2781818 C38.2946154,16.2672727 38.3076923,16.2572727 38.32,16.2472727 C38.3261538,16.2336364 38.3569231,16.2 38.3923077,16.1763636 C38.4030769,16.1690909 38.4138462,16.1618182 38.4246154,16.1554545 C38.4415385,16.14 38.4592308,16.1263636 38.4746154,16.1090909 C38.4630769,16.1218182 38.4523077,16.1327273 38.4415385,16.1436364 C38.6846154,15.9845455 38.9223077,15.8318182 39.1776923,15.6963636 C39.2115385,15.6781818 39.2338462,15.6654545 39.2515385,15.6554545 C39.2707692,15.65 39.2953846,15.6418182 39.3323077,15.63 C39.4638462,15.5863636 39.5946154,15.5390909 39.7276923,15.5018182 C39.8615385,15.4645455 39.9969231,15.4327273 40.1323077,15.4063636 C40.2138462,15.39 40.2969231,15.3809091 40.3784615,15.3645455 C40.3815385,15.3636364 40.3830769,15.3636364 40.3861538,15.3627273 L40.4023077,15.3627273 C40.6830769,15.3581818 40.96,15.3381818 41.2415385,15.3581818 C41.3823077,15.3681818 41.5215385,15.3927273 41.6623077,15.4045455 C41.6723077,15.4054545 41.6792308,15.4054545 41.6876923,15.4063636 C41.6923077,15.4072727 41.6953846,15.4081818 41.7007692,15.41 C41.7838462,15.4309091 41.8676923,15.4472727 41.9507692,15.4681818 C42.2276923,15.54 42.5007692,15.6327273 42.7676923,15.7472727 C42.8207692,15.77 43.0707692,15.8954545 43.0638462,15.8863636 C43.1869231,15.9563636 43.3092308,16.03 43.4284615,16.11 C43.6776923,16.2781818 43.91,16.4727273 44.1384615,16.6763636 C44.1846154,16.7181818 44.3907692,16.95 44.1753846,16.7081818 C44.2169231,16.7554545 44.2623077,16.7981818 44.3023077,16.8472727 C44.4253846,16.9945455 44.5484615,17.1390909 44.6630769,17.2954545 C44.7592308,17.4272727 44.8484615,17.5654545 44.9369231,17.7045455 C44.9392308,17.7081818 44.9761538,17.7718182 45.0053846,17.82 C45.0330769,17.8718182 45.0684615,17.9381818 45.0707692,17.9418182 C45.24,18.2954545 45.3815385,18.66 45.5007692,19.0409091 C45.5,19.0372727 45.5276923,19.1381818 45.5469231,19.2036364 C45.5623077,19.2718182 45.5892308,19.3836364 45.5884615,19.3781818 C45.6292308,19.5727273 45.6623077,19.77 45.6892308,19.9681818 C45.7584615,20.4754545 45.7915385,20.9954545 45.7846154,21.5081818 C45.7746154,22.3045455 45.6961538,23.0518182 45.5430769,23.7763636 C43.5653846,25.6109091 41.3376923,26.8018182 38.8738462,27.4154545 C36.3215385,28.0509091 33.7376923,28.1790909 31.1376923,28.2172727 C24.9207692,28.3090909 18.7184615,27.8345455 12.5069231,27.6463636 C8.77076923,27.5336364 4.98230769,27.4836364 1.26461538,27.9863636 C0.580769231,28.0790909 0.601538462,29.4536364 1.31846154,29.4318182 C4.68846154,29.3290909 8.04769231,29.2945455 11.4176923,29.4509091 C14.7930769,29.6072727 18.1653846,29.8490909 21.5415385,30.0018182 C24.5407692,30.1372727 27.5446154,30.2027273 30.5461538,30.1763636 C31.6830769,30.1663636 32.83,30.1263636 33.9738462,30.0318182 C28.7307692,31.3636364 23.3615385,32.0509091 18.0115385,32.6172727 C16.1915385,32.81 14.3730769,33.0190909 12.5515385,33.1818182 C12.0384615,33.2281818 11.6969231,34.2745455 12.3676923,34.2736364 C16.8046154,34.2654545 21.2246154,33.9590909 25.6330769,33.3627273 C28.8653846,32.9263636 32.0892308,32.36 35.2646154,31.5136364 C38.0438462,30.7736364 40.8676923,29.85 43.3976923,28.2654545 C43.4223077,28.25 43.4469231,28.2336364 43.4715385,28.2181818 C43.1115385,28.6918182 42.7207692,29.14 42.3061538,29.5654545 C39.9284615,32.0036364 36.9907692,33.4881818 34.0184615,34.78 C32.2623077,35.5436364 30.3307692,36.2345455 28.4523077,36.7518182 C27.6607692,36.97 26.7069231,37.1890909 25.9869231,37.2763636 C25.6130769,37.3218182 25.2353846,37.3427273 24.86,37.3354545 C24.5915385,37.33 24.3438462,37.2945455 24.0876923,37.4363636 C23.9684615,37.5027273 23.8561538,37.5936364 23.7369231,37.6618182 C23.4169231,37.8463636 23.2723077,38.3690909 23.5153846,38.7054545 C23.7915385,39.0881818 24.0569231,39.2972727 24.4938462,39.3445455 C24.8569231,39.3845455 25.2230769,39.3854545 25.5876923,39.3709091 C26.4615385,39.3354545 27.3346154,39.2072727 28.1961538,39.0363636 C30.1146154,38.6572727 31.9992308,38.0227273 33.8461538,37.31 C37.2869231,35.9809091 40.6507692,34.3963636 43.4723077,31.6481818 C45.11,30.0527273 46.5115385,28.0654545 47.3192308,25.7290909 C48.0792308,23.53 48.3484615,20.8490909 47.8276923,18.5336364 C47.0230769,14.9536364 44.2769231,12.6209091 41.1738462,12.5363636 C40.17,12.5090909 39.16,12.7209091 38.2361538,13.1736364 C38.3223077,13.0881818 38.4084615,13.0027273 38.4976923,12.92 C38.5246154,12.8945455 38.5530769,12.8709091 38.5807692,12.8472727 C38.6046154,12.83 38.7238462,12.7318182 38.74,12.7190909 C38.85,12.6336364 38.9607692,12.5518182 39.0730769,12.4709091 C39.3576923,12.2672727 39.6492308,12.08 39.9484615,11.9090909 C39.9361538,11.9163636 40.0453846,11.8563636 40.1007692,11.8254545 C40.1576923,11.7972727 40.2692308,11.74 40.2561538,11.7463636 C40.3969231,11.6772727 40.5392308,11.6118182 40.6823077,11.5490909 C41.0023077,11.4090909 41.3276923,11.2854545 41.6561538,11.1772727 C42.2769231,10.9736364 42.7969231,10.8572727 43.4923077,10.7645455 C44.7546154,10.5963636 45.94,10.6245455 47.1915385,10.8927273 C49.6,11.4081818 51.58,13.0590909 52.8230769,15.5945455 C54.1807692,18.3645455 54.4215385,21.7072727 53.7546154,24.7781818 C52.82,29.08 50.2069231,32.5727273 47.0715385,34.89 C46.6930769,35.17 46.8061538,35.8781818 47.2769231,35.56 C50.4561538,33.41 53.1753846,30.1881818 54.5069231,26.1009091 C55.5938462,22.7645455 55.7684615,18.9727273 54.6253846,15.6190909 C53.5592308,12.4909091 51.4930769,10.1045455 48.7523077,9.14090909 C46.0361538,8.18636364 42.9230769,8.45818182 40.2969231,9.67545455 C38.6830769,10.4227273 37.2192308,11.5418182 36.0846154,13.1036364 C35.0215385,14.5681818 34.1784615,16.5981818 34.3753846,18.5636364 C34.4,18.8090909 34.4761538,18.9654545 34.5823077,19.0554545 C34.5815385,19.2263636 34.59,19.3972727 34.6061538,19.5663636 C33.4123077,18.8363636 32.3953846,17.7009091 31.8123077,16.2554545 C31.0015385,14.2472727 31.0423077,12.0681818 31.8938462,10.0845455 C33.3284615,6.74363636 35.66,4.42727273 38.7023077,3.45909091 C40.5546154,2.87 42.4823077,2.75 44.3915385,2.83636364 C46.4576923,2.93 48.4892308,3.25 50.4515385,4.04363636 C53.9607692,5.46272727 57.1792308,8.32545455 59.11,12.0981818 C60.1453846,14.1218182 60.82,16.38 60.9915385,18.74 C61.0746154,19.8890909 61.0292308,21.0290909 60.8669231,22.1681818 C60.6884615,23.4245455 60.3146154,24.6072727 60.0146154,25.8272727 C59.8938462,26.32 59.9576923,26.8590909 60.4061538,27.0781818 C60.8146154,27.2772727 61.3569231,27.0772727 61.5953846,26.6227273 C62.7630769,24.3990909 63.1261538,21.61 63.0538462,19.0245455 C62.9876923,16.6854545 62.45,14.3454545 61.5638462,12.2554545 C60.49,9.72090909 58.9507692,7.54090909 57.1146154,5.77545455 C57.8246154,6.08 58.5230769,6.42272727 59.2061538,6.80909091 C61.7130769,8.22818182 63.9207692,10.2754545 65.6661538,12.8336364 C66.7769231,14.4627273 67.5946154,16.2527273 68.4630769,18.0636364 C68.9038462,18.9790909 70.2584615,17.8990909 69.9561538,17.0472727 L69.9561538,17.0472727 Z M37.1107692,18.4281818 C37.0984615,18.4936364 37.1015385,18.4727273 37.1107692,18.4281818 L37.1107692,18.4281818 L37.1107692,18.4281818 Z M30.5853846,8.63 C29.3853846,11.1590909 28.9030769,14.1727273 29.9853846,16.8963636 C30.6530769,18.5763636 31.7676923,19.89 33.1138462,20.7372727 C32.4607692,20.75 31.6184615,20.5972727 31.0153846,20.3318182 C29.6353846,19.7245455 28.5953846,18.6209091 27.8115385,17.1418182 C27.1130769,15.8236364 26.7161538,14.1345455 26.6769231,12.5636364 C26.6561538,11.7218182 26.7053846,11.1327273 26.8992308,10.3245455 C27,9.90454545 27.0238462,9.82363636 27.1907692,9.41909091 C27.3715385,8.98181818 27.4015385,8.92727273 27.6253846,8.58727273 C27.9792308,8.05090909 28.5038462,7.54818182 29.0723077,7.24727273 C29.8876923,6.81636364 30.8092308,6.69181818 31.6946154,6.65909091 C31.2876923,7.27454545 30.9161538,7.93181818 30.5853846,8.63 L30.5853846,8.63 Z" id="Shape"></path>
            </g>
        </g>
    </g>
</svg>