<?xml version="1.0" encoding="UTF-8" standalone="no"?>
<svg width="70px" height="70px" viewBox="0 0 70 70" version="1.1" xmlns="http://www.w3.org/2000/svg" xmlns:xlink="http://www.w3.org/1999/xlink" xmlns:sketch="http://www.bohemiancoding.com/sketch/ns">
    <!-- Generator: Sketch Beta 3.3 (11970) - http://www.bohemiancoding.com/sketch -->
    <title>Slice 1</title>
    <desc>Created with Sketch Beta.</desc>
    <defs></defs>
    <g id="Page-1" stroke="none" stroke-width="1" fill="none" fill-rule="evenodd" sketch:type="MSPage">
        <g id="Rectangle-61" sketch:type="MSLayerGroup" fill="#FFFFFF">
            <path d="M44.652929,18.5083613 C44.3198839,18.1746323 43.7789419,18.1746323 43.4438452,18.5083613 L17.7986839,44.1535226 C17.6386581,44.3149161 17.5483871,44.5317032 17.5483871,44.7580645 L17.5483871,51.242529 L9.25029677,59.5406194 C8.91656774,59.8736645 8.91656774,60.4146065 9.25029677,60.7497032 C9.41716129,60.9165677 9.636,61 9.85483871,61 C10.0736774,61 10.2925161,60.9165677 10.4593806,60.7497032 L18.757471,52.4516129 L25.2419355,52.4516129 C25.4689806,52.4516129 25.6857677,52.3613419 25.8464774,52.2013161 L51.4916387,26.5561548 C51.8253677,26.2224258 51.8253677,25.6814839 51.4916387,25.347071 L44.652929,18.5083613 L44.652929,18.5083613 Z M44.8457806,30.7838452 C44.8040645,30.6723742 44.7432,30.5663742 44.652929,30.4761032 L42.9432516,28.7664258 C42.6102065,28.4326968 42.0692645,28.4326968 41.7341677,28.7664258 C41.3997548,29.1001548 41.4004387,29.6410968 41.7341677,29.9755097 L43.4438452,31.6851871 C43.5341161,31.7754581 43.6394323,31.8370065 43.7515871,31.8780387 L41.4264258,34.2032 C41.3847097,34.091729 41.3238452,33.985729 41.2335742,33.8954581 L39.5238968,32.1857806 C39.1908516,31.8520516 38.6499097,31.8520516 38.3148129,32.1857806 C37.9804,32.5195097 37.9810839,33.0604516 38.3148129,33.3948645 L40.0244903,35.1045419 C40.1147613,35.1948129 40.2200774,35.2563613 40.3322323,35.2973935 L38.007071,37.6225548 C37.9653548,37.5104 37.9044903,37.4050839 37.8142194,37.3148129 L36.1045419,35.6051355 C35.7708129,35.2714065 35.229871,35.2714065 34.8954581,35.6051355 C34.5610452,35.9381806 34.561729,36.4791226 34.8954581,36.8142194 L36.6051355,38.5238968 C36.6954065,38.6141677 36.8007226,38.6757161 36.9128774,38.7167484 L34.5877161,41.0419097 C34.546,40.9297548 34.4851355,40.8244387 34.3948645,40.7341677 L32.6851871,39.0244903 C32.3514581,38.6907613 31.8105161,38.6907613 31.4761032,39.0244903 C31.1416903,39.3575355 31.1423742,39.8984774 31.4761032,40.2335742 L33.1857806,41.9432516 C33.2760516,42.0335226 33.3820516,42.095071 33.4942065,42.1361032 L31.1683613,44.4612645 C31.1266452,44.3491097 31.0657806,44.2437935 30.9755097,44.1535226 L29.2658323,42.4438452 C28.9321032,42.1101161 28.3911613,42.1101161 28.0567484,42.4438452 C27.7223355,42.7768903 27.7230194,43.3178323 28.0567484,43.652929 L29.7664258,45.3626065 C29.8566968,45.4528774 29.9626968,45.5144258 30.0748516,45.5554581 L24.8883742,50.7419355 L19.2580645,50.7419355 L19.2580645,45.1123097 L44.0483871,20.3219871 L49.6780129,25.9516129 L44.8457806,30.7838452 L44.8457806,30.7838452 Z M54.9109935,11.6696516 C54.5779484,11.3359226 54.0370065,11.3359226 53.7019097,11.6696516 L50.2825548,15.0890065 C49.9488258,15.4227355 49.9488258,15.9636774 50.2825548,16.2980903 L53.7019097,19.7174452 C53.8680903,19.8843097 54.086929,19.9677419 54.3064516,19.9677419 C54.5259742,19.9677419 54.7448129,19.8843097 54.9109935,19.7174452 L58.3303484,16.2980903 C58.6640774,15.9643613 58.6640774,15.4234194 58.3303484,15.0890065 L54.9109935,11.6696516 L54.9109935,11.6696516 Z M46.3626065,15.0890065 C46.0295613,14.7552774 45.4886194,14.7552774 45.1535226,15.0890065 C44.8191097,15.4227355 44.8197935,15.9636774 45.1535226,16.2980903 L53.7019097,24.8464774 C53.8680903,25.0133419 54.086929,25.0967742 54.3064516,25.0967742 C54.5259742,25.0967742 54.7448129,25.0133419 54.9109935,24.8464774 C55.2447226,24.5127484 55.2447226,23.9718065 54.9109935,23.6373935 L46.3626065,15.0890065 L46.3626065,15.0890065 Z M61.7497032,13.379329 L56.620671,8.25029677 C56.2876258,7.91656774 55.7466839,7.91656774 55.4115871,8.25029677 C55.0771742,8.58402581 55.0778581,9.12496774 55.4115871,9.45938065 L60.5406194,14.5884129 C60.7068,14.7552774 60.9256387,14.8387097 61.1451613,14.8387097 C61.3646839,14.8387097 61.5835226,14.7552774 61.7497032,14.5884129 C62.0834323,14.2546839 62.0834323,13.7130581 61.7497032,13.379329 L61.7497032,13.379329 Z" id="Shape" sketch:type="MSShapeGroup" transform="translate(35.500000, 34.500000) scale(-1, 1) translate(-35.500000, -34.500000) "></path>
        </g>
    </g>
</svg>