<?xml version="1.0" encoding="utf-8"?>
<!-- Generator: Adobe Illustrator 18.0.0, SVG Export Plug-In . SVG Version: 6.00 Build 0)  -->
<!DOCTYPE svg PUBLIC "-//W3C//DTD SVG 1.1//EN" "http://www.w3.org/Graphics/SVG/1.1/DTD/svg11.dtd">
<svg version="1.1" id="Layer_1" xmlns="http://www.w3.org/2000/svg" xmlns:xlink="http://www.w3.org/1999/xlink" x="0px" y="0px"
	 viewBox="0 0 164 164" enable-background="new 0 0 164 164" xml:space="preserve">
<g>
	<path fill="#FFFFFF" d="M93.4,128.1c-2.8,0-5.6-0.2-8.6-0.5c-1.5-0.2-2.5-1.5-2.4-2.9c0.2-1.5,1.5-2.5,2.9-2.4
		c17,1.8,31.2-2,41.1-10.9c9.7-8.7,15.1-22,15.3-37.5H62.8c-7.8,0-14.1-6.3-14.1-14.2c0-1.5,1.2-2.7,2.6-2.7h0.6
		c8.7,0,15.8-7.1,15.8-15.8v-3.1c-5.8,1.4-13.5,1-14.5,0.9c-2.6-0.2-4.9,1.5-5.7,4.2l-1.2,3.9c-0.3,1.1-1.3,1.8-2.5,1.9
		c-1.1,0-2.2-0.7-2.6-1.7l-1.8-4.9c-0.9-2.4-2.3-3.1-6.1-3.1c-3.8,0-7.5-0.5-11-1.3v3.3c0,8.7,7.1,15.8,15.8,15.8
		c0.4,0,0.7,0.1,1,0.2l0.3,0.1c1.2,0.5,1.9,1.8,1.5,3.1c-1,4.1-1.6,8.3-1.6,12.6c0,17.2,8.4,33,22.4,42.4c1.2,0.8,1.5,2.5,0.7,3.7
		c-0.8,1.2-2.5,1.5-3.7,0.7C43.2,109.5,34,92,34,73.1c0-3.7,0.4-7.3,1.1-10.9c-10.3-1.4-18.2-10.2-18.2-20.9v-6.8
		c0-0.8,0.4-1.6,1.1-2.1c0.7-0.5,1.6-0.6,2.4-0.4l0.8,0.3c3.7,1.2,7.8,1.8,12,1.8c2.4,0,7.6,0,10.3,5c2.1-3.5,6-5.5,10-5.2
		c4.3,0.3,12.4,0,15.5-1.7c0.8-0.5,1.8-0.5,2.6,0c0.8,0.5,1.3,1.3,1.3,2.3v6.8c0,10.8-8.2,19.8-18.7,20.9c1.1,3.7,4.5,6.3,8.5,6.3
		h81.7c1.4,0,2.6,1.2,2.6,2.6l0,1.9c0,17.4-6,32.4-17,42.3C120.8,123.8,108.2,128.1,93.4,128.1z"/>
	<path fill="#FFFFFF" d="M68.1,133.3c-9.2,0-16.6-3.5-17-3.7c-0.9-0.4-1.4-1.3-1.5-2.2c-0.1-1,0.4-1.9,1.2-2.4
		c0.1-0.1,10.2-6.7,11.8-16.6c0.2-1.4,1.6-2.4,3-2.2c1.4,0.2,2.4,1.6,2.2,3c-1.3,7.8-6.6,13.8-10.3,17.1c4.6,1.4,12.3,2.8,19.7,0.1
		c6.8-2.5,12.2-8.1,15.9-16.5c0.6-1.3,2.2-1.9,3.5-1.4c1.3,0.6,1.9,2.2,1.4,3.5c-4.3,9.9-10.7,16.4-19,19.4
		C75.3,132.8,71.5,133.3,68.1,133.3z"/>
	<path fill="#FFFFFF" d="M109.5,98.8c-1.4,0-2.6-1.1-2.6-2.6c0-1.5,1.1-2.7,2.6-2.7c26.8-0.6,32.4-22.6,32.5-22.8
		c0.3-1.4,1.8-2.3,3.2-2c1.4,0.3,2.3,1.8,2,3.2C147,72.1,140.3,98.1,109.5,98.8C109.5,98.8,109.5,98.8,109.5,98.8z"/>
	<circle fill="#FFFFFF" cx="96.9" cy="91.6" r="3.3"/>
</g>
</svg>
